<svg xmlns="http://www.w3.org/2000/svg">
<defs>
<font id="4b28f1ba181832a340eac53c60bbfeea" horiz-adv-x='1024' >
  <font-face 
    font-family="Vollkorn-Bold"
    font-weight="700"
    font-stretch="normal"
    units-per-em="2048"
    panose-1="0 0 8 0 0 0 0 0 0 0"
    ascent="1536"
    descent="-512"
    x-height="942"
    cap-height="1391"
    bbox="-1507 -954 6259 2236"
    underline-thickness="116"
    underline-position="-598"
    unicode-range="U+0020-1D550"
  />
<missing-glyph horiz-adv-x="929" 
d="M700 616h21v-20h-21v20zM373 657h20v-41h21v41h20v21h21v-41h20v-41h-102v61zM250 698h61v-61h-61v61zM332 616v103h-103v-103h103zM578 739h20v-20h-20v20zM209 739h143v-143h-143v143zM618 698v62h-61v-62h61zM680 780h20v-20h21v-41h-21v-21h-20v21h20v41h-20v-21h-21
v21h21v20zM209 780h61v-20h-61v20zM209 821h20v21h21v-41h-41v20zM270 842h41v20h62v-41h-21v-20h-20v-21h41v-20h20v-21h-20v21h-82v41h41v20h20v21h-20v-21h-41v-20h-21v41zM270 883h21v-21h-21v21zM209 944h61v-20h41v20h41v-20h-20v-21h41v-20h-62v20h-82v-20h21v-21
h-41v82zM496 985h20v-20h-20v20zM618 1067h62v-61h-62v61zM516 1067h21v-20h20v-21h-20v21h-21v20zM250 1067h61v-61h-61v61zM700 985v102h-102v-102h102zM332 985v102h-103v-102h103zM578 1108h143v-143h-143v143zM209 1108h143v-143h-143v143zM741 575v553h-553v-553h553z
M104 1386h721v-1386h-721v1386zM455 637h-21v-21h21v21zM680 821v-20h-41v20h41zM680 821v21h20v20h21v-61h-21v20h-20zM639 616h20v-20h-20v20zM639 616h-61v21h-21v-41h-20v41h20v20h-41v-41h-20v41h20v41h-20v21h-21v-41h-20v20h-21v-20h-41v20h-20v21h20v-21h21v21h-21
v20h21v41h-41v41h20v62h21v-82h20v41h21v20h-21v41h-41v21h-20v102h41v41h-41v41h20v-21h21v21h61v-41h21v-20h20v-21h-20v-20h-21v-103h21v-20h-21v20h-20v-20h20v-62h-20v-41h20v-41h41v103h21v20h-41v21h20v41h21v82h20v-62h82v-20h-21v-21h-40v21h-41v-21h20v-102h-20
v-21h61v41h-20v41h20v21h41v41h20v-21h21v41h41v-61h-21v20h-20v-20h-21v-21h-41v-82h21v-41h20v-20h-20v-21h20v-20h41v-21h21v-20h-41v20h-41v-41zM516 739v-20h21v20h-21zM455 1026h20v41h-20v20h-21v-40h21v-21zM455 1026h-21v-20h-41v-62h21v41h20v-61h21v102zM578 637

<glyph glyph-name="f_f" unicode="ff" horiz-adv-x="1540" 
d="M745 1296q-115 0 -170 -58t-55 -206v-114h428v69q0 94 27 180q-80 129 -230 129zM789 1430q179 0 305 -76q127 113 331 112q161 0 258 -61q-14 -115 -10 -262q-71 -28 -186 -23q0 96 -33 152.5t-94 56.5t-87 -60.5t-26 -213.5v-137h226q0 -96 -21 -136q-106 0 -205 -26
v-398q0 -168 62.5 -199.5t142.5 -37.5q14 -41 14 -127q-106 6 -329 6t-340 -6q0 84 14 127q57 4 86 21.5t40 59.5t11 126v438q-90 20 -210 20t-218 -30v-398q0 -98 14.5 -146t47 -66.5t98.5 -24.5q14 -41 14 -127q-106 6 -309 6t-315 -6q0 82 12 127q57 4 86 21.5t41 59.5
t12 126v436q-84 23 -158 22q0 90 29 132h129v53q0 143 70.5 246.5t194.5 158t303 54.5z" />
    <glyph glyph-name="f_f_i" unicode="ffi" horiz-adv-x="2207" 
d="M948 991q0 92 31 168q-76 137 -234 137q-115 0 -170 -58t-55 -206v-114h428v73zM1999 299q0 -102 27.5 -138t99.5 -40q14 -39 14 -127q-88 6 -305 6t-287 -6q0 74 15 127q55 4 84.5 19.5t41 51t11.5 105.5v319q0 61 -22.5 111.5t-189.5 52.5t-241 -22v-418
q0 -155 42 -184t102 -35q12 -39 12 -127q-106 6 -307 6t-299 -6q0 86 14 127q57 4 86 20.5t40 58.5t11 124v448q-90 20 -210 20t-218 -30v-404q0 -98 14.5 -146t47 -66.5t98.5 -24.5q14 -41 14 -127q-106 6 -309 6t-315 -6q0 82 12 127q57 4 86 21.5t41 59.5t12 126v436
q-84 23 -158 22q0 90 29 132h129v53q0 143 70.5 246.5t194.5 158t304 54.5t324 -89q164 125 414 125t420 -69q-16 -98 -17 -240q-102 -52 -266 -43q-8 119 -48.5 169t-150.5 50q-220 0 -219 -278v-137h330q219 5 362 38q59 -27 60 -102v-555z" />
    <glyph glyph-name="f_f_l" unicode="ffl" horiz-adv-x="2211" 
d="M752 1298q-115 0 -173.5 -62t-58.5 -204v-114h428v69q0 98 31 174q-75 137 -227 137zM1530 1466q147 0 260 -51q109 18 164 53q61 -25 61 -108v-1061q0 -102 26.5 -138t102.5 -40q13 -39 13 -127q-88 6 -297 6t-295 -6q0 82 14 127q82 4 109.5 40t27.5 138v836
q0 96 -62 146t-172 50q-234 0 -235 -276v-137h226q0 -96 -21 -136q-106 0 -205 -26v-398q0 -92 12.5 -140t45 -69.5t96.5 -27.5q14 -41 14 -127q-106 6 -304 6t-314 -6q0 84 14 127q57 4 86 21.5t40 59.5t11 126v438q-90 20 -210 20t-218 -30v-398q0 -98 14.5 -146t47 -66.5
t98.5 -24.5q14 -41 14 -127q-106 6 -309 6t-315 -6q0 82 12 127q57 4 86 21.5t41 59.5t12 126v436q-84 23 -158 22q0 90 29 132h129v53q0 143 70.5 246.5t194.5 158t301 54.5t327 -87q161 123 416 123z" />
    <glyph glyph-name="f_f_t.liga" unicode="fft" horiz-adv-x="2312" 
d="M520 1012v-94h428v28q0 100 35 187q-77 143 -238 143q-115 0 -170 -58.5t-55 -205.5zM1530 1425q162 0 282 -65q94 23 140 47q61 -25 61 -109v-380h250q0 -72 -18 -132q-137 -2 -232 -32v-414q0 -121 24.5 -166t86.5 -45t119 35q30 -37 30 -103q-41 -35 -116.5 -57
t-153.5 -22q-147 0 -218 75.5t-71 249.5v455q-63 25 -151 26q0 72 24 130h127v176q0 96 -63 146t-171 50t-170.5 -64.5t-62.5 -211.5v-96h226q0 -96 -21 -136q-106 0 -205 -26v-398q0 -168 62.5 -199.5t142.5 -37.5q14 -41 14 -127q-106 6 -329 6t-340 -6q0 84 14 127
q57 4 86 21.5t40 59.5t11 126v444q-90 20 -210 20t-218 -30v-404q0 -98 14.5 -146t47 -66.5t98.5 -24.5q14 -41 14 -127q-106 6 -309 6t-315 -6q0 82 12 127q57 4 86 21.5t41 59.5t12 126v436q-84 23 -158 22q0 90 29 132h129v32q0 143 70.5 246.5t194.5 158t305 54.5
t335 -96q159 112 404 112z" />
    <glyph glyph-name="f_i.liga" unicode="fi" horiz-adv-x="1480" 
d="M63 788q0 82 31 130h127v73q0 139 70.5 247t206.5 168t300 60t256.5 -19.5t166.5 -49.5q-16 -98 -17 -240q-106 -52 -266 -43q-8 119 -48 169t-150 50q-220 0 -220 -278v-137h342q211 4 350 38q57 -25 58 -102v-555q0 -102 28.5 -138t100.5 -40q14 -39 14 -127
q-88 6 -305 6t-287 -6q0 82 13 127q57 4 98 26.5t41 149.5v319q0 61 -23 113.5t-178 52.5q-61 0 -142 -8t-110 -16v-418q0 -155 42 -184t100 -35q12 -34 12 -127q-104 6 -305 6t-299 -6q0 86 12 127q57 4 98 27.5t41 175.5v432q-83 32 -158 32z" />
    <glyph glyph-name="f_j.liga" unicode="fj" horiz-adv-x="1384" 
d="M63 788q0 82 31 130h127v73q0 139 70.5 247t206.5 168t300 60t256.5 -19.5t166.5 -49.5q-16 -98 -17 -240q-106 -52 -266 -43q-8 119 -48 169t-150 50q-220 0 -220 -278v-137h342q211 4 350 38q58 -24 58 -102v-739q0 -150 -62.5 -275t-157 -213t-192.5 -137
q-59 30 -74 111q111 117 150 215t39 250v550q0 59 -22 110.5t-171 55.5q-190 0 -260 -24v-418q0 -155 42 -184t100 -35q12 -34 12 -127q-104 6 -305 6t-299 -6q0 86 12 127q57 4 98 27.5t41 175.5v432q-83 32 -158 32z" />
    <glyph glyph-name="f_l.liga" unicode="fl" horiz-adv-x="1484" 
d="M790 1466q149 0 269 -49q113 18 168 51q59 -23 59 -108v-1061q0 -102 27.5 -138t101.5 -40q15 -45 15 -127q-88 6 -297 6t-295 -6q0 88 14 127q82 4 109.5 40t27.5 138v836q0 96 -63.5 146t-171.5 50t-171 -64.5t-63 -211.5v-137h225q0 -96 -20 -136q-111 0 -205 -26
v-398q0 -92 12.5 -140t44 -69.5t95.5 -27.5q16 -39 16 -127q-106 6 -306 6t-312 -6q0 82 12 127q57 4 86 21.5t41 59.5t12 126v436q-84 23 -158 22q0 90 29 132h129v69q0 158 78 265.5t209.5 160.5t281.5 53z" />
    <glyph glyph-name="f_t.liga" unicode="ft" horiz-adv-x="1583" 
d="M798 1425q157 0 285 -63q90 16 140 45q61 -25 61 -109v-380h250q0 -72 -18 -132q-137 -4 -232 -32v-414q0 -121 24.5 -166t87.5 -45t120 35q26 -37 30 -103q-41 -35 -117.5 -57t-154.5 -22q-145 0 -216 76.5t-71 248.5v455q-63 25 -151 26q0 77 24 130h127v176
q0 96 -62.5 146t-171 50t-171 -64.5t-62.5 -211.5v-96h225q0 -96 -20 -136q-111 0 -205 -26v-398q0 -168 82 -210q43 -22 123 -27q14 -41 14 -127q-109 6 -333 6t-336 -6q0 82 12 127q57 4 86 21.5t41 59.5t12 126v436q-84 23 -158 22q0 90 29 132h129v28q0 158 78 265.5
t210 160.5t289 53z" />
    <glyph glyph-name="longs_t.liga" unicode="&#x17f;t" horiz-adv-x="1544" 
d="M946 1094q0 196 -203 196q-111 0 -167 -65.5t-56 -210.5v-656q0 -168 62.5 -199.5t142.5 -37.5q14 -41 14 -127q-109 6 -333 6t-336 -6q0 82 12 127q57 4 86 21.5t41 59.5t12 126v436q-84 23 -158 22q0 90 29 132h129v28q0 152 69.5 259.5t192.5 163.5t282 56t279 -65
q94 23 140 47q61 -25 61 -109v-380h250q0 -72 -18 -132q-137 -2 -232 -32v-414q0 -121 24.5 -166t86.5 -45t119 35q30 -37 30 -103q-41 -35 -116.5 -57t-153.5 -22q-147 0 -218 75.5t-71 249.5v455q-63 25 -151 26q0 72 24 130h127v176z" />
    <glyph glyph-name="longs_h.liga" unicode="&#x17f;h" horiz-adv-x="2050" 
d="M1567 528q1 230 -143 230q-66 0 -139 -63.5t-73 -264.5v-131q0 -100 28 -139t89 -39q16 -45 17 -127q-88 6 -290 6t-294 -6q0 82 16 127q80 0 107.5 37t27.5 141v836q0 98 -54 147t-149 49t-142.5 -63.5t-47.5 -212.5v-697q0 -170 42 -200.5t100 -36.5q14 -41 14 -127
q-106 6 -300 6t-306 -6q0 82 12 127q57 4 86 21.5t41 59.5t12 126v436q-84 23 -158 22q0 90 29 132h129v69q0 156 72 264.5t189.5 161.5t253.5 53t249 -49q113 18 168 51q59 -25 59 -108v-516q0 -55 -20 -123q40 121 147 173t197 52q141 0 234.5 -81t93.5 -253v-313
q0 -100 22.5 -139t79.5 -39q19 -45 19 -127q-184 6 -322 6t-229 -6q0 84 14 127q59 0 89 43t30 149v215z" />
    <glyph glyph-name="longs_i.liga" unicode="&#x17f;i" horiz-adv-x="1460" 
d="M1096 0q-209 0 -295 -6q0 82 14 127q82 4 109.5 40t27.5 138v326q0 76 -29.5 107.5t-121.5 35.5q0 78 22 121q100 0 211 21.5t158 45.5q59 -25 59 -108v-549q0 -102 27 -138t102 -40q12 -39 13 -127q-88 6 -297 6zM63 788q0 82 31 130h127v73q0 139 70.5 247t206.5 168
t300 60t256.5 -19.5t166.5 -49.5q-16 -98 -17 -240q-106 -52 -266 -43q-8 119 -48 169t-150 50q-220 0 -220 -278v-715q0 -155 42 -184t100 -35q12 -34 12 -127q-104 6 -305 6t-299 -6q0 86 12 127q57 4 98 27.5t41 175.5v432q-83 32 -158 32z" />
    <glyph glyph-name="longs_longs.liga" unicode="&#x17f;&#x17f;" horiz-adv-x="1443" 
d="M762 1430q168 0 280 -74q129 110 309 110t277 -61q-14 -115 -10 -262q-71 -28 -186 -23q0 98 -33 153.5t-94.5 55.5t-87 -60.5t-25.5 -213.5v-697q0 -168 62.5 -199.5t142.5 -37.5q14 -41 14 -127q-107 6 -333 6t-330 -6q0 82 12 127q55 4 94 29t39 178v436
q-84 23 -158 22q0 86 29 132h129v69q0 111 37 211q-82 100 -215 100q-96 0 -145.5 -60t-49.5 -206v-674q0 -177 46 -204t108 -33q14 -41 14 -127q-106 6 -306 6t-312 -6q0 82 12 127q57 4 86 21.5t41 59.5t12 126v436q-84 23 -158 22q0 90 29 132h129v53q0 143 67.5 246.5
t186.5 158t287 54.5z" />
    <glyph glyph-name="uni04070407.rlig" unicode="&#x407;&#x407;" horiz-adv-x="1572" 
d="M1335 1059v-731q0 -153 41 -178t99 -29q12 -43 12 -127q-104 6 -296 6t-319 -6q0 74 15 127q57 4 85.5 21.5t40 59.5t11.5 126v731q0 84 -11.5 124t-39 57t-86.5 24q-14 45 -15 127q104 -7 298 -7t317 7q0 -91 -14 -127q-57 -6 -86 -22.5t-40.5 -57.5t-11.5 -125z
M549 1059v-731q0 -84 12 -126t41 -59.5t86 -21.5q12 -43 12 -127q-104 6 -296 6t-318 -6q0 74 14 127q57 4 86 21.5t40.5 59.5t11.5 126v731q0 84 -11.5 124t-39 57t-87.5 24q-14 45 -14 127q104 -7 298 -7t316 7q0 -91 -14 -127q-57 -6 -86 -22.5t-40 -57.5t-11 -125z
M1235 1622q0 63 44 98t113.5 35t114.5 -38t45 -96t-36.5 -100t-115.5 -42t-122 40t-43 103zM846 1612q0 58 39 100.5t117 42.5t117.5 -39t39.5 -99t-44.5 -99t-112.5 -39t-112 37.5t-44 95.5zM410 1622q0 63 44 98t113.5 35t115.5 -38t46 -96t-37.5 -100t-115.5 -42t-122 40
t-44 103zM20 1612q0 58 39 100.5t117 42.5t118 -39t40 -99t-44 -99t-112 -39t-113 37.5t-45 95.5z" />
    <glyph glyph-name="uni04570457.rlig" unicode="&#x457;&#x457;" horiz-adv-x="1435" 
d="M938 299v326q0 76 -29.5 107.5t-122.5 35.5q0 78 23 121q100 0 210.5 21.5t158.5 45.5q59 -25 59 -108v-549q0 -102 26.5 -138t102.5 -40q12 -39 12 -127q-88 6 -297 6t-295 -6q1 82 15 127q82 4 109.5 40t27.5 138zM221 299v326q0 76 -29.5 107.5t-121.5 35.5
q0 78 22 121q100 0 211 21.5t158 45.5q59 -25 59 -108v-549q0 -102 26.5 -138t102.5 -40q12 -39 13 -127q-88 6 -297 6t-295 -6q0 82 14 127q82 4 109.5 40t27.5 138zM1149 1211q0 66 44 103.5t116 37.5t118 -39t46 -102t-37 -106.5t-118 -43.5t-125 42t-44 108zM756 1202
q0 62 40 106t118 44t119.5 -41t41.5 -105t-44.5 -104.5t-114.5 -40.5t-115 39.5t-45 101.5zM342 1211q0 66 44 103.5t115 37.5t117 -39t46 -102t-37 -106.5t-118 -43.5t-124 42t-43 108zM-53 1202q0 62 39.5 106t119.5 44t120 -41t40 -105t-45 -104.5t-115 -40.5
t-114.5 39.5t-44.5 101.5z" />
    <glyph glyph-name=".notdef" horiz-adv-x="929" 
d="M700 616h21v-20h-21v20zM373 657h20v-41h21v41h20v21h21v-41h20v-41h-102v61zM250 698h61v-61h-61v61zM332 616v103h-103v-103h103zM578 739h20v-20h-20v20zM209 739h143v-143h-143v143zM618 698v62h-61v-62h61zM680 780h20v-20h21v-41h-21v-21h-20v21h20v41h-20v-21h-21
v21h21v20zM209 780h61v-20h-61v20zM209 821h20v21h21v-41h-41v20zM270 842h41v20h62v-41h-21v-20h-20v-21h41v-20h20v-21h-20v21h-82v41h41v20h20v21h-20v-21h-41v-20h-21v41zM270 883h21v-21h-21v21zM209 944h61v-20h41v20h41v-20h-20v-21h41v-20h-62v20h-82v-20h21v-21
h-41v82zM496 985h20v-20h-20v20zM618 1067h62v-61h-62v61zM516 1067h21v-20h20v-21h-20v21h-21v20zM250 1067h61v-61h-61v61zM700 985v102h-102v-102h102zM332 985v102h-103v-102h103zM578 1108h143v-143h-143v143zM209 1108h143v-143h-143v143zM741 575v553h-553v-553h553z
M104 1386h721v-1386h-721v1386zM455 637h-21v-21h21v21zM680 821v-20h-41v20h41zM680 821v21h20v20h21v-61h-21v20h-20zM639 616h20v-20h-20v20zM639 616h-61v21h-21v-41h-20v41h20v20h-41v-41h-20v41h20v41h-20v21h-21v-41h-20v20h-21v-20h-41v20h-20v21h20v-21h21v21h-21
v20h21v41h-41v41h20v62h21v-82h20v41h21v20h-21v41h-41v21h-20v102h41v41h-41v41h20v-21h21v21h61v-41h21v-20h20v-21h-20v-20h-21v-103h21v-20h-21v20h-20v-20h20v-62h-20v-41h20v-41h41v103h21v20h-41v21h20v41h21v82h20v-62h82v-20h-21v-21h-40v21h-41v-21h20v-102h-20
v-21h61v41h-20v41h20v21h41v41h20v-21h21v41h41v-61h-21v20h-20v-20h-21v-21h-41v-82h21v-41h20v-20h-20v-21h20v-20h41v-21h21v-20h-41v20h-41v-41zM516 739v-20h21v20h-21zM455 1026h20v41h-20v20h-21v-40h21v-21zM455 1026h-21v-20h-41v-62h21v41h20v-61h21v102zM578 637
h40v20h-20v21h-20v-41z" />
    <glyph glyph-name=".null" horiz-adv-x="0" 
 />
    <glyph glyph-name="nonmarkingreturn" horiz-adv-x="681" 
 />
    <glyph glyph-name="space" unicode=" " horiz-adv-x="409" 
 />
    <glyph glyph-name="exclam" unicode="!" horiz-adv-x="841" 
d="M422 -16q-78 0 -123 44t-45 118t50 119.5t125 45.5t120 -47.5t45 -115.5t-47 -116t-125 -48zM584 1386q0 -10 -4 -43q-45 -354 -76 -839q-61 -20 -158 -21q-35 487 -98 906q66 8 148.5 30.5t133.5 46.5q54 -15 54 -80z" />
    <glyph glyph-name="quotedbl" unicode="&#x22;" horiz-adv-x="780" 
d="M655 1358q-12 -94 -34 -354l-9 -101q-84 0 -123 21l-4 53q-16 301 -41 436q92 14 160 53q53 -12 53 -77zM340 1348q-14 -90 -37 -326l-12 -117q-89 0 -117 23q-14 289 -51 485q94 12 170 53q25 -6 39 -29.5t12 -47.5z" />
    <glyph glyph-name="numbersign" unicode="#" horiz-adv-x="1249" 
d="M817 895h-305l-68 -344h306zM1198 1042q0 -88 -27 -147h-210l-68 -344h229q0 -80 -28 -148h-230l-82 -421q-98 6 -135 47l74 374q-219 0 -305 -2l-82 -419q-99 9 -135 55l71 364l-110 -2q-80 0 -111 -2q0 94 29 154h221l68 342q-86 0 -217 -4q0 86 28 153h217l84 424
q105 -9 135 -49l-73 -375h305l82 424q43 -2 82 -15t53 -30l-74 -379h209z" />
    <glyph glyph-name="dollar" unicode="$" horiz-adv-x="1144" 
d="M791 288.5q0 61.5 -40 105.5t-116 85q0 -231 2 -354q78 14 116 58t38 105.5zM377 1118q0 -111 135 -190v340q-63 -10 -99 -49t-36 -101zM121 1004q0 180 106.5 279t284.5 116v135q86 0 141 -29l-2 -104q94 -8 181.5 -33t136.5 -55q0 -195 14 -293q-68 -33 -182 -33
q-37 226 -150 270q-2 -127 -2 -399q141 -68 222 -117t141.5 -135t60.5 -215q0 -170 -111.5 -279.5t-324.5 -125.5l2 -164q-94 0 -141 28v134q-203 10 -404 120q25 127 25 322q72 20 188 20q10 -156 52 -231.5t139 -89.5v422q-115 53 -193 107q-184 126 -184 350z" />
    <glyph glyph-name="percent" unicode="%" horiz-adv-x="1767" 
d="M1389 301q0 92 -36.5 152.5t-90.5 60.5t-88.5 -55t-34.5 -143t36.5 -149t88.5 -61t88.5 51.5t36.5 143.5zM936 302q0 85 40 163t117 124t181 46t174 -45t105.5 -117.5t35.5 -156.5t-39 -162t-112.5 -124t-177.5 -46t-177 44t-110 116.5t-37 157.5zM631 1053
q0 92 -37 152.5t-90 60.5t-88 -55.5t-35 -143.5t37 -148.5t89 -60.5t88 51.5t36 143.5zM178 1054q0 85 40 162.5t118 123.5t181 46t173 -45t105.5 -116.5t35.5 -156.5t-38.5 -163t-112.5 -124t-178 -46t-177 44t-110 117t-37 158zM387 -14q-78 8 -119 75l1121 1344
q83 -8 131 -59z" />
    <glyph glyph-name="ampersand" unicode="&#x26;" horiz-adv-x="1589" 
d="M403 476q0 -163 74 -249t194 -86t220 105q-70 86 -137 163t-187 220q-63 82 -78 102q-86 -92 -86 -255zM903 1094q-19 247 -160 247t-141 -147q0 -82 59.5 -204t407.5 -521q94 167 94 256q0 45 -31.5 67.5t-105.5 38.5q-18 59 -18 113q61 -6 222 -6t220 6q0 -68 -14 -113
q-68 -20 -95.5 -51.5t-64.5 -142.5t-119 -268l88 -95q58 -61 105 -81.5t129 -24.5q0 -88 -21 -148q-185 0 -356 -38q-41 55 -123 157q-84 -84 -177 -121.5t-218 -37.5q-238 0 -356.5 118.5t-118.5 311.5q0 283 301 442q-95 159 -95 300q0 142 104.5 229t314.5 87t360 -73
q-22 -115 -13 -281q-68 -20 -178 -20z" />
    <glyph glyph-name="quotesingle" unicode="'" horiz-adv-x="468" 
d="M123 1413q99 8 166 53q53 -12 57 -77q0 -4 -14 -89t-33 -399q-80 0 -125 27q-10 254 -51 485z" />
    <glyph glyph-name="parenleft" unicode="(" horiz-adv-x="665" 
d="M319 520q0 -632 263 -1052q-41 -27 -109 -23q-182 215 -291.5 482.5t-109.5 562.5t96 535.5t295 492.5q57 2 106 -37q-133 -207 -191.5 -427t-58.5 -534z" />
    <glyph glyph-name="parenright" unicode=")" horiz-adv-x="665" 
d="M594 500q0 -296 -108.5 -567t-292.5 -488q-70 -4 -107 23q139 227 199.5 462.5t60.5 559.5t-58.5 556t-189.5 435q43 37 105 37q196 -250 293.5 -486t97.5 -532z" />
    <glyph glyph-name="asterisk" unicode="*" horiz-adv-x="980" 
d="M856 1224q0 -56 -4 -104q-147 31 -307 45q66 -92 186 -243q-98 -80 -215 -93q-14 129 -53 301q-78 -94 -178 -243q-109 70 -142 166q115 55 263 147q-119 47 -283 92q31 119 110 187q88 -96 218 -207q4 51 4 149t-4 152q123 4 219 -45q-66 -113 -133 -271q167 46 290 93
q29 -70 29 -126z" />
    <glyph glyph-name="plus" unicode="+" 
d="M1038 598q0 -100 -24 -145q-164 2 -377 2v-426q-42 -25 -152 -25q4 135 4 451q-133 0 -403 -4q0 94 25 147h378q0 229 -2 410q57 24 150 24v-434h401z" />
    <glyph glyph-name="comma" unicode="," horiz-adv-x="595" 
d="M262 -80q0 84 -123 100q0 104 25 187q137 12 217 63q49 -16 70.5 -57t21.5 -145t-61.5 -229.5t-163.5 -219.5q-80 4 -121 45q135 152 135 256z" />
    <glyph glyph-name="hyphen" unicode="-" horiz-adv-x="858" 
d="M123 434q0 104 35 182h577q1 -98 -26 -170q-369 0 -586 -12z" />
    <glyph glyph-name="period" unicode="." horiz-adv-x="587" 
d="M111 159q0 81 55 131t136 50t131 -51t50 -126t-51 -128t-136 -53t-135 48t-50 129z" />
    <glyph glyph-name="slash" unicode="/" horiz-adv-x="788" 
d="M63 25l537 1439q72 -4 133 -49l-532 -1433q-95 10 -138 43z" />
    <glyph glyph-name="zero" unicode="0" horiz-adv-x="1263" 
d="M684 125q98 0 152.5 98.5t54.5 218.5t-37 223t-104.5 171.5t-163.5 68.5t-157.5 -98t-61.5 -219t37.5 -224.5t109.5 -171t170 -67.5zM637 -18q-156 0 -286 65.5t-205.5 188t-75.5 285.5t78.5 280t208.5 176t284 59t280 -60.5t198.5 -177t72.5 -278.5t-74 -284.5
t-199.5 -188t-281.5 -65.5z" />
    <glyph glyph-name="one" unicode="1" horiz-adv-x="823" 
d="M408 0q-190 0 -299 -6q0 78 12 127q59 6 89 23.5t41 58.5t11 125v372q0 84 -11 125t-41 57.5t-89 20.5q-12 55 -12 127q98 -6 304 -6t304 6q0 -76 -15 -127q-59 -4 -100 -27.5t-41 -175.5v-370q0 -88 11.5 -131t41 -59.5t88.5 -18.5q14 -45 15 -127q-119 6 -309 6z" />
    <glyph glyph-name="two" unicode="2" horiz-adv-x="1062" 
d="M478 0q-190 0 -345 -4q-39 55 -39 149q88 86 312 279q123 106 165.5 174t42.5 144t-37.5 119.5t-110.5 43.5t-110 -56t-53 -208q-94 0 -162 25q6 53 6 138t-10 134q164 98 414 98q369 0 369 -254q0 -96 -57.5 -167.5t-211.5 -184.5q-123 -94 -207 -166h201
q72 0 102.5 7.5t44 30t19.5 75.5q98 0 141 -17q0 -190 23 -294q-25 -70 -101 -70q-206 4 -396 4z" />
    <glyph glyph-name="three" unicode="3" horiz-adv-x="1044" 
d="M519 1024q144 0 372 6q41 -55 35 -129q-158 -199 -338 -438q174 -2 275.5 -96.5t101.5 -270.5q0 -131 -67 -232.5t-193.5 -157.5t-268.5 -56q-249 0 -362 96q8 66 53 109q88 -66 223 -66t220 71.5t85 183.5t-56 171t-163 59q-33 0 -65 -12q-47 54 -43 117
q195 240 301 391h-193q-63 0 -96 -11t-55.5 -42t-44.5 -99q-90 0 -136 35q25 134 25 377q246 -6 390 -6z" />
    <glyph glyph-name="four" unicode="4" horiz-adv-x="1243" 
d="M647 256v461l-332 -463zM1137 0h-189v-299q-144 0 -262 -51q-39 31 -39 102v248h-39q-252 0 -495 -14q-55 100 -56 188l691 862q106 4 200 -16v-764h137q64 0 95 -45q-43 -95 -43 -211z" />
    <glyph glyph-name="five" unicode="5" horiz-adv-x="985" 
d="M631 1024q100 0 100 106q45 14 139 15q-12 -119 -12 -332q-25 -49 -100 -49q-334 0 -447 -8l-35 -152q330 -57 477.5 -172t147.5 -319q0 -150 -81 -254.5t-207.5 -156.5t-284.5 -52t-240 55q0 63 35 111q57 -29 182 -29t206 71.5t81 192.5q0 240 -430 307q-45 45 -51 107
l127 567q188 -8 393 -8z" />
    <glyph glyph-name="six" unicode="6" horiz-adv-x="1130" 
d="M760 388q0 126 -69 201t-151 75t-159 -37q-6 -61 -6 -159t30.5 -183.5t78.5 -124.5t100 -39q86 0 131 70.5t45 196.5zM1059 446q0 -164 -70.5 -265t-182.5 -150t-237 -49q-498 0 -497 510q0 283 128 463t313 261.5t372 90.5q33 -33 28 -111q-223 -45 -348 -154.5
t-166 -298.5q125 66 256 66q189 0 296.5 -99.5t107.5 -263.5z" />
    <glyph glyph-name="seven" unicode="7" horiz-adv-x="978" 
d="M231 -219q0 125 54.5 276.5t144.5 311t240 391.5h-232q-70 0 -108.5 -11.5t-61 -43t-41.5 -95.5q-98 -2 -161 31q33 137 36 387q100 -4 360 -4t415 4q37 -43 41 -125q-182 -261 -255 -432q-74 -170 -97 -305t-23 -397q-136 -40 -246 -129q-66 16 -66 141z" />
    <glyph glyph-name="eight" unicode="8" horiz-adv-x="1120" 
d="M571 106q162 0 162 178q0 86 -65.5 161t-192.5 149q-51 -45 -71.5 -100.5t-20.5 -155.5t53 -166t135 -66zM707 986q0 103 -40.5 153.5t-104.5 50.5t-99 -37t-36 -107t43 -118.5t153 -110.5l8 -4q76 70 76 173zM96 311q0 224 248 361q-98 63 -151.5 136t-53.5 171
q0 150 111.5 238t307.5 88t310.5 -74t114.5 -205q0 -188 -221 -291q133 -86 197.5 -176t64.5 -217q0 -174 -121 -267t-343 -93t-343 87t-121 242z" />
    <glyph glyph-name="nine" unicode="9" horiz-adv-x="1136" 
d="M770 485q0 209 -58.5 312.5t-148.5 103.5t-140 -71.5t-50 -179.5t52 -210t198 -102q71 0 141 37q6 53 6 110zM1069 512q0 -270 -140.5 -459.5t-342 -287t-385.5 -111.5q-33 37 -29 115q459 131 565 481q-115 -62 -243 -62t-223 50.5t-148 139t-53 224.5t71.5 238t185 149
t244.5 47q246 0 372 -127t126 -397z" />
    <glyph glyph-name="colon" unicode=":" horiz-adv-x="587" 
d="M123 177q0 75 50 120t126 45t121 -47t45 -116t-47 -117t-126 -48t-124 44t-45 119zM123 751q0 75 50 119.5t126 44.5t121 -47.5t45 -115.5t-47 -116t-126 -48t-124 44t-45 119z" />
    <glyph glyph-name="semicolon" unicode=";" horiz-adv-x="608" 
d="M270 -80q0 84 -123 100q0 104 25 187q137 12 217 63q49 -16 70.5 -57t21.5 -145t-61.5 -229.5t-163.5 -219.5q-78 4 -121 45q135 152 135 256zM143 751q0 75 50.5 119.5t126.5 44.5t120.5 -47.5t44.5 -115.5t-47 -116t-126 -48t-124 44t-45 119z" />
    <glyph glyph-name="less" unicode="&#x3c;" 
d="M117 498q0 61 30 112l715 422q73 -18 133 -92l-706 -408l663 -348q6 -27 6 -83t-30 -93q-432 259 -807 447q-4 29 -4 43z" />
    <glyph glyph-name="equal" unicode="=" 
d="M1024 414q0 -86 -25 -146q-164 2 -437 2t-460 -4q0 95 27 148h895zM1022 776q0 -96 -25 -145q-164 2 -435 2t-458 -4q0 92 27 147h891z" />
    <glyph glyph-name="greater" unicode="&#x3e;" 
d="M999 528q0 -38 -30 -86q-290 -150 -738 -428q-59 55 -51 150l654 368l-678 406q43 80 118 104l719 -456q6 -20 6 -58z" />
    <glyph glyph-name="question" unicode="?" horiz-adv-x="1099" 
d="M412 159q0 81 55 131t136 50t131 -51t50 -126t-51 -128t-136 -53t-135 48t-50 129zM967 1224q0 -110 -40 -173.5t-120 -144.5t-119 -142.5t-39 -141.5t27 -163q-49 -29 -135 -29q-45 27 -77 100.5t-32 160.5t34 149t92 124t85 107t27 114t-37 112.5t-92 43.5t-89 -60
t-53 -210q-104 0 -168 35q12 161 0 270q177 90 363 90t279.5 -66t93.5 -176z" />
    <glyph glyph-name="at" unicode="@" horiz-adv-x="2045" 
d="M1038 827q-68 0 -119 -45.5t-51 -298.5q0 -158 29 -231.5t78 -73.5q39 0 102 84t97 377q0 51 4 137q-72 51 -140 51zM1098 -285q367 0 573 224q61 -19 84 -78q-94 -129 -280.5 -202t-405.5 -73q-289 0 -482.5 112t-287.5 309.5t-94 452.5t106.5 456.5t309.5 318.5
t463 117t426.5 -84t248.5 -228t82 -342t-67.5 -365t-183 -259t-253.5 -92q-82 0 -126 53t-44 147v62q-111 -262 -315 -262q-281 0 -281 432q0 156 55.5 279.5t148.5 193t203 69.5t220 -22q137 0 205 22q33 -16 43 -52t10 -144v-336q0 -199 18.5 -221.5t50.5 -22.5t73.5 55.5
t70.5 166t29 268t-66.5 283.5t-206 202t-359.5 76t-379 -97.5t-238.5 -267.5t-79.5 -383t78.5 -387t242.5 -277.5t408 -103.5z" />
    <glyph glyph-name="A" unicode="A" horiz-adv-x="1456" 
d="M821 504l-110 258q-53 121 -97 262q-41 -135 -90 -260l-102 -260h399zM1127.5 0q-197.5 0 -289.5 -6q0 82 14 127q94 19 94 67q0 26 -26 91l-48 110q-272 0 -499 -14l-27 -68q-20 -57 -20 -90q0 -84 98 -96q14 -49 14 -127q-70 6 -208 6t-195 -6q0 76 16 127q51 8 83 50
t81 163l430 1052q53 11 123 11l469 -1051q79 -174 117 -204q22 -18 53 -21q16 -55 16 -127q-98 6 -295.5 6z" />
    <glyph glyph-name="B" unicode="B" horiz-adv-x="1378" 
d="M946 375q0 154 -93 216t-253 62h-49v-325q0 -158 52 -181.5t112 -23.5q108 0 169.5 66.5t61.5 185.5zM641 1262q-45 0 -90 -17v-467h70q137 0 201.5 65.5t64.5 181.5t-72 176.5t-174 60.5zM1294 399q0 -184 -139 -291.5t-438 -107.5q-387 0 -631 -6q0 82 12 127
q57 4 87 21.5t41.5 61.5t11.5 134v721q0 84 -11.5 124t-40 57t-88.5 24q-12 49 -12 127q159 -12 410 -5l198 3q266 0 389 -73t123 -237q0 -127 -83 -215t-230 -108q401 -23 401 -357z" />
    <glyph glyph-name="C" unicode="C" horiz-adv-x="1314" 
d="M72 706q0 217 96 376t255 240t365.5 81t430.5 -107q-23 -129 -23 -317q-47 -25 -160 -25q-4 176 -69.5 250t-188.5 74q-193 0 -285 -149.5t-92 -397t118 -418t339 -170.5q165 0 342 103q37 -33 47 -90q-211 -174 -495 -174q-199 0 -353.5 91t-240.5 253.5t-86 379.5z" />
    <glyph glyph-name="D" unicode="D" horiz-adv-x="1505" 
d="M1110 682q0 315 -126 450.5t-320 135.5q-70 0 -113 -19v-905q0 -88 14.5 -134t50 -64.5t105.5 -18.5q168 0 278.5 120t110.5 435zM1434 727q0 -303 -133.5 -464t-302.5 -212t-326 -51q-297 0 -586 -6q0 82 12 127q57 4 87 21.5t41.5 61.5t11.5 134v721q0 84 -11.5 124
t-40 57t-88.5 24q-12 49 -12 127q123 -6 277 -6.5t188 1.5l127 3q342 0 549 -140.5t207 -521.5z" />
    <glyph glyph-name="E" unicode="E" horiz-adv-x="1282" 
d="M690 1264h-141v-508h59q111 0 151 31.5t42 121.5q61 20 145 21q-8 -135 -8 -241t8 -232q-94 0 -141 16q-8 92 -49 125t-148 33h-59v-287q1 -164 67 -198q36 -18 105 -19h24q193 -1 261 111q34 56 65 157q113 -16 156 -59q-41 -125 -64 -340q-205 4 -496.5 4t-580.5 -6
q0 82 12 127q57 4 87 21.5t41.5 61.5t11.5 134v721q0 84 -11.5 124t-40 57t-88.5 24q-12 39 -12 127q160 -6 519.5 -6.5t504.5 6.5q10 -215 43 -347q-61 -31 -156 -30q-18 119 -83.5 184.5t-223.5 65.5z" />
    <glyph glyph-name="F" unicode="F" horiz-adv-x="1212" 
d="M549 1264v-568h98q111 0 152 33t43 123q59 20 143 20q-6 -100 -6 -238t6 -237q-88 0 -139 17q-8 94 -49 126.5t-150 32.5h-98v-215q0 -90 19.5 -139t63.5 -70.5t124 -27.5q14 -41 14 -127q-106 6 -339 6t-345 -6q0 90 12 127q57 3 86 21q54 33 54 186v731q0 84 -11.5 124
t-39 57t-87.5 24q-14 45 -14 127q166 -6 527.5 -6.5t502.5 6.5q14 -229 43 -347q-57 -31 -155 -30q-16 119 -82 184.5t-224 65.5h-149z" />
    <glyph glyph-name="G" unicode="G" horiz-adv-x="1460" 
d="M1307 139q-209 -157 -561 -157q-186 0 -344 87t-244 250.5t-86 385t93 379t257 238.5t403.5 81t454.5 -103q-23 -129 -23 -317q-57 -25 -159 -25q-8 176 -85 247t-213 71t-226 -72q-174 -138 -175 -450q0 -182 48.5 -326.5t140.5 -227.5t229 -83t173 64q16 30 16 106v84
q0 78 -11.5 112.5t-43 48t-103.5 15.5q-14 45 -14 129q102 -6 254.5 -6t283.5 4q0 -80 -12 -127q-39 -2 -56.5 -14.5t-23.5 -43t-6 -100.5v-67q0 -108 33 -183z" />
    <glyph glyph-name="H" unicode="H" horiz-adv-x="1597" 
d="M1215.5 0q-191.5 0 -318.5 -6q0 78 16 127q57 4 85 21.5t39.5 59.5t11.5 126v321q-352 0 -500 -18v-303q0 -84 12 -126t41 -59.5t86 -21.5q12 -43 12 -127q-104 6 -295.5 6t-318.5 -6q0 74 14 127q57 4 86 21.5t40.5 59.5t11.5 126v731q0 84 -11.5 124t-39 57t-87.5 24
q-14 45 -14 127q104 -6 297.5 -6.5t316.5 6.5q0 -91 -14 -127q-57 -6 -86 -22.5t-40 -57.5t-11 -125v-281h500v281q0 84 -11.5 124t-39 57t-87.5 24q-14 45 -14 127q109 -6 301 -6.5t315 6.5q0 -82 -16 -127q-57 -6 -85 -22.5t-39 -57.5t-11 -125v-731q0 -84 11 -126
t40 -59.5t86 -21.5q14 -41 14 -127q-106 6 -297.5 6z" />
    <glyph glyph-name="I" unicode="I" horiz-adv-x="786" 
d="M549 1059v-731q0 -84 12 -126t41 -59.5t86 -21.5q12 -43 12 -127q-104 6 -295.5 6t-318.5 -6q0 74 14 127q57 4 86 21.5t40.5 59.5t11.5 126v731q0 84 -11.5 124t-39 57t-87.5 24q-14 45 -14 127q104 -6 297.5 -6.5t316.5 6.5q0 -91 -14 -127q-57 -6 -86 -22.5t-40 -57.5
t-11 -125z" />
    <glyph glyph-name="J" unicode="J" horiz-adv-x="747" 
d="M211 102v953q0 86 -11.5 128t-40 58t-85.5 23q-14 45 -15 127q74 -6 309 -6.5t308 6.5q0 -80 -17 -127q-57 -6 -85.5 -24.5t-39 -60.5t-10.5 -124v-787q0 -207 -35.5 -343t-140 -242.5t-305.5 -192.5q-47 33 -57 109q80 59 128 123q97 128 97 380z" />
    <glyph glyph-name="K" unicode="K" horiz-adv-x="1488" 
d="M549 328q0 -84 12 -126t41 -59.5t86 -21.5q12 -43 12 -127q-104 6 -295.5 6t-318.5 -6q0 74 14 127q57 4 86 21.5t40.5 59.5t11.5 126v731q0 84 -11.5 124t-39 57t-87.5 24q-14 45 -14 127q104 -6 297.5 -6.5t316.5 6.5q0 -91 -14 -127q-57 -6 -86 -22.5t-40 -57.5
t-11 -125v-307l325 331q88 88 89 138q0 39 -60 43q-14 43 -14 127q72 -6 243 -6.5t246 6.5q0 -78 -18 -127q-76 -4 -141.5 -41t-147.5 -125l-272 -283q160 -176 372 -485q74 -109 133.5 -153t153.5 -52q0 -86 -18 -125q-298 0 -432 -16q-82 156 -206 338t-253 319v-313z" />
    <glyph glyph-name="L" unicode="L" horiz-adv-x="1239" 
d="M656.5 0q-281.5 0 -570.5 -6q0 82 12 127q57 4 87 21.5t41.5 61.5t11.5 134v721q0 82 -11.5 123t-40 58t-88.5 24q-12 49 -12 127q371 -14 616 0q0 -88 -14 -127q-57 -6 -86 -22.5t-40 -58.5t-11 -128v-711q0 -88 14.5 -134t50 -64.5t105.5 -18.5h24q132 0 197.5 59.5
t110.5 208.5q113 -16 157 -59q-45 -141 -63 -340q-209 4 -490.5 4z" />
    <glyph glyph-name="M" unicode="M" horiz-adv-x="1982" 
d="M1674 0q-179 0 -351 -6q0 59 14 127q76 8 102.5 33.5t26.5 73t-8 141.5l-65 626l-402 -997q-41 -16 -123 -16l-452 1009l-56 -551q-8 -72 -8 -153.5t31 -120.5t104 -45q12 -47 13 -127q-76 6 -195.5 6t-261.5 -6q0 72 14 127q55 3 88 31q62 51 84 292l54 600q4 53 4 74
q0 82 -31 114t-104 32q-14 45 -15 127q80 -6 231 -6.5t222 6.5l434 -996l375 996q251 -16 459 0q0 -78 -15 -127q-74 0 -106.5 -35t-32.5 -123q0 -18 4 -68l66 -645q12 -115 27.5 -169t43 -74.5t82.5 -26.5q12 -47 12 -129q-86 6 -265 6z" />
    <glyph glyph-name="N" unicode="N" horiz-adv-x="1484" 
d="M1276 971v-971q-55 -16 -143 -16l-764 1015v-581q0 -119 12 -180.5t44 -87t95 -29.5q14 -41 15 -127q-88 6 -239 6t-228 -6q0 86 14 127q61 5 94 31q62 50 62 266v758l-21 26q-23 31 -49.5 43t-85.5 19q-14 51 -14 127q74 -6 218 -6.5t191 6.5l666 -899v479
q0 119 -12.5 178t-46 83.5t-101.5 31.5q-12 57 -12 127q90 -6 228 -6t214 6q0 -78 -12 -127q-51 -4 -78 -29t-37 -85t-10 -179z" />
    <glyph glyph-name="O" unicode="O" horiz-adv-x="1531" 
d="M1133 666q0 168 -50.5 307t-142.5 220t-209 81q-152 0 -242 -140.5t-90 -383.5q0 -172 45 -317.5t134.5 -231.5t218.5 -86q157 0 246.5 151.5t89.5 399.5zM72 699q0 210 89 370t246.5 247t359.5 87t359.5 -86t245.5 -242.5t88 -364.5t-87 -374t-245.5 -260t-365.5 -94
t-363.5 91t-241.5 253.5t-85 372.5z" />
    <glyph glyph-name="P" unicode="P" horiz-adv-x="1316" 
d="M920 912.5q0 160.5 -69 254t-210 93.5q-41 0 -92 -15v-887q0 -90 19.5 -139t63.5 -70.5t124 -27.5q14 -41 14 -127q-106 6 -339 6t-345 -6q0 90 12 127q57 3 86 21q54 33 54 186v731q0 84 -11.5 124t-39 57t-87.5 24q-14 45 -14 127q178 -6 309 -7l211 2q53 2 127 3
q512 0 512 -414q0 -141 -57.5 -255t-169 -179.5t-266.5 -65.5q-88 0 -142 21q-4 33 -4 61.5t15 58.5q33 -8 73 -8q99 0 162.5 72t63.5 232.5z" />
    <glyph glyph-name="Q" unicode="Q" horiz-adv-x="1531" 
d="M797 115q158 0 247 151.5t89 399.5q0 168 -50.5 307t-142.5 220t-209 81q-152 0 -242 -140.5t-90 -383.5q0 -172 45 -317.5t134.5 -231.5t218.5 -86zM764 -18q-209 0 -365.5 91t-241.5 253.5t-85 372.5t89 370t246.5 247t359.5 87t359.5 -86t245.5 -242.5t88 -380
t-113.5 -404.5t-310.5 -259q84 -27 190.5 -96.5t169 -96t154.5 -26.5l41 2q4 -74 -16 -133q-170 -27 -324 -97q-72 25 -119 72t-104 132t-111.5 133t-150.5 61h-2z" />
    <glyph glyph-name="R" unicode="R" horiz-adv-x="1439" 
d="M932 985q0 135 -67.5 208t-198.5 73q-66 0 -117 -17v-538q43 -8 76 -9q131 0 219 74t88 209zM1260 1027q0 -161 -86.5 -264.5t-231.5 -139.5q74 -47 120 -109.5t130 -222.5q55 -96 93 -127t120 -37q0 -72 -16 -127q-281 0 -398 -18q-57 106 -119 249l-22 52
q-47 106 -88 168.5t-107 123.5l-53 -2l-53 2v-235q1 -168 45 -198q24 -16 72 -21q12 -33 12 -127q-123 6 -299 6t-293 -6q0 78 12 127q57 3 86 21q54 33 54 186v733q0 84 -11.5 125t-40 57.5t-88.5 22.5q-12 41 -12 125q190 -6 303 -7l389 9q238 0 360 -102.5t122 -263.5z
" />
    <glyph glyph-name="S" unicode="S" horiz-adv-x="1144" 
d="M555 119q125 0 180.5 48t55.5 113.5t-34 107.5t-86.5 71.5t-163 80.5t-191 103.5t-138 140.5t-57.5 220q0 197 127 298t334 101q111 0 220 -26.5t167 -63.5q0 -195 14 -293q-68 -33 -182 -33q-29 162 -85.5 223.5t-146.5 61.5t-141 -40t-51 -108.5t38 -114.5t94 -79
t171 -86t196.5 -104.5t139 -137.5t57.5 -211q0 -184 -132 -296.5t-376.5 -112.5t-470.5 122q25 127 25 322q72 20 188 20q10 -180 66.5 -253.5t181.5 -73.5z" />
    <glyph glyph-name="T" unicode="T" horiz-adv-x="1349" 
d="M903 1260h-72v-932q0 -86 14.5 -127t51.5 -58.5t117 -21.5q16 -39 16 -127q-119 6 -358.5 6t-364.5 -6q0 72 19 127q80 4 119.5 21.5t56 59.5t16.5 126v932h-47q-121 0 -174 -60.5t-84 -198.5q-111 0 -162 27q43 210 43 363q147 -6 551 -6.5t621 6.5q-5 -160 32 -363
q-61 -27 -163 -27q-16 135 -69.5 197t-162.5 62z" />
    <glyph glyph-name="U" unicode="U" horiz-adv-x="1406" 
d="M203 481v572q0 88 -10.5 128t-36 57t-82.5 26q-12 53 -13 127q82 -6 294.5 -6.5t308.5 6.5q0 -80 -13 -127q-61 -8 -87.5 -24.5t-37 -57.5t-10.5 -129v-539q0 -193 66.5 -292t203.5 -99t207 82q37 47 54.5 126t17.5 232v432q1 189 -53 235q-28 24 -86 34q-10 59 -11 127
q76 -6 209 -6.5t211 6.5q0 -74 -12 -127q-53 -8 -79 -32q-48 -43 -48 -226v-447q0 -184 -25.5 -290.5t-93.5 -174.5q-119 -113 -333 -112.5t-328.5 53.5t-163.5 161.5t-49 284.5z" />
    <glyph glyph-name="V" unicode="V" horiz-adv-x="1429" 
d="M514 1188q0 -39 98.5 -275.5t192.5 -529.5q152 350 268 682q20 61 21 96q0 88 -99 103q-14 49 -12 127q76 -6 207 -6t205 6q0 -68 -17 -127q-55 -12 -91 -60.5t-81 -163.5q-170 -440 -424 -1042q-43 -14 -139 -14q-229 614 -420 1038q-82 185 -111.5 210t-64.5 32
q-16 49 -12 127q92 -6 292 -6.5t306 6.5q0 -66 -12 -127q-57 -6 -82 -21.5t-25 -54.5z" />
    <glyph glyph-name="W" unicode="W" horiz-adv-x="2033" 
d="M498 1181q0 -42 64.5 -234t148.5 -480l319 919q43 14 135 15q172 -432 357 -952l161 522q31 102 31 161t-31.5 90t-101.5 42q-16 43 -16 127q86 -6 219 -6t215 6q0 -80 -17 -127q-38 -12 -62 -40q-45 -51 -108 -255l-296 -971q-46 -16 -158 -16q-147 416 -352 936
l-320 -922q-45 -14 -158 -14q-141 475 -319 1024q-43 121 -63.5 170t-40 64t-58.5 20q-12 39 -12 131q98 -6 305 -6.5t295 6.5q0 -70 -14 -127q-66 -6 -94.5 -23.5t-28.5 -59.5z" />
    <glyph glyph-name="X" unicode="X" horiz-adv-x="1437" 
d="M1078.5 0q-211.5 0 -335.5 -4q0 74 13 125q41 6 59.5 15t18.5 44.5t-95 198.5l-96 162l-121 -176q-86 -129 -86 -167.5t21.5 -52.5t68.5 -24q12 -49 13 -127q-104 6 -250 6t-230 -6q0 94 17 131q76 18 140.5 70.5t141.5 162.5l211 299q-259 414 -319 490t-84.5 91
t-63.5 24q-16 49 -16 129q277 -16 625 -2q0 -59 -13 -125q-43 -8 -63.5 -21.5t-20.5 -45.5t68 -140l129 -199l109 170q74 121 73.5 160t-21 54t-63.5 22q-12 45 -12 127q273 -16 453 0q0 -78 -13 -127q-53 -14 -87 -35q-66 -42 -167 -195l-194 -297q66 -104 169 -275
t147 -230.5t77 -81t80 -29.5q16 -43 16 -127q-88 6 -299.5 6z" />
    <glyph glyph-name="Y" unicode="Y" horiz-adv-x="1294" 
d="M500 362v158l-310 623q-31 61 -63.5 89t-77.5 32q-14 45 -14 125q80 -4 302 -4.5t296 4.5q0 -68 -12 -123q-80 -12 -80 -66q0 -35 32 -104q98 -207 187 -426q78 186 146.5 333.5t68.5 186.5q0 63 -88 74q-16 59 -17 125q63 -4 199 -4t193 4q0 -61 -15 -123
q-47 -10 -87 -53.5t-85 -141.5l-262 -557v-141q0 -109 13.5 -157t49 -67.5t119.5 -27.5q18 -53 19 -127q-160 6 -361 6l-364 -6q0 82 18 127q92 8 130 25.5t50.5 62.5t12.5 153z" />
    <glyph glyph-name="Z" unicode="Z" horiz-adv-x="1241" 
d="M600 0q-324 0 -483 -6q-31 47 -31 110l78 132q361 607 584 1028h-191q-78 0 -125 -22.5t-78.5 -83t-56.5 -177.5q-121 0 -172 25q45 157 45 383q94 -4 438 -4.5t477 4.5q33 -45 35 -111q-315 -604 -651 -1155h180q111 0 171.5 21.5t96 78t62.5 172.5q111 -10 170 -49
q-42 -169 -47 -352q-178 6 -502 6z" />
    <glyph glyph-name="bracketleft" unicode="[" horiz-adv-x="602" 
d="M276 1518q131 0 216 2q24 -43 24 -129q-104 -8 -151.5 -23.5t-65.5 -49.5t-18 -108v-1462q0 -68 19 -101.5t62.5 -47t131.5 -17.5q22 -49 22 -133q-152 4 -212 4t-232 -4v2071q73 -2 204 -2z" />
    <glyph glyph-name="backslash" unicode="\" horiz-adv-x="806" 
d="M657 -14q-49 0 -57 2l-545 1464q39 12 89 12t57 -4l542 -1460q-37 -14 -86 -14z" />
    <glyph glyph-name="bracketright" unicode="]" horiz-adv-x="602" 
d="M298 -547q-60 0 -212 -4q0 85 23 133q88 4 131 17.5t62.5 47.5t19.5 101v1462q0 74 -18.5 108t-66 49t-151.5 24q0 90 23 129q86 -2 217 -2t204 2v-2071q-172 4 -232 4z" />
    <glyph glyph-name="asciicircum" unicode="^" 
d="M1047 829q-54 -43 -142 -34l-340 483q-258 -303 -405 -510q-74 55 -82 121l418 528q49 25 133 21q192 -303 418 -609z" />
    <glyph glyph-name="underscore" unicode="_" 
d="M1079 -166q0 -90 -26 -137q-154 2 -184 2h-332l-326 -2l-164 -2q0 88 27 139h1005z" />
    <glyph glyph-name="grave" unicode="`" horiz-adv-x="614" 
d="M362 1094q-144 213 -264 325q117 51 275 45q57 -190 143 -348q-51 -27 -154 -22z" />
    <glyph glyph-name="a" unicode="a" horiz-adv-x="1124" 
d="M373 270q0 -55 27.5 -82.5t70.5 -27.5t85 28q95 64 95 222v53q-139 -25 -208.5 -66t-69.5 -127zM550.5 958q215.5 0 307.5 -92t92 -342v-176q0 -70 8.5 -103.5t33 -48t77.5 -16.5q2 -12 2 -50t-18 -81q-168 -6 -305 -67q-66 26 -66 118q0 20 8 78q-84 -194 -325 -192
q-139 0 -215 59t-76 170q0 174 163.5 249t413.5 109q0 90 -9 136.5t-36 76.5q-45 51 -114 52q-143 0 -162 -230q-120 0 -172 21q4 53 4 112.5t-17 132.5q190 84 405.5 84z" />
    <glyph glyph-name="b" unicode="b" horiz-adv-x="1234" 
d="M614 104q93 0 168.5 83t75.5 292q0 139 -53 224t-140 85t-148.5 -85t-61.5 -263v-266q66 -70 159 -70zM156 352v785q0 76 -30 107.5t-122 35.5q0 78 23 121q100 0 210.5 21.5t155.5 45.5q61 -25 62 -108v-434q0 -78 -13 -140q23 35 50 58q41 43 112.5 77.5t157.5 34.5
q186 0 294.5 -107.5t108.5 -324.5q0 -158 -69.5 -280.5t-197.5 -192t-290 -69.5t-298 39.5t-201 105.5q47 55 47 225z" />
    <glyph glyph-name="c" unicode="c" horiz-adv-x="958" 
d="M70 465q0 127 55 239.5t162.5 182t239 69.5t214 -21.5t150.5 -64.5q-20 -96 -21 -254q-59 -27 -161 -26q-6 117 -49.5 179t-120 62t-123.5 -91t-47 -241t70.5 -256t203.5 -106t217 80q43 -39 49 -98q-114 -137 -340.5 -137t-362.5 123.5t-136 359.5z" />
    <glyph glyph-name="d" unicode="d" horiz-adv-x="1253" 
d="M622.5 834q-91.5 0 -167.5 -83t-76 -292q0 -141 52 -225t139 -84t148.5 84.5t61.5 261.5v268q-66 70 -157.5 70zM807 95q0 48 12 100q-33 -61 -76 -101q-37 -43 -110.5 -77.5t-159.5 -34.5q-186 0 -294.5 107.5t-108.5 324.5q0 156 70.5 279.5t198.5 193t294 69.5
q78 0 147 -20v201q0 76 -28.5 107.5t-122.5 35.5q0 78 22 121q102 0 212 20.5t157 46.5q59 -25 59 -108v-1014q0 -70 8.5 -103.5t34 -47t78.5 -15.5l2 -30q0 -57 -20 -101q-168 -9 -310 -67q-35 14 -50 39.5t-15 73.5z" />
    <glyph glyph-name="e" unicode="e" horiz-adv-x="1050" 
d="M698 541q0 137 -40 212.5t-114.5 75.5t-120.5 -72.5t-50 -215.5h325zM70 463q0 145 59 256.5t168 174t252 62.5q211 0 316.5 -117.5t113.5 -320.5q-12 -59 -51 -98q-352 0 -547 -10q18 -127 86 -200t192 -73q72 0 141.5 25.5t117.5 70.5q20 -12 35.5 -42.5t17.5 -63.5
q-153 -145 -403.5 -145t-374 133t-123.5 348z" />
    <glyph glyph-name="f" unicode="f" horiz-adv-x="811" 
d="M944 1242.5q0 -76.5 2 -99.5q-71 -28 -186 -23q0 98 -33 153.5t-94.5 55.5t-87 -60.5t-25.5 -213.5v-137h225q0 -96 -20 -136q-111 0 -205 -26v-398q0 -168 82 -210q43 -22 123 -27q14 -41 14 -127q-109 6 -333 6t-336 -6q0 82 12 127q57 4 86 21.5t41 59.5t12 126v436
q-84 23 -158 22q0 90 29 132h129v69q0 156 63.5 263.5t171.5 161.5t214 54q189 0 286 -61q-12 -86 -12 -162.5z" />
    <glyph glyph-name="g" unicode="g" horiz-adv-x="1130" 
d="M303 -217q0 -156 215 -156q127 0 202 48.5t75 121.5q-1 37 -21 57q-36 36 -227 37q-143 4 -203 15q-41 -49 -41 -123zM518 846q-133 0 -133 -212q0 -104 43 -165q44 -61 114 -61q138 0 138 198q0 111 -43 175.5t-119 64.5zM971 610q0 -143 -115 -233t-332 -90
q-76 0 -143 12q-37 -33 -37 -64.5t34 -47t92 -18.5t225 -5t263.5 -54.5t96.5 -180.5t-75 -226t-212 -155.5t-313 -57.5q-396 0 -396 252q0 146 150 209q-88 51 -88 173t121 224q-152 88 -152 258t109.5 260t308.5 90q88 0 162 -18h385q20 -51 20 -160q-88 31 -192 41
q88 -96 88 -209z" />
    <glyph glyph-name="h" unicode="h" horiz-adv-x="1343" 
d="M858 528q0 230 -153 230q-82 0 -140.5 -87t-58.5 -241v-131q0 -102 26.5 -140t88.5 -38q18 -40 18 -127q-88 6 -290 6t-294 -6q0 88 17 127q80 0 107.5 37t27.5 141v838q0 76 -30 107.5t-122 35.5q0 78 23 121q100 0 210.5 21.5t155.5 45.5q61 -25 62 -108v-516
q0 -45 -21 -123q4 6 19.5 40t51.5 73.5t109.5 75.5t163.5 36q141 0 234.5 -82t93.5 -252v-313q0 -100 22.5 -139t80.5 -39q16 -39 16 -127q-178 6 -316.5 6t-234.5 -6q0 84 16 127q59 0 88 43t29 149v215z" />
    <glyph glyph-name="i" unicode="i" horiz-adv-x="729" 
d="M221 299v326q0 76 -29.5 107.5t-121.5 35.5q0 78 22 121q100 0 211 21.5t158 45.5q59 -25 59 -108v-549q0 -102 26.5 -138t102.5 -40q12 -39 13 -127q-88 6 -297 6t-295 -6q0 82 14 127q82 4 109.5 40t27.5 138zM176 1263q0 69 50 110.5t131 41.5t127 -41t46 -108
t-50 -109.5t-130 -42.5t-127 40t-47 109z" />
    <glyph glyph-name="j" unicode="j" horiz-adv-x="638" 
d="M215 59v566q0 76 -28.5 107.5t-123.5 35.5q0 78 23 121q102 0 212 20.5t157 46.5q59 -25 59 -108v-723q0 -223 -124 -387t-288 -248q-28 14 -48.5 44t-24.5 67q106 113 146 212t40 246zM170 1263q0 69 50 110.5t131 41.5t127 -41t46 -108t-50 -109.5t-130 -42.5t-127 40
t-47 109z" />
    <glyph glyph-name="k" unicode="k" horiz-adv-x="1249" 
d="M506 299q0 -98 22.5 -136t81.5 -42q14 -39 15 -127q-92 6 -288 6t-282 -6q0 82 15 127q82 4 109.5 40t27.5 138v838q0 76 -30 107.5t-122 35.5q0 78 23 121q100 0 210.5 21.5t155.5 45.5q61 -25 62 -108v-825l141 124q100 90 101 123q0 31 -58 35q-20 61 -20 125
q135 -4 246.5 -4t234.5 4q0 -76 -21 -125q-78 -6 -132 -31.5t-128 -93.5l-127 -117q135 -129 299 -342q48 -61 81.5 -82.5t90.5 -25.5q0 -76 -20 -125q-215 0 -332 -18q-142 215 -356 454v-137z" />
    <glyph glyph-name="l" unicode="l" horiz-adv-x="702" 
d="M207 299v850q0 68 -32 97.5t-120 33.5q0 78 23 121q100 0 210.5 21.5t155.5 45.5q61 -25 62 -108v-1061q0 -102 26.5 -138t102.5 -40q12 -39 12 -127q-88 6 -297 6t-295 -6q1 82 15 127q82 4 109.5 40t27.5 138z" />
    <glyph glyph-name="m" unicode="m" horiz-adv-x="1990" 
d="M866 549q0 213 -140 213q-64 0 -110 -40q-98 -87 -98 -288v-127q0 -139 46 -167q24 -16 73 -19q16 -47 16 -127q-66 6 -294 6t-289 -6q0 80 16 127q57 4 85 19.5t39 51t11 107.5v287q0 74 -9 109.5t-41 52t-99 20.5q0 74 24 121q94 0 202 20.5t159 46.5q59 -17 59 -108
q0 -37 -18 -127q35 80 59 104q47 55 121 92t167 37t169 -41t112 -122q18 -33 21 -66q29 61 68.5 106t109.5 78t154 33q325 0 325 -348v-240q0 -182 38 -212q22 -16 67 -21q16 -49 16 -127q-70 6 -256 6t-295 -6q0 76 15 127q45 5 71 23q48 34 47 200v188q0 125 -36.5 175.5
t-116.5 50.5t-136.5 -85t-56.5 -243v-123q0 -106 24.5 -144t96.5 -42q16 -41 16 -127q-68 6 -281.5 6t-287.5 -6q0 84 16 127q51 3 76 21q45 32 45 212v195z" />
    <glyph glyph-name="n" unicode="n" horiz-adv-x="1357" 
d="M973.5 0q-138.5 0 -234.5 -6q0 84 17 127q59 0 87.5 43t28.5 149v215q0 125 -37.5 177.5t-117.5 52.5t-138.5 -87t-58.5 -241v-131q0 -102 26.5 -140t90.5 -38q16 -45 16 -127q-88 6 -289.5 6t-293.5 -6q0 88 16 127q80 0 107.5 37t27.5 141v303q0 63 -10 96t-41 49.5
t-98 20.5q0 80 24 121q109 2 211.5 21.5t153.5 45.5q59 -23 59 -112q0 -55 -20 -123q4 6 19.5 40t51 73.5t109.5 75.5t164 36q141 0 234 -81t93 -253v-313q0 -100 23 -139t80 -39q16 -39 16 -127q-178 6 -316.5 6z" />
    <glyph glyph-name="o" unicode="o" horiz-adv-x="1175" 
d="M799 422q0 133 -32 224t-85 138t-117 47q-90 0 -138 -86t-48 -247.5t61.5 -273t160.5 -111.5t148.5 88t49.5 221zM70 459q0 154 67.5 266.5t186 171.5t268.5 59q248 0 381 -131t133 -348q0 -150 -64.5 -262.5t-183.5 -172.5t-276 -60q-244 0 -378 128t-134 349z" />
    <glyph glyph-name="p" unicode="p" horiz-adv-x="1300" 
d="M679 104q93 0 169 83t76 292q0 133 -49.5 221t-139.5 88t-152.5 -85t-62.5 -261v-268q66 -70 159 -70zM520 -137q0 -171 82 -211q43 -22 123 -27q14 -41 14 -127q-106 6 -330.5 6t-338.5 -6q0 80 12 127q57 4 86 21.5t41 59.5t12 126v770q0 63 -10 96t-41 49.5t-98 20.5
q0 80 24 121q109 2 211.5 21.5t153.5 45.5q59 -23 59 -112q0 -25 -8 -51q25 33 45 51q41 43 112.5 77.5t157.5 34.5q186 0 295 -105.5t109 -318.5q0 -160 -70.5 -285.5t-198.5 -195t-294 -69.5q-74 0 -148 20v-139z" />
    <glyph glyph-name="q" unicode="q" horiz-adv-x="1232" 
d="M780 481v281q-20 29 -61 50.5t-86 21.5q-113 0 -183.5 -95.5t-70.5 -269.5q0 -317 199 -317q49 0 95 33.5t76.5 107.5t30.5 188zM895 -496q-258 0 -330 -6q0 84 15 127q84 6 126 24.5t58 63.5t16 135v148q0 119 29 217q-39 -78 -79 -119t-113.5 -69.5t-155.5 -28.5
q-174 0 -282.5 113.5t-108.5 312.5q0 156 70.5 276.5t197.5 189t288 68.5q326 0 496 -145q-25 -53 -35 -113.5t-10 -177.5v-665q0 -94 10.5 -140.5t38 -65t84.5 -24.5q15 -45 15 -127q-72 6 -330 6z" />
    <glyph glyph-name="r" unicode="r" horiz-adv-x="978" 
d="M520 459v-101q0 -168 82 -210q43 -22 123 -27q14 -41 14 -127q-109 6 -333 6t-336 -6q0 82 12 127q57 4 86 21.5t41 59.5t12 126v274q0 63 -10 96t-41 49.5t-98 20.5q0 80 24 121q109 2 211.5 21.5t153.5 45.5q59 -23 59 -105.5t-33 -203.5q33 100 52 129
q103 166 261 166q81 0 144 -49q-18 -119 -18 -201t2 -100q-59 -23 -174 -23q-4 144 -88 144q-31 0 -66 -36t-57.5 -95.5t-22.5 -122.5z" />
    <glyph glyph-name="s" unicode="s" horiz-adv-x="950" 
d="M490 956q183 0 313 -65q-2 -27 -2 -93.5t8 -123.5q-59 -37 -158 -37q-10 84 -59 139t-135 55q-47 0 -75 -23.5t-28 -59.5t14 -58q31 -47 180 -105.5t213 -100.5t92 -92t28 -120q0 -137 -116 -213.5t-321 -76.5t-366 71q8 51 8 128t-6 126q63 35 164 35q10 -111 63 -169
t124.5 -58t109 27.5t37.5 74.5t-39 79t-151 76t-174 83q-128 81 -128 223.5t110.5 210t293.5 67.5z" />
    <glyph glyph-name="t" unicode="t" horiz-adv-x="774" 
d="M174 307v455q-59 25 -149 26q0 76 22 130h127v251q68 8 136.5 37t111.5 64q31 -12 41 -37t10 -90v-225h252q0 -66 -20 -132q-137 -4 -232 -32v-414q0 -121 24.5 -166t87.5 -45t120 35q27 -37 30 -103q-41 -35 -117.5 -57t-154.5 -22q-148 0 -218.5 75.5t-70.5 249.5z" />
    <glyph glyph-name="u" unicode="u" horiz-adv-x="1255" 
d="M877 -18q-66 26 -66 110q0 45 10 103q-83 -207 -348 -207q-156 0 -233.5 87t-77.5 290v237q0 63 -8.5 96t-36 49.5t-86.5 20.5q0 78 22 121q106 2 201.5 21.5t146.5 45.5q59 -23 60 -112v-430q0 -137 28.5 -194.5t105.5 -57.5t133 83t56 242v125q0 63 -11 96
q-22 66 -138 70q0 82 22 121q260 4 367 57q59 -23 59 -112v-498q0 -70 8.5 -103.5t33 -47t77.5 -15.5q2 -12 2 -50t-18 -81q-172 -6 -309 -67z" />
    <glyph glyph-name="v" unicode="v" horiz-adv-x="1144" 
d="M310.5 938q193.5 0 291.5 6q0 -61 -20 -127q-101 -7 -101 -53q0 -29 64.5 -172t118.5 -297q59 156 139 340q29 75 29 109q-1 66 -95 73q-23 59 -22 127q80 -6 201.5 -6t201.5 6q0 -88 -22 -127q-53 -12 -83 -47t-67 -125l-280 -639q-53 -27 -138 -26q-23 0 -34 2
q-57 139 -164 370.5t-152 320.5t-69.5 111.5t-65.5 32.5q-18 55 -18 127q92 -6 285.5 -6z" />
    <glyph glyph-name="w" unicode="w" horiz-adv-x="1611" 
d="M294.5 938q146.5 0 278.5 6q0 -72 -18 -127q-47 -4 -65.5 -15t-18.5 -33.5t18 -88.5q63 -186 103 -350l239 604q41 14 132 14q133 -313 247 -626l88 294q38 134 -4 172q-24 22 -71 29q-20 55 -21 127q80 -6 190.5 -6t194.5 6q0 -72 -22 -127q-49 -12 -74 -48t-59 -140
l-209 -629q-39 -18 -170 -18l-49 116q-130 310 -179 453l-239 -551q-39 -18 -172 -18q-143 445 -250 714q-23 59 -49.5 85t-69.5 34q-20 55 -20 129q123 -6 269.5 -6z" />
    <glyph glyph-name="x" unicode="x" horiz-adv-x="1165" 
d="M1010 0h-119q-276 0 -352 -4q0 82 14 125q59 6 59 45t-110 201l-49 -72q-61 -94 -62 -135q0 -35 43 -39q14 -41 15 -125q-63 4 -197.5 4t-196.5 -4q0 78 21 125q36 1 62 17q53 31 157 184l104 151q-171 273 -236 319q-30 22 -79 25q-20 61 -21 125q74 -4 282 -4t288 4
q0 -68 -12 -125q-33 -2 -48.5 -9t-15.5 -31t49 -97l68 -96l63 98q47 76 47 96t-12 27.5t-39 11.5q-18 49 -18 125q63 -4 191 -4t184 4q0 -70 -19 -125q-47 -4 -75.5 -26.5t-82.5 -98.5l-139 -203q78 -102 138.5 -197t96 -130t85.5 -37q16 -49 16 -127q-35 2 -100 2z" />
    <glyph glyph-name="y" unicode="y" horiz-adv-x="1150" 
d="M281.5 -510q-68.5 0 -122 23.5t-81.5 58.5q-4 29 -4 77t20 113q94 -29 176.5 -28.5t126 24t80.5 80.5q14 20 47 92q-156 369 -317 701q-51 106 -84 140t-82 44q-16 55 -16 129q117 -6 293 -6t300 6q0 -76 -20 -129q-57 -10 -81.5 -25.5t-24.5 -49.5t62 -160.5t124 -290.5
l127 321q31 80 31 120t-22.5 58.5t-72.5 26.5q-18 49 -18 129q94 -6 202.5 -6t200.5 6q0 -80 -20 -129q-51 -12 -80 -46t-70 -128l-301 -717q-139 -336 -249 -401q-56 -33 -124.5 -33z" />
    <glyph glyph-name="z" unicode="z" horiz-adv-x="1044" 
d="M627 127q70 0 104.5 19.5t51 68.5t22.5 143q78 6 160 -16q0 -203 16 -301q-18 -45 -82 -45q-100 0 -160 2l-231 2q-229 0 -377 -4q-39 56 -39 121q240 319 492 696h-127q-61 0 -95 -17.5t-53.5 -60.5t-36.5 -129q-109 -4 -168 25q18 139 19 313q127 -6 396 -6t399 6
q28 -36 28 -110q-219 -349 -489 -707h170z" />
    <glyph glyph-name="braceleft" unicode="{" horiz-adv-x="778" 
d="M260 1130q0 86 46.5 208t338.5 194q31 -31 31 -102q-98 -33 -136 -96.5t-37 -140.5t25 -208q23 -131 23 -192q0 -115 -59.5 -189t-215.5 -100q154 -31 214.5 -108t61.5 -169t-19.5 -231t-20.5 -216q0 -179 176 -231q6 -23 6 -53t-26 -65q-236 51 -321 167.5t-85 284.5
l14 277q-2 111 -45 182.5t-159 108.5q0 74 10 98q196 65 198 251q0 80 -10 162t-10 168z" />
    <glyph glyph-name="bar" unicode="|" horiz-adv-x="393" 
d="M270 1462q0 -240 -2 -387l-2 -596l2 -577q2 -145 2 -381q-38 -23 -147 -23v1938q43 26 147 26z" />
    <glyph glyph-name="braceright" unicode="}" horiz-adv-x="778" 
d="M84 -504q0 30 6 53q178 55 178 237q0 76 -20 210t-21 197q0 121 59.5 200.5t215.5 110.5q-152 27 -212.5 99.5t-60.5 160.5q-1 88 23 223t24 209q0 176 -174 234q0 72 33 102q290 -72 336.5 -193.5t46.5 -222.5l-18 -282q0 -106 41 -176t155 -109q10 -25 11 -98
q-119 -39 -161 -114t-42 -194l12 -260q0 -170 -84 -285.5t-321 -166.5q-27 35 -27 65z" />
    <glyph glyph-name="asciitilde" unicode="~" 
d="M776 551q91 0 178 113q53 -13 86 -62q-131 -231 -280 -231q-49 0 -91 18q-43 18 -105 54q-62 35 -103 53t-86 18q-113 0 -211 -149q-64 28 -78 75q139 246 299 246q81 0 205 -70q61 -33 102 -49t84 -16z" />
    <glyph glyph-name="uni00A0" unicode="&#xa0;" horiz-adv-x="409" 
 />
    <glyph glyph-name="exclamdown" unicode="&#xa1;" horiz-adv-x="841" 
d="M258 -446q0 10 4 43q45 354 76 839q61 20 158 21q35 -487 98 -906q-66 -8 -149 -30.5t-134 -46.5q-53 15 -53 80zM420 956q78 0 123 -44t45 -118t-51 -119.5t-125 -45.5t-119 47.5t-45 115.5t47 116t125 48z" />
    <glyph glyph-name="cent" unicode="&#xa2;" horiz-adv-x="958" 
d="M369 494q0 -201 116 -301v624q-116 -63 -116 -323zM70 465q0 119 48 225.5t142 177t225 84.5v295q99 0 148 -28l-2 -267q154 -12 260 -82q-20 -96 -21 -254q-59 -27 -161 -26q-8 156 -80 213v-666h16q131 0 215 80q43 -39 49 -98q-96 -115 -280 -133l4 -273
q-95 0 -148 23v250q-188 20 -301.5 142t-113.5 337z" />
    <glyph glyph-name="sterling" unicode="&#xa3;" horiz-adv-x="1187" 
d="M705 367q64 0 127 -33t100 -33t72 53q38 -6 74 -26.5t55 -44.5q-131 -156 -183 -301q-109 0 -194 32q-121 53 -178.5 69.5t-116.5 16.5q-168 0 -293 -116q-57 31 -82 100q119 94 172 188.5t53 214.5q0 61 -12 107l-98 -2q-74 0 -99 -2q0 80 29 139h119
q-41 86 -59.5 146.5t-18.5 158.5t56.5 184.5t165 135.5t238.5 49q262 0 386 -68q-8 -74 -8 -163t2 -123q-71 -31 -193 -31q-12 137 -56 194.5t-123 57.5t-119 -47t-40 -115t17.5 -112t64.5 -120t62 -147h229q0 -82 -27 -137l-204 4q-35 -162 -222 -358q188 129 304 129z" />
    <glyph glyph-name="currency" unicode="&#xa4;" horiz-adv-x="1138" 
d="M795 516q0 66 -32 127.5t-87 100t-136 38.5t-140.5 -65.5t-59.5 -171.5q0 -66 31.5 -129.5t88 -103.5t137.5 -40t139.5 68t58.5 176zM569 160q-113 0 -204 59l-115 -117q-70 2 -111 48l140 147q-82 103 -82 225q0 121 61 209l-135 135q41 47 106 54l109 -107
q100 76 227 76t223 -68l103 107q68 -16 102 -58l-127 -125q70 -96 70 -219t-72 -219l152 -147q-33 -47 -109 -56l-125 123q-100 -67 -213 -67z" />
    <glyph glyph-name="yen" unicode="&#xa5;" horiz-adv-x="1294" 
d="M500 362v25h-305q0 80 24 131h281v2l-68 135h-231q0 78 20 131h146l-177 357q-31 61 -63.5 89t-77.5 32q-14 45 -14 125q80 -4 302 -4.5t296 4.5q0 -68 -12 -123q-80 -12 -80 -66q0 -35 32 -104q98 -207 187 -426q78 186 146.5 333.5t68.5 186.5q0 63 -88 74
q-16 59 -17 125q63 -4 199 -4t193 4q0 -61 -15 -123q-47 -10 -87 -53.5t-85 -141.5l-135 -285h182q0 -68 -22 -131h-221l-64 -137h303q0 -72 -24 -131h-281v-14q0 -109 13.5 -157t49 -67.5t119.5 -27.5q18 -53 19 -127q-160 6 -361 6l-364 -6q0 82 18 127q92 8 130 25.5
t50.5 62.5t12.5 153z" />
    <glyph glyph-name="brokenbar" unicode="&#xa6;" horiz-adv-x="391" 
d="M264 -54q0 -280 4 -421q-45 -27 -145 -27v840q60 29 145 29q-4 -141 -4 -421zM264 1066q0 -263 4 -392q-70 -29 -145 -29v791q55 29 145 28q-4 -135 -4 -398z" />
    <glyph glyph-name="section" unicode="&#xa7;" horiz-adv-x="1173" 
d="M330 561q0 -51 30 -110.5t244 -171.5l55 -31q86 22 121 67t35 96.5t-30.5 109.5t-266.5 177l-49 27q-139 -43 -139 -164zM550 -496q-189 0 -310 76q6 61 6 135t-6 140q55 18 139 18q29 -240 190 -240q74 0 115 33t41 86t-31 106t-272 169q-180 90 -256 192.5t-76 239.5
q0 251 252 354q-82 70 -114.5 148.5t-32.5 174.5t47 168t133 115t196 43q197 0 308 -67q-9 -161 2 -258q-66 -20 -140 -21q-37 217 -174 217q-72 0 -113.5 -35.5t-41.5 -85.5t30 -102t242 -151q211 -99 292 -199.5t81 -240.5q0 -257 -266 -361q84 -70 117.5 -147t33.5 -181
q0 -143 -101.5 -234.5t-290.5 -91.5z" />
    <glyph glyph-name="dieresis" unicode="&#xa8;" horiz-adv-x="614" 
d="M379 1211q0 66 44 103.5t115 37.5t116.5 -39t45.5 -102t-36.5 -106.5t-116.5 -43.5t-124 42t-44 108zM-86 1201.5q0 62.5 40 106.5t119 44t119.5 -41t40.5 -105.5t-45 -104.5t-114.5 -40t-114.5 39t-45 101.5z" />
    <glyph glyph-name="copyright" unicode="&#xa9;" horiz-adv-x="1656" 
d="M827 809q-158 0 -157 -307q0 -154 53 -254.5t170 -100.5t205 89q43 -28 47 -86q-123 -139 -334 -140q-106 0 -198.5 53.5t-147.5 157t-55 243.5t54 244.5t154 162t210 57.5t176.5 -19.5t136.5 -60.5q-14 -86 -15 -234q-41 -25 -116 -24q-10 102 -52.5 160.5t-130.5 58.5z
M238 471q0 -164 77.5 -299t213 -212t299 -77t299 78t213 213t77.5 298t-77.5 298t-213.5 213t-298 78t-297.5 -78t-214 -213t-78.5 -299zM1534 472q0 -194 -94 -355.5t-256 -255.5t-358 -94t-356.5 93t-253.5 253.5t-93 356.5t93 357.5t255 255t356.5 93.5t356.5 -93.5
t256 -255t94 -355.5z" />
    <glyph glyph-name="ordfeminine" unicode="&#xaa;" horiz-adv-x="897" 
d="M315 952q0 -76 56 -75q45 0 79.5 49t34.5 139v37q-88 -16 -129 -45t-41 -105zM381 1376q-80 0 -96 -172q-92 0 -144 17q2 18 2 66t-10 104q137 80 287 79q96 0 150.5 -18t90.5 -57t50 -92.5t14 -151.5v-137q0 -53 6 -77t23.5 -34t58.5 -12q2 -11 2 -43t-16 -60
q-127 -4 -242 -53q-59 16 -59 78q0 16 10 72q-14 -58 -59 -94q-59 -53 -156 -54q-213 0 -213 181q0 121 105.5 180t299.5 92q0 66 -5 95.5t-21 51.5q-27 39 -78 39z" />
    <glyph glyph-name="guillemotleft" unicode="&#xab;" horiz-adv-x="1038" 
d="M754 528q80 -156 161 -274q-10 -25 -40.5 -54.5t-67.5 -47.5q-127 156 -272 301q0 70 20 131q125 117 240 256q82 -10 125 -47q-121 -185 -166 -265zM444 137q-212 227 -321 324q0 63 24 125q150 127 287 266q70 0 121 -41q-146 -178 -201 -266q82 -170 187 -309
q-30 -62 -97 -99z" />
    <glyph glyph-name="logicalnot" unicode="&#xac;" 
d="M1024 735v-475q-65 -37 -133 -37v371q-508 0 -789 -6q0 83 23 147h899z" />
    <glyph glyph-name="uni00AD" unicode="&#xad;" horiz-adv-x="858" 
d="M123 434q0 102 35 182h577q1 -98 -26 -170q-369 0 -586 -12z" />
    <glyph glyph-name="registered" unicode="&#xae;" horiz-adv-x="1099" 
d="M551 1190q67 0 67 81t-65 81q-14 0 -47 -9v-147q25 -6 45 -6zM721 1286q0 -104 -88 -135q61 -52 106 -150q-43 -14 -80 -14l-28 2q-27 80 -74 137l-51 2v-137q-33 -4 -49.5 -4t-48.5 4v406q70 20 147 20q166 0 166 -131zM879 1197q0 91 -43 167t-118 119t-167 43
t-168 -43t-119 -119t-43 -167t43 -166t119 -118t168 -43t167 43t118 118t43 166zM977 1196q0 -119 -56.5 -216t-153.5 -153.5t-215 -56.5t-216 56.5t-155.5 153.5t-57.5 216t56.5 217t154.5 155.5t217 57.5t216 -57.5t153.5 -155.5t56.5 -217z" />
    <glyph glyph-name="macron" unicode="&#xaf;" horiz-adv-x="614" 
d="M690 1292q0 -59 -18 -104q-385 0 -750 -14q1 75 19 118h749z" />
    <glyph glyph-name="degree" unicode="&#xb0;" horiz-adv-x="845" 
d="M437 989q98 0 98 159q0 81 -34 132t-84 51t-78 -39.5t-28 -111.5t40 -131.5t86 -59.5zM417 885q-136 0 -215 76.5t-79 196.5t83 197t219 77t217 -75t81 -194t-85 -198.5t-221 -79.5z" />
    <glyph glyph-name="plusminus" unicode="&#xb1;" 
d="M1014 219q0 -91 -21 -135q-168 2 -436 2t-444 -4q0 92 20 137h881zM494 717q0 156 -2 287q48 20 145 20v-307h309q0 -97 -20 -137h-289v-273q-40 -20 -148 -20l3 108q2 63 2 185l-314 -5q0 92 21 142h293z" />
    <glyph glyph-name="uni00B2" unicode="&#xb2;" horiz-adv-x="776" 
d="M639 836q-51 0 -82 2l-197 2q-133 0 -260 -4q-24 39 -24 90q51 51 182 166q88 80 124 136t36 112t-23.5 87t-61.5 31t-58.5 -41t-32.5 -149q-84 0 -133 18q4 61 4 118t-7 112q120 55 258 55q296 0 295 -191q0 -124 -111 -207q-111 -84 -186 -149h107q63 0 86 19.5
t25 74.5q78 0 116 -12q0 -156 15 -229q-21 -41 -72 -41z" />
    <glyph glyph-name="uni00B3" unicode="&#xb3;" horiz-adv-x="798" 
d="M273 711q94 0 151 48t57 127t-37.5 122t-103.5 43q-25 0 -45 -7q-42 32 -51 84q135 168 186 244h-100q-53 0 -79 -19.5t-48 -78.5q-61 0 -99 20q20 123 21 260q47 -2 261 -2t251 2q23 -37 22 -86q-106 -123 -227 -297q119 4 198 -63.5t79 -196.5q0 -88 -48.5 -161.5
t-143.5 -116.5t-229 -43t-218 59q18 63 53 96q56 -34 150 -34z" />
    <glyph glyph-name="acute" unicode="&#xb4;" horiz-adv-x="614" 
d="M244 1085q-84 0 -144 29q92 182 129 334q72 27 183 27q74 -4 100 -11q-147 -176 -268 -379z" />
    <glyph glyph-name="uni00B5" unicode="&#xb5;" horiz-adv-x="1306" 
d="M854 111q0 33 12 90q-29 -72 -82 -117q-109 -96 -266 -96q-25 0 -65 4v-74q0 -180 30 -289q-134 -45 -243 -133q-39 14 -62 72q12 47 18 103q5 56 5 192v739q0 63 -10 96q-9 33 -36 50q-28 16 -85 20q0 82 20 121q106 2 202 21t146 46q59 -23 60 -112v-434
q0 -150 30 -205t92 -55q60 0 103 36t71 114q28 77 27 187v125q0 62 -11 96q-22 66 -136 70q0 82 20 121q262 4 367 57q59 -23 59 -112v-498q0 -69 9 -103t37 -49t89 -20q0 -76 -18 -125q-190 -4 -317 -67q-66 39 -66 129z" />
    <glyph glyph-name="paragraph" unicode="&#xb6;" horiz-adv-x="1208" 
d="M633 735v537q-137 -8 -194.5 -67.5t-57.5 -195t72.5 -205t173.5 -69.5h6zM1008 1059v-1540q-51 -27 -136 -27v1768q-51 8 -104 12l2 -1753q-51 -27 -137 -27v1124q-20 -2 -64 -2q-250 0 -371.5 86t-121.5 282t138 303.5t435 107.5q68 0 174 -4l133 -3q144 1 205 7
q0 -74 -16 -129q-61 -4 -90 -22.5t-38 -59.5t-9 -123z" />
    <glyph glyph-name="periodcentered" unicode="&#xb7;" horiz-adv-x="587" 
d="M123 532q0 74 50 119t126 45t121 -47t45 -115t-47 -116.5t-126 -48.5t-124 44.5t-45 118.5z" />
    <glyph glyph-name="cedilla" unicode="&#xb8;" horiz-adv-x="614" 
d="M141 -408q66 0 113 27t47 70t-35 68.5t-90 25.5q-37 41 -37 88l119 162h131l-96 -127q84 -14 133 -66.5t49 -124.5q0 -100 -90 -155.5t-227 -55.5q-17 33 -17 88z" />
    <glyph glyph-name="uni00B9" unicode="&#xb9;" horiz-adv-x="681" 
d="M223 1090v204q0 72 -23.5 105t-82.5 37q-10 49 -11 123q68 -7 229 -7t240 7q0 -74 -10 -123q-59 -4 -82.5 -37t-23.5 -105v-204q0 -74 21.5 -103t84.5 -33q10 -45 10 -120q-96 6 -233 6t-236 -6q1 77 11 120q63 4 84.5 33t21.5 103z" />
    <glyph glyph-name="ordmasculine" unicode="&#xba;" horiz-adv-x="894" 
d="M454 838q120 0 121 248q0 122 -41.5 202t-99.5 80q-116 0 -117 -244q0 -118 37.5 -202t99.5 -84zM821 1103q0 -169 -102.5 -270.5t-280.5 -101.5t-273 95.5t-95 268.5t107.5 273t280.5 100t268 -98t95 -267z" />
    <glyph glyph-name="guillemotright" unicode="&#xbb;" horiz-adv-x="1046" 
d="M117 791q51 41 133 49q119 -133 239 -244q20 -49 21 -131q-131 -145 -266 -311q-68 33 -109 98q78 111 150 244q-61 127 -168 295zM494 809q52 41 122 41q123 -121 283 -254q25 -47 25 -121q-164 -162 -320 -336q-61 31 -92 94q92 118 180 261q-86 152 -198 315z" />
    <glyph glyph-name="onequarter" unicode="&#xbc;" horiz-adv-x="1794" 
d="M532 1401v-557q0 -76 12 -107t40 -42q29 -11 102 -17q10 -41 10 -107q-168 4 -299 4t-295 -4q0 68 11 107q77 6 109 16t46 43t15 107v330q1 63 -11 90q-12 26 -52 34t-136 9q0 70 12 116q222 7 383 72q31 -9 42 -28t11 -66zM427 2q-40 16 -54 35l1050 1429q35 -2 73 -19
t60 -38l-1048 -1427q-41 4 -81 20zM1358 408v268l-197 -268h197zM1585 233v-16q0 -66 22 -83t83 -21q12 -41 12 -117q-131 4 -255 4t-239 -4q0 90 11 117q79 4 109 22t30 82v14q-176 -2 -322 -10q-51 59 -49 150q268 326 428 551q13 2 65 2t105 -17v-499h74q33 0 49 -8
t31 -27q-25 -43 -37 -140h-117z" />
    <glyph glyph-name="onehalf" unicode="&#xbd;" horiz-adv-x="2033" 
d="M532 1401v-557q0 -76 12 -107t40 -42q29 -11 102 -17q10 -41 10 -107q-168 4 -299 4t-295 -4q0 68 11 107q77 6 109 16t46 43t15 107v330q1 63 -11 90q-12 26 -52 34t-136 9q0 70 12 116q222 7 383 72q31 -9 42 -28t11 -66zM427 2q-40 16 -54 35l1050 1429q35 -2 73 -19
t60 -38l-1048 -1427q-41 4 -81 20zM1546 791q-51 -1 -79 -49t-35 -173q-86 -2 -168 25q14 74 14 140t-4 128q136 58 314 58t260 -50t81 -149q0 -100 -50 -172t-163 -158t-176 -147h125q61 0 91 8t44 30t23 70q85 5 141 -14l-2 -76q0 -127 18 -205q-26 -61 -112 -61
q-31 0 -58 2l-206 2l-201 -2l-109 -2q-41 53 -41 147q113 133 219 236t138 158q31 55 30 127q0 127 -94 127z" />
    <glyph glyph-name="threequarters" unicode="&#xbe;" horiz-adv-x="1761" 
d="M715 864q0 -139 -110 -221t-290 -82t-260 68q4 57 39 96q66 -47 160 -47t146 40t52 100t-36 94t-82 34t-68 -8q-37 41 -39 102q139 147 199 224h-111q-57 0 -84 -18t-51 -81q-78 0 -112 25q20 111 20 299q178 -6 300 -6t269 6q29 -47 27 -105l-238 -286q269 -15 269 -234
zM394 2q-40 16 -54 35l1051 1429q75 -4 133 -57l-1049 -1427q-41 4 -81 20zM1325 408v268l-197 -268h197zM1552 233v-16q0 -66 22 -83t83 -21q12 -41 12 -117q-131 4 -255 4t-238 -4q0 90 10 117q80 4 110 22t29 82v14q-176 -2 -321 -10q-51 59 -50 150q268 326 428 551
q12 2 64 2t106 -17v-499h74q33 0 49 -8t31 -27q-25 -43 -37 -140h-117z" />
    <glyph glyph-name="questiondown" unicode="&#xbf;" horiz-adv-x="1099" 
d="M133 -286q0 110 40 173.5t120 144.5t119 142.5t39 141.5t-27 163q49 29 135 29q45 -27 77 -100.5t32 -160.5t-34 -149t-92 -124t-85 -107t-27 -114t37 -112.5t92 -43.5t89 60t52 210q104 0 168 -35q-6 -78 -6 -143t6 -127q-176 -90 -362 -90t-279.5 66t-93.5 176z
M688 779q0 -81 -55 -131t-136 -50t-131.5 51t-50.5 126t51.5 128t136.5 53t135 -48t50 -129z" />
    <glyph glyph-name="Agrave" unicode="&#xc0;" horiz-adv-x="1456" 
d="M821 504l-110 258q-53 121 -97 262q-41 -135 -90 -260l-102 -260h399zM1127.5 0q-197.5 0 -289.5 -6q0 82 14 127q94 19 94 67q0 26 -26 91l-48 110q-272 0 -499 -14l-27 -68q-20 -57 -20 -90q0 -84 98 -96q14 -49 14 -127q-70 6 -208 6t-195 -6q0 76 16 127q51 8 83 50
t81 163l430 1052q53 11 123 11l469 -1051q79 -174 117 -204q22 -18 53 -21q16 -55 16 -127q-98 6 -295.5 6zM440 1757q89 46 246 41q55 -147 133 -270q-68 -25 -151 -25q-124 150 -228 254z" />
    <glyph glyph-name="Aacute" unicode="&#xc1;" horiz-adv-x="1456" 
d="M821 504l-110 258q-53 121 -97 262q-41 -135 -90 -260l-102 -260h399zM1127.5 0q-197.5 0 -289.5 -6q0 82 14 127q94 19 94 67q0 26 -26 91l-48 110q-272 0 -499 -14l-27 -68q-20 -57 -20 -90q0 -84 98 -96q14 -49 14 -127q-70 6 -208 6t-195 -6q0 76 16 127q51 8 83 50
t81 163l430 1052q53 11 123 11l469 -1051q79 -174 117 -204q22 -18 53 -21q16 -55 16 -127q-98 6 -295.5 6zM866.5 1802q73.5 0 118.5 -14q-125 -137 -240 -285q-83 0 -151 25q78 141 121 258q78 16 151.5 16z" />
    <glyph glyph-name="Acircumflex" unicode="&#xc2;" horiz-adv-x="1456" 
d="M821 504l-110 258q-53 121 -97 262q-41 -135 -90 -260l-102 -260h399zM1127.5 0q-197.5 0 -289.5 -6q0 82 14 127q94 19 94 67q0 26 -26 91l-48 110q-272 0 -499 -14l-27 -68q-20 -57 -20 -90q0 -84 98 -96q14 -49 14 -127q-70 6 -208 6t-195 -6q0 76 16 127q51 8 83 50
t81 163l430 1052q53 11 123 11l469 -1051q79 -174 117 -204q22 -18 53 -21q16 -55 16 -127q-98 6 -295.5 6zM381 1525.5q-25 26.5 -33 57.5q190 117 299 217q57 16 135 17q102 -111 281 -242q-51 -68 -137 -84q-121 76 -244 127l-49 -25q-145 -70 -195 -102q-32 8 -57 34.5z
" />
    <glyph glyph-name="Atilde" unicode="&#xc3;" horiz-adv-x="1456" 
d="M821 504l-110 258q-53 121 -97 262q-41 -135 -90 -260l-102 -260h399zM1127.5 0q-197.5 0 -289.5 -6q0 82 14 127q94 19 94 67q0 26 -26 91l-48 110q-272 0 -499 -14l-27 -68q-20 -57 -20 -90q0 -84 98 -96q14 -49 14 -127q-70 6 -208 6t-195 -6q0 76 16 127q51 8 83 50
t81 163l430 1052q53 11 123 11l469 -1051q79 -174 117 -204q22 -18 53 -21q16 -55 16 -127q-98 6 -295.5 6zM813 1518q-72 0 -160 47q-41 20 -66.5 30.5t-58.5 10.5q-80 0 -153 -84q-51 47 -53 114q106 146 266 146q43 0 78.5 -12.5t102 -42t103.5 -29.5q70 0 119 69
q61 -8 99 -51q-103 -198 -277 -198z" />
    <glyph glyph-name="Adieresis" unicode="&#xc4;" horiz-adv-x="1456" 
d="M821 504l-110 258q-53 121 -97 262q-41 -135 -90 -260l-102 -260h399zM1127.5 0q-197.5 0 -289.5 -6q0 82 14 127q94 19 94 67q0 26 -26 91l-48 110q-272 0 -499 -14l-27 -68q-20 -57 -20 -90q0 -84 98 -96q14 -49 14 -127q-70 6 -208 6t-195 -6q0 76 16 127q51 8 83 50
t81 163l430 1052q53 11 123 11l469 -1051q79 -174 117 -204q22 -18 53 -21q16 -55 16 -127q-98 6 -295.5 6zM778 1635q0 66 44 103.5t115 37.5t117 -39t46 -102t-37 -106.5t-117 -43.5t-124 42t-44 108zM313 1625.5q0 62.5 40 106.5t119 44t120 -41t41 -105.5t-45 -104.5
t-115 -40t-115 39t-45 101.5z" />
    <glyph glyph-name="Aring" unicode="&#xc5;" horiz-adv-x="1456" 
d="M821 504l-110 258q-53 121 -97 262q-41 -135 -90 -260l-102 -260h399zM1127.5 0q-197.5 0 -289.5 -6q0 82 14 127q94 19 94 67q0 26 -26 91l-48 110q-272 0 -499 -14l-27 -68q-20 -57 -20 -90q0 -84 98 -96q14 -49 14 -127q-70 6 -208 6t-195 -6q0 76 16 127q51 8 83 50
t81 163l430 1052q53 11 123 11l469 -1051q79 -174 117 -204q22 -18 53 -21q16 -55 16 -127q-98 6 -295.5 6zM703 1745q-76 0 -76 -96q0 -45 22.5 -72t59 -27t58 23.5t21.5 63.5t-23.5 74t-61.5 34zM471 1640.5q0 79.5 68.5 129t172 49.5t167 -43t63.5 -124t-68.5 -132.5
t-171 -51.5t-167 46.5t-64.5 126z" />
    <glyph glyph-name="AE" unicode="&#xc6;" horiz-adv-x="1968" 
d="M942 711v395q0 68 6 141q-29 -68 -303 -536h297zM1376 1264h-121v-553h60q102 0 137 32.5t35 126.5q63 20 145 21q-6 -80 -6 -239t6 -238q-101 0 -141 16q-5 66 -19 100q-29 66 -165 66h-52v-252q0 -168 63 -200q32 -16 89 -17h43q94 0 147.5 25.5t88 81t73.5 161.5
q119 -25 154 -59q-46 -139 -64 -340q-238 4 -577 4t-479 -6q0 80 16 127q57 6 84 23.5t38 60.5t11 133v254q-246 -6 -375 -19q-102 -176 -141 -249.5t-39 -114.5t23.5 -60.5t70.5 -27.5q18 -43 19 -127q-94 6 -249 6t-216 -6q0 86 16 127q63 8 104.5 44t106.5 146l455 785
q35 63 35 95t-27 48t-82 23q-18 40 -18 127q213 -4 381 -5h184q416 0 606 7q4 -172 43 -347q-43 -30 -156 -30q-18 119 -83.5 184.5t-223.5 65.5z" />
    <glyph glyph-name="Ccedilla" unicode="&#xc7;" horiz-adv-x="1314" 
d="M858 143q165 0 342 103q37 -33 47 -90q-193 -158 -444 -172l-60 -78q84 -15 133.5 -67t49.5 -124q0 -100 -90.5 -155.5t-227.5 -55.5q-16 33 -16 88q66 0 113 27t47 70t-35 68.5t-90 25.5q-37 41 -37 88l84 115q-178 16 -315.5 111.5t-212 251t-74.5 365t96 368.5
t255 240t365.5 81t430.5 -107q-23 -129 -23 -317q-47 -25 -160 -25q-4 176 -69.5 250t-188.5 74q-193 0 -285 -149.5t-92 -397t118 -418t339 -170.5z" />
    <glyph glyph-name="Egrave" unicode="&#xc8;" horiz-adv-x="1282" 
d="M690 1264h-141v-508h59q111 0 151 31.5t42 121.5q61 20 145 21q-8 -135 -8 -241t8 -232q-94 0 -141 16q-8 92 -49 125t-148 33h-59v-287q1 -164 67 -198q36 -18 105 -19h24q193 -1 261 111q34 56 65 157q113 -16 156 -59q-41 -125 -64 -340q-205 4 -496.5 4t-580.5 -6
q0 82 12 127q57 4 87 21.5t41.5 61.5t11.5 134v721q0 84 -11.5 124t-40 57t-88.5 24q-12 39 -12 127q160 -6 519.5 -6.5t504.5 6.5q10 -215 43 -347q-61 -31 -156 -30q-18 119 -83.5 184.5t-223.5 65.5zM352 1757q89 46 246 41q55 -147 133 -270q-68 -25 -151 -25
q-124 150 -228 254z" />
    <glyph glyph-name="Eacute" unicode="&#xc9;" horiz-adv-x="1282" 
d="M690 1264h-141v-508h59q111 0 151 31.5t42 121.5q61 20 145 21q-8 -135 -8 -241t8 -232q-94 0 -141 16q-8 92 -49 125t-148 33h-59v-287q1 -164 67 -198q36 -18 105 -19h24q193 -1 261 111q34 56 65 157q113 -16 156 -59q-41 -125 -64 -340q-205 4 -496.5 4t-580.5 -6
q0 82 12 127q57 4 87 21.5t41.5 61.5t11.5 134v721q0 84 -11.5 124t-40 57t-88.5 24q-12 39 -12 127q160 -6 519.5 -6.5t504.5 6.5q10 -215 43 -347q-61 -31 -156 -30q-18 119 -83.5 184.5t-223.5 65.5zM778.5 1802q73.5 0 118.5 -14q-125 -137 -240 -285q-83 0 -151 25
q78 141 121 258q78 16 151.5 16z" />
    <glyph glyph-name="Ecircumflex" unicode="&#xca;" horiz-adv-x="1282" 
d="M690 1264h-141v-508h59q111 0 151 31.5t42 121.5q61 20 145 21q-8 -135 -8 -241t8 -232q-94 0 -141 16q-8 92 -49 125t-148 33h-59v-287q1 -164 67 -198q36 -18 105 -19h24q193 -1 261 111q34 56 65 157q113 -16 156 -59q-41 -125 -64 -340q-205 4 -496.5 4t-580.5 -6
q0 82 12 127q57 4 87 21.5t41.5 61.5t11.5 134v721q0 84 -11.5 124t-40 57t-88.5 24q-12 39 -12 127q160 -6 519.5 -6.5t504.5 6.5q10 -215 43 -347q-61 -31 -156 -30q-18 119 -83.5 184.5t-223.5 65.5zM292.5 1525.5q-24.5 26.5 -32.5 57.5q190 117 299 217q57 16 135 17
q102 -111 281 -242q-51 -68 -137 -84q-121 76 -244 127l-49 -25q-145 -70 -195 -102q-33 8 -57.5 34.5z" />
    <glyph glyph-name="Edieresis" unicode="&#xcb;" horiz-adv-x="1282" 
d="M690 1264h-141v-508h59q111 0 151 31.5t42 121.5q61 20 145 21q-8 -135 -8 -241t8 -232q-94 0 -141 16q-8 92 -49 125t-148 33h-59v-287q1 -164 67 -198q36 -18 105 -19h24q193 -1 261 111q34 56 65 157q113 -16 156 -59q-41 -125 -64 -340q-205 4 -496.5 4t-580.5 -6
q0 82 12 127q57 4 87 21.5t41.5 61.5t11.5 134v721q0 84 -11.5 124t-40 57t-88.5 24q-12 39 -12 127q160 -6 519.5 -6.5t504.5 6.5q10 -215 43 -347q-61 -31 -156 -30q-18 119 -83.5 184.5t-223.5 65.5zM690 1635q0 66 44 103.5t115 37.5t117 -39t46 -102t-37 -106.5
t-117 -43.5t-124 42t-44 108zM225 1625.5q0 62.5 40 106.5t119 44t120 -41t41 -105.5t-45 -104.5t-115 -40t-115 39t-45 101.5z" />
    <glyph glyph-name="Igrave" unicode="&#xcc;" horiz-adv-x="786" 
d="M549 1059v-731q0 -84 12 -126t41 -59.5t86 -21.5q12 -43 12 -127q-104 6 -295.5 6t-318.5 -6q0 74 14 127q57 4 86 21.5t40.5 59.5t11.5 126v731q0 84 -11.5 124t-39 57t-87.5 24q-14 45 -14 127q104 -6 297.5 -6.5t316.5 6.5q0 -91 -14 -127q-57 -6 -86 -22.5t-40 -57.5
t-11 -125zM127 1757q89 46 246 41q55 -147 133 -270q-68 -25 -152 -25q-123 150 -227 254z" />
    <glyph glyph-name="Iacute" unicode="&#xcd;" horiz-adv-x="786" 
d="M549 1059v-731q0 -84 12 -126t41 -59.5t86 -21.5q12 -43 12 -127q-104 6 -295.5 6t-318.5 -6q0 74 14 127q57 4 86 21.5t40.5 59.5t11.5 126v731q0 84 -11.5 124t-39 57t-87.5 24q-14 45 -14 127q104 -6 297.5 -6.5t316.5 6.5q0 -91 -14 -127q-57 -6 -86 -22.5t-40 -57.5
t-11 -125zM553 1802q74 0 119 -14q-125 -137 -240 -285q-83 0 -151 25q78 141 120 258q78 16 152 16z" />
    <glyph glyph-name="Icircumflex" unicode="&#xce;" horiz-adv-x="786" 
d="M549 1059v-731q0 -84 12 -126t41 -59.5t86 -21.5q12 -43 12 -127q-104 6 -295.5 6t-318.5 -6q0 74 14 127q57 4 86 21.5t40.5 59.5t11.5 126v731q0 84 -11.5 124t-39 57t-87.5 24q-14 45 -14 127q104 -6 297.5 -6.5t316.5 6.5q0 -91 -14 -127q-57 -6 -86 -22.5t-40 -57.5
t-11 -125zM78 1542q61 51 184 170l70 68q94 20 135 20q82 -102 244 -272q-25 -29 -68 -49.5t-84 -24.5q-78 66 -201 135q-100 -63 -174 -137q-75 24 -106 90z" />
    <glyph glyph-name="Idieresis" unicode="&#xcf;" horiz-adv-x="786" 
d="M549 1059v-731q0 -84 12 -126t41 -59.5t86 -21.5q12 -43 12 -127q-104 6 -295.5 6t-318.5 -6q0 74 14 127q57 4 86 21.5t40.5 59.5t11.5 126v731q0 84 -11.5 124t-39 57t-87.5 24q-14 45 -14 127q104 -6 297.5 -6.5t316.5 6.5q0 -91 -14 -127q-57 -6 -86 -22.5t-40 -57.5
t-11 -125zM430 1622q0 63 43 98t114 35t116 -38t45 -96t-37 -100t-116 -42t-122 40t-43 103zM39 1612.5q0 58.5 39 100.5t118 42t118.5 -39t39.5 -99t-45 -99t-113.5 -39t-112.5 37.5t-44 96z" />
    <glyph glyph-name="Eth" unicode="&#xd0;" horiz-adv-x="1505" 
d="M1110 682q0 315 -126 450.5t-320 135.5q-70 0 -113 -19v-481h235q0 -88 -22 -145q-86 2 -213 2v-281q0 -88 14.5 -134t50 -64.5t105.5 -18.5q168 0 278.5 120t110.5 435zM1434 727q0 -303 -133.5 -464t-302.5 -212t-326 -51q-297 0 -586 -6q0 82 12 127q57 4 87 21.5
t41.5 61.5t11.5 134v285l-148 -5q0 94 21 150h127v291q0 84 -11.5 124t-40 57t-88.5 24q-12 49 -12 127q123 -6 277 -6.5t188 1.5l127 3q342 0 549 -140.5t207 -521.5z" />
    <glyph glyph-name="Ntilde" unicode="&#xd1;" horiz-adv-x="1484" 
d="M1276 971v-971q-55 -16 -143 -16l-764 1015v-581q0 -119 12 -180.5t44 -87t95 -29.5q14 -41 15 -127q-88 6 -239 6t-228 -6q0 86 14 127q61 5 94 31q62 50 62 266v758l-21 26q-23 31 -49.5 43t-85.5 19q-14 51 -14 127q74 -6 218 -6.5t191 6.5l666 -899v479
q0 119 -12.5 178t-46 83.5t-101.5 31.5q-12 57 -12 127q90 -6 228 -6t214 6q0 -78 -12 -127q-51 -4 -78 -29t-37 -85t-10 -179zM858 1518q-72 0 -160 47q-41 20 -66.5 30.5t-58.5 10.5q-80 0 -153 -84q-51 47 -53 114q106 146 266 146q59 0 134 -33.5t98.5 -42t52.5 -8.5
q70 0 118 69q61 -8 99 -51q-103 -198 -277 -198z" />
    <glyph glyph-name="Ograve" unicode="&#xd2;" horiz-adv-x="1531" 
d="M1133 666q0 168 -50.5 307t-142.5 220t-209 81q-152 0 -242 -140.5t-90 -383.5q0 -172 45 -317.5t134.5 -231.5t218.5 -86q157 0 246.5 151.5t89.5 399.5zM72 699q0 210 89 370t246.5 247t359.5 87t359.5 -86t245.5 -242.5t88 -364.5t-87 -374t-245.5 -260t-365.5 -94
t-363.5 91t-241.5 253.5t-85 372.5zM500 1757q89 46 245 41q55 -147 134 -270q-68 -25 -152 -25q-123 150 -227 254z" />
    <glyph glyph-name="Oacute" unicode="&#xd3;" horiz-adv-x="1531" 
d="M1133 666q0 168 -50.5 307t-142.5 220t-209 81q-152 0 -242 -140.5t-90 -383.5q0 -172 45 -317.5t134.5 -231.5t218.5 -86q157 0 246.5 151.5t89.5 399.5zM72 699q0 210 89 370t246.5 247t359.5 87t359.5 -86t245.5 -242.5t88 -364.5t-87 -374t-245.5 -260t-365.5 -94
t-363.5 91t-241.5 253.5t-85 372.5zM926 1802q74 0 118 -14q-125 -137 -239 -285q-84 0 -152 25q78 141 121 258q78 16 152 16z" />
    <glyph glyph-name="Ocircumflex" unicode="&#xd4;" horiz-adv-x="1531" 
d="M1133 666q0 168 -50.5 307t-142.5 220t-209 81q-152 0 -242 -140.5t-90 -383.5q0 -172 45 -317.5t134.5 -231.5t218.5 -86q157 0 246.5 151.5t89.5 399.5zM72 699q0 210 89 370t246.5 247t359.5 87t359.5 -86t245.5 -242.5t88 -364.5t-87 -374t-245.5 -260t-365.5 -94
t-363.5 91t-241.5 253.5t-85 372.5zM440.5 1525.5q-24.5 26.5 -32.5 57.5q190 117 299 217q57 16 135 17q102 -111 280 -242q-51 -68 -137 -84q-121 76 -244 127l-49 -25q-145 -70 -194 -102q-33 8 -57.5 34.5z" />
    <glyph glyph-name="Otilde" unicode="&#xd5;" horiz-adv-x="1531" 
d="M1133 666q0 168 -50.5 307t-142.5 220t-209 81q-152 0 -242 -140.5t-90 -383.5q0 -172 45 -317.5t134.5 -231.5t218.5 -86q157 0 246.5 151.5t89.5 399.5zM72 699q0 210 89 370t246.5 247t359.5 87t359.5 -86t245.5 -242.5t88 -364.5t-87 -374t-245.5 -260t-365.5 -94
t-363.5 91t-241.5 253.5t-85 372.5zM872 1518q-71 0 -159 47q-41 20 -66.5 30.5t-58.5 10.5q-80 0 -154 -84q-51 47 -53 114q55 76 126 111t127 35t92 -12.5t102 -42t104 -29.5q70 0 119 69q62 -9 98 -51q-103 -198 -277 -198z" />
    <glyph glyph-name="Odieresis" unicode="&#xd6;" horiz-adv-x="1531" 
d="M1133 666q0 168 -50.5 307t-142.5 220t-209 81q-152 0 -242 -140.5t-90 -383.5q0 -172 45 -317.5t134.5 -231.5t218.5 -86q157 0 246.5 151.5t89.5 399.5zM72 699q0 210 89 370t246.5 247t359.5 87t359.5 -86t245.5 -242.5t88 -364.5t-87 -374t-245.5 -260t-365.5 -94
t-363.5 91t-241.5 253.5t-85 372.5zM838 1635q0 66 44 103.5t114.5 37.5t116.5 -39t46 -102t-37 -106.5t-116.5 -43.5t-123.5 42t-44 108zM373 1625.5q0 62.5 40 106.5t118.5 44t119.5 -41t41 -105.5t-45 -104.5t-114.5 -40t-114.5 39t-45 101.5z" />
    <glyph glyph-name="multiply" unicode="&#xd7;" 
d="M76 942q64 64 139 64l344 -371l342 381q111 -10 148 -53q-134 -140 -396 -431l396 -426q-20 -29 -60.5 -47t-81.5 -18q-203 227 -348 387q-143 -160 -336 -387q-43 -2 -87 12.5t-62 38.5l391 436q-197 213 -389 414z" />
    <glyph glyph-name="Oslash" unicode="&#xd8;" horiz-adv-x="1531" 
d="M1133 666q0 168 -50 303l-551 -715q102 -139 262 -139t249.5 151.5t89.5 399.5zM399 774q0 -219 56 -373l551 717q-108 156 -267 156t-249.5 -140.5t-90.5 -359.5zM1460 713q0 -211 -87 -377t-245.5 -260t-371.5 -94t-373 100l-113 -137q-110 0 -157 45l153 184
q-194 198 -194 524q0 211 89 371t246.5 247t369.5 87t380 -105l105 136q113 0 165 -41l-149 -191q182 -186 182 -489z" />
    <glyph glyph-name="Ugrave" unicode="&#xd9;" horiz-adv-x="1406" 
d="M203 481v572q0 88 -10.5 128t-36 57t-82.5 26q-12 53 -13 127q82 -6 294.5 -6.5t308.5 6.5q0 -80 -13 -127q-61 -8 -87.5 -24.5t-37 -57.5t-10.5 -129v-539q0 -193 66.5 -292t203.5 -99t207 82q37 47 54.5 126t17.5 232v432q1 189 -53 235q-28 24 -86 34q-10 59 -11 127
q76 -6 209 -6.5t211 6.5q0 -74 -12 -127q-53 -8 -79 -32q-48 -43 -48 -226v-447q0 -184 -25.5 -290.5t-93.5 -174.5q-119 -113 -333 -112.5t-328.5 53.5t-163.5 161.5t-49 284.5zM524 1757q89 46 246 41q55 -147 133 -270q-68 -25 -151 -25q-124 150 -228 254z" />
    <glyph glyph-name="Uacute" unicode="&#xda;" horiz-adv-x="1406" 
d="M203 481v572q0 88 -10.5 128t-36 57t-82.5 26q-12 53 -13 127q82 -6 294.5 -6.5t308.5 6.5q0 -80 -13 -127q-61 -8 -87.5 -24.5t-37 -57.5t-10.5 -129v-539q0 -193 66.5 -292t203.5 -99t207 82q37 47 54.5 126t17.5 232v432q1 189 -53 235q-28 24 -86 34q-10 59 -11 127
q76 -6 209 -6.5t211 6.5q0 -74 -12 -127q-53 -8 -79 -32q-48 -43 -48 -226v-447q0 -184 -25.5 -290.5t-93.5 -174.5q-119 -113 -333 -112.5t-328.5 53.5t-163.5 161.5t-49 284.5zM950.5 1802q73.5 0 118.5 -14q-125 -137 -240 -285q-83 0 -151 25q78 141 121 258
q78 16 151.5 16z" />
    <glyph glyph-name="Ucircumflex" unicode="&#xdb;" horiz-adv-x="1406" 
d="M203 481v572q0 88 -10.5 128t-36 57t-82.5 26q-12 53 -13 127q82 -6 294.5 -6.5t308.5 6.5q0 -80 -13 -127q-61 -8 -87.5 -24.5t-37 -57.5t-10.5 -129v-539q0 -193 66.5 -292t203.5 -99t207 82q37 47 54.5 126t17.5 232v432q1 189 -53 235q-28 24 -86 34q-10 59 -11 127
q76 -6 209 -6.5t211 6.5q0 -74 -12 -127q-53 -8 -79 -32q-48 -43 -48 -226v-447q0 -184 -25.5 -290.5t-93.5 -174.5q-119 -113 -333 -112.5t-328.5 53.5t-163.5 161.5t-49 284.5zM464.5 1525.5q-24.5 26.5 -32.5 57.5q190 117 299 217q57 16 135 17q102 -111 281 -242
q-51 -68 -137 -84q-121 76 -244 127l-49 -25q-145 -70 -195 -102q-33 8 -57.5 34.5z" />
    <glyph glyph-name="Udieresis" unicode="&#xdc;" horiz-adv-x="1406" 
d="M203 481v572q0 88 -10.5 128t-36 57t-82.5 26q-12 53 -13 127q82 -6 294.5 -6.5t308.5 6.5q0 -80 -13 -127q-61 -8 -87.5 -24.5t-37 -57.5t-10.5 -129v-539q0 -193 66.5 -292t203.5 -99t207 82q37 47 54.5 126t17.5 232v432q1 189 -53 235q-28 24 -86 34q-10 59 -11 127
q76 -6 209 -6.5t211 6.5q0 -74 -12 -127q-53 -8 -79 -32q-48 -43 -48 -226v-447q0 -184 -25.5 -290.5t-93.5 -174.5q-119 -113 -333 -112.5t-328.5 53.5t-163.5 161.5t-49 284.5zM862 1635q0 66 44 103.5t115 37.5t117 -39t46 -102t-37 -106.5t-117 -43.5t-124 42t-44 108z
M397 1625.5q0 62.5 40 106.5t119 44t120 -41t41 -105.5t-45 -104.5t-115 -40t-115 39t-45 101.5z" />
    <glyph glyph-name="Yacute" unicode="&#xdd;" horiz-adv-x="1294" 
d="M500 362v158l-310 623q-31 61 -63.5 89t-77.5 32q-14 45 -14 125q80 -4 302 -4.5t296 4.5q0 -68 -12 -123q-80 -12 -80 -66q0 -35 32 -104q98 -207 187 -426q78 186 146.5 333.5t68.5 186.5q0 63 -88 74q-16 59 -17 125q63 -4 199 -4t193 4q0 -61 -15 -123
q-47 -10 -87 -53.5t-85 -141.5l-262 -557v-141q0 -109 13.5 -157t49 -67.5t119.5 -27.5q18 -53 19 -127q-160 6 -361 6l-364 -6q0 82 18 127q92 8 130 25.5t50.5 62.5t12.5 153zM903.5 1802q73.5 0 118.5 -14q-125 -137 -240 -285q-83 0 -151 25q78 141 121 258
q78 16 151.5 16z" />
    <glyph glyph-name="Thorn" unicode="&#xde;" horiz-adv-x="1312" 
d="M940 692q0 135 -69.5 215t-206.5 80q-68 0 -115 -14v-615q0 -90 19.5 -139t63.5 -70.5t124 -27.5q14 -41 14 -127q-111 6 -331 6t-353 -6q0 74 14 127q57 4 86 21.5t40.5 59.5t11.5 126v731q0 84 -11.5 124t-39 57t-87.5 24q-14 45 -14 127q104 -7 298 -7t316 7
q0 -91 -14 -127q-76 -6 -104.5 -37t-30.5 -119q139 4 244 4q227 0 336.5 -106.5t109.5 -274.5q0 -117 -56.5 -213t-163.5 -153.5t-225 -57.5t-173 19q-11 67 12 110q25 -4 76 -4q98 0 163.5 62.5t65.5 197.5z" />
    <glyph glyph-name="germandbls" unicode="&#xdf;" horiz-adv-x="1413" 
d="M63 786q0 80 27 132h133v69q0 236 142.5 357.5t357.5 121.5t321.5 -77.5t106.5 -194.5q0 -86 -39.5 -136t-99.5 -94t-82.5 -68t-22.5 -62t39 -71.5t123 -77.5t139.5 -83t95 -105.5t39.5 -166.5t-60 -180t-157.5 -123t-200.5 -43q-197 0 -298 63q10 71 10 157t-2 109
q52 25 151 25q12 -125 46 -178.5t108 -53.5q45 0 77 35t32 97t-45.5 102.5t-131.5 89.5t-163.5 107.5t-77.5 185.5q0 80 35.5 125t107.5 92q68 49 99.5 87t31.5 114t-62.5 134t-160.5 58q-57 0 -108.5 -32.5t-51.5 -237.5v-1065q-58 2 -208 2t-242 -6q0 80 16 127
q57 4 85 20.5t39 56.5t11 119v445q-58 24 -160 24z" />
    <glyph glyph-name="agrave" unicode="&#xe0;" horiz-adv-x="1124" 
d="M373 270q0 -55 27.5 -82.5t70.5 -27.5t85 28q95 64 95 222v53q-139 -25 -208.5 -66t-69.5 -127zM550.5 958q215.5 0 307.5 -92t92 -342v-176q0 -70 8.5 -103.5t33 -48t77.5 -16.5q2 -12 2 -50t-18 -81q-168 -6 -305 -67q-66 26 -66 118q0 20 8 78q-84 -194 -325 -192
q-139 0 -215 59t-76 170q0 174 163.5 249t413.5 109q0 90 -9 136.5t-36 76.5q-45 51 -114 52q-143 0 -162 -230q-120 0 -172 21q4 53 4 112.5t-17 132.5q190 84 405.5 84zM489 1094q-144 213 -264 325q117 51 275 45q57 -190 143 -348q-51 -27 -154 -22z" />
    <glyph glyph-name="aacute" unicode="&#xe1;" horiz-adv-x="1124" 
d="M373 270q0 -55 27.5 -82.5t70.5 -27.5t85 28q95 64 95 222v53q-139 -25 -208.5 -66t-69.5 -127zM550.5 958q215.5 0 307.5 -92t92 -342v-176q0 -70 8.5 -103.5t33 -48t77.5 -16.5q2 -12 2 -50t-18 -81q-168 -6 -305 -67q-66 26 -66 118q0 20 8 78q-84 -194 -325 -192
q-139 0 -215 59t-76 170q0 174 163.5 249t413.5 109q0 90 -9 136.5t-36 76.5q-45 51 -114 52q-143 0 -162 -230q-120 0 -172 21q4 53 4 112.5t-17 132.5q190 84 405.5 84zM582 1085q-84 0 -144 29q90 182 129 334q72 27 183 27q74 -4 100 -11q-147 -176 -268 -379z" />
    <glyph glyph-name="acircumflex" unicode="&#xe2;" horiz-adv-x="1124" 
d="M373 270q0 -55 27.5 -82.5t70.5 -27.5t85 28q95 64 95 222v53q-139 -25 -208.5 -66t-69.5 -127zM550.5 958q215.5 0 307.5 -92t92 -342v-176q0 -70 8.5 -103.5t33 -48t77.5 -16.5q2 -12 2 -50t-18 -81q-168 -6 -305 -67q-66 26 -66 118q0 20 8 78q-84 -194 -325 -192
q-139 0 -215 59t-76 170q0 174 163.5 249t413.5 109q0 90 -9 136.5t-36 76.5q-45 51 -114 52q-143 0 -162 -230q-120 0 -172 21q4 53 4 112.5t-17 132.5q190 84 405.5 84zM522 1243q-167 -95 -286 -186q-29 12 -51.5 40.5t-28.5 57.5q189 130 333 293q61 20 129 20
q125 -162 314 -331q-49 -59 -129 -74q-178 127 -281 180z" />
    <glyph glyph-name="atilde" unicode="&#xe3;" horiz-adv-x="1124" 
d="M373 270q0 -55 27.5 -82.5t70.5 -27.5t85 28q95 64 95 222v53q-139 -25 -208.5 -66t-69.5 -127zM550.5 958q215.5 0 307.5 -92t92 -342v-176q0 -70 8.5 -103.5t33 -48t77.5 -16.5q2 -12 2 -50t-18 -81q-168 -6 -305 -67q-66 26 -66 118q0 20 8 78q-84 -194 -325 -192
q-139 0 -215 59t-76 170q0 174 163.5 249t413.5 109q0 90 -9 136.5t-36 76.5q-45 51 -114 52q-143 0 -162 -230q-120 0 -172 21q4 53 4 112.5t-17 132.5q190 84 405.5 84zM653 1114q-41 0 -72.5 12.5t-100.5 50t-122 37.5q-90 0 -174 -92q-49 43 -51 109q129 160 270 160
q64 0 153 -47.5t134 -47.5q76 0 135 76q63 -8 99 -45q-121 -213 -271 -213z" />
    <glyph glyph-name="adieresis" unicode="&#xe4;" horiz-adv-x="1124" 
d="M373 270q0 -55 27.5 -82.5t70.5 -27.5t85 28q95 64 95 222v53q-139 -25 -208.5 -66t-69.5 -127zM550.5 958q215.5 0 307.5 -92t92 -342v-176q0 -70 8.5 -103.5t33 -48t77.5 -16.5q2 -12 2 -50t-18 -81q-168 -6 -305 -67q-66 26 -66 118q0 20 8 78q-84 -194 -325 -192
q-139 0 -215 59t-76 170q0 174 163.5 249t413.5 109q0 90 -9 136.5t-36 76.5q-45 51 -114 52q-143 0 -162 -230q-120 0 -172 21q4 53 4 112.5t-17 132.5q190 84 405.5 84zM600 1211q0 66 44 103.5t115 37.5t117 -39t46 -102t-37 -106.5t-117 -43.5t-124 42t-44 108z
M135 1201.5q0 62.5 40 106.5t119 44t120 -41t41 -105.5t-45 -104.5t-115 -40t-115 39t-45 101.5z" />
    <glyph glyph-name="aring" unicode="&#xe5;" horiz-adv-x="1124" 
d="M373 270q0 -55 27.5 -82.5t70.5 -27.5t85 28q95 64 95 222v53q-139 -25 -208.5 -66t-69.5 -127zM550.5 958q215.5 0 307.5 -92t92 -342v-176q0 -70 8.5 -103.5t33 -48t77.5 -16.5q2 -12 2 -50t-18 -81q-168 -6 -305 -67q-66 26 -66 118q0 20 8 78q-84 -194 -325 -192
q-139 0 -215 59t-76 170q0 174 163.5 249t413.5 109q0 90 -9 136.5t-36 76.5q-45 51 -114 52q-143 0 -162 -230q-120 0 -172 21q4 53 4 112.5t-17 132.5q190 84 405.5 84zM522 1380q-73 0 -73 -106q0 -45 23.5 -76t59 -31t57 26t21.5 69t-22.5 80.5t-65.5 37.5zM281 1265
q0 91 72.5 150.5t180 59.5t175 -50.5t67.5 -144.5t-72.5 -154.5t-179 -60.5t-175 54.5t-68.5 145.5z" />
    <glyph glyph-name="ae" unicode="&#xe6;" horiz-adv-x="1492" 
d="M338 274q0 -128 112 -129q52 0 97 62.5t51 191.5q-2 12 -2 35v4q-137 -14 -197.5 -54t-60.5 -110zM1016 829q-127 0 -127 -254v-20q88 6 268 10q0 264 -141 264zM334 -12q-125 0 -192.5 59t-67.5 170q0 168 145.5 243t376.5 97v76q0 98 -37 147t-101.5 49t-94 -56
t-44.5 -167q-122 0 -174 27q2 20 2 94t-12 154q181 75 364.5 75t266.5 -110q102 110 285 110q129 0 210.5 -64.5t118.5 -157.5t39 -185q-14 -61 -57 -100q-287 -4 -473 -17q6 -121 63.5 -206t165.5 -85q141 0 238 92q18 -16 34.5 -48.5t18.5 -61.5q-121 -135 -369 -135
t-368 184q-31 -82 -122 -133t-216 -51z" />
    <glyph glyph-name="ccedilla" unicode="&#xe7;" horiz-adv-x="958" 
d="M743 -285q0 -100 -90 -155.5t-227 -55.5q-16 33 -16 88q66 0 112.5 27t46.5 70t-34.5 68.5t-90.5 25.5q-37 41 -36 88l84 115q-190 18 -306 141t-116 338q0 127 55 239.5t162.5 182t239 69.5t214 -21.5t150.5 -64.5q-20 -96 -21 -254q-59 -27 -161 -26q-6 117 -49.5 179
t-120 62t-123.5 -91t-47 -241t70.5 -256t203.5 -106t217 80q43 -39 49 -98q-98 -117 -288 -135l-60 -78q84 -14 133 -66.5t49 -124.5z" />
    <glyph glyph-name="egrave" unicode="&#xe8;" horiz-adv-x="1050" 
d="M698 541q0 137 -40 212.5t-114.5 75.5t-120.5 -72.5t-50 -215.5h325zM70 463q0 145 59 256.5t168 174t252 62.5q211 0 316.5 -117.5t113.5 -320.5q-12 -59 -51 -98q-352 0 -547 -10q18 -127 86 -200t192 -73q72 0 141.5 25.5t117.5 70.5q20 -12 35.5 -42.5t17.5 -63.5
q-153 -145 -403.5 -145t-374 133t-123.5 348zM508 1094q-147 214 -264 325q117 51 274 45q57 -190 144 -348q-51 -27 -154 -22z" />
    <glyph glyph-name="eacute" unicode="&#xe9;" horiz-adv-x="1050" 
d="M698 541q0 137 -40 212.5t-114.5 75.5t-120.5 -72.5t-50 -215.5h325zM70 463q0 145 59 256.5t168 174t252 62.5q211 0 316.5 -117.5t113.5 -320.5q-12 -59 -51 -98q-352 0 -547 -10q18 -127 86 -200t192 -73q72 0 141.5 25.5t117.5 70.5q20 -12 35.5 -42.5t17.5 -63.5
q-153 -145 -403.5 -145t-374 133t-123.5 348zM600 1085q-85 0 -143 29q90 182 129 334q72 27 182 27q74 -4 100 -11q-147 -176 -268 -379z" />
    <glyph glyph-name="ecircumflex" unicode="&#xea;" horiz-adv-x="1050" 
d="M698 541q0 137 -40 212.5t-114.5 75.5t-120.5 -72.5t-50 -215.5h325zM70 463q0 145 59 256.5t168 174t252 62.5q211 0 316.5 -117.5t113.5 -320.5q-12 -59 -51 -98q-352 0 -547 -10q18 -127 86 -200t192 -73q72 0 141.5 25.5t117.5 70.5q20 -12 35.5 -42.5t17.5 -63.5
q-153 -145 -403.5 -145t-374 133t-123.5 348zM541 1243q-171 -97 -287 -186q-29 12 -51.5 40.5t-28.5 57.5q186 128 334 293q61 20 129 20q125 -162 313 -331q-49 -59 -129 -74q-176 125 -280 180z" />
    <glyph glyph-name="edieresis" unicode="&#xeb;" horiz-adv-x="1050" 
d="M698 541q0 137 -40 212.5t-114.5 75.5t-120.5 -72.5t-50 -215.5h325zM70 463q0 145 59 256.5t168 174t252 62.5q211 0 316.5 -117.5t113.5 -320.5q-12 -59 -51 -98q-352 0 -547 -10q18 -127 86 -200t192 -73q72 0 141.5 25.5t117.5 70.5q20 -12 35.5 -42.5t17.5 -63.5
q-153 -145 -403.5 -145t-374 133t-123.5 348zM618 1211q0 66 44.5 103.5t115 37.5t116.5 -39t46 -102t-37 -106.5t-116.5 -43.5t-124 42t-44.5 108zM154 1201.5q0 62.5 39.5 106.5t118.5 44t120 -41t41 -105.5t-45 -104.5t-114.5 -40t-114.5 39t-45 101.5z" />
    <glyph glyph-name="igrave" unicode="&#xec;" horiz-adv-x="729" 
d="M221 299v326q0 76 -29.5 107.5t-121.5 35.5q0 78 22 121q100 0 211 21.5t158 45.5q59 -25 59 -108v-549q0 -102 26.5 -138t102.5 -40q12 -39 13 -127q-88 6 -297 6t-295 -6q0 82 14 127q82 4 109.5 40t27.5 138zM315 1094q-144 213 -264 325q117 51 275 45
q57 -190 143 -348q-51 -27 -154 -22z" />
    <glyph glyph-name="iacute" unicode="&#xed;" horiz-adv-x="729" 
d="M221 299v326q0 76 -29.5 107.5t-121.5 35.5q0 78 22 121q100 0 211 21.5t158 45.5q59 -25 59 -108v-549q0 -102 26.5 -138t102.5 -40q12 -39 13 -127q-88 6 -297 6t-295 -6q0 82 14 127q82 4 109.5 40t27.5 138zM408 1085q-84 0 -144 29q90 182 129 334q72 27 182 27
q74 -4 101 -11q-147 -176 -268 -379z" />
    <glyph glyph-name="icircumflex" unicode="&#xee;" horiz-adv-x="729" 
d="M221 299v326q0 76 -29.5 107.5t-121.5 35.5q0 78 22 121q100 0 211 21.5t158 45.5q59 -25 59 -108v-549q0 -102 26.5 -138t102.5 -40q12 -39 13 -127q-88 6 -297 6t-295 -6q0 82 14 127q82 4 109.5 40t27.5 138zM672 1130q-53 -53 -152 -67q-102 109 -201 182
q-106 -100 -174 -188q-75 30 -106 96q66 68 215 248l39 47q84 18 135 18q90 -139 244 -336z" />
    <glyph glyph-name="idieresis" unicode="&#xef;" horiz-adv-x="729" 
d="M221 299v326q0 76 -29.5 107.5t-121.5 35.5q0 78 22 121q100 0 211 21.5t158 45.5q59 -25 59 -108v-549q0 -102 26.5 -138t102.5 -40q12 -39 13 -127q-88 6 -297 6t-295 -6q0 82 14 127q82 4 109.5 40t27.5 138zM389 1211q0 66 44 103.5t115 37.5t117 -39t46 -102
t-37 -106.5t-117 -43.5t-124 42t-44 108zM-4 1201.5q0 62.5 39 106.5t119 44t120.5 -41t40.5 -105.5t-45 -104.5t-114.5 -40t-114.5 39t-45 101.5z" />
    <glyph glyph-name="eth" unicode="&#xf0;" horiz-adv-x="1163" 
d="M375 481q0 -178 57.5 -271t157.5 -93q196 0 196 405q0 137 -20 242q-79 55 -186 55q-205 0 -205 -338zM1092 571q0 -289 -134.5 -438t-383.5 -149t-376.5 119t-127.5 349t130 362t351 132q111 0 176 -43q-39 100 -104 182q-102 -49 -230 -116q-42 75 -37 137l164 76
q-104 78 -252 123q0 76 21 118q125 0 270 45q129 -72 225 -165l203 94q37 -70 33 -140l-139 -57q211 -267 211 -629z" />
    <glyph glyph-name="ntilde" unicode="&#xf1;" horiz-adv-x="1357" 
d="M973.5 0q-138.5 0 -234.5 -6q0 84 17 127q59 0 87.5 43t28.5 149v215q0 125 -37.5 177.5t-117.5 52.5t-138.5 -87t-58.5 -241v-131q0 -102 26.5 -140t90.5 -38q16 -45 16 -127q-88 6 -289.5 6t-293.5 -6q0 88 16 127q80 0 107.5 37t27.5 141v303q0 63 -10 96t-41 49.5
t-98 20.5q0 80 24 121q109 2 211.5 21.5t153.5 45.5q59 -23 59 -112q0 -55 -20 -123q4 6 19.5 40t51 73.5t109.5 75.5t164 36q141 0 234 -81t93 -253v-313q0 -100 23 -139t80 -39q16 -39 16 -127q-178 6 -316.5 6zM516 1214q-90 0 -174 -92q-49 43 -51 109q129 160 270 160
q64 0 153 -47.5t134 -47.5q76 0 135 76q63 -8 98 -45q-121 -213 -270 -213q-41 0 -72.5 12.5t-101.5 50t-121 37.5z" />
    <glyph glyph-name="ograve" unicode="&#xf2;" horiz-adv-x="1175" 
d="M799 422q0 133 -32 224t-85 138t-117 47q-90 0 -138 -86t-48 -247.5t61.5 -273t160.5 -111.5t148.5 88t49.5 221zM70 459q0 154 67.5 266.5t186 171.5t268.5 59q248 0 381 -131t133 -348q0 -150 -64.5 -262.5t-183.5 -172.5t-276 -60q-244 0 -378 128t-134 349zM543 1094
q-147 214 -264 325q117 51 274 45q57 -190 143 -348q-51 -27 -153 -22z" />
    <glyph glyph-name="oacute" unicode="&#xf3;" horiz-adv-x="1175" 
d="M799 422q0 133 -32 224t-85 138t-117 47q-90 0 -138 -86t-48 -247.5t61.5 -273t160.5 -111.5t148.5 88t49.5 221zM70 459q0 154 67.5 266.5t186 171.5t268.5 59q248 0 381 -131t133 -348q0 -150 -64.5 -262.5t-183.5 -172.5t-276 -60q-244 0 -378 128t-134 349zM635 1085
q-85 0 -143 29q90 182 129 334q72 27 182 27q74 -4 100 -11q-147 -176 -268 -379z" />
    <glyph glyph-name="ocircumflex" unicode="&#xf4;" horiz-adv-x="1175" 
d="M799 422q0 133 -32 224t-85 138t-117 47q-90 0 -138 -86t-48 -247.5t61.5 -273t160.5 -111.5t148.5 88t49.5 221zM70 459q0 154 67.5 266.5t186 171.5t268.5 59q248 0 381 -131t133 -348q0 -150 -64.5 -262.5t-183.5 -172.5t-276 -60q-244 0 -378 128t-134 349zM575 1243
q-167 -95 -286 -186q-29 12 -51.5 40.5t-28.5 57.5q186 128 334 293q61 20 129 20q125 -162 313 -331q-49 -59 -129 -74q-178 127 -281 180z" />
    <glyph glyph-name="otilde" unicode="&#xf5;" horiz-adv-x="1175" 
d="M799 422q0 133 -32 224t-85 138t-117 47q-90 0 -138 -86t-48 -247.5t61.5 -273t160.5 -111.5t148.5 88t49.5 221zM70 459q0 154 67.5 266.5t186 171.5t268.5 59q248 0 381 -131t133 -348q0 -150 -64.5 -262.5t-183.5 -172.5t-276 -60q-244 0 -378 128t-134 349zM707 1114
q-41 0 -73 12.5t-101 50t-121 37.5q-90 0 -174 -92q-49 43 -52 109q129 160 271 160q63 0 152 -47.5t134 -47.5q76 0 136 76q63 -8 98 -45q-121 -213 -270 -213z" />
    <glyph glyph-name="odieresis" unicode="&#xf6;" horiz-adv-x="1175" 
d="M799 422q0 133 -32 224t-85 138t-117 47q-90 0 -138 -86t-48 -247.5t61.5 -273t160.5 -111.5t148.5 88t49.5 221zM70 459q0 154 67.5 266.5t186 171.5t268.5 59q248 0 381 -131t133 -348q0 -150 -64.5 -262.5t-183.5 -172.5t-276 -60q-244 0 -378 128t-134 349zM653 1211
q0 66 44 103.5t115 37.5t117 -39t46 -102t-37 -106.5t-117 -43.5t-124 42t-44 108zM188 1201.5q0 62.5 40 106.5t119 44t120 -41t41 -105.5t-45 -104.5t-114.5 -40t-115 39t-45.5 101.5z" />
    <glyph glyph-name="divide" unicode="&#xf7;" 
d="M561 330q144 0 144 -140q0 -61 -40.5 -99t-100.5 -38t-100 39t-40 99t32.5 99.5t104.5 39.5zM1051 612q0 -96 -23 -143q-222 4 -386 4t-378 -4l-188 -2q0 83 22 145h953zM422 887q0 68 42 102.5t102 34.5t100.5 -34t40.5 -96t-34.5 -106.5t-104.5 -44.5t-108 38t-38 106z
" />
    <glyph glyph-name="oslash" unicode="&#xf8;" horiz-adv-x="1175" 
d="M799 401.5q0 112.5 -17 188.5l-333 -381q61 -96 156 -96t144.5 88t49.5 200.5zM379 545.5q0 -113.5 14 -183.5l326 379q-65 90 -154.5 90t-137.5 -86t-48 -199.5zM1106 477q0 -150 -64.5 -262.5t-183.5 -172.5t-281.5 -60t-283.5 63l-92 -108q-113 0 -162 30l143 164
q-113 125 -112 328q0 154 67.5 266.5t186 171.5t275.5 59t271 -59l95 107q98 0 161 -39l-139 -156q119 -125 119 -332z" />
    <glyph glyph-name="ugrave" unicode="&#xf9;" horiz-adv-x="1255" 
d="M877 -18q-66 26 -66 110q0 45 10 103q-83 -207 -348 -207q-156 0 -233.5 87t-77.5 290v237q0 63 -8.5 96t-36 49.5t-86.5 20.5q0 78 22 121q106 2 201.5 21.5t146.5 45.5q59 -23 60 -112v-430q0 -137 28.5 -194.5t105.5 -57.5t133 83t56 242v125q0 63 -11 96
q-22 66 -138 70q0 82 22 121q260 4 367 57q59 -23 59 -112v-498q0 -70 8.5 -103.5t33 -47t77.5 -15.5q2 -12 2 -50t-18 -81q-172 -6 -309 -67zM448.5 1272q-59.5 76 -135.5 147q117 51 275 45q57 -190 143 -348q-51 -27 -153 -22q-70 102 -129.5 178z" />
    <glyph glyph-name="uacute" unicode="&#xfa;" horiz-adv-x="1255" 
d="M877 -18q-66 26 -66 110q0 45 10 103q-83 -207 -348 -207q-156 0 -233.5 87t-77.5 290v237q0 63 -8.5 96t-36 49.5t-86.5 20.5q0 78 22 121q106 2 201.5 21.5t146.5 45.5q59 -23 60 -112v-430q0 -137 28.5 -194.5t105.5 -57.5t133 83t56 242v125q0 63 -11 96
q-22 66 -138 70q0 82 22 121q260 4 367 57q59 -23 59 -112v-498q0 -70 8.5 -103.5t33 -47t77.5 -15.5q2 -12 2 -50t-18 -81q-172 -6 -309 -67zM670 1085q-84 0 -144 29q90 182 129 334q72 27 183 27q74 -4 100 -11q-147 -176 -268 -379z" />
    <glyph glyph-name="ucircumflex" unicode="&#xfb;" horiz-adv-x="1255" 
d="M877 -18q-66 26 -66 110q0 45 10 103q-83 -207 -348 -207q-156 0 -233.5 87t-77.5 290v237q0 63 -8.5 96t-36 49.5t-86.5 20.5q0 78 22 121q106 2 201.5 21.5t146.5 45.5q59 -23 60 -112v-430q0 -137 28.5 -194.5t105.5 -57.5t133 83t56 242v125q0 63 -11 96
q-22 66 -138 70q0 82 22 121q260 4 367 57q59 -23 59 -112v-498q0 -70 8.5 -103.5t33 -47t77.5 -15.5q2 -12 2 -50t-18 -81q-172 -6 -309 -67zM610 1243q-167 -95 -286 -186q-29 12 -51.5 40.5t-28.5 57.5q186 128 334 293q61 20 129 20q125 -162 313 -331q-49 -59 -129 -74
q-178 127 -281 180z" />
    <glyph glyph-name="udieresis" unicode="&#xfc;" horiz-adv-x="1255" 
d="M877 -18q-66 26 -66 110q0 45 10 103q-83 -207 -348 -207q-156 0 -233.5 87t-77.5 290v237q0 63 -8.5 96t-36 49.5t-86.5 20.5q0 78 22 121q106 2 201.5 21.5t146.5 45.5q59 -23 60 -112v-430q0 -137 28.5 -194.5t105.5 -57.5t133 83t56 242v125q0 63 -11 96
q-22 66 -138 70q0 82 22 121q260 4 367 57q59 -23 59 -112v-498q0 -70 8.5 -103.5t33 -47t77.5 -15.5q2 -12 2 -50t-18 -81q-172 -6 -309 -67zM688 1211q0 66 44 103.5t115 37.5t117 -39t46 -102t-37 -106.5t-117 -43.5t-124 42t-44 108zM223 1201.5q0 62.5 40 106.5t119 44
t120 -41t41 -105.5t-45 -104.5t-115 -40t-115 39t-45 101.5z" />
    <glyph glyph-name="yacute" unicode="&#xfd;" horiz-adv-x="1150" 
d="M281.5 -510q-68.5 0 -122 23.5t-81.5 58.5q-4 29 -4 77t20 113q94 -29 176.5 -28.5t126 24t80.5 80.5q14 20 47 92q-156 369 -317 701q-51 106 -84 140t-82 44q-16 55 -16 129q117 -6 293 -6t300 6q0 -76 -20 -129q-57 -10 -81.5 -25.5t-24.5 -49.5t62 -160.5t124 -290.5
l127 321q31 80 31 120t-22.5 58.5t-72.5 26.5q-18 49 -18 129q94 -6 202.5 -6t200.5 6q0 -80 -20 -129q-51 -12 -80 -46t-70 -128l-301 -717q-139 -336 -249 -401q-56 -33 -124.5 -33zM723 1085q-85 0 -143 29q90 182 129 334q72 27 182 27q74 -4 100 -11
q-147 -176 -268 -379z" />
    <glyph glyph-name="thorn" unicode="&#xfe;" horiz-adv-x="1286" 
d="M664 104q92 0 168.5 83t76.5 292q0 133 -49 221t-140 88t-152.5 -85t-61.5 -261v-268q66 -70 158 -70zM506 -137q0 -170 62.5 -201t142.5 -37q14 -41 14 -127q-105 6 -331 6t-339 -6q0 80 13 127q57 4 98 29t41 178v1305q0 76 -30 107.5t-122 35.5q0 78 23 121
q100 0 210.5 21.5t155.5 45.5q61 -25 62 -108v-434q0 -78 -12 -140q23 35 49 58q41 43 112.5 77.5t157.5 34.5q186 0 295 -105.5t109 -318.5q0 -160 -71 -285.5t-199 -195t-294 -69.5q-73 0 -147 20v-139z" />
    <glyph glyph-name="ydieresis" unicode="&#xff;" horiz-adv-x="1150" 
d="M281.5 -510q-68.5 0 -122 23.5t-81.5 58.5q-4 29 -4 77t20 113q94 -29 176.5 -28.5t126 24t80.5 80.5q14 20 47 92q-156 369 -317 701q-51 106 -84 140t-82 44q-16 55 -16 129q117 -6 293 -6t300 6q0 -76 -20 -129q-57 -10 -81.5 -25.5t-24.5 -49.5t62 -160.5t124 -290.5
l127 321q31 80 31 120t-22.5 58.5t-72.5 26.5q-18 49 -18 129q94 -6 202.5 -6t200.5 6q0 -80 -20 -129q-51 -12 -80 -46t-70 -128l-301 -717q-139 -336 -249 -401q-56 -33 -124.5 -33zM741 1211q0 66 44 103.5t115 37.5t117 -39t46 -102t-37 -106.5t-117 -43.5t-124 42
t-44 108zM276 1201.5q0 62.5 40 106.5t119 44t120 -41t41 -105.5t-45 -104.5t-114.5 -40t-115 39t-45.5 101.5z" />
    <glyph glyph-name="Amacron" unicode="&#x100;" horiz-adv-x="1456" 
d="M821 504l-110 258q-53 121 -97 262q-41 -135 -90 -260l-102 -260h399zM1127.5 0q-197.5 0 -289.5 -6q0 82 14 127q94 19 94 67q0 26 -26 91l-48 110q-272 0 -499 -14l-27 -68q-20 -57 -20 -90q0 -84 98 -96q14 -49 14 -127q-70 6 -208 6t-195 -6q0 76 16 127q51 8 83 50
t81 163l430 1052q53 11 123 11l469 -1051q79 -174 117 -204q22 -18 53 -21q16 -55 16 -127q-98 6 -295.5 6zM1077 1563q-381 0 -760 -19q0 84 19 131h760q-1 -63 -19 -112z" />
    <glyph glyph-name="amacron" unicode="&#x101;" horiz-adv-x="1124" 
d="M373 270q0 -55 27.5 -82.5t70.5 -27.5t85 28q95 64 95 222v53q-139 -25 -208.5 -66t-69.5 -127zM550.5 958q215.5 0 307.5 -92t92 -342v-176q0 -70 8.5 -103.5t33 -48t77.5 -16.5q2 -12 2 -50t-18 -81q-168 -6 -305 -67q-66 26 -66 118q0 20 8 78q-84 -194 -325 -192
q-139 0 -215 59t-76 170q0 174 163.5 249t413.5 109q0 90 -9 136.5t-36 76.5q-45 51 -114 52q-143 0 -162 -230q-120 0 -172 21q4 53 4 112.5t-17 132.5q190 84 405.5 84zM911 1292q0 -59 -18 -104q-383 0 -750 -14q1 75 19 118h749z" />
    <glyph glyph-name="Abreve" unicode="&#x102;" horiz-adv-x="1456" 
d="M821 504l-110 258q-53 121 -97 262q-41 -135 -90 -260l-102 -260h399zM1127.5 0q-197.5 0 -289.5 -6q0 82 14 127q94 19 94 67q0 26 -26 91l-48 110q-272 0 -499 -14l-27 -68q-20 -57 -20 -90q0 -84 98 -96q14 -49 14 -127q-70 6 -208 6t-195 -6q0 76 16 127q51 8 83 50
t81 163l430 1052q53 11 123 11l469 -1051q79 -174 117 -204q22 -18 53 -21q16 -55 16 -127q-98 6 -295.5 6zM704 1483q-168 0 -253.5 72.5t-85.5 211.5q51 23 99 23t60 -2q10 -61 64.5 -95t137.5 -34t133 33.5t52 95.5q33 4 65.5 4t72.5 -16q0 -144 -88.5 -218.5
t-256.5 -74.5z" />
    <glyph glyph-name="abreve" unicode="&#x103;" horiz-adv-x="1124" 
d="M373 270q0 -55 27.5 -82.5t70.5 -27.5t85 28q95 64 95 222v53q-139 -25 -208.5 -66t-69.5 -127zM550.5 958q215.5 0 307.5 -92t92 -342v-176q0 -70 8.5 -103.5t33 -48t77.5 -16.5q2 -12 2 -50t-18 -81q-168 -6 -305 -67q-66 26 -66 118q0 20 8 78q-84 -194 -325 -192
q-139 0 -215 59t-76 170q0 174 163.5 249t413.5 109q0 90 -9 136.5t-36 76.5q-45 51 -114 52q-143 0 -162 -230q-120 0 -172 21q4 53 4 112.5t-17 132.5q190 84 405.5 84zM526.5 1067q-188.5 0 -287 93t-98.5 267q66 31 158 25q14 -88 79.5 -137t170 -49t166 49t67.5 137
q12 2 51 2t82 -16q0 -181 -100 -276t-288.5 -95z" />
    <glyph glyph-name="Aogonek" unicode="&#x104;" horiz-adv-x="1456" 
d="M821 504l-110 258q-53 121 -97 262q-41 -135 -90 -260l-102 -260h399zM1024 -510q-39 0 -94.5 22.5t-94 70.5t-38.5 124q0 182 262 293l-221 -6q0 82 14 127q94 19 94 67q0 26 -26 91l-48 110q-272 0 -499 -14l-27 -68q-20 -57 -20 -90q0 -84 98 -96q14 -49 14 -127
q-70 6 -208 6t-195 -6q0 76 16 127q51 8 83 50t81 163l430 1052q53 11 123 11l469 -1051q79 -174 117 -204q22 -18 53 -21q16 -55 16 -127q-78 4 -168 4q-102 -33 -151 -85t-49 -108q0 -98 143 -98q45 0 76 10q29 -34 29 -110l-3 -23q-139 -37 -219 -92q-18 -2 -57 -2z" />
    <glyph glyph-name="aogonek" unicode="&#x105;" horiz-adv-x="1124" 
d="M373 270q0 -55 27.5 -82.5t70.5 -27.5t85 28q95 64 95 222v53q-139 -25 -208.5 -66t-69.5 -127zM1061 -366.5q0 -40.5 -2 -49.5q-133 -35 -219 -92q-16 -2 -43 -2q-92 0 -166 58.5t-74 177.5q0 72 40 136t144 122q-59 25 -59 116q0 20 8 78q-84 -194 -325 -192
q-139 0 -215 59t-76 170q0 174 163.5 249t413.5 109q0 90 -9 136.5t-36 76.5q-45 51 -114 52q-143 0 -162 -230q-120 0 -172 21q4 53 4 112.5t-17 132.5q190 84 405.5 84t307.5 -92t92 -342v-176q0 -70 8.5 -103.5t33 -48t77.5 -16.5q2 -12 2 -50t-18 -81
q-119 -29 -179.5 -93.5t-60.5 -137.5q0 -111 143 -111q47 0 78 10q27 -43 27 -83.5z" />
    <glyph glyph-name="Cacute" unicode="&#x106;" horiz-adv-x="1314" 
d="M72 706q0 217 96 376t255 240t365.5 81t430.5 -107q-23 -129 -23 -317q-47 -25 -160 -25q-4 176 -69.5 250t-188.5 74q-193 0 -285 -149.5t-92 -397t118 -418t339 -170.5q165 0 342 103q37 -33 47 -90q-211 -174 -495 -174q-199 0 -353.5 91t-240.5 253.5t-86 379.5z
M930 1802q74 0 119 -14q-125 -137 -240 -285q-84 0 -152 25q78 141 121 258q78 16 152 16z" />
    <glyph glyph-name="cacute" unicode="&#x107;" horiz-adv-x="958" 
d="M70 465q0 127 55 239.5t162.5 182t239 69.5t214 -21.5t150.5 -64.5q-20 -96 -21 -254q-59 -27 -161 -26q-6 117 -49.5 179t-120 62t-123.5 -91t-47 -241t70.5 -256t203.5 -106t217 80q43 -39 49 -98q-114 -137 -340.5 -137t-362.5 123.5t-136 359.5zM596 1085
q-85 0 -143 29q90 182 129 334q72 27 182 27q74 -4 100 -11q-147 -176 -268 -379z" />
    <glyph glyph-name="Ccircumflex" unicode="&#x108;" horiz-adv-x="1314" 
d="M72 706q0 217 96 376t255 240t365.5 81t430.5 -107q-23 -129 -23 -317q-47 -25 -160 -25q-4 176 -69.5 250t-188.5 74q-193 0 -285 -149.5t-92 -397t118 -418t339 -170.5q165 0 342 103q37 -33 47 -90q-211 -174 -495 -174q-199 0 -353.5 91t-240.5 253.5t-86 379.5z
M444.5 1525.5q-24.5 26.5 -32.5 57.5q190 117 299 217q57 16 135 17q102 -111 280 -242q-51 -68 -137 -84q-121 76 -244 127l-49 -25q-145 -70 -194 -102q-33 8 -57.5 34.5z" />
    <glyph glyph-name="ccircumflex" unicode="&#x109;" horiz-adv-x="958" 
d="M70 465q0 127 55 239.5t162.5 182t239 69.5t214 -21.5t150.5 -64.5q-20 -96 -21 -254q-59 -27 -161 -26q-6 117 -49.5 179t-120 62t-123.5 -91t-47 -241t70.5 -256t203.5 -106t217 80q43 -39 49 -98q-114 -137 -340.5 -137t-362.5 123.5t-136 359.5zM537 1243
q-171 -97 -287 -186q-29 12 -51.5 40.5t-28.5 57.5q186 128 334 293q61 20 129 20q125 -162 313 -331q-49 -59 -129 -74q-176 125 -280 180z" />
    <glyph glyph-name="Cdotaccent" unicode="&#x10a;" horiz-adv-x="1314" 
d="M72 706q0 217 96 376t255 240t365.5 81t430.5 -107q-23 -129 -23 -317q-47 -25 -160 -25q-4 176 -69.5 250t-188.5 74q-193 0 -285 -149.5t-92 -397t118 -418t339 -170.5q165 0 342 103q37 -33 47 -90q-211 -174 -495 -174q-199 0 -353.5 91t-240.5 253.5t-86 379.5z
M592 1618q0 70 50 110.5t131 40.5t127 -39.5t46 -108t-50 -111t-130 -42.5t-127 40t-47 110z" />
    <glyph glyph-name="cdotaccent" unicode="&#x10b;" horiz-adv-x="958" 
d="M70 465q0 127 55 239.5t162.5 182t239 69.5t214 -21.5t150.5 -64.5q-20 -96 -21 -254q-59 -27 -161 -26q-6 117 -49.5 179t-120 62t-123.5 -91t-47 -241t70.5 -256t203.5 -106t217 80q43 -39 49 -98q-114 -137 -340.5 -137t-362.5 123.5t-136 359.5zM365 1216.5
q0 69.5 50 110.5t131 41t127 -40t46 -108.5t-50.5 -110.5t-130 -42t-126.5 40t-47 109.5z" />
    <glyph glyph-name="Ccaron" unicode="&#x10c;" horiz-adv-x="1314" 
d="M72 706q0 217 96 376t255 240t365.5 81t430.5 -107q-23 -129 -23 -317q-47 -25 -160 -25q-4 176 -69.5 250t-188.5 74q-193 0 -285 -149.5t-92 -397t118 -418t339 -170.5q165 0 342 103q37 -33 47 -90q-211 -174 -495 -174q-199 0 -353.5 91t-240.5 253.5t-86 379.5z
M393 1733q51 66 137 84q127 -76 244 -127q166 74 244 127q35 -6 59.5 -35t30.5 -58q-188 -119 -299 -217q-47 -16 -133 -16q-107 113 -283 242z" />
    <glyph glyph-name="ccaron" unicode="&#x10d;" horiz-adv-x="958" 
d="M70 465q0 127 55 239.5t162.5 182t239 69.5t214 -21.5t150.5 -64.5q-20 -96 -21 -254q-59 -27 -161 -26q-6 117 -49.5 179t-120 62t-123.5 -91t-47 -241t70.5 -256t203.5 -106t217 80q43 -39 49 -98q-114 -137 -340.5 -137t-362.5 123.5t-136 359.5zM166 1370
q18 59 100 90q180 -127 281 -174q57 27 144 83t128 91q35 -8 61.5 -32.5t37.5 -53.5q-193 -150 -320 -301q-51 -16 -131 -16q-135 161 -301 313z" />
    <glyph glyph-name="Dcaron" unicode="&#x10e;" horiz-adv-x="1505" 
d="M1110 682q0 315 -126 450.5t-320 135.5q-70 0 -113 -19v-905q0 -88 14.5 -134t50 -64.5t105.5 -18.5q168 0 278.5 120t110.5 435zM1434 727q0 -303 -133.5 -464t-302.5 -212t-326 -51q-297 0 -586 -6q0 82 12 127q57 4 87 21.5t41.5 61.5t11.5 134v721q0 84 -11.5 124
t-40 57t-88.5 24q-12 49 -12 127q123 -6 277 -6.5t188 1.5l127 3q342 0 549 -140.5t207 -521.5zM344 1733q51 66 137 84q127 -76 244 -127q166 74 244 127q35 -6 59.5 -35t30.5 -58q-188 -119 -299 -217q-47 -16 -133 -16q-107 113 -283 242z" />
    <glyph glyph-name="dcaron" unicode="&#x10f;" horiz-adv-x="1540" 
d="M622.5 834q-91.5 0 -167.5 -83t-76 -292q0 -141 52 -225t139 -84t148.5 84.5t61.5 261.5v268q-66 70 -157.5 70zM807 95q0 48 12 100q-33 -61 -76 -101q-37 -43 -110.5 -77.5t-159.5 -34.5q-186 0 -294.5 107.5t-108.5 324.5q0 156 70.5 279.5t198.5 193t294 69.5
q78 0 147 -20v201q0 76 -28.5 107.5t-122.5 35.5q0 78 22 121q102 0 212 20.5t157 46.5q59 -25 59 -108v-1014q0 -70 8.5 -103.5t34 -47t78.5 -15.5l2 -30q0 -57 -20 -101q-168 -9 -310 -67q-35 14 -50 39.5t-15 73.5zM1292 1135q0 83 -123 98q0 104 25 186q135 10 217 64
q49 -17 70.5 -58t21.5 -122q0 -230 -186 -412q-76 0 -123 35q57 66 77.5 109.5t20.5 99.5z" />
    <glyph glyph-name="Dcroat" unicode="&#x110;" horiz-adv-x="1505" 
d="M1110 682q0 315 -126 450.5t-320 135.5q-70 0 -113 -19v-481h235q0 -88 -22 -145q-86 2 -213 2v-281q0 -88 14.5 -134t50 -64.5t105.5 -18.5q168 0 278.5 120t110.5 435zM1434 727q0 -303 -133.5 -464t-302.5 -212t-326 -51q-297 0 -586 -6q0 82 12 127q57 4 87 21.5
t41.5 61.5t11.5 134v285l-148 -5q0 94 21 150h127v291q0 84 -11.5 124t-40 57t-88.5 24q-12 49 -12 127q123 -6 277 -6.5t188 1.5l127 3q342 0 549 -140.5t207 -521.5z" />
    <glyph glyph-name="dcroat" unicode="&#x111;" horiz-adv-x="1253" 
d="M622.5 834q-91.5 0 -167.5 -83t-76 -292q0 -141 52 -225t139 -84t148.5 84.5t61.5 261.5v268q-66 70 -157.5 70zM1079 1059v-713q0 -70 8.5 -103.5t34 -47t78.5 -15.5l2 -30q0 -57 -20 -101q-168 -9 -310 -67q-35 14 -50 39.5t-15 73.5t12 100q-33 -61 -76 -101
q-37 -43 -110.5 -77.5t-159.5 -34.5q-186 0 -294.5 107.5t-108.5 324.5q0 156 70.5 279.5t198.5 193t294 69.5q78 0 147 -20v119l-180 -6q0 66 18 114h162q-4 59 -34.5 86t-116.5 31q0 78 22 121q102 0 212 20.5t157 46.5q59 -25 59 -108v-197h181q0 -49 -19 -104h-162z" />
    <glyph glyph-name="Emacron" unicode="&#x112;" horiz-adv-x="1282" 
d="M690 1264h-141v-508h59q111 0 151 31.5t42 121.5q61 20 145 21q-8 -135 -8 -241t8 -232q-94 0 -141 16q-8 92 -49 125t-148 33h-59v-287q1 -164 67 -198q36 -18 105 -19h24q193 -1 261 111q34 56 65 157q113 -16 156 -59q-41 -125 -64 -340q-205 4 -496.5 4t-580.5 -6
q0 82 12 127q57 4 87 21.5t41.5 61.5t11.5 134v721q0 84 -11.5 124t-40 57t-88.5 24q-12 39 -12 127q160 -6 519.5 -6.5t504.5 6.5q10 -215 43 -347q-61 -31 -156 -30q-18 119 -83.5 184.5t-223.5 65.5zM989 1563q-381 0 -760 -19q0 84 19 131h760q-1 -63 -19 -112z" />
    <glyph glyph-name="emacron" unicode="&#x113;" horiz-adv-x="1050" 
d="M698 541q0 137 -40 212.5t-114.5 75.5t-120.5 -72.5t-50 -215.5h325zM70 463q0 145 59 256.5t168 174t252 62.5q211 0 316.5 -117.5t113.5 -320.5q-12 -59 -51 -98q-352 0 -547 -10q18 -127 86 -200t192 -73q72 0 141.5 25.5t117.5 70.5q20 -12 35.5 -42.5t17.5 -63.5
q-153 -145 -403.5 -145t-374 133t-123.5 348zM930 1292q0 -59 -19 -104q-383 0 -749 -14q0 75 18 118h750z" />
    <glyph glyph-name="Ebreve" unicode="&#x114;" horiz-adv-x="1282" 
d="M690 1264h-141v-508h59q111 0 151 31.5t42 121.5q61 20 145 21q-8 -135 -8 -241t8 -232q-94 0 -141 16q-8 92 -49 125t-148 33h-59v-287q1 -164 67 -198q36 -18 105 -19h24q193 -1 261 111q34 56 65 157q113 -16 156 -59q-41 -125 -64 -340q-205 4 -496.5 4t-580.5 -6
q0 82 12 127q57 4 87 21.5t41.5 61.5t11.5 134v721q0 84 -11.5 124t-40 57t-88.5 24q-12 39 -12 127q160 -6 519.5 -6.5t504.5 6.5q10 -215 43 -347q-61 -31 -156 -30q-18 119 -83.5 184.5t-223.5 65.5zM616 1483q-168 0 -254 72.5t-86 211.5q51 23 99.5 23t60.5 -2
q10 -61 64.5 -95t137.5 -34t133 33.5t52 95.5q33 4 65.5 4t72.5 -16q0 -144 -88.5 -218.5t-256.5 -74.5z" />
    <glyph glyph-name="ebreve" unicode="&#x115;" horiz-adv-x="1050" 
d="M698 541q0 137 -40 212.5t-114.5 75.5t-120.5 -72.5t-50 -215.5h325zM70 463q0 145 59 256.5t168 174t252 62.5q211 0 316.5 -117.5t113.5 -320.5q-12 -59 -51 -98q-352 0 -547 -10q18 -127 86 -200t192 -73q72 0 141.5 25.5t117.5 70.5q20 -12 35.5 -42.5t17.5 -63.5
q-153 -145 -403.5 -145t-374 133t-123.5 348zM545 1067q-188 0 -286.5 93t-98.5 267q66 31 157 25q14 -88 80 -137t170.5 -49t166 49t67.5 137q12 2 51 2t82 -16q0 -181 -100.5 -276t-288.5 -95z" />
    <glyph glyph-name="Edotaccent" unicode="&#x116;" horiz-adv-x="1282" 
d="M690 1264h-141v-508h59q111 0 151 31.5t42 121.5q61 20 145 21q-8 -135 -8 -241t8 -232q-94 0 -141 16q-8 92 -49 125t-148 33h-59v-287q1 -164 67 -198q36 -18 105 -19h24q193 -1 261 111q34 56 65 157q113 -16 156 -59q-41 -125 -64 -340q-205 4 -496.5 4t-580.5 -6
q0 82 12 127q57 4 87 21.5t41.5 61.5t11.5 134v721q0 84 -11.5 124t-40 57t-88.5 24q-12 39 -12 127q160 -6 519.5 -6.5t504.5 6.5q10 -215 43 -347q-61 -31 -156 -30q-18 119 -83.5 184.5t-223.5 65.5zM440 1618q0 70 50.5 110.5t131 40.5t127 -39.5t46.5 -108t-50.5 -111
t-130 -42.5t-127 40t-47.5 110z" />
    <glyph glyph-name="edotaccent" unicode="&#x117;" horiz-adv-x="1050" 
d="M698 541q0 137 -40 212.5t-114.5 75.5t-120.5 -72.5t-50 -215.5h325zM70 463q0 145 59 256.5t168 174t252 62.5q211 0 316.5 -117.5t113.5 -320.5q-12 -59 -51 -98q-352 0 -547 -10q18 -127 86 -200t192 -73q72 0 141.5 25.5t117.5 70.5q20 -12 35.5 -42.5t17.5 -63.5
q-153 -145 -403.5 -145t-374 133t-123.5 348zM369 1216.5q0 69.5 50 110.5t131 41t127 -40t46 -108.5t-50 -110.5t-130 -42t-127 40t-47 109.5z" />
    <glyph glyph-name="Eogonek" unicode="&#x118;" horiz-adv-x="1282" 
d="M690 1264h-141v-508h59q111 0 151 31.5t42 121.5q61 20 145 21q-8 -135 -8 -241t8 -232q-94 0 -141 16q-8 92 -49 125t-148 33h-59v-287q1 -164 67 -198q36 -18 105 -19h24q193 -1 261 111q34 56 65 157q113 -16 156 -59q-41 -125 -64 -340l-110 2q-101 -33 -149 -86
q-48 -54 -48 -104q0 -102 143 -101q45 0 76 10q29 -34 29 -110l-2 -23q-139 -37 -219 -92q-18 -2 -57 -2t-94.5 22.5t-94.5 70.5t-39 124q0 182 262 293h-188q-297 0 -586 -6q0 82 12 127q57 4 87 21.5t41.5 61.5t11.5 134v721q0 84 -11.5 124t-40 57t-88.5 24
q-12 39 -12 127q160 -6 519.5 -6.5t504.5 6.5q10 -215 43 -347q-61 -31 -156 -30q-18 119 -83.5 184.5t-223.5 65.5z" />
    <glyph glyph-name="eogonek" unicode="&#x119;" horiz-adv-x="1050" 
d="M698 541q0 137 -40 212.5t-114.5 75.5t-120.5 -72.5t-50 -215.5h325zM700 -174.5q0 -118.5 146 -118.5q45 0 76 10q14 -18 22 -59t4 -74q-137 -37 -221 -92q-16 -2 -57 -2t-96.5 25.5t-92.5 79t-37 129.5t42 138t151 122q-23 -2 -70 -2q-250 0 -373.5 133t-123.5 348
q0 145 59 256.5t168 174t252 62.5q211 0 316.5 -117.5t113.5 -320.5q-12 -59 -51 -98q-352 0 -547 -10q18 -127 86 -200t192 -73q72 0 141.5 25.5t117.5 70.5q20 -12 35.5 -42.5t17.5 -63.5q-39 -35 -82 -64h2q-191 -119 -191 -237.5z" />
    <glyph glyph-name="Ecaron" unicode="&#x11a;" horiz-adv-x="1282" 
d="M690 1264h-141v-508h59q111 0 151 31.5t42 121.5q61 20 145 21q-8 -135 -8 -241t8 -232q-94 0 -141 16q-8 92 -49 125t-148 33h-59v-287q1 -164 67 -198q36 -18 105 -19h24q193 -1 261 111q34 56 65 157q113 -16 156 -59q-41 -125 -64 -340q-205 4 -496.5 4t-580.5 -6
q0 82 12 127q57 4 87 21.5t41.5 61.5t11.5 134v721q0 84 -11.5 124t-40 57t-88.5 24q-12 39 -12 127q160 -6 519.5 -6.5t504.5 6.5q10 -215 43 -347q-61 -31 -156 -30q-18 119 -83.5 184.5t-223.5 65.5zM242 1733q51 66 137 84q127 -76 244 -127q166 74 243 127
q35 -6 59.5 -35t30.5 -58q-188 -119 -299 -217q-47 -16 -133 -16q-106 113 -282 242z" />
    <glyph glyph-name="ecaron" unicode="&#x11b;" horiz-adv-x="1050" 
d="M698 541q0 137 -40 212.5t-114.5 75.5t-120.5 -72.5t-50 -215.5h325zM70 463q0 145 59 256.5t168 174t252 62.5q211 0 316.5 -117.5t113.5 -320.5q-12 -59 -51 -98q-352 0 -547 -10q18 -127 86 -200t192 -73q72 0 141.5 25.5t117.5 70.5q20 -12 35.5 -42.5t17.5 -63.5
q-153 -145 -403.5 -145t-374 133t-123.5 348zM170 1370q18 59 100 90q180 -127 281 -174q57 27 144 83t128 91q35 -8 61.5 -32.5t37.5 -53.5q-193 -150 -320 -301q-51 -16 -131 -16q-135 161 -301 313z" />
    <glyph glyph-name="Gcircumflex" unicode="&#x11c;" horiz-adv-x="1460" 
d="M1307 139q-209 -157 -561 -157q-186 0 -344 87t-244 250.5t-86 385t93 379t257 238.5t403.5 81t454.5 -103q-23 -129 -23 -317q-57 -25 -159 -25q-8 176 -85 247t-213 71t-226 -72q-174 -138 -175 -450q0 -182 48.5 -326.5t140.5 -227.5t229 -83t173 64q16 30 16 106v84
q0 78 -11.5 112.5t-43 48t-103.5 15.5q-14 45 -14 129q102 -6 254.5 -6t283.5 4q0 -80 -12 -127q-39 -2 -56.5 -14.5t-23.5 -43t-6 -100.5v-67q0 -108 33 -183zM458.5 1525.5q-24.5 26.5 -32.5 57.5q190 117 299 217q57 16 135 17q102 -111 281 -242q-51 -68 -137 -84
q-121 76 -244 127l-49 -25q-145 -70 -195 -102q-33 8 -57.5 34.5z" />
    <glyph glyph-name="gcircumflex" unicode="&#x11d;" horiz-adv-x="1130" 
d="M303 -217q0 -156 215 -156q127 0 202 48.5t75 121.5q-1 37 -21 57q-36 36 -227 37q-143 4 -203 15q-41 -49 -41 -123zM518 846q-133 0 -133 -212q0 -104 43 -165q44 -61 114 -61q138 0 138 198q0 111 -43 175.5t-119 64.5zM971 610q0 -143 -115 -233t-332 -90
q-76 0 -143 12q-37 -33 -37 -64.5t34 -47t92 -18.5t225 -5t263.5 -54.5t96.5 -180.5t-75 -226t-212 -155.5t-313 -57.5q-396 0 -396 252q0 146 150 209q-88 51 -88 173t121 224q-152 88 -152 258t109.5 260t308.5 90q88 0 162 -18h385q20 -51 20 -160q-88 31 -192 41
q88 -96 88 -209zM516 1243q-161 -92 -287 -186q-28 12 -50.5 40.5t-28.5 57.5q189 130 333 293q61 20 129 20q125 -162 314 -331q-49 -59 -129 -74q-173 123 -281 180z" />
    <glyph glyph-name="Gbreve" unicode="&#x11e;" horiz-adv-x="1460" 
d="M1307 139q-209 -157 -561 -157q-186 0 -344 87t-244 250.5t-86 385t93 379t257 238.5t403.5 81t454.5 -103q-23 -129 -23 -317q-57 -25 -159 -25q-8 176 -85 247t-213 71t-226 -72q-174 -138 -175 -450q0 -182 48.5 -326.5t140.5 -227.5t229 -83t173 64q16 30 16 106v84
q0 78 -11.5 112.5t-43 48t-103.5 15.5q-14 45 -14 129q102 -6 254.5 -6t283.5 4q0 -80 -12 -127q-39 -2 -56.5 -14.5t-23.5 -43t-6 -100.5v-67q0 -108 33 -183zM782 1483q-168 0 -254 72.5t-86 211.5q51 23 99.5 23t60.5 -2q10 -61 64.5 -95t137.5 -34t133 33.5t52 95.5
q33 4 65.5 4t71.5 -16q0 -144 -88 -218.5t-256 -74.5z" />
    <glyph glyph-name="gbreve" unicode="&#x11f;" horiz-adv-x="1130" 
d="M303 -217q0 -156 215 -156q127 0 202 48.5t75 121.5q-1 37 -21 57q-36 36 -227 37q-143 4 -203 15q-41 -49 -41 -123zM518 846q-133 0 -133 -212q0 -104 43 -165q44 -61 114 -61q138 0 138 198q0 111 -43 175.5t-119 64.5zM971 610q0 -143 -115 -233t-332 -90
q-76 0 -143 12q-37 -33 -37 -64.5t34 -47t92 -18.5t225 -5t263.5 -54.5t96.5 -180.5t-75 -226t-212 -155.5t-313 -57.5q-396 0 -396 252q0 146 150 209q-88 51 -88 173t121 224q-152 88 -152 258t109.5 260t308.5 90q88 0 162 -18h385q20 -51 20 -160q-88 31 -192 41
q88 -96 88 -209zM520.5 1067q-188.5 0 -287 93t-98.5 267q66 31 158 25q14 -88 79.5 -137t170 -49t166 49t67.5 137q12 2 51 2t82 -16q0 -181 -100 -276t-288.5 -95z" />
    <glyph glyph-name="Gdotaccent" unicode="&#x120;" horiz-adv-x="1460" 
d="M1307 139q-209 -157 -561 -157q-186 0 -344 87t-244 250.5t-86 385t93 379t257 238.5t403.5 81t454.5 -103q-23 -129 -23 -317q-57 -25 -159 -25q-8 176 -85 247t-213 71t-226 -72q-174 -138 -175 -450q0 -182 48.5 -326.5t140.5 -227.5t229 -83t173 64q16 30 16 106v84
q0 78 -11.5 112.5t-43 48t-103.5 15.5q-14 45 -14 129q102 -6 254.5 -6t283.5 4q0 -80 -12 -127q-39 -2 -56.5 -14.5t-23.5 -43t-6 -100.5v-67q0 -108 33 -183zM606 1618q0 70 50.5 110.5t131 40.5t127 -39.5t46.5 -108t-50.5 -111t-130.5 -42.5t-127 40t-47 110z" />
    <glyph glyph-name="gdotaccent" unicode="&#x121;" horiz-adv-x="1130" 
d="M303 -217q0 -156 215 -156q127 0 202 48.5t75 121.5q-1 37 -21 57q-36 36 -227 37q-143 4 -203 15q-41 -49 -41 -123zM518 846q-133 0 -133 -212q0 -104 43 -165q44 -61 114 -61q138 0 138 198q0 111 -43 175.5t-119 64.5zM971 610q0 -143 -115 -233t-332 -90
q-76 0 -143 12q-37 -33 -37 -64.5t34 -47t92 -18.5t225 -5t263.5 -54.5t96.5 -180.5t-75 -226t-212 -155.5t-313 -57.5q-396 0 -396 252q0 146 150 209q-88 51 -88 173t121 224q-152 88 -152 258t109.5 260t308.5 90q88 0 162 -18h385q20 -51 20 -160q-88 31 -192 41
q88 -96 88 -209zM344 1216.5q0 69.5 50 110.5t131 41t127 -40t46 -108.5t-50 -110.5t-130 -42t-127 40t-47 109.5z" />
    <glyph glyph-name="Gcommaaccent" unicode="&#x122;" horiz-adv-x="1460" 
d="M1307 139q-209 -157 -561 -157q-186 0 -344 87t-244 250.5t-86 385t93 379t257 238.5t403.5 81t454.5 -103q-23 -129 -23 -317q-57 -25 -159 -25q-8 176 -85 247t-213 71t-226 -72q-174 -138 -175 -450q0 -182 48.5 -326.5t140.5 -227.5t229 -83t173 64q16 30 16 106v84
q0 78 -11.5 112.5t-43 48t-103.5 15.5q-14 45 -14 129q102 -6 254.5 -6t283.5 4q0 -80 -12 -127q-39 -2 -56.5 -14.5t-23.5 -43t-6 -100.5v-67q0 -108 33 -183zM944 -238q0 -220 -225 -374q-76 0 -113 47q113 92 113 176q0 70 -109 82q-8 82 27 164q135 10 215 61
q92 -26 92 -156z" />
    <glyph glyph-name="gcommaaccent" unicode="&#x123;" horiz-adv-x="1130" 
d="M303 -217q0 -156 215 -156q127 0 202 48.5t75 121.5q-1 37 -21 57q-36 36 -227 37q-143 4 -203 15q-41 -49 -41 -123zM518 846q-133 0 -133 -212q0 -104 43 -165q44 -61 114 -61q138 0 138 198q0 111 -43 175.5t-119 64.5zM971 610q0 -143 -115 -233t-332 -90
q-76 0 -143 12q-37 -33 -37 -64.5t34 -47t92 -18.5t225 -5t263.5 -54.5t96.5 -180.5t-75 -226t-212 -155.5t-313 -57.5q-396 0 -396 252q0 146 150 209q-88 51 -88 173t121 224q-152 88 -152 258t109.5 260t308.5 90q88 0 162 -18h385q20 -51 20 -160q-88 31 -192 41
q88 -96 88 -209zM348 1176q0 168 191 311q76 0 116 -49q-82 -72 -82 -129q0 -29 25 -41.5t84 -18.5q6 -84 -25 -162q-131 -8 -217 -57q-92 23 -92 146z" />
    <glyph glyph-name="Hcircumflex" unicode="&#x124;" horiz-adv-x="1597" 
d="M1215.5 0q-191.5 0 -318.5 -6q0 78 16 127q57 4 85 21.5t39.5 59.5t11.5 126v321q-352 0 -500 -18v-303q0 -84 12 -126t41 -59.5t86 -21.5q12 -43 12 -127q-104 6 -295.5 6t-318.5 -6q0 74 14 127q57 4 86 21.5t40.5 59.5t11.5 126v731q0 84 -11.5 124t-39 57t-87.5 24
q-14 45 -14 127q104 -6 297.5 -6.5t316.5 6.5q0 -91 -14 -127q-57 -6 -86 -22.5t-40 -57.5t-11 -125v-281h500v281q0 84 -11.5 124t-39 57t-87.5 24q-14 45 -14 127q109 -6 301 -6.5t315 6.5q0 -82 -16 -127q-57 -6 -85 -22.5t-39 -57.5t-11 -125v-731q0 -84 11 -126
t40 -59.5t86 -21.5q14 -41 14 -127q-106 6 -297.5 6zM473.5 1525.5q-24.5 26.5 -33.5 57.5q190 117 299 217q57 16 135 17q102 -111 281 -242q-51 -68 -137 -84q-121 76 -244 127l-49 -25q-145 -70 -195 -102q-32 8 -56.5 34.5z" />
    <glyph glyph-name="hcircumflex" unicode="&#x125;" horiz-adv-x="1343" 
d="M858 528q0 230 -153 230q-82 0 -140.5 -87t-58.5 -241v-131q0 -102 26.5 -140t88.5 -38q18 -40 18 -127q-88 6 -290 6t-294 -6q0 88 17 127q80 0 107.5 37t27.5 141v838q0 76 -30 107.5t-122 35.5q0 78 23 121q100 0 210.5 21.5t155.5 45.5q61 -25 62 -108v-516
q0 -45 -21 -123q4 6 19.5 40t51.5 73.5t109.5 75.5t163.5 36q141 0 234.5 -82t93.5 -252v-313q0 -100 22.5 -139t80.5 -39q16 -39 16 -127q-178 6 -316.5 6t-234.5 -6q0 84 16 127q59 0 88 43t29 149v215zM202.5 1591.5q-24.5 26.5 -32.5 57.5q190 117 299 217q57 16 135 16
q102 -111 281 -242q-51 -68 -137 -84q-121 76 -244 127l-49 -24q-145 -70 -195 -103q-33 9 -57.5 35.5z" />
    <glyph glyph-name="Hbar" unicode="&#x126;" horiz-adv-x="1597" 
d="M1049 778v146l-500 -2v-144h500zM238 1049v10q0 84 -11.5 124t-39 57t-87.5 24q-14 45 -14 127q104 -6 297.5 -6.5t316.5 6.5q0 -91 -14 -127q-57 -6 -86 -22.5t-40 -57.5t-11 -125v-10h500v10q0 84 -11.5 124t-39 57t-87.5 24q-14 45 -14 127q109 -6 301 -6.5t315 6.5
q0 -82 -16 -127q-57 -6 -85 -22.5t-39 -57.5t-11 -125v-10h139q0 -57 -26 -125h-113v-596q0 -84 11 -126t40 -59.5t86 -21.5q14 -41 14 -127q-106 6 -297.5 6t-318.5 -6q0 78 16 127q57 4 85 21.5t39.5 59.5t11.5 126v321q-352 0 -500 -18v-303q0 -84 12 -126t41 -59.5
t86 -21.5q12 -43 12 -127q-104 6 -295.5 6t-318.5 -6q0 74 14 127q57 4 86 21.5t40.5 59.5t11.5 126v590l-142 -3q0 76 25 134h117z" />
    <glyph glyph-name="hbar" unicode="&#x127;" horiz-adv-x="1343" 
d="M858 528q0 230 -153 230q-82 0 -140.5 -87t-58.5 -241v-131q0 -102 26.5 -140t88.5 -38q18 -40 18 -127q-88 6 -290 6t-294 -6q0 88 17 127q80 0 107.5 37t27.5 141v705q-131 -4 -199 -9q0 74 21 138h178v4q0 76 -30 107.5t-122 35.5q0 78 23 121q100 0 210.5 21.5
t155.5 45.5q61 -25 62 -108v-227h199q0 -63 -21 -123h-178v-166q0 -45 -21 -123q4 6 19.5 40t51.5 73.5t109.5 75.5t163.5 36q141 0 234.5 -82t93.5 -252v-313q0 -100 22.5 -139t80.5 -39q16 -39 16 -127q-178 6 -316.5 6t-234.5 -6q0 84 16 127q59 0 88 43t29 149v215z" />
    <glyph glyph-name="Itilde" unicode="&#x128;" horiz-adv-x="786" 
d="M549 1059v-731q0 -84 12 -126t41 -59.5t86 -21.5q12 -43 12 -127q-104 6 -295.5 6t-318.5 -6q0 74 14 127q57 4 86 21.5t40.5 59.5t11.5 126v731q0 84 -11.5 124t-39 57t-87.5 24q-14 45 -14 127q104 -6 297.5 -6.5t316.5 6.5q0 -91 -14 -127q-57 -6 -86 -22.5t-40 -57.5
t-11 -125zM498 1493q-69 0 -119 30.5t-69 39t-48 8.5q-74 0 -156 -72q-47 35 -55 90q104 178 246 178q63 0 108.5 -29.5t66 -37.5t46.5 -8q80 0 127 65q63 -25 86 -74q-76 -190 -233 -190z" />
    <glyph glyph-name="itilde" unicode="&#x129;" horiz-adv-x="729" 
d="M221 299v326q0 76 -29.5 107.5t-121.5 35.5q0 78 22 121q100 0 211 21.5t158 45.5q59 -25 59 -108v-549q0 -102 26.5 -138t102.5 -40q12 -39 13 -127q-88 6 -297 6t-295 -6q0 82 14 127q82 4 109.5 40t27.5 138zM-4 1155q130 219 256 219q53 0 81.5 -11t77 -42t91.5 -31
q83 0 133 70q61 -25 78 -66q-41 -123 -97.5 -178t-140.5 -55q-68 0 -132 45t-110 45q-84 0 -174 -84q-55 35 -63 88z" />
    <glyph glyph-name="Imacron" unicode="&#x12a;" horiz-adv-x="786" 
d="M549 1059v-731q0 -84 12 -126t41 -59.5t86 -21.5q12 -43 12 -127q-104 6 -295.5 6t-318.5 -6q0 74 14 127q57 4 86 21.5t40.5 59.5t11.5 126v731q0 84 -11.5 124t-39 57t-87.5 24q-14 45 -14 127q104 -6 297.5 -6.5t316.5 6.5q0 -91 -14 -127q-57 -6 -86 -22.5t-40 -57.5
t-11 -125zM680 1675q0 -57 -18 -121q-268 0 -558 -18q1 92 21 139h555z" />
    <glyph glyph-name="imacron" unicode="&#x12b;" horiz-adv-x="729" 
d="M221 299v326q0 76 -29.5 107.5t-121.5 35.5q0 78 22 121q100 0 211 21.5t158 45.5q59 -25 59 -108v-549q0 -102 26.5 -138t102.5 -40q12 -39 13 -127q-88 6 -297 6t-295 -6q0 82 14 127q82 4 109.5 40t27.5 138zM616 1292q0 -63 -18 -125q-272 0 -508 -14q1 96 19 139
h507z" />
    <glyph glyph-name="Ibreve" unicode="&#x12c;" horiz-adv-x="786" 
d="M549 1059v-731q0 -84 12 -126t41 -59.5t86 -21.5q12 -43 12 -127q-104 6 -295.5 6t-318.5 -6q0 74 14 127q57 4 86 21.5t40.5 59.5t11.5 126v731q0 84 -11.5 124t-39 57t-87.5 24q-14 45 -14 127q104 -6 297.5 -6.5t316.5 6.5q0 -91 -14 -127q-57 -6 -86 -22.5t-40 -57.5
t-11 -125zM392.5 1460q-318.5 0 -318.5 303q75 30 133 19q14 -70 65.5 -109t136.5 -39t135 39t54 109q29 4 54.5 4t58.5 -14q0 -312 -318.5 -312z" />
    <glyph glyph-name="ibreve" unicode="&#x12d;" horiz-adv-x="729" 
d="M221 299v326q0 76 -29.5 107.5t-121.5 35.5q0 78 22 121q100 0 211 21.5t158 45.5q59 -25 59 -108v-549q0 -102 26.5 -138t102.5 -40q12 -39 13 -127q-88 6 -297 6t-295 -6q0 82 14 127q82 4 109.5 40t27.5 138zM350 1067q-334 0 -334 360q66 31 158 25q12 -88 63.5 -137
t135.5 -49t131 49t53 137q12 2 51 2t82 -16q0 -371 -340 -371z" />
    <glyph glyph-name="Iogonek" unicode="&#x12e;" horiz-adv-x="786" 
d="M344 -510q-39 0 -94 21.5t-94 70.5t-39 127q0 180 237 291q-160 0 -268 -6q0 74 14 127q57 4 86 21.5t40.5 59.5t11.5 126v731q0 84 -11.5 124t-39 57t-87.5 24q-14 45 -14 127q104 -6 297.5 -6.5t316.5 6.5q0 -91 -14 -127q-57 -6 -86 -22.5t-40 -57.5t-11 -125v-731
q0 -84 12 -126t41 -59.5t86 -21.5q12 -43 12 -127l-170 6q-71 -33 -113 -83t-42 -105q0 -104 143 -105q45 0 76 10q29 -34 29 -110l-2 -23q-139 -37 -220 -92q-18 -2 -57 -2z" />
    <glyph glyph-name="iogonek" unicode="&#x12f;" horiz-adv-x="729" 
d="M327 -510q-40 0 -95.5 21.5t-93.5 70.5t-38 127q0 180 238 291q-188 0 -268 -6q0 82 14 127q82 4 109.5 40t27.5 138v326q0 76 -29.5 107.5t-121.5 35.5q0 78 22 121q100 0 211 21.5t158 45.5q59 -25 59 -108v-549q0 -102 26.5 -138t102.5 -40q12 -39 13 -127
q-70 4 -150 4q-72 -33 -114 -82t-42 -104q0 -104 144 -105q45 0 78 10q26 -42 26 -110l-2 -23q-139 -37 -219 -92q-16 -2 -56 -2zM176 1263q0 69 50 110.5t131 41.5t127 -41t46 -108t-50 -109.5t-130 -42.5t-127 40t-47 109z" />
    <glyph glyph-name="Idotaccent" unicode="&#x130;" horiz-adv-x="786" 
d="M549 1059v-731q0 -84 12 -126t41 -59.5t86 -21.5q12 -43 12 -127q-104 6 -295.5 6t-318.5 -6q0 74 14 127q57 4 86 21.5t40.5 59.5t11.5 126v731q0 84 -11.5 124t-39 57t-87.5 24q-14 45 -14 127q104 -6 297.5 -6.5t316.5 6.5q0 -91 -14 -127q-57 -6 -86 -22.5t-40 -57.5
t-11 -125zM215 1618q0 70 50 110.5t131 40.5t127 -39.5t46 -108t-50 -111t-130 -42.5t-127 40t-47 110z" />
    <glyph glyph-name="dotlessi" unicode="&#x131;" horiz-adv-x="729" 
d="M221 299v326q0 76 -29.5 107.5t-121.5 35.5q0 78 22 121q100 0 211 21.5t158 45.5q59 -25 59 -108v-549q0 -102 26.5 -138t102.5 -40q12 -39 13 -127q-88 6 -297 6t-295 -6q0 82 14 127q82 4 109.5 40t27.5 138z" />
    <glyph glyph-name="IJ" unicode="&#x132;" horiz-adv-x="1427" 
d="M891 102v953q0 86 -11.5 128t-40 58t-85.5 23q-14 45 -15 127q74 -6 309 -6.5t308 6.5q0 -80 -17 -127q-57 -6 -85.5 -24.5t-39 -60.5t-10.5 -124v-787q0 -207 -35.5 -343t-140 -242.5t-305.5 -192.5q-47 33 -57 109q80 59 128 123q97 128 97 380zM549 1059v-731
q0 -84 12 -126t41 -59.5t86 -21.5q12 -43 12 -127q-104 6 -295.5 6t-318.5 -6q0 74 14 127q57 4 86 21.5t40.5 59.5t11.5 126v731q0 84 -11.5 124t-39 57t-87.5 24q-14 45 -14 127q104 -6 297.5 -6.5t316.5 6.5q0 -91 -14 -127q-57 -6 -86 -22.5t-40 -57.5t-11 -125z" />
    <glyph glyph-name="ij" unicode="&#x133;" horiz-adv-x="1232" 
d="M809 59v566q0 76 -28.5 107.5t-123.5 35.5q0 78 23 121q102 0 211.5 20.5t157.5 46.5q59 -25 59 -108v-723q0 -223 -124 -387t-288 -248q-28 14 -48.5 44t-24.5 67q106 113 146 212t40 246zM221 299v326q0 76 -29.5 107.5t-121.5 35.5q0 78 22 121q100 0 211 21.5
t158 45.5q59 -25 59 -108v-549q0 -102 26.5 -138t102.5 -40q12 -39 13 -127q-88 6 -297 6t-295 -6q0 82 14 127q82 4 109.5 40t27.5 138zM764 1263q0 69 50 110.5t131 41.5t127 -41t46 -108t-50 -109.5t-130 -42.5t-127 40t-47 109zM176 1263q0 69 50 110.5t131 41.5
t127 -41t46 -108t-50 -109.5t-130 -42.5t-127 40t-47 109z" />
    <glyph glyph-name="Jcircumflex" unicode="&#x134;" horiz-adv-x="747" 
d="M211 102v953q0 86 -11.5 128t-40 58t-85.5 23q-14 45 -15 127q74 -6 309 -6.5t308 6.5q0 -80 -17 -127q-57 -6 -85.5 -24.5t-39 -60.5t-10.5 -124v-787q0 -207 -35.5 -343t-140 -242.5t-305.5 -192.5q-47 33 -57 109q80 59 128 123q97 128 97 380zM51 1542q61 51 185 170
l69 68q94 20 135 20q82 -102 244 -272q-25 -29 -68 -49.5t-84 -24.5q-78 66 -200 135q-100 -63 -174 -137q-76 24 -107 90z" />
    <glyph glyph-name="jcircumflex" unicode="&#x135;" horiz-adv-x="638" 
d="M215 59v566q0 76 -28.5 107.5t-123.5 35.5q0 78 23 121q102 0 212 20.5t157 46.5q59 -25 59 -108v-723q0 -223 -124 -387t-288 -248q-28 14 -48.5 44t-24.5 67q106 113 146 212t40 246zM666 1130q-53 -53 -152 -67q-102 109 -201 182q-106 -100 -174 -188q-75 30 -106 96
q66 68 215 248l39 47q84 18 135 18q90 -139 244 -336z" />
    <glyph glyph-name="Kcommaaccent" unicode="&#x136;" horiz-adv-x="1488" 
d="M549 328q0 -84 12 -126t41 -59.5t86 -21.5q12 -43 12 -127q-104 6 -295.5 6t-318.5 -6q0 74 14 127q57 4 86 21.5t40.5 59.5t11.5 126v731q0 84 -11.5 124t-39 57t-87.5 24q-14 45 -14 127q104 -6 297.5 -6.5t316.5 6.5q0 -91 -14 -127q-57 -6 -86 -22.5t-40 -57.5
t-11 -125v-307l325 331q88 88 89 138q0 39 -60 43q-14 43 -14 127q72 -6 243 -6.5t246 6.5q0 -78 -18 -127q-76 -4 -141.5 -41t-147.5 -125l-272 -283q160 -176 372 -485q74 -109 133.5 -153t153.5 -52q0 -86 -18 -125q-298 0 -432 -16q-82 156 -206 338t-253 319v-313z
M907 -238q0 -220 -225 -374q-76 0 -113 47q113 92 113 176q0 70 -109 82q-8 82 27 164q135 10 215 61q92 -26 92 -156z" />
    <glyph glyph-name="kcommaaccent" unicode="&#x137;" horiz-adv-x="1249" 
d="M506 299q0 -98 22.5 -136t81.5 -42q14 -39 15 -127q-92 6 -288 6t-282 -6q0 82 15 127q82 4 109.5 40t27.5 138v838q0 76 -30 107.5t-122 35.5q0 78 23 121q100 0 210.5 21.5t155.5 45.5q61 -25 62 -108v-825l141 124q100 90 101 123q0 31 -58 35q-20 61 -20 125
q135 -4 246.5 -4t234.5 4q0 -76 -21 -125q-78 -6 -132 -31.5t-128 -93.5l-127 -117q135 -129 299 -342q48 -61 81.5 -82.5t90.5 -25.5q0 -76 -20 -125q-215 0 -332 -18q-142 215 -356 454v-137zM786 -238q0 -222 -225 -374q-76 0 -112 47q112 92 112 176q0 70 -108 82
q-9 84 26 164q135 10 215 61q92 -26 92 -156z" />
    <glyph glyph-name="kgreenlandic" unicode="&#x138;" horiz-adv-x="1263" 
d="M520 299q0 -98 22.5 -136t82.5 -42q14 -39 14 -127q-92 6 -288 6t-281 -6q0 82 14 127q82 4 109.5 40t27.5 138v326q0 76 -29.5 107.5t-121.5 35.5q0 78 22 121q100 0 211 21.5t158 45.5q59 -25 59 -108v-313l142 124q100 90 100 122t-57 36q-18 55 -19 125
q131 -4 244 -4t235 4q0 -76 -20 -125q-78 -6 -132.5 -31.5t-127.5 -93.5l-127 -117q135 -129 299 -342q39 -51 60.5 -71.5t44 -26.5t67.5 -10q0 -76 -21 -125q-215 0 -331 -18q-156 232 -357 454v-137z" />
    <glyph glyph-name="Lacute" unicode="&#x139;" horiz-adv-x="1239" 
d="M656.5 0q-281.5 0 -570.5 -6q0 82 12 127q57 4 87 21.5t41.5 61.5t11.5 134v721q0 82 -11.5 123t-40 58t-88.5 24q-12 49 -12 127q371 -14 616 0q0 -88 -14 -127q-57 -6 -86 -22.5t-40 -58.5t-11 -128v-711q0 -88 14.5 -134t50 -64.5t105.5 -18.5h24q132 0 197.5 59.5
t110.5 208.5q113 -16 157 -59q-45 -141 -63 -340q-209 4 -490.5 4zM553 1802q74 0 119 -14q-125 -137 -240 -285q-83 0 -151 25q78 141 120 258q78 16 152 16z" />
    <glyph glyph-name="lacute" unicode="&#x13a;" horiz-adv-x="702" 
d="M207 299v850q0 68 -32 97.5t-120 33.5q0 78 23 121q100 0 210.5 21.5t155.5 45.5q61 -25 62 -108v-1061q0 -102 26.5 -138t102.5 -40q12 -39 12 -127q-88 6 -297 6t-295 -6q1 82 15 127q82 4 109.5 40t27.5 138zM244 1593q78 141 121 258q171 35 270 2
q-125 -137 -240 -284q-83 -1 -151 24z" />
    <glyph glyph-name="Lcommaaccent" unicode="&#x13b;" horiz-adv-x="1239" 
d="M656.5 0q-281.5 0 -570.5 -6q0 82 12 127q57 4 87 21.5t41.5 61.5t11.5 134v721q0 82 -11.5 123t-40 58t-88.5 24q-12 49 -12 127q371 -14 616 0q0 -88 -14 -127q-57 -6 -86 -22.5t-40 -58.5t-11 -128v-711q0 -88 14.5 -134t50 -64.5t105.5 -18.5h24q132 0 197.5 59.5
t110.5 208.5q113 -16 157 -59q-45 -141 -63 -340q-209 4 -490.5 4zM791 -238q0 -221 -226 -374q-76 0 -112 47q112 92 112 176q0 70 -108 82q-9 84 26 164q135 10 215 61q93 -26 93 -156z" />
    <glyph glyph-name="lcommaaccent" unicode="&#x13c;" horiz-adv-x="702" 
d="M207 299v850q0 68 -32 97.5t-120 33.5q0 78 23 121q100 0 210.5 21.5t155.5 45.5q61 -25 62 -108v-1061q0 -102 26.5 -138t102.5 -40q12 -39 12 -127q-88 6 -297 6t-295 -6q1 82 15 127q82 4 109.5 40t27.5 138zM514 -238q0 -220 -225 -374q-76 0 -113 47q113 92 113 176
q0 70 -109 82q-9 86 27 164q135 10 215 61q92 -26 92 -156z" />
    <glyph glyph-name="Lcaron" unicode="&#x13d;" horiz-adv-x="1239" 
d="M656.5 0q-281.5 0 -570.5 -6q0 82 12 127q57 4 87 21.5t41.5 61.5t11.5 134v721q0 82 -11.5 123t-40 58t-88.5 24q-12 49 -12 127q371 -14 616 0q0 -88 -14 -127q-57 -6 -86 -22.5t-40 -58.5t-11 -128v-711q0 -88 14.5 -134t50 -64.5t105.5 -18.5h24q132 0 197.5 59.5
t110.5 208.5q113 -16 157 -59q-45 -141 -63 -340q-209 4 -490.5 4zM1190 1303q0 -230 -186 -412q-72 0 -123 35q57 68 77.5 111.5t20.5 97.5q0 86 -123 98q0 104 25 186q139 12 217 64q49 -16 70.5 -57.5t21.5 -122.5z" />
    <glyph glyph-name="lcaron" unicode="&#x13e;" horiz-adv-x="1013" 
d="M207 299v850q0 68 -32 97.5t-120 33.5q0 78 23 121q100 0 210.5 21.5t155.5 45.5q61 -25 62 -108v-1061q0 -102 26.5 -138t102.5 -40q12 -39 12 -127q-88 6 -297 6t-295 -6q1 82 15 127q82 4 109.5 40t27.5 138zM963 1303q0 -229 -187 -412q-72 0 -123 35q57 68 78 111.5
t21 97.5q0 86 -123 98q0 104 24 186q139 12 217 64q49 -16 71 -57.5t22 -122.5z" />
    <glyph glyph-name="Ldot" unicode="&#x13f;" horiz-adv-x="1239" 
d="M879 734q0 58 39.5 95t99 37t95.5 -37.5t36 -92t-38 -91.5t-99.5 -37t-97 34t-35.5 92zM656.5 0q-281.5 0 -570.5 -6q0 82 12 127q57 4 87 21.5t41.5 61.5t11.5 134v721q0 82 -11.5 123t-40 58t-88.5 24q-12 49 -12 127q371 -14 616 0q0 -88 -14 -127q-57 -6 -86 -22.5
t-40 -58.5t-11 -128v-711q0 -88 14.5 -134t50 -64.5t105.5 -18.5h24q132 0 197.5 59.5t110.5 208.5q113 -16 157 -59q-45 -141 -63 -340q-209 4 -490.5 4z" />
    <glyph glyph-name="ldot" unicode="&#x140;" horiz-adv-x="702" 
d="M580 715.5q0 58.5 41 95.5t99 37t94 -38t36 -92t-38 -92t-99.5 -38t-97 34.5t-35.5 93zM207 299v850q0 68 -32 97.5t-120 33.5q0 78 23 121q100 0 210.5 21.5t155.5 45.5q61 -25 62 -108v-1061q0 -102 26.5 -138t102.5 -40q12 -39 12 -127q-88 6 -297 6t-295 -6
q1 82 15 127q82 4 109.5 40t27.5 138z" />
    <glyph glyph-name="Lslash" unicode="&#x141;" horiz-adv-x="1239" 
d="M551 344q0 -88 14.5 -134t50 -64.5t105.5 -18.5h24q131 0 197 59.5t111 208.5q112 -16 157 -59q-45 -141 -63 -340q-209 4 -490.5 4t-570.5 -6q0 82 12 127q57 4 87 21.5t41.5 61.5t11.5 134v164l-148 -96q-47 71 -57 141l205 131v381q0 82 -11.5 123t-40 58t-88.5 24
q-12 49 -12 127q371 -14 616 0q0 -88 -14 -127q-57 -6 -86 -22.5t-40 -58.5t-11 -128v-217l160 100q43 -67 53 -135l-213 -137v-322z" />
    <glyph glyph-name="lslash" unicode="&#x142;" horiz-adv-x="702" 
d="M506 299q0 -102 26.5 -138t102.5 -40q12 -39 12 -127q-88 6 -297 6t-295 -6q0 82 15 127q82 4 109.5 40t27.5 138v211l-154 -100q-47 71 -57 141l211 135v463q0 68 -32 97.5t-120 33.5q0 78 23 121q100 0 210.5 21.5t155.5 45.5q61 -25 62 -108v-524l168 106
q44 -68 53 -135l-221 -143v-365z" />
    <glyph glyph-name="Nacute" unicode="&#x143;" horiz-adv-x="1484" 
d="M1276 971v-971q-55 -16 -143 -16l-764 1015v-581q0 -119 12 -180.5t44 -87t95 -29.5q14 -41 15 -127q-88 6 -239 6t-228 -6q0 86 14 127q61 5 94 31q62 50 62 266v758l-21 26q-23 31 -49.5 43t-85.5 19q-14 51 -14 127q74 -6 218 -6.5t191 6.5l666 -899v479
q0 119 -12.5 178t-46 83.5t-101.5 31.5q-12 57 -12 127q90 -6 228 -6t214 6q0 -78 -12 -127q-51 -4 -78 -29t-37 -85t-10 -179zM911.5 1802q73.5 0 118.5 -14q-125 -137 -239 -285q-84 0 -152 25q78 141 121 258q78 16 151.5 16z" />
    <glyph glyph-name="nacute" unicode="&#x144;" horiz-adv-x="1357" 
d="M973.5 0q-138.5 0 -234.5 -6q0 84 17 127q59 0 87.5 43t28.5 149v215q0 125 -37.5 177.5t-117.5 52.5t-138.5 -87t-58.5 -241v-131q0 -102 26.5 -140t90.5 -38q16 -45 16 -127q-88 6 -289.5 6t-293.5 -6q0 88 16 127q80 0 107.5 37t27.5 141v303q0 63 -10 96t-41 49.5
t-98 20.5q0 80 24 121q109 2 211.5 21.5t153.5 45.5q59 -23 59 -112q0 -55 -20 -123q4 6 19.5 40t51 73.5t109.5 75.5t164 36q141 0 234 -81t93 -253v-313q0 -100 23 -139t80 -39q16 -39 16 -127q-178 6 -316.5 6zM739 1085q-83 0 -143 29q90 182 129 334q72 27 182 27
q74 -4 101 -11q-147 -176 -269 -379z" />
    <glyph glyph-name="Ncommaaccent" unicode="&#x145;" horiz-adv-x="1484" 
d="M1276 971v-971q-55 -16 -143 -16l-764 1015v-581q0 -119 12 -180.5t44 -87t95 -29.5q14 -41 15 -127q-88 6 -239 6t-228 -6q0 86 14 127q61 5 94 31q62 50 62 266v758l-21 26q-23 31 -49.5 43t-85.5 19q-14 51 -14 127q74 -6 218 -6.5t191 6.5l666 -899v479
q0 119 -12.5 178t-46 83.5t-101.5 31.5q-12 57 -12 127q90 -6 228 -6t214 6q0 -78 -12 -127q-51 -4 -78 -29t-37 -85t-10 -179zM967 -238q0 -221 -226 -374q-76 0 -112 47q112 92 112 176q0 70 -108 82q-9 84 26 164q135 10 215 61q93 -26 93 -156z" />
    <glyph glyph-name="ncommaaccent" unicode="&#x146;" horiz-adv-x="1357" 
d="M973.5 0q-138.5 0 -234.5 -6q0 84 17 127q59 0 87.5 43t28.5 149v215q0 125 -37.5 177.5t-117.5 52.5t-138.5 -87t-58.5 -241v-131q0 -102 26.5 -140t90.5 -38q16 -45 16 -127q-88 6 -289.5 6t-293.5 -6q0 88 16 127q80 0 107.5 37t27.5 141v303q0 63 -10 96t-41 49.5
t-98 20.5q0 80 24 121q109 2 211.5 21.5t153.5 45.5q59 -23 59 -112q0 -55 -20 -123q4 6 19.5 40t51 73.5t109.5 75.5t164 36q141 0 234 -81t93 -253v-313q0 -100 23 -139t80 -39q16 -39 16 -127q-178 6 -316.5 6zM848 -238q0 -220 -225 -374q-76 0 -113 47q113 92 113 176
q0 70 -109 82q-9 86 27 164q135 10 215 61q92 -26 92 -156z" />
    <glyph glyph-name="Ncaron" unicode="&#x147;" horiz-adv-x="1484" 
d="M1276 971v-971q-55 -16 -143 -16l-764 1015v-581q0 -119 12 -180.5t44 -87t95 -29.5q14 -41 15 -127q-88 6 -239 6t-228 -6q0 86 14 127q61 5 94 31q62 50 62 266v758l-21 26q-23 31 -49.5 43t-85.5 19q-14 51 -14 127q74 -6 218 -6.5t191 6.5l666 -899v479
q0 119 -12.5 178t-46 83.5t-101.5 31.5q-12 57 -12 127q90 -6 228 -6t214 6q0 -78 -12 -127q-51 -4 -78 -29t-37 -85t-10 -179zM375 1733q51 66 137 84q127 -76 244 -127q166 74 243 127q35 -6 59.5 -35t31.5 -58q-188 -119 -299 -217q-47 -16 -134 -16q-106 113 -282 242z
" />
    <glyph glyph-name="ncaron" unicode="&#x148;" horiz-adv-x="1357" 
d="M973.5 0q-138.5 0 -234.5 -6q0 84 17 127q59 0 87.5 43t28.5 149v215q0 125 -37.5 177.5t-117.5 52.5t-138.5 -87t-58.5 -241v-131q0 -102 26.5 -140t90.5 -38q16 -45 16 -127q-88 6 -289.5 6t-293.5 -6q0 88 16 127q80 0 107.5 37t27.5 141v303q0 63 -10 96t-41 49.5
t-98 20.5q0 80 24 121q109 2 211.5 21.5t153.5 45.5q59 -23 59 -112q0 -55 -20 -123q4 6 19.5 40t51 73.5t109.5 75.5t164 36q141 0 234 -81t93 -253v-313q0 -100 23 -139t80 -39q16 -39 16 -127q-178 6 -316.5 6zM309 1370q18 59 101 90q180 -127 280 -174q57 27 144.5 83
t128.5 91q35 -8 61.5 -32.5t36.5 -53.5q-193 -150 -320 -301q-51 -16 -131 -16q-135 161 -301 313z" />
    <glyph glyph-name="napostrophe" unicode="&#x149;" horiz-adv-x="1744" 
d="M262 1133q0 84 -123 100q0 104 25 186q137 12 217 64q49 -16 70.5 -57.5t21.5 -145.5t-61.5 -229t-163.5 -220q-82 4 -121 46q135 152 135 256zM1360.5 0q-138.5 0 -234.5 -6q0 84 17 127q59 0 88 43t29 149v215q0 125 -38 177.5t-118 52.5t-138.5 -87t-58.5 -241v-131
q0 -102 27 -140t90 -38q16 -45 16 -127q-88 6 -289.5 6t-293.5 -6q0 88 16 127q80 0 107.5 37t27.5 141v303q0 63 -10 96t-41 49.5t-98 20.5q0 80 24 121q109 2 211.5 21.5t153.5 45.5q59 -23 59 -112q0 -55 -20 -123q4 6 19.5 40t51 73.5t109.5 75.5t164 36
q141 0 234.5 -81t93.5 -253v-313q0 -100 22.5 -139t79.5 -39q16 -39 16 -127q-178 6 -316.5 6z" />
    <glyph glyph-name="Eng" unicode="&#x14a;" horiz-adv-x="1484" 
d="M1276 971v-703q0 -207 -36 -343t-140.5 -242.5t-304.5 -192.5q-51 35 -58 109q104 76 198.5 170.5t94.5 326.5v25l-661 880v-583q0 -119 12 -180.5t44 -87t95 -29.5q14 -41 15 -127q-88 6 -230 6h-123q-88 0 -114 -2q0 82 14 123q61 4 108.5 42t47.5 255v758l-21 26
q-23 31 -49.5 43t-85.5 19q-14 51 -14 127q74 -7 218 -7t191 7l666 -899v479q0 119 -12.5 178t-46 83.5t-101.5 31.5q-12 57 -12 127q90 -6 228 -6t214 6q0 -86 -12 -127q-51 -4 -78 -29t-37 -85t-10 -179z" />
    <glyph glyph-name="eng" unicode="&#x14b;" horiz-adv-x="1296" 
d="M1171 612v-389q0 -197 -65.5 -365.5t-176 -268t-237.5 -99.5q-61 0 -114.5 23.5t-81.5 58.5q-4 16 -4 76t18 114q94 -28 180 -28t124 35.5t49 103.5t11 193v247h-2v215q0 125 -37.5 177.5t-117.5 52.5t-138.5 -87t-58.5 -241v-131q0 -102 26.5 -140t90.5 -38
q16 -45 16 -127q-87 6 -289 6t-294 -6q0 88 16 127q80 0 107.5 37t27.5 141v303q0 63 -10 96t-41 49.5t-98 20.5q0 80 24 121q109 2 211.5 21.5t153.5 45.5q59 -23 59 -112q0 -55 -20 -123q4 6 19 39.5t51 73.5t110 76t164 36q141 0 234 -81t93 -253z" />
    <glyph glyph-name="Omacron" unicode="&#x14c;" horiz-adv-x="1531" 
d="M1133 666q0 168 -50.5 307t-142.5 220t-209 81q-152 0 -242 -140.5t-90 -383.5q0 -172 45 -317.5t134.5 -231.5t218.5 -86q157 0 246.5 151.5t89.5 399.5zM72 699q0 210 89 370t246.5 247t359.5 87t359.5 -86t245.5 -242.5t88 -364.5t-87 -374t-245.5 -260t-365.5 -94
t-363.5 91t-241.5 253.5t-85 372.5zM1155 1675q0 -63 -18 -112q-381 0 -760 -19q0 84 18 131h760z" />
    <glyph glyph-name="omacron" unicode="&#x14d;" horiz-adv-x="1175" 
d="M799 422q0 133 -32 224t-85 138t-117 47q-90 0 -138 -86t-48 -247.5t61.5 -273t160.5 -111.5t148.5 88t49.5 221zM70 459q0 154 67.5 266.5t186 171.5t268.5 59q248 0 381 -131t133 -348q0 -150 -64.5 -262.5t-183.5 -172.5t-276 -60q-244 0 -378 128t-134 349zM965 1292
q0 -59 -19 -104q-383 0 -749 -14q0 75 18 118h750z" />
    <glyph glyph-name="Obreve" unicode="&#x14e;" horiz-adv-x="1531" 
d="M1133 666q0 168 -50.5 307t-142.5 220t-209 81q-152 0 -242 -140.5t-90 -383.5q0 -172 45 -317.5t134.5 -231.5t218.5 -86q157 0 246.5 151.5t89.5 399.5zM72 699q0 210 89 370t246.5 247t359.5 87t359.5 -86t245.5 -242.5t88 -364.5t-87 -374t-245.5 -260t-365.5 -94
t-363.5 91t-241.5 253.5t-85 372.5zM764 1483q-168 0 -254 72.5t-86 211.5q51 23 99.5 23t60.5 -2q10 -61 64 -95t137 -34t133.5 33.5t52.5 95.5q33 4 65.5 4t71.5 -16q0 -144 -88 -218.5t-256 -74.5z" />
    <glyph glyph-name="obreve" unicode="&#x14f;" horiz-adv-x="1175" 
d="M799 422q0 133 -32 224t-85 138t-117 47q-90 0 -138 -86t-48 -247.5t61.5 -273t160.5 -111.5t148.5 88t49.5 221zM70 459q0 154 67.5 266.5t186 171.5t268.5 59q248 0 381 -131t133 -348q0 -150 -64.5 -262.5t-183.5 -172.5t-276 -60q-244 0 -378 128t-134 349zM580 1067
q-188 0 -286.5 93t-98.5 267q66 31 157 25q14 -88 80 -137t170.5 -49t165.5 49t68 137q12 2 50.5 2t82.5 -16q0 -181 -100.5 -276t-288.5 -95z" />
    <glyph glyph-name="Ohungarumlaut" unicode="&#x150;" horiz-adv-x="1531" 
d="M1133 666q0 168 -50.5 307t-142.5 220t-209 81q-152 0 -242 -140.5t-90 -383.5q0 -172 45 -317.5t134.5 -231.5t218.5 -86q157 0 246.5 151.5t89.5 399.5zM72 699q0 210 89 370t246.5 247t359.5 87t359.5 -86t245.5 -242.5t88 -364.5t-87 -374t-245.5 -260t-365.5 -94
t-363.5 91t-241.5 253.5t-85 372.5zM991 1503q-92 5 -143 39q53 109 94 236q78 29 160.5 28.5t120.5 -14.5q-123 -135 -232 -289zM618 1503q-89 5 -143 39q53 109 94 236q74 29 158 28.5t121 -14.5q-125 -139 -230 -289z" />
    <glyph glyph-name="ohungarumlaut" unicode="&#x151;" horiz-adv-x="1175" 
d="M799 422q0 133 -32 224t-85 138t-117 47q-90 0 -138 -86t-48 -247.5t61.5 -273t160.5 -111.5t148.5 88t49.5 221zM70 459q0 154 67.5 266.5t186 171.5t268.5 59q248 0 381 -131t133 -348q0 -150 -64.5 -262.5t-183.5 -172.5t-276 -60q-244 0 -378 128t-134 349zM805 1085
q-85 0 -143 29q90 182 129 334q72 27 184 27q72 -4 98 -11q-156 -188 -268 -379zM432 1085q-85 0 -143 29q90 182 129 334q72 27 182 27q74 -4 100 -11q-147 -176 -268 -379z" />
    <glyph glyph-name="OE" unicode="&#x152;" horiz-adv-x="2043" 
d="M391 723q0 -264 98.5 -436t280.5 -172q141 0 224 146.5t83 412.5q0 180 -46 315t-128 209t-182 74q-156 0 -243 -142.5t-87 -406.5zM1460 1268h-301q221 -160 232 -520h24q100 0 137 35.5t39 117.5q53 20 144 21q-6 -166 -6 -240t6 -233q-84 0 -140 16q-8 88 -46 124
t-144 36h-19q-25 -330 -235 -500h375q172 1 242 115q36 58 65 155q111 -16 156 -59q-41 -125 -64 -340q-205 4 -528 4l-654 -18q-209 0 -360.5 87t-231 247.5t-79.5 374.5t84 375t237.5 248t356.5 87l600 -17q352 0 532 7q10 -215 43 -344q-66 -31 -156 -31
q-18 121 -83.5 186.5t-225.5 65.5z" />
    <glyph glyph-name="oe" unicode="&#x153;" horiz-adv-x="1697" 
d="M1348 539q0 129 -39 209.5t-106.5 80.5t-109.5 -77.5t-46 -212.5h301zM758 449.5q0 164.5 -56.5 273t-143.5 108.5t-134 -83.5t-47 -249.5t58.5 -275.5t158.5 -109.5q76 0 120 86t44 250.5zM1246 -18q-220 0 -345 118q-125 -119 -345 -118.5t-353 129.5t-133 353t136 358
t357 134t342 -114q121 115 316 114q133 0 224 -61q177 -118 181 -379q-12 -59 -51 -98q-315 0 -520 -12q20 -127 89.5 -198t178.5 -71q59 0 127 26.5t115 69.5q20 -12 35.5 -42.5t17.5 -63.5q-152 -145 -372 -145z" />
    <glyph glyph-name="Racute" unicode="&#x154;" horiz-adv-x="1439" 
d="M932 985q0 135 -67.5 208t-198.5 73q-66 0 -117 -17v-538q43 -8 76 -9q131 0 219 74t88 209zM1260 1027q0 -161 -86.5 -264.5t-231.5 -139.5q74 -47 120 -109.5t130 -222.5q55 -96 93 -127t120 -37q0 -72 -16 -127q-281 0 -398 -18q-57 106 -119 249l-22 52
q-47 106 -88 168.5t-107 123.5l-53 -2l-53 2v-235q1 -168 45 -198q24 -16 72 -21q12 -33 12 -127q-123 6 -299 6t-293 -6q0 78 12 127q57 3 86 21q54 33 54 186v733q0 84 -11.5 125t-40 57.5t-88.5 22.5q-12 41 -12 125q190 -6 303 -7l389 9q238 0 360 -102.5t122 -263.5z
M825.5 1802q73.5 0 118.5 -14q-125 -137 -239 -285q-84 0 -152 25q78 141 121 258q78 16 151.5 16z" />
    <glyph glyph-name="racute" unicode="&#x155;" horiz-adv-x="978" 
d="M520 459v-101q0 -168 82 -210q43 -22 123 -27q14 -41 14 -127q-109 6 -333 6t-336 -6q0 82 12 127q57 4 86 21.5t41 59.5t12 126v274q0 63 -10 96t-41 49.5t-98 20.5q0 80 24 121q109 2 211.5 21.5t153.5 45.5q59 -23 59 -105.5t-33 -203.5q33 100 52 129
q103 166 261 166q81 0 144 -49q-18 -119 -18 -201t2 -100q-59 -23 -174 -23q-4 144 -88 144q-31 0 -66 -36t-57.5 -95.5t-22.5 -122.5zM578 1085q-84 0 -144 29q90 182 129 334q72 27 182 27q74 -4 101 -11q-147 -176 -268 -379z" />
    <glyph glyph-name="Rcommaaccent" unicode="&#x156;" horiz-adv-x="1439" 
d="M932 985q0 135 -67.5 208t-198.5 73q-66 0 -117 -17v-538q43 -8 76 -9q131 0 219 74t88 209zM1260 1027q0 -161 -86.5 -264.5t-231.5 -139.5q74 -47 120 -109.5t130 -222.5q55 -96 93 -127t120 -37q0 -72 -16 -127q-281 0 -398 -18q-57 106 -119 249l-22 52
q-47 106 -88 168.5t-107 123.5l-53 -2l-53 2v-235q1 -168 45 -198q24 -16 72 -21q12 -33 12 -127q-123 6 -299 6t-293 -6q0 78 12 127q57 3 86 21q54 33 54 186v733q0 84 -11.5 125t-40 57.5t-88.5 22.5q-12 41 -12 125q190 -6 303 -7l389 9q238 0 360 -102.5t122 -263.5z
M930 -238q0 -220 -225 -374q-76 0 -113 47q113 92 113 176q0 70 -109 82q-9 86 27 164q135 10 215 61q92 -26 92 -156z" />
    <glyph glyph-name="rcommaaccent" unicode="&#x157;" horiz-adv-x="978" 
d="M520 459v-101q0 -168 82 -210q43 -22 123 -27q14 -41 14 -127q-109 6 -333 6t-336 -6q0 82 12 127q57 4 86 21.5t41 59.5t12 126v274q0 63 -10 96t-41 49.5t-98 20.5q0 80 24 121q109 2 211.5 21.5t153.5 45.5q59 -23 59 -105.5t-33 -203.5q33 100 52 129
q103 166 261 166q81 0 144 -49q-18 -119 -18 -201t2 -100q-59 -23 -174 -23q-4 144 -88 144q-31 0 -66 -36t-57.5 -95.5t-22.5 -122.5zM567 -238q0 -220 -225 -374q-76 0 -113 47q113 92 113 176q0 70 -109 82q-8 82 27 164q135 10 215 61q92 -26 92 -156z" />
    <glyph glyph-name="Rcaron" unicode="&#x158;" horiz-adv-x="1439" 
d="M932 985q0 135 -67.5 208t-198.5 73q-66 0 -117 -17v-538q43 -8 76 -9q131 0 219 74t88 209zM1260 1027q0 -161 -86.5 -264.5t-231.5 -139.5q74 -47 120 -109.5t130 -222.5q55 -96 93 -127t120 -37q0 -72 -16 -127q-281 0 -398 -18q-57 106 -119 249l-22 52
q-47 106 -88 168.5t-107 123.5l-53 -2l-53 2v-235q1 -168 45 -198q24 -16 72 -21q12 -33 12 -127q-123 6 -299 6t-293 -6q0 78 12 127q57 3 86 21q54 33 54 186v733q0 84 -11.5 125t-40 57.5t-88.5 22.5q-12 41 -12 125q190 -6 303 -7l389 9q238 0 360 -102.5t122 -263.5z
M289 1733q51 66 137 84q127 -76 244 -127q166 74 243 127q35 -6 59.5 -35t31.5 -58q-188 -119 -299 -217q-47 -16 -134 -16q-106 113 -282 242z" />
    <glyph glyph-name="rcaron" unicode="&#x159;" horiz-adv-x="978" 
d="M520 459v-101q0 -168 82 -210q43 -22 123 -27q14 -41 14 -127q-109 6 -333 6t-336 -6q0 82 12 127q57 4 86 21.5t41 59.5t12 126v274q0 63 -10 96t-41 49.5t-98 20.5q0 80 24 121q109 2 211.5 21.5t153.5 45.5q59 -23 59 -105.5t-33 -203.5q33 100 52 129
q103 166 261 166q81 0 144 -49q-18 -119 -18 -201t2 -100q-59 -23 -174 -23q-4 144 -88 144q-31 0 -66 -36t-57.5 -95.5t-22.5 -122.5zM147 1370q18 59 101 90q180 -127 280 -174q57 27 144.5 83t128.5 91q35 -8 61.5 -32.5t36.5 -53.5q-193 -150 -319 -301
q-51 -16 -131 -16q-136 161 -302 313z" />
    <glyph glyph-name="Sacute" unicode="&#x15a;" horiz-adv-x="1144" 
d="M555 119q125 0 180.5 48t55.5 113.5t-34 107.5t-86.5 71.5t-163 80.5t-191 103.5t-138 140.5t-57.5 220q0 197 127 298t334 101q111 0 220 -26.5t167 -63.5q0 -195 14 -293q-68 -33 -182 -33q-29 162 -85.5 223.5t-146.5 61.5t-141 -40t-51 -108.5t38 -114.5t94 -79
t171 -86t196.5 -104.5t139 -137.5t57.5 -211q0 -184 -132 -296.5t-376.5 -112.5t-470.5 122q25 127 25 322q72 20 188 20q10 -180 66.5 -253.5t181.5 -73.5zM743.5 1802q73.5 0 118.5 -14q-125 -137 -239 -285q-84 0 -152 25q78 141 121 258q78 16 151.5 16z" />
    <glyph glyph-name="sacute" unicode="&#x15b;" horiz-adv-x="950" 
d="M490 956q183 0 313 -65q-2 -27 -2 -93.5t8 -123.5q-59 -37 -158 -37q-10 84 -59 139t-135 55q-47 0 -75 -23.5t-28 -59.5t14 -58q31 -47 180 -105.5t213 -100.5t92 -92t28 -120q0 -137 -116 -213.5t-321 -76.5t-366 71q8 51 8 128t-6 126q63 35 164 35q10 -111 63 -169
t124.5 -58t109 27.5t37.5 74.5t-39 79t-151 76t-174 83q-128 81 -128 223.5t110.5 210t293.5 67.5zM518 1085q-85 0 -143 29q90 182 129 334q72 27 182 27q74 -4 100 -11q-147 -176 -268 -379z" />
    <glyph glyph-name="Scircumflex" unicode="&#x15c;" horiz-adv-x="1144" 
d="M555 119q125 0 180.5 48t55.5 113.5t-34 107.5t-86.5 71.5t-163 80.5t-191 103.5t-138 140.5t-57.5 220q0 197 127 298t334 101q111 0 220 -26.5t167 -63.5q0 -195 14 -293q-68 -33 -182 -33q-29 162 -85.5 223.5t-146.5 61.5t-141 -40t-51 -108.5t38 -114.5t94 -79
t171 -86t196.5 -104.5t139 -137.5t57.5 -211q0 -184 -132 -296.5t-376.5 -112.5t-470.5 122q25 127 25 322q72 20 188 20q10 -180 66.5 -253.5t181.5 -73.5zM258 1525.5q-25 26.5 -33 57.5q190 117 299 217q57 16 135 17q102 -111 281 -242q-51 -68 -137 -84
q-121 76 -244 127l-49 -25q-145 -70 -195 -102q-32 8 -57 34.5z" />
    <glyph glyph-name="scircumflex" unicode="&#x15d;" horiz-adv-x="950" 
d="M490 956q183 0 313 -65q-2 -27 -2 -93.5t8 -123.5q-59 -37 -158 -37q-10 84 -59 139t-135 55q-47 0 -75 -23.5t-28 -59.5t14 -58q31 -47 180 -105.5t213 -100.5t92 -92t28 -120q0 -137 -116 -213.5t-321 -76.5t-366 71q8 51 8 128t-6 126q63 35 164 35q10 -111 63 -169
t124.5 -58t109 27.5t37.5 74.5t-39 79t-151 76t-174 83q-128 81 -128 223.5t110.5 210t293.5 67.5zM459 1243q-171 -97 -287 -186q-29 12 -51.5 40.5t-28.5 57.5q186 128 334 293q61 20 129 20q125 -162 313 -331q-49 -59 -129 -74q-176 125 -280 180z" />
    <glyph glyph-name="Scedilla" unicode="&#x15e;" horiz-adv-x="1144" 
d="M756 -285q0 -100 -90.5 -155.5t-227.5 -55.5q-16 33 -16 88q66 0 113 27t47 70t-35 68.5t-90 25.5q-37 41 -37 88l82 113q-207 10 -408 120q25 127 25 322q72 20 188 20q10 -180 66.5 -253.5t181.5 -73.5t180.5 48t55.5 113.5t-34 107.5t-86.5 71.5t-163 80.5t-191 103.5
t-138 140.5t-57.5 220q0 197 127 298t334 101q111 0 220 -26.5t167 -63.5q0 -195 14 -293q-68 -33 -182 -33q-29 162 -85.5 223.5t-146.5 61.5t-141 -40t-51 -108.5t38 -114.5t94 -79t171 -86t196.5 -104.5t139 -137.5t57.5 -211q0 -170 -112.5 -279.5t-327.5 -127.5
l-60 -78q84 -14 133.5 -66.5t49.5 -124.5z" />
    <glyph glyph-name="scedilla" unicode="&#x15f;" horiz-adv-x="950" 
d="M490 956q183 0 313 -65q-2 -27 -2 -93.5t8 -123.5q-62 -37 -158 -37q-10 84 -59 139t-135 55q-47 0 -75 -23.5t-28 -59.5t14 -58q31 -47 180 -105.5t213 -100.5t92 -92t28 -120q0 -127 -98.5 -201.5t-270.5 -86.5l-59 -78q84 -14 133 -66.5t49 -124.5q0 -100 -90 -155.5
t-228 -55.5q-16 33 -16 88q66 0 113 27t47 70t-35 68.5t-90 25.5q-37 41 -37 88l82 113q-174 7 -303 69q8 51 8 128t-6 126q63 35 164 35q10 -111 63 -169t124.5 -58t109 27.5t37.5 74.5t-39 79t-151 76t-174 83q-128 81 -128 223.5t110.5 210t293.5 67.5z" />
    <glyph glyph-name="Scaron" unicode="&#x160;" horiz-adv-x="1144" 
d="M555 119q125 0 180.5 48t55.5 113.5t-34 107.5t-86.5 71.5t-163 80.5t-191 103.5t-138 140.5t-57.5 220q0 197 127 298t334 101q111 0 220 -26.5t167 -63.5q0 -195 14 -293q-68 -33 -182 -33q-29 162 -85.5 223.5t-146.5 61.5t-141 -40t-51 -108.5t38 -114.5t94 -79
t171 -86t196.5 -104.5t139 -137.5t57.5 -211q0 -184 -132 -296.5t-376.5 -112.5t-470.5 122q25 127 25 322q72 20 188 20q10 -180 66.5 -253.5t181.5 -73.5zM207 1733q51 66 137 84q127 -76 244 -127q166 74 243 127q35 -6 59.5 -35t31.5 -58q-188 -119 -299 -217
q-47 -16 -134 -16q-106 113 -282 242z" />
    <glyph glyph-name="scaron" unicode="&#x161;" horiz-adv-x="950" 
d="M490 956q183 0 313 -65q-2 -27 -2 -93.5t8 -123.5q-59 -37 -158 -37q-10 84 -59 139t-135 55q-47 0 -75 -23.5t-28 -59.5t14 -58q31 -47 180 -105.5t213 -100.5t92 -92t28 -120q0 -137 -116 -213.5t-321 -76.5t-366 71q8 51 8 128t-6 126q63 35 164 35q10 -111 63 -169
t124.5 -58t109 27.5t37.5 74.5t-39 79t-151 76t-174 83q-128 81 -128 223.5t110.5 210t293.5 67.5zM88 1370q18 59 100 90q180 -127 281 -174q57 27 144 83t128 91q35 -8 61.5 -32.5t37.5 -53.5q-193 -150 -320 -301q-51 -16 -131 -16q-135 161 -301 313z" />
    <glyph glyph-name="uni0162" unicode="&#x162;" horiz-adv-x="1349" 
d="M903 1260h-72v-932q0 -86 14.5 -127t51.5 -58.5t117 -21.5q16 -39 16 -127q-106 6 -303 6l-72 -94q84 -14 133.5 -66.5t49.5 -124.5q0 -100 -90.5 -155.5t-227.5 -55.5q-16 33 -16 88q66 0 113 27t47 70t-35 68.5t-90 25.5q-37 41 -37 88l94 129q-190 0 -289 -6
q0 72 19 127q80 4 119.5 21.5t56 59.5t16.5 126v932h-47q-121 0 -174 -60.5t-84 -198.5q-111 0 -162 27q43 210 43 363q147 -6 551 -6.5t621 6.5q-5 -160 32 -363q-61 -27 -163 -27q-16 135 -69.5 197t-162.5 62z" />
    <glyph glyph-name="uni0163" unicode="&#x163;" horiz-adv-x="774" 
d="M174 307v455q-59 25 -149 26q0 76 22 130h127v251q68 8 136.5 37t111.5 64q31 -12 41 -37t10 -90v-225h252q0 -66 -20 -132q-137 -4 -232 -32v-414q0 -121 24.5 -166t87.5 -45t120 35q27 -37 30 -103q-35 -31 -101.5 -52t-137.5 -25l-58 -78q84 -15 133.5 -67t49.5 -124
q0 -100 -90.5 -155.5t-227.5 -55.5q-16 33 -16 88q66 0 112.5 27t46.5 70t-34.5 68.5t-89.5 25.5q-37 41 -37 88l88 119q-199 40 -199 317z" />
    <glyph glyph-name="Tcaron" unicode="&#x164;" horiz-adv-x="1349" 
d="M903 1260h-72v-932q0 -86 14.5 -127t51.5 -58.5t117 -21.5q16 -39 16 -127q-119 6 -358.5 6t-364.5 -6q0 72 19 127q80 4 119.5 21.5t56 59.5t16.5 126v932h-47q-121 0 -174 -60.5t-84 -198.5q-111 0 -162 27q43 210 43 363q147 -6 551 -6.5t621 6.5q-5 -160 32 -363
q-61 -27 -163 -27q-16 135 -69.5 197t-162.5 62zM303 1733q51 66 137 84q127 -76 244 -127q166 74 244 127q35 -6 59.5 -35t30.5 -58q-188 -119 -299 -217q-47 -16 -133 -16q-107 113 -283 242z" />
    <glyph glyph-name="tcaron" unicode="&#x165;" horiz-adv-x="1081" 
d="M174 307v455q-59 25 -149 26q0 76 22 130h127v251q68 8 136.5 37t111.5 64q31 -12 41 -37t10 -90v-225h252q0 -66 -20 -132q-137 -4 -232 -32v-414q0 -121 24.5 -166t87.5 -45t120 35q27 -37 30 -103q-41 -35 -117.5 -57t-154.5 -22q-148 0 -218.5 75.5t-70.5 249.5z
M1096 1303q0 -229 -187 -412q-76 0 -123 35q57 66 78 109.5t21 99.5q0 82 -123 98q0 104 24 186q135 10 218 64q49 -16 70.5 -57.5t21.5 -122.5z" />
    <glyph glyph-name="Tbar" unicode="&#x166;" horiz-adv-x="1349" 
d="M903 1260h-72v-480h259q0 -90 -25 -145q-96 2 -234 2v-309q0 -86 14.5 -127t51.5 -58.5t117 -21.5q16 -39 16 -127q-119 6 -358.5 6t-364.5 -6q0 72 19 127q80 4 119.5 21.5t56 59.5t16.5 126v307l-180 -2q-20 -2 -68 -2q0 89 25 149h223v480h-47q-121 0 -174 -60.5
t-84 -198.5q-111 0 -162 27q43 210 43 363q147 -6 551 -6.5t621 6.5q-4 -160 32 -363q-61 -27 -163 -27q-16 135 -69.5 197t-162.5 62z" />
    <glyph glyph-name="tbar" unicode="&#x167;" horiz-adv-x="774" 
d="M463 -18q-147 0 -218 75.5t-71 249.5v146l-180 -7q0 66 18 115h162v201q-59 25 -149 26q0 76 22 130h127v251q68 8 136.5 37t111.5 64q31 -12 41 -37t10 -90v-225h252q0 -66 -20 -132q-137 -4 -232 -32v-193h180q0 -49 -18 -104h-162v-117q0 -121 24.5 -166t87.5 -45
t120 35q26 -37 30 -103q-41 -35 -117.5 -57t-154.5 -22z" />
    <glyph glyph-name="Utilde" unicode="&#x168;" horiz-adv-x="1406" 
d="M203 481v572q0 88 -10.5 128t-36 57t-82.5 26q-12 53 -13 127q82 -6 294.5 -6.5t308.5 6.5q0 -80 -13 -127q-61 -8 -87.5 -24.5t-37 -57.5t-10.5 -129v-539q0 -193 66.5 -292t203.5 -99t207 82q37 47 54.5 126t17.5 232v432q1 189 -53 235q-28 24 -86 34q-10 59 -11 127
q76 -6 209 -6.5t211 6.5q0 -74 -12 -127q-53 -8 -79 -32q-48 -43 -48 -226v-447q0 -184 -25.5 -290.5t-93.5 -174.5q-119 -113 -333 -112.5t-328.5 53.5t-163.5 161.5t-49 284.5zM897 1518q-72 0 -160 47q-41 20 -66.5 30.5t-58.5 10.5q-80 0 -153 -84q-51 47 -53 114
q106 146 266 146q43 0 78.5 -12.5t102 -42t103.5 -29.5q70 0 119 69q61 -8 99 -51q-103 -198 -277 -198z" />
    <glyph glyph-name="utilde" unicode="&#x169;" horiz-adv-x="1255" 
d="M877 -18q-66 26 -66 110q0 45 10 103q-83 -207 -348 -207q-156 0 -233.5 87t-77.5 290v237q0 63 -8.5 96t-36 49.5t-86.5 20.5q0 78 22 121q106 2 201.5 21.5t146.5 45.5q59 -23 60 -112v-430q0 -137 28.5 -194.5t105.5 -57.5t133 83t56 242v125q0 63 -11 96
q-22 66 -138 70q0 82 22 121q260 4 367 57q59 -23 59 -112v-498q0 -70 8.5 -103.5t33 -47t77.5 -15.5q2 -12 2 -50t-18 -81q-172 -6 -309 -67zM741 1114q-41 0 -72.5 12.5t-100.5 50t-122 37.5q-90 0 -174 -92q-49 43 -51 109q129 160 271 160q63 0 152 -47.5t134 -47.5
q76 0 135 76q63 -8 99 -45q-121 -213 -271 -213z" />
    <glyph glyph-name="Umacron" unicode="&#x16a;" horiz-adv-x="1406" 
d="M203 481v572q0 88 -10.5 128t-36 57t-82.5 26q-12 53 -13 127q82 -6 294.5 -6.5t308.5 6.5q0 -80 -13 -127q-61 -8 -87.5 -24.5t-37 -57.5t-10.5 -129v-539q0 -193 66.5 -292t203.5 -99t207 82q37 47 54.5 126t17.5 232v432q1 189 -53 235q-28 24 -86 34q-10 59 -11 127
q76 -6 209 -6.5t211 6.5q0 -74 -12 -127q-53 -8 -79 -32q-48 -43 -48 -226v-447q0 -184 -25.5 -290.5t-93.5 -174.5q-119 -113 -333 -112.5t-328.5 53.5t-163.5 161.5t-49 284.5zM1161 1563q-381 0 -760 -19q0 84 19 131h760q-1 -63 -19 -112z" />
    <glyph glyph-name="umacron" unicode="&#x16b;" horiz-adv-x="1255" 
d="M877 -18q-66 26 -66 110q0 45 10 103q-83 -207 -348 -207q-156 0 -233.5 87t-77.5 290v237q0 63 -8.5 96t-36 49.5t-86.5 20.5q0 78 22 121q106 2 201.5 21.5t146.5 45.5q59 -23 60 -112v-430q0 -137 28.5 -194.5t105.5 -57.5t133 83t56 242v125q0 63 -11 96
q-22 66 -138 70q0 82 22 121q260 4 367 57q59 -23 59 -112v-498q0 -70 8.5 -103.5t33 -47t77.5 -15.5q2 -12 2 -50t-18 -81q-172 -6 -309 -67zM999 1292q0 -59 -18 -104q-383 0 -750 -14q1 75 19 118h749z" />
    <glyph glyph-name="Ubreve" unicode="&#x16c;" horiz-adv-x="1406" 
d="M203 481v572q0 88 -10.5 128t-36 57t-82.5 26q-12 53 -13 127q82 -6 294.5 -6.5t308.5 6.5q0 -80 -13 -127q-61 -8 -87.5 -24.5t-37 -57.5t-10.5 -129v-539q0 -193 66.5 -292t203.5 -99t207 82q37 47 54.5 126t17.5 232v432q1 189 -53 235q-28 24 -86 34q-10 59 -11 127
q76 -6 209 -6.5t211 6.5q0 -74 -12 -127q-53 -8 -79 -32q-48 -43 -48 -226v-447q0 -184 -25.5 -290.5t-93.5 -174.5q-119 -113 -333 -112.5t-328.5 53.5t-163.5 161.5t-49 284.5zM788 1483q-168 0 -253.5 72.5t-85.5 211.5q51 23 99 23t60 -2q10 -61 64.5 -95t137.5 -34
t133 33.5t52 95.5q33 4 65.5 4t72.5 -16q0 -144 -88.5 -218.5t-256.5 -74.5z" />
    <glyph glyph-name="ubreve" unicode="&#x16d;" horiz-adv-x="1255" 
d="M877 -18q-66 26 -66 110q0 45 10 103q-83 -207 -348 -207q-156 0 -233.5 87t-77.5 290v237q0 63 -8.5 96t-36 49.5t-86.5 20.5q0 78 22 121q106 2 201.5 21.5t146.5 45.5q59 -23 60 -112v-430q0 -137 28.5 -194.5t105.5 -57.5t133 83t56 242v125q0 63 -11 96
q-22 66 -138 70q0 82 22 121q260 4 367 57q59 -23 59 -112v-498q0 -70 8.5 -103.5t33 -47t77.5 -15.5q2 -12 2 -50t-18 -81q-172 -6 -309 -67zM614.5 1067q-188.5 0 -287 93t-98.5 267q66 31 158 25q14 -88 79.5 -137t170 -49t166 49t67.5 137q12 2 51 2t83 -16
q0 -181 -100.5 -276t-289 -95z" />
    <glyph glyph-name="Uring" unicode="&#x16e;" horiz-adv-x="1406" 
d="M203 481v572q0 88 -10.5 128t-36 57t-82.5 26q-12 53 -13 127q82 -6 294.5 -6.5t308.5 6.5q0 -80 -13 -127q-61 -8 -87.5 -24.5t-37 -57.5t-10.5 -129v-539q0 -193 66.5 -292t203.5 -99t207 82q37 47 54.5 126t17.5 232v432q1 189 -53 235q-28 24 -86 34q-10 59 -11 127
q76 -6 209 -6.5t211 6.5q0 -74 -12 -127q-53 -8 -79 -32q-48 -43 -48 -226v-447q0 -184 -25.5 -290.5t-93.5 -174.5q-119 -113 -333 -112.5t-328.5 53.5t-163.5 161.5t-49 284.5zM787 1745q-76 0 -76 -96q0 -45 22.5 -72t59 -27t58 23.5t21.5 63.5t-23.5 74t-61.5 34z
M555 1640.5q0 79.5 68.5 129t172 49.5t167 -43t63.5 -124t-68.5 -132.5t-171 -51.5t-167 46.5t-64.5 126z" />
    <glyph glyph-name="uring" unicode="&#x16f;" horiz-adv-x="1255" 
d="M877 -18q-66 26 -66 110q0 45 10 103q-83 -207 -348 -207q-156 0 -233.5 87t-77.5 290v237q0 63 -8.5 96t-36 49.5t-86.5 20.5q0 78 22 121q106 2 201.5 21.5t146.5 45.5q59 -23 60 -112v-430q0 -137 28.5 -194.5t105.5 -57.5t133 83t56 242v125q0 63 -11 96
q-22 66 -138 70q0 82 22 121q260 4 367 57q59 -23 59 -112v-498q0 -70 8.5 -103.5t33 -47t77.5 -15.5q2 -12 2 -50t-18 -81q-172 -6 -309 -67zM610 1380q-73 0 -73 -106q0 -45 23.5 -76t59 -31t57 26t21.5 69t-22.5 80.5t-65.5 37.5zM369 1265q0 91 72.5 150.5t180 59.5
t175 -50.5t67.5 -144.5t-72.5 -154.5t-179 -60.5t-175 54.5t-68.5 145.5z" />
    <glyph glyph-name="Uhungarumlaut" unicode="&#x170;" horiz-adv-x="1406" 
d="M203 481v572q0 88 -10.5 128t-36 57t-82.5 26q-12 53 -13 127q82 -6 294.5 -6.5t308.5 6.5q0 -80 -13 -127q-61 -8 -87.5 -24.5t-37 -57.5t-10.5 -129v-539q0 -193 66.5 -292t203.5 -99t207 82q37 47 54.5 126t17.5 232v432q1 189 -53 235q-28 24 -86 34q-10 59 -11 127
q76 -6 209 -6.5t211 6.5q0 -74 -12 -127q-53 -8 -79 -32q-48 -43 -48 -226v-447q0 -184 -25.5 -290.5t-93.5 -174.5q-119 -113 -333 -112.5t-328.5 53.5t-163.5 161.5t-49 284.5zM1016 1503q-90 5 -144 39q53 109 95 236q78 29 160.5 28.5t119.5 -14.5q-123 -135 -231 -289z
M643 1503q-92 5 -143 39q53 109 94 236q74 29 157.5 28.5t120.5 -14.5q-125 -139 -229 -289z" />
    <glyph glyph-name="uhungarumlaut" unicode="&#x171;" horiz-adv-x="1255" 
d="M877 -18q-66 26 -66 110q0 45 10 103q-83 -207 -348 -207q-156 0 -233.5 87t-77.5 290v237q0 63 -8.5 96t-36 49.5t-86.5 20.5q0 78 22 121q106 2 201.5 21.5t146.5 45.5q59 -23 60 -112v-430q0 -137 28.5 -194.5t105.5 -57.5t133 83t56 242v125q0 63 -11 96
q-22 66 -138 70q0 82 22 121q260 4 367 57q59 -23 59 -112v-498q0 -70 8.5 -103.5t33 -47t77.5 -15.5q2 -12 2 -50t-18 -81q-172 -6 -309 -67zM840 1085q-84 0 -144 29q90 182 129 334q72 27 185 27q72 -4 98 -11q-156 -188 -268 -379zM467 1085q-85 0 -143 29
q90 182 129 334q72 27 182 27q74 -4 100 -11q-147 -176 -268 -379z" />
    <glyph glyph-name="Uogonek" unicode="&#x172;" horiz-adv-x="1406" 
d="M1196 1006v-447q0 -185 -26 -291q-36 -150 -148 -217q-170 -109 -170 -226.5t143 -117.5q47 0 78 10q14 -18 22.5 -59t4.5 -74q-135 -35 -221 -92q-16 -2 -57 -2t-96.5 24.5t-92.5 79t-37 132.5t41 138t147 120q-18 -2 -57 -2q-197 0 -311.5 53t-163.5 161.5t-49 284.5
v572q0 88 -10.5 128t-36 57t-82.5 26q-12 53 -13 127q82 -6 294.5 -6.5t308.5 6.5q0 -80 -13 -127q-61 -8 -87.5 -24.5t-37 -57.5t-10.5 -129v-539q0 -193 66.5 -292t203.5 -99t207 82q37 47 54.5 126t17.5 232v432q1 189 -53 235q-28 24 -86 34q-10 59 -11 127
q76 -6 209 -6t211 6q0 -74 -12 -127q-53 -8 -79 -32q-48 -43 -48 -226z" />
    <glyph glyph-name="uogonek" unicode="&#x173;" horiz-adv-x="1255" 
d="M1194 -366.5q0 -40.5 -2 -49.5q-133 -35 -219 -92q-16 -2 -43 -2q-92 0 -166 58.5t-74 177.5q0 72 39 136t143 122q-33 14 -47 38.5t-14 69.5t10 103q-83 -207 -348 -207q-156 0 -233.5 87t-77.5 290v237q0 63 -8.5 96t-36 49.5t-86.5 20.5q0 78 22 121q106 2 201.5 21.5
t146.5 45.5q59 -23 60 -112v-430q0 -137 28.5 -194.5t105.5 -57.5t133 83t56 242v125q0 63 -11 96q-22 66 -138 70q0 82 22 121q260 4 367 57q59 -23 59 -112v-498q0 -70 8.5 -103.5t33 -47t77.5 -15.5q2 -12 2 -50t-18 -81q-119 -29 -179.5 -93.5t-60.5 -137.5
q0 -111 144 -111q46 0 77 10q27 -43 27 -83.5z" />
    <glyph glyph-name="Wcircumflex" unicode="&#x174;" horiz-adv-x="2033" 
d="M498 1181q0 -42 64.5 -234t148.5 -480l319 919q43 14 135 15q172 -432 357 -952l161 522q31 102 31 161t-31.5 90t-101.5 42q-16 43 -16 127q86 -6 219 -6t215 6q0 -80 -17 -127q-38 -12 -62 -40q-45 -51 -108 -255l-296 -971q-46 -16 -158 -16q-147 416 -352 936
l-320 -922q-45 -14 -158 -14q-141 475 -319 1024q-43 121 -63.5 170t-40 64t-58.5 20q-12 39 -12 131q98 -6 305 -6.5t295 6.5q0 -70 -14 -127q-66 -6 -94.5 -23.5t-28.5 -59.5zM774.5 1525.5q-24.5 26.5 -33.5 57.5q190 117 299 217q57 16 136 17q102 -111 280 -242
q-51 -68 -137 -84q-121 76 -244 127l-49 -25q-145 -70 -195 -102q-32 8 -56.5 34.5z" />
    <glyph glyph-name="wcircumflex" unicode="&#x175;" horiz-adv-x="1611" 
d="M294.5 938q146.5 0 278.5 6q0 -72 -18 -127q-47 -4 -65.5 -15t-18.5 -33.5t18 -88.5q63 -186 103 -350l239 604q41 14 132 14q133 -313 247 -626l88 294q38 134 -4 172q-24 22 -71 29q-20 55 -21 127q80 -6 190.5 -6t194.5 6q0 -72 -22 -127q-49 -12 -74 -48t-59 -140
l-209 -629q-39 -18 -170 -18l-49 116q-130 310 -179 453l-239 -551q-39 -18 -172 -18q-143 445 -250 714q-23 59 -49.5 85t-69.5 34q-20 55 -20 129q123 -6 269.5 -6zM883 1243q-171 -97 -287 -186q-29 12 -51.5 40.5t-28.5 57.5q186 128 334 293q61 20 129 20
q125 -162 313 -331q-49 -59 -129 -74q-176 125 -280 180z" />
    <glyph glyph-name="Ycircumflex" unicode="&#x176;" horiz-adv-x="1294" 
d="M500 362v158l-310 623q-31 61 -63.5 89t-77.5 32q-14 45 -14 125q80 -4 302 -4.5t296 4.5q0 -68 -12 -123q-80 -12 -80 -66q0 -35 32 -104q98 -207 187 -426q78 186 146.5 333.5t68.5 186.5q0 63 -88 74q-16 59 -17 125q63 -4 199 -4t193 4q0 -61 -15 -123
q-47 -10 -87 -53.5t-85 -141.5l-262 -557v-141q0 -109 13.5 -157t49 -67.5t119.5 -27.5q18 -53 19 -127q-160 6 -361 6l-364 -6q0 82 18 127q92 8 130 25.5t50.5 62.5t12.5 153zM417.5 1525.5q-24.5 26.5 -32.5 57.5q190 117 299 217q57 16 135 17q102 -111 281 -242
q-51 -68 -137 -84q-121 76 -244 127l-49 -25q-145 -70 -195 -102q-33 8 -57.5 34.5z" />
    <glyph glyph-name="ycircumflex" unicode="&#x177;" horiz-adv-x="1150" 
d="M281.5 -510q-68.5 0 -122 23.5t-81.5 58.5q-4 29 -4 77t20 113q94 -29 176.5 -28.5t126 24t80.5 80.5q14 20 47 92q-156 369 -317 701q-51 106 -84 140t-82 44q-16 55 -16 129q117 -6 293 -6t300 6q0 -76 -20 -129q-57 -10 -81.5 -25.5t-24.5 -49.5t62 -160.5t124 -290.5
l127 321q31 80 31 120t-22.5 58.5t-72.5 26.5q-18 49 -18 129q94 -6 202.5 -6t200.5 6q0 -80 -20 -129q-51 -12 -80 -46t-70 -128l-301 -717q-139 -336 -249 -401q-56 -33 -124.5 -33zM664 1243q-171 -97 -287 -186q-29 12 -51.5 40.5t-28.5 57.5q186 128 334 293
q61 20 129 20q125 -162 313 -331q-49 -59 -129 -74q-176 125 -280 180z" />
    <glyph glyph-name="Ydieresis" unicode="&#x178;" horiz-adv-x="1294" 
d="M500 362v158l-310 623q-31 61 -63.5 89t-77.5 32q-14 45 -14 125q80 -4 302 -4.5t296 4.5q0 -68 -12 -123q-80 -12 -80 -66q0 -35 32 -104q98 -207 187 -426q78 186 146.5 333.5t68.5 186.5q0 63 -88 74q-16 59 -17 125q63 -4 199 -4t193 4q0 -61 -15 -123
q-47 -10 -87 -53.5t-85 -141.5l-262 -557v-141q0 -109 13.5 -157t49 -67.5t119.5 -27.5q18 -53 19 -127q-160 6 -361 6l-364 -6q0 82 18 127q92 8 130 25.5t50.5 62.5t12.5 153zM815 1635q0 66 44 103.5t115 37.5t117 -39t46 -102t-37 -106.5t-117 -43.5t-124 42t-44 108z
M350 1625.5q0 62.5 40 106.5t119 44t120 -41t41 -105.5t-45 -104.5t-115 -40t-115 39t-45 101.5z" />
    <glyph glyph-name="Zacute" unicode="&#x179;" horiz-adv-x="1241" 
d="M600 0q-324 0 -483 -6q-31 47 -31 110l78 132q361 607 584 1028h-191q-78 0 -125 -22.5t-78.5 -83t-56.5 -177.5q-121 0 -172 25q45 157 45 383q94 -4 438 -4.5t477 4.5q33 -45 35 -111q-315 -604 -651 -1155h180q111 0 171.5 21.5t96 78t62.5 172.5q111 -10 170 -49
q-42 -169 -47 -352q-178 6 -502 6zM803 1802q74 0 119 -14q-125 -137 -240 -285q-84 0 -152 25q78 141 121 258q78 16 152 16z" />
    <glyph glyph-name="zacute" unicode="&#x17a;" horiz-adv-x="1044" 
d="M627 127q70 0 104.5 19.5t51 68.5t22.5 143q78 6 160 -16q0 -203 16 -301q-18 -45 -82 -45q-100 0 -160 2l-231 2q-229 0 -377 -4q-39 56 -39 121q240 319 492 696h-127q-61 0 -95 -17.5t-53.5 -60.5t-36.5 -129q-109 -4 -168 25q18 139 19 313q127 -6 396 -6t399 6
q28 -36 28 -110q-219 -349 -489 -707h170zM575 1085q-83 0 -143 29q90 182 129 334q72 27 182 27q74 -4 101 -11q-147 -176 -269 -379z" />
    <glyph glyph-name="Zdotaccent" unicode="&#x17b;" horiz-adv-x="1241" 
d="M600 0q-324 0 -483 -6q-31 47 -31 110l78 132q361 607 584 1028h-191q-78 0 -125 -22.5t-78.5 -83t-56.5 -177.5q-121 0 -172 25q45 157 45 383q94 -4 438 -4.5t477 4.5q33 -45 35 -111q-315 -604 -651 -1155h180q111 0 171.5 21.5t96 78t62.5 172.5q111 -10 170 -49
q-42 -169 -47 -352q-178 6 -502 6zM465 1618q0 70 50 110.5t131 40.5t127 -39.5t46 -108t-50 -111t-130 -42.5t-127 40t-47 110z" />
    <glyph glyph-name="zdotaccent" unicode="&#x17c;" horiz-adv-x="1044" 
d="M627 127q70 0 104.5 19.5t51 68.5t22.5 143q78 6 160 -16q0 -203 16 -301q-18 -45 -82 -45q-100 0 -160 2l-231 2q-229 0 -377 -4q-39 56 -39 121q240 319 492 696h-127q-61 0 -95 -17.5t-53.5 -60.5t-36.5 -129q-109 -4 -168 25q18 139 19 313q127 -6 396 -6t399 6
q28 -36 28 -110q-219 -349 -489 -707h170zM344 1216.5q0 69.5 50 110.5t131 41t127 -40t46 -108.5t-50 -110.5t-130 -42t-127 40t-47 109.5z" />
    <glyph glyph-name="Zcaron" unicode="&#x17d;" horiz-adv-x="1241" 
d="M600 0q-324 0 -483 -6q-31 47 -31 110l78 132q361 607 584 1028h-191q-78 0 -125 -22.5t-78.5 -83t-56.5 -177.5q-121 0 -172 25q45 157 45 383q94 -4 438 -4.5t477 4.5q33 -45 35 -111q-315 -604 -651 -1155h180q111 0 171.5 21.5t96 78t62.5 172.5q111 -10 170 -49
q-42 -169 -47 -352q-178 6 -502 6zM266 1733q51 66 137 84q127 -76 244 -127q166 74 244 127q35 -6 59.5 -35t30.5 -58q-188 -119 -299 -217q-47 -16 -133 -16q-107 113 -283 242z" />
    <glyph glyph-name="zcaron" unicode="&#x17e;" horiz-adv-x="1044" 
d="M627 127q70 0 104.5 19.5t51 68.5t22.5 143q78 6 160 -16q0 -203 16 -301q-18 -45 -82 -45q-100 0 -160 2l-231 2q-229 0 -377 -4q-39 56 -39 121q240 319 492 696h-127q-61 0 -95 -17.5t-53.5 -60.5t-36.5 -129q-109 -4 -168 25q18 139 19 313q127 -6 396 -6t399 6
q28 -36 28 -110q-219 -349 -489 -707h170zM145 1370q18 59 101 90q180 -127 280 -174q57 27 144.5 83t128.5 91q35 -8 61.5 -32.5t36.5 -53.5q-193 -150 -319 -301q-51 -16 -132 -16q-135 161 -301 313z" />
    <glyph glyph-name="longs" unicode="&#x17f;" horiz-adv-x="770" 
d="M944 1242q0 -76 2 -99q-71 -28 -186 -23q0 98 -33 153.5t-94.5 55.5t-87 -60.5t-25.5 -213.5v-697q0 -168 62.5 -199.5t142.5 -37.5q14 -41 14 -127q-109 6 -333 6t-336 -6q0 82 12 127q57 4 86 21.5t41 59.5t12 126v436q-84 23 -158 22q0 90 29 132h129v69
q0 156 63.5 263.5t171.5 161.5t214 54q189 0 286 -61q-12 -87 -12 -163z" />
    <glyph glyph-name="uni018E" unicode="&#x18e;" horiz-adv-x="1282" 
d="M1044 1059v-721q0 -90 11.5 -134t41 -61.5t87.5 -21.5q12 -45 12 -127q-289 6 -581 6t-496 -4q-23 215 -64 340q43 43 156 59q31 -101 65 -157q68 -112 261 -111h24q69 1 105 19q66 35 67 198v287h-59q-106 0 -147.5 -33t-49.5 -125q-47 -16 -141 -16q8 127 8 232t-8 241
q84 0 145 -21q2 -90 42 -121.5t151 -31.5h59v508h-141q-158 0 -223.5 -65.5t-83.5 -184.5q-94 0 -156 30q33 129 43 347q143 -6 503.5 -6.5t520.5 6.5q0 -88 -12 -127q-59 -6 -88 -23.5t-40.5 -57.5t-11.5 -124z" />
    <glyph glyph-name="uni018F" unicode="&#x18f;" horiz-adv-x="1376" 
d="M391 602q0 -233 72 -360t206 -127t216 111.5t90 367.5q-272 8 -584 8zM600 1403q363 0 534 -189.5t171 -490.5q0 -211 -79 -379t-228.5 -263t-352.5 -95q-283 0 -421 178t-152 465q12 59 53 100h850q-10 252 -105.5 398.5t-310.5 146.5q-90 0 -141 -30t-78 -90t-39 -165
q-10 -2 -58.5 -2t-101.5 27q6 74 6 151.5t-8 143.5q184 94 461 94z" />
    <glyph glyph-name="florin" unicode="&#x192;" horiz-adv-x="847" 
d="M760 1335q-47 0 -87 -48.5t-102 -368.5h195q0 -90 -16 -130q-104 0 -205 -22q-43 -231 -68 -412l-14 -90q-45 -272 -108.5 -437t-178.5 -250t-290 -85t-246 43q20 55 35.5 138t17.5 141q44 22 153 22q2 -104 21.5 -160.5t69.5 -56.5q70 0 127 117t86 358l16 142
q40 341 70 536q-82 20 -156 21q0 80 26 125h154q62 375 223.5 459.5t332.5 84.5t241 -43q-20 -53 -35.5 -136t-17.5 -142q-53 -23 -154 -23q-4 113 -23.5 165t-66.5 52z" />
    <glyph glyph-name="uni019D" unicode="&#x19d;" horiz-adv-x="1484" 
d="M1276 971v-975q-47 -14 -141 -14l-766 1019v-860q0 -199 -52.5 -346t-145.5 -226t-220 -79t-199 82q-4 29 -4 77t21 113q94 -29 182 -28q145 0 216 93t71 294v1055l-21 26q-23 31 -49.5 43t-85.5 19q-14 51 -14 127q74 -6 218 -6.5t191 6.5l666 -899v479q0 119 -12.5 178
t-46 83.5t-101.5 31.5q-12 57 -12 127q90 -6 228 -6t214 6q0 -78 -12 -127q-51 -4 -78 -29t-37 -85t-10 -179z" />
    <glyph glyph-name="Ohorn" unicode="&#x1a0;" horiz-adv-x="1531" 
d="M1133 666q0 168 -50.5 307t-142.5 220t-209 81q-152 0 -242 -140.5t-90 -383.5q0 -172 45 -317.5t134.5 -231.5t218.5 -86q157 0 246.5 151.5t89.5 399.5zM1221 1253q239 -193 239 -559q0 -192 -87 -358t-245.5 -260t-365.5 -94t-363.5 91t-241.5 253.5t-85 372.5t89 370
t246.5 247t356.5 87h4q66 0 182.5 -12t186 -12.5t113.5 35.5t44 145q0 39 -9 100t-21 88q72 25 117.5 25t70.5 -5q37 -31 61.5 -87t24.5 -126.5t-41 -138t-112.5 -111.5t-163.5 -51z" />
    <glyph glyph-name="ohorn" unicode="&#x1a1;" horiz-adv-x="1236" 
d="M799 422q0 133 -32 224t-85 138t-117 47q-90 0 -138 -86t-48 -247.5t61.5 -273t160.5 -111.5t148.5 88t49.5 221zM1130.5 1339q46.5 0 71.5 -4q39 -31 62.5 -87t23.5 -122q0 -125 -83 -219t-210 -106q111 -125 111 -324q0 -150 -64.5 -262.5t-183.5 -172.5t-276 -60
q-244 0 -378 128t-134 349q0 154 67.5 266.5t186 171.5t268.5 59h4q86 0 181.5 -17t117.5 -17q150 0 149 217q0 100 -30 176q70 24 116.5 24z" />
    <glyph glyph-name="Uhorn" unicode="&#x1af;" horiz-adv-x="1574" 
d="M1595 1553.5q0 -70.5 -38.5 -138t-102 -107.5t-131.5 -44q-53 -8 -79 -32q-48 -43 -48 -226v-447q0 -184 -25.5 -290.5t-93.5 -174.5q-119 -113 -333 -112.5t-328.5 53.5t-163.5 161.5t-49 284.5v572q0 88 -10.5 128t-36 57t-82.5 26q-12 53 -13 127q82 -6 294.5 -6.5
t308.5 6.5q0 -80 -13 -127q-61 -8 -87.5 -24.5t-37 -57.5t-10.5 -129v-539q0 -193 66.5 -292t203.5 -99t207 82q37 47 54.5 126t17.5 232v432q1 189 -53 235q-28 24 -86 34q-10 59 -11 127q76 -6 213 -7h80q82 6 113 44t31 130.5t-31 188.5q72 25 117.5 25t70.5 -5
q37 -31 61.5 -87t24.5 -126.5z" />
    <glyph glyph-name="uhorn" unicode="&#x1b0;" horiz-adv-x="1363" 
d="M877 -18q-66 26 -66 110q0 45 10 103q-83 -207 -348 -207q-156 0 -233.5 87t-77.5 290v237q0 63 -8.5 96t-36 49.5t-86.5 20.5q0 78 22 121q106 2 201.5 21.5t146.5 45.5q59 -23 60 -112v-430q0 -137 28.5 -194.5t105.5 -57.5t133 83t56 242v125q0 63 -11 96
q-22 66 -138 70q0 82 22 121q260 4 367 57q55 25 77.5 68t22.5 129t-30 162q70 24 116.5 24t71.5 -4q37 -29 61.5 -85t24.5 -117q0 -113 -79 -197t-206 -109v-481q0 -70 8.5 -103.5t33 -47t77.5 -15.5q2 -12 2 -50t-18 -81q-172 -6 -309 -67z" />
    <glyph glyph-name="uni01C4" unicode="&#x1c4;" horiz-adv-x="2746" 
d="M1110 682q0 315 -126 450.5t-320 135.5q-70 0 -113 -19v-905q0 -88 14.5 -134t50 -64.5t105.5 -18.5q168 0 278.5 120t110.5 435zM1434 727q0 -303 -133.5 -464t-302.5 -212t-326 -51q-297 0 -586 -6q0 82 12 127q57 4 87 21.5t41.5 61.5t11.5 134v721q0 84 -11.5 124
t-40 57t-88.5 24q-12 49 -12 127q123 -6 277 -6.5t188 1.5l127 3q342 0 549 -140.5t207 -521.5zM2105.5 0q-323.5 0 -483.5 -6q-31 47 -31 110l78 132q376 631 584 1028h-191q-78 0 -125 -22.5t-78.5 -83t-56.5 -177.5q-121 0 -172 25q45 157 45 383q94 -4 438.5 -4.5
t477.5 4.5q33 -45 35 -111q-315 -604 -652 -1155h180q111 0 171.5 21.5t96.5 78t62 172.5q111 -10 170 -49q-42 -169 -47 -352q-178 6 -501.5 6zM1772 1733q51 66 137 84q127 -76 243 -127q166 74 244 127q35 -6 59.5 -35t30.5 -58q-188 -119 -299 -217q-47 -16 -133 -16
q-106 113 -282 242z" />
    <glyph glyph-name="uni01C5" unicode="&#x1c5;" horiz-adv-x="2549" 
d="M1110 682q0 315 -126 450.5t-320 135.5q-70 0 -113 -19v-905q0 -88 14.5 -134t50 -64.5t105.5 -18.5q168 0 278.5 120t110.5 435zM1434 727q0 -303 -133.5 -464t-302.5 -212t-326 -51q-297 0 -586 -6q0 82 12 127q57 4 87 21.5t41.5 61.5t11.5 134v721q0 84 -11.5 124
t-40 57t-88.5 24q-12 49 -12 127q123 -6 277 -6.5t188 1.5l127 3q342 0 549 -140.5t207 -521.5zM2132 127q70 0 104.5 19.5t51 68.5t22.5 143q78 6 160 -16q0 -203 16 -301q-18 -45 -82 -45q-100 0 -159 2l-232 2q-229 0 -377 -4q-39 56 -39 121q261 348 492 696h-127
q-61 0 -95 -17.5t-53.5 -60.5t-35.5 -129q-109 -4 -168 25q18 139 18 313q127 -6 396.5 -6t398.5 6q28 -36 28 -110q-219 -349 -489 -707h170zM1653 1370q18 59 100 90q180 -127 281 -174q57 27 144 83t128 91q35 -8 61.5 -32.5t36.5 -53.5q-193 -150 -319 -301
q-51 -16 -131 -16q-135 161 -301 313z" />
    <glyph glyph-name="uni01C6" unicode="&#x1c6;" horiz-adv-x="2297" 
d="M622.5 834q-91.5 0 -167.5 -83t-76 -292q0 -141 52 -225t139 -84t148.5 84.5t61.5 261.5v268q-66 70 -157.5 70zM807 95q0 48 12 100q-33 -61 -76 -101q-37 -43 -110.5 -77.5t-159.5 -34.5q-186 0 -294.5 107.5t-108.5 324.5q0 156 70.5 279.5t198.5 193t294 69.5
q78 0 147 -20v201q0 76 -28.5 107.5t-122.5 35.5q0 78 22 121q102 0 212 20.5t157 46.5q59 -25 59 -108v-1014q0 -70 8.5 -103.5t34 -47t78.5 -15.5l2 -30q0 -57 -20 -101q-168 -9 -310 -67q-35 14 -50 39.5t-15 73.5zM1880 127q70 0 104.5 19.5t51 68.5t22.5 143
q78 6 160 -16q0 -203 16 -301q-18 -45 -82 -45q-100 0 -159 2l-232 2q-229 0 -377 -4q-38 55 -38 121q253 337 491 696h-127q-61 0 -95 -17.5t-53.5 -60.5t-35.5 -129q-109 -4 -168 25q18 139 18 313q127 -6 396.5 -6t398.5 6q29 -37 29 -110q-214 -342 -490 -707h170z
M1401 1370q18 59 100 90q180 -127 281 -174q57 27 144 83t128 91q35 -8 61.5 -32.5t36.5 -53.5q-193 -150 -319 -301q-51 -16 -131 -16q-135 161 -301 313z" />
    <glyph glyph-name="uni01C7" unicode="&#x1c7;" horiz-adv-x="1986" 
d="M656.5 0q-281.5 0 -570.5 -6q0 82 12 127q57 4 87 21.5t41.5 61.5t11.5 134v721q0 82 -11.5 123t-40 58t-88.5 24q-12 49 -12 127q371 -14 616 0q0 -88 -14 -127q-57 -6 -86 -22.5t-40 -58.5t-11 -128v-711q0 -88 14.5 -134t50 -64.5t105.5 -18.5h24q132 0 197.5 59.5
t110.5 208.5q113 -16 157 -59q-45 -141 -63 -340q-209 4 -490.5 4zM1450 102v953q0 86 -11.5 128t-40 58t-85.5 23q-14 45 -15 127q74 -6 309 -6.5t308 6.5q0 -80 -17 -127q-57 -6 -85.5 -24.5t-39 -60.5t-10.5 -124v-787q0 -207 -35.5 -343t-140 -242.5t-305.5 -192.5
q-47 33 -57 109q80 59 128 123q97 128 97 380z" />
    <glyph glyph-name="uni01C8" unicode="&#x1c8;" horiz-adv-x="1878" 
d="M1454 59v566q0 76 -28.5 107.5t-122.5 35.5q0 78 22 121q102 0 212 20.5t157 46.5q59 -25 59 -108v-723q0 -223 -124 -387t-288 -248q-28 14 -48.5 44t-24.5 67q106 113 146 212t40 246zM656.5 0q-281.5 0 -570.5 -6q0 82 12 127q57 4 87 21.5t41.5 61.5t11.5 134v721
q0 82 -11.5 123t-40 58t-88.5 24q-12 49 -12 127q371 -14 616 0q0 -88 -14 -127q-57 -6 -86 -22.5t-40 -58.5t-11 -128v-711q0 -88 14.5 -134t50 -64.5t105.5 -18.5h24q132 0 197.5 59.5t110.5 208.5q113 -16 157 -59q-45 -141 -63 -340q-209 4 -490.5 4zM1409 1263
q0 69 50 110.5t131 41.5t127 -41t46 -108t-50 -109.5t-130 -42.5t-127 40t-47 109z" />
    <glyph glyph-name="uni01C9" unicode="&#x1c9;" horiz-adv-x="1341" 
d="M207 299v850q0 68 -32 97.5t-120 33.5q0 78 23 121q100 0 210.5 21.5t155.5 45.5q61 -25 62 -108v-1061q0 -102 26.5 -138t102.5 -40q12 -39 12 -127q-88 6 -297 6t-295 -6q1 82 15 127q82 4 109.5 40t27.5 138zM918 59v566q0 76 -29 107.5t-123 35.5q0 78 22 121
q102 0 212 20.5t157 46.5q59 -25 60 -108v-723q0 -223 -124 -387t-288 -248q-29 14 -49.5 44t-24.5 67q106 113 146.5 212t40.5 246zM872 1263q0 69 50.5 110.5t131.5 41.5t127 -41t46 -108t-50.5 -109.5t-130 -42.5t-127 40t-47.5 109z" />
    <glyph glyph-name="uni01CA" unicode="&#x1ca;" horiz-adv-x="2232" 
d="M1276 971v-971q-55 -16 -143 -16l-764 1015v-581q0 -119 12 -180.5t44 -87t95 -29.5q14 -41 15 -127q-88 6 -239 6t-228 -6q0 86 14 127q61 5 94 31q62 50 62 266v758l-21 26q-23 31 -49.5 43t-85.5 19q-14 51 -14 127q74 -6 218 -6.5t191 6.5l666 -899v479
q0 119 -12.5 178t-46 83.5t-101.5 31.5q-12 57 -12 127q90 -6 228 -6t214 6q0 -78 -12 -127q-51 -4 -78 -29t-37 -85t-10 -179zM1696 102v953q0 86 -11.5 128t-40 58t-85.5 23q-14 45 -15 127q74 -6 308.5 -6.5t308.5 6.5q0 -80 -17 -127q-57 -6 -85.5 -24.5t-39 -60.5
t-10.5 -124v-787q0 -207 -36 -343t-140 -242.5t-305 -192.5q-47 33 -58 109q80 59 128 123q98 128 98 380z" />
    <glyph glyph-name="uni01CB" unicode="&#x1cb;" horiz-adv-x="2123" 
d="M1999 848v-723q0 -223 -124 -387t-288 -248q-63 30 -74 111q106 113 146.5 212t40.5 246v566q0 76 -29 107.5t-123 35.5q0 78 23 121q102 0 211.5 20.5t156.5 46.5q60 -24 60 -108zM1199 1384q138 0 214 7q0 -78 -12 -127q-51 -4 -78 -29t-37 -85t-10 -179v-971
q-55 -16 -143 -16l-764 1015v-581q0 -119 12 -180.5t44 -87t95 -29.5q14 -41 15 -127q-88 6 -239 6t-228 -6q0 86 14 127q61 5 94 31q62 50 62 266v758l-21 26q-23 31 -49.5 43t-85.5 19q-14 51 -14 127q74 -6 218 -6.5t191 6.5l666 -899v479q0 119 -12.5 178t-46 83.5
t-101.5 31.5q-12 57 -12 127q90 -7 228 -7zM1655 1263q0 69 50 110.5t131 41.5t127 -41t46 -108t-50 -109.5t-130 -42.5t-127 40t-47 109z" />
    <glyph glyph-name="uni01CC" unicode="&#x1cc;" horiz-adv-x="1996" 
d="M973.5 0q-138.5 0 -234.5 -6q0 84 17 127q59 0 87.5 43t28.5 149v215q0 125 -37.5 177.5t-117.5 52.5t-138.5 -87t-58.5 -241v-131q0 -102 26.5 -140t90.5 -38q16 -45 16 -127q-88 6 -289.5 6t-293.5 -6q0 88 16 127q80 0 107.5 37t27.5 141v303q0 63 -10 96t-41 49.5
t-98 20.5q0 80 24 121q109 2 211.5 21.5t153.5 45.5q59 -23 59 -112q0 -55 -20 -123q4 6 19.5 40t51 73.5t109.5 75.5t164 36q141 0 234 -81t93 -253v-313q0 -100 23 -139t80 -39q16 -39 16 -127q-178 6 -316.5 6zM1573 59v566q0 76 -28.5 107.5t-123.5 35.5q0 78 23 121
q102 0 211.5 20.5t156.5 46.5q59 -25 60 -108v-723q0 -223 -124 -387t-288 -248q-63 32 -74 111q106 113 146.5 212t40.5 246zM1528 1263q0 69 50 110.5t131 41.5t127 -41t46 -108t-50 -109.5t-130 -42.5t-127 40t-47 109z" />
    <glyph glyph-name="uni01CF" unicode="&#x1cf;" horiz-adv-x="786" 
d="M549 1059v-731q0 -84 12 -126t41 -59.5t86 -21.5q12 -43 12 -127q-104 6 -295.5 6t-318.5 -6q0 74 14 127q57 4 86 21.5t40.5 59.5t11.5 126v731q0 84 -11.5 124t-39 57t-87.5 24q-14 45 -14 127q104 -6 297.5 -6.5t316.5 6.5q0 -91 -14 -127q-57 -6 -86 -22.5t-40 -57.5
t-11 -125zM106 1692l-28 30q25 29 67.5 49.5t83.5 24.5q90 -72 199 -137q98 63 174 139q76 -25 109 -90q-37 -31 -179 -162l-77 -73q-63 -20 -133 -21q-75 93 -216 240z" />
    <glyph glyph-name="uni01D0" unicode="&#x1d0;" horiz-adv-x="729" 
d="M221 299v326q0 76 -29.5 107.5t-121.5 35.5q0 78 22 121q100 0 211 21.5t158 45.5q59 -25 59 -108v-549q0 -102 26.5 -138t102.5 -40q12 -39 13 -127q-88 6 -297 6t-295 -6q0 82 14 127q82 4 109.5 40t27.5 138zM39 1393q53 53 151 67q102 -109 201 -182q106 100 174 188
q76 -30 107 -96q-66 -68 -215 -248l-39 -47q-84 -18 -135 -18q-90 139 -244 336z" />
    <glyph glyph-name="uni01DD" unicode="&#x1dd;" horiz-adv-x="1050" 
d="M352 397q0 -137 40 -212.5t115 -75.5t121 72.5t50 215.5h-326zM483 956q250 0 374 -133t124 -348q0 -145 -59.5 -257t-168 -174t-251.5 -62q-211 0 -316.5 117.5t-113.5 320.5q12 59 51 98q352 0 547 10q-18 127 -86 200t-193 73q-72 0 -141.5 -25.5t-116.5 -70.5
q-20 12 -35.5 42.5t-17.5 63.5q153 145 403 145z" />
    <glyph glyph-name="Gcaron" unicode="&#x1e6;" horiz-adv-x="1460" 
d="M1307 139q-209 -157 -561 -157q-186 0 -344 87t-244 250.5t-86 385t93 379t257 238.5t403.5 81t454.5 -103q-23 -129 -23 -317q-57 -25 -159 -25q-8 176 -85 247t-213 71t-226 -72q-174 -138 -175 -450q0 -182 48.5 -326.5t140.5 -227.5t229 -83t173 64q16 30 16 106v84
q0 78 -11.5 112.5t-43 48t-103.5 15.5q-14 45 -14 129q102 -6 254.5 -6t283.5 4q0 -80 -12 -127q-39 -2 -56.5 -14.5t-23.5 -43t-6 -100.5v-67q0 -108 33 -183zM408 1733q51 66 137 84q127 -76 243 -127q166 74 244 127q35 -6 59.5 -35t30.5 -58q-188 -119 -299 -217
q-47 -16 -133 -16q-106 113 -282 242z" />
    <glyph glyph-name="gcaron" unicode="&#x1e7;" horiz-adv-x="1130" 
d="M303 -217q0 -156 215 -156q127 0 202 48.5t75 121.5q-1 37 -21 57q-36 36 -227 37q-143 4 -203 15q-41 -49 -41 -123zM518 846q-133 0 -133 -212q0 -104 43 -165q44 -61 114 -61q138 0 138 198q0 111 -43 175.5t-119 64.5zM971 610q0 -143 -115 -233t-332 -90
q-76 0 -143 12q-37 -33 -37 -64.5t34 -47t92 -18.5t225 -5t263.5 -54.5t96.5 -180.5t-75 -226t-212 -155.5t-313 -57.5q-396 0 -396 252q0 146 150 209q-88 51 -88 173t121 224q-152 88 -152 258t109.5 260t308.5 90q88 0 162 -18h385q20 -51 20 -160q-88 31 -192 41
q88 -96 88 -209zM145 1370q18 59 101 90q180 -127 280 -174q57 27 144.5 83t128.5 91q35 -8 61.5 -32.5t36.5 -53.5q-193 -150 -319 -301q-51 -16 -132 -16q-135 161 -301 313z" />
    <glyph glyph-name="uni01EA" unicode="&#x1ea;" horiz-adv-x="1531" 
d="M1133 666q0 168 -50.5 307t-142.5 220t-209 81q-152 0 -242 -140.5t-90 -383.5q0 -172 45 -317.5t134.5 -231.5t218.5 -86q157 0 246.5 151.5t89.5 399.5zM635 -297q0 163 168 279h-39q-209 0 -365.5 91t-241.5 253.5t-85 372.5t89 370t246.5 247t359.5 87t359.5 -86
t245.5 -242.5t88 -375t-103 -394.5t-286 -260q-90 -39 -135 -99.5t-45 -125.5q0 -119 139 -119q51 0 82 10q14 -18 22.5 -59t4.5 -74q-137 -37 -221 -92q-16 -2 -57.5 -2t-96.5 25.5t-92 74.5t-37 119z" />
    <glyph glyph-name="uni01EB" unicode="&#x1eb;" horiz-adv-x="1175" 
d="M799 422q0 133 -32 224t-85 138t-117 47q-90 0 -138 -86t-48 -247.5t61.5 -273t160.5 -111.5t148.5 88t49.5 221zM508 -510q-39 0 -94.5 22.5t-94 70.5t-38.5 124q0 172 229 279q-211 18 -325.5 144t-114.5 329q0 154 67.5 266.5t186 171.5t268.5 59q248 0 381 -131
t133 -331.5t-96.5 -326.5t-266.5 -167q-106 -33 -155 -86t-49 -109q0 -98 143 -98q45 0 76 10q28 -33 28 -110l-2 -23q-139 -37 -219 -92q-18 -2 -57 -2z" />
    <glyph glyph-name="uni01F1" unicode="&#x1f1;" horiz-adv-x="2746" 
d="M1110 682q0 315 -126 450.5t-320 135.5q-70 0 -113 -19v-905q0 -88 14.5 -134t50 -64.5t105.5 -18.5q168 0 278.5 120t110.5 435zM1434 727q0 -303 -133.5 -464t-302.5 -212t-326 -51q-297 0 -586 -6q0 82 12 127q57 4 87 21.5t41.5 61.5t11.5 134v721q0 84 -11.5 124
t-40 57t-88.5 24q-12 49 -12 127q123 -6 277 -6.5t188 1.5l127 3q342 0 549 -140.5t207 -521.5zM2105.5 0q-323.5 0 -483.5 -6q-31 47 -31 110l78 132q376 631 584 1028h-191q-78 0 -125 -22.5t-78.5 -83t-56.5 -177.5q-121 0 -172 25q45 157 45 383q94 -4 438.5 -4.5
t477.5 4.5q33 -45 35 -111q-315 -604 -652 -1155h180q111 0 171.5 21.5t96.5 78t62 172.5q111 -10 170 -49q-42 -169 -47 -352q-178 6 -501.5 6z" />
    <glyph glyph-name="uni01F2" unicode="&#x1f2;" horiz-adv-x="2549" 
d="M1110 682q0 315 -126 450.5t-320 135.5q-70 0 -113 -19v-905q0 -88 14.5 -134t50 -64.5t105.5 -18.5q168 0 278.5 120t110.5 435zM1434 727q0 -303 -133.5 -464t-302.5 -212t-326 -51q-297 0 -586 -6q0 82 12 127q57 4 87 21.5t41.5 61.5t11.5 134v721q0 84 -11.5 124
t-40 57t-88.5 24q-12 49 -12 127q123 -6 277 -6.5t188 1.5l127 3q342 0 549 -140.5t207 -521.5zM2132 127q70 0 104.5 19.5t51 68.5t22.5 143q78 6 160 -16q0 -203 16 -301q-18 -45 -82 -45q-100 0 -159 2l-232 2q-229 0 -377 -4q-39 56 -39 121q261 348 492 696h-127
q-61 0 -95 -17.5t-53.5 -60.5t-35.5 -129q-109 -4 -168 25q18 139 18 313q127 -6 396.5 -6t398.5 6q28 -36 28 -110q-219 -349 -489 -707h170z" />
    <glyph glyph-name="uni01F3" unicode="&#x1f3;" horiz-adv-x="2297" 
d="M622.5 834q-91.5 0 -167.5 -83t-76 -292q0 -141 52 -225t139 -84t148.5 84.5t61.5 261.5v268q-66 70 -157.5 70zM807 95q0 48 12 100q-33 -61 -76 -101q-37 -43 -110.5 -77.5t-159.5 -34.5q-186 0 -294.5 107.5t-108.5 324.5q0 156 70.5 279.5t198.5 193t294 69.5
q78 0 147 -20v201q0 76 -28.5 107.5t-122.5 35.5q0 78 22 121q102 0 212 20.5t157 46.5q59 -25 59 -108v-1014q0 -70 8.5 -103.5t34 -47t78.5 -15.5l2 -30q0 -57 -20 -101q-168 -9 -310 -67q-35 14 -50 39.5t-15 73.5zM1880 127q70 0 104.5 19.5t51 68.5t22.5 143
q78 6 160 -16q0 -203 16 -301q-18 -45 -82 -45q-100 0 -159 2l-232 2q-229 0 -377 -4q-38 55 -38 121q253 337 491 696h-127q-61 0 -95 -17.5t-53.5 -60.5t-35.5 -129q-109 -4 -168 25q18 139 18 313q127 -6 396.5 -6t398.5 6q29 -37 29 -110q-214 -342 -490 -707h170z" />
    <glyph glyph-name="Aringacute" unicode="&#x1fa;" horiz-adv-x="1456" 
d="M821 504l-110 258q-53 121 -97 262q-41 -135 -90 -260l-102 -260h399zM1127.5 0q-197.5 0 -289.5 -6q0 82 14 127q94 19 94 67q0 26 -26 91l-48 110q-272 0 -499 -14l-27 -68q-20 -57 -20 -90q0 -84 98 -96q14 -49 14 -127q-70 6 -208 6t-195 -6q0 76 16 127q51 8 83 50
t81 163l430 1052q53 11 123 11l469 -1051q79 -174 117 -204q22 -18 53 -21q16 -55 16 -127q-98 6 -295.5 6zM703 1745q-76 0 -76 -96q0 -45 22.5 -72t59 -27t58 23.5t21.5 63.5t-23.5 74t-61.5 34zM471 1640.5q0 79.5 68.5 129t172 49.5t167 -43t63.5 -124t-68.5 -132.5
t-171 -51.5t-167 46.5t-64.5 126zM866.5 2236q73.5 0 118.5 -14q-125 -137 -240 -285q-83 0 -151 25q78 141 121 258q78 16 151.5 16z" />
    <glyph glyph-name="aringacute" unicode="&#x1fb;" horiz-adv-x="1124" 
d="M373 270q0 -55 27.5 -82.5t70.5 -27.5t85 28q95 64 95 222v53q-139 -25 -208.5 -66t-69.5 -127zM550.5 958q215.5 0 307.5 -92t92 -342v-176q0 -70 8.5 -103.5t33 -48t77.5 -16.5q2 -12 2 -50t-18 -81q-168 -6 -305 -67q-66 26 -66 118q0 20 8 78q-84 -194 -325 -192
q-139 0 -215 59t-76 170q0 174 163.5 249t413.5 109q0 90 -9 136.5t-36 76.5q-45 51 -114 52q-143 0 -162 -230q-120 0 -172 21q4 53 4 112.5t-17 132.5q190 84 405.5 84zM525 1298q-76 0 -76 -96q0 -45 22.5 -71.5t59 -26.5t58 23.5t21.5 63.5t-23.5 73.5t-61.5 33.5z
M293 1194q0 80 68.5 129t172 49t167 -43t63.5 -124t-68.5 -132t-171 -51t-167 46t-64.5 126zM688.5 1790q73.5 0 118.5 -14q-125 -137 -240 -285q-83 0 -151 25q78 141 121 258q78 16 151.5 16z" />
    <glyph glyph-name="AEacute" unicode="&#x1fc;" horiz-adv-x="1968" 
d="M942 711v395q0 68 6 141q-29 -68 -303 -536h297zM1376 1264h-121v-553h60q102 0 137 32.5t35 126.5q63 20 145 21q-6 -80 -6 -239t6 -238q-101 0 -141 16q-5 66 -19 100q-29 66 -165 66h-52v-252q0 -168 63 -200q32 -16 89 -17h43q94 0 147.5 25.5t88 81t73.5 161.5
q119 -25 154 -59q-46 -139 -64 -340q-238 4 -577 4t-479 -6q0 80 16 127q57 6 84 23.5t38 60.5t11 133v254q-246 -6 -375 -19q-102 -176 -141 -249.5t-39 -114.5t23.5 -60.5t70.5 -27.5q18 -43 19 -127q-94 6 -249 6t-216 -6q0 86 16 127q63 8 104.5 44t106.5 146l455 785
q35 63 35 95t-27 48t-82 23q-18 40 -18 127q213 -4 381 -5h184q416 0 606 7q4 -172 43 -347q-43 -30 -156 -30q-18 119 -83.5 184.5t-223.5 65.5zM1266 1802q74 0 118 -14q-125 -137 -239 -285q-84 0 -152 25q78 141 121 258q78 16 152 16z" />
    <glyph glyph-name="aeacute" unicode="&#x1fd;" horiz-adv-x="1492" 
d="M338 274q0 -128 112 -129q52 0 97 62.5t51 191.5q-2 12 -2 35v4q-137 -14 -197.5 -54t-60.5 -110zM1016 829q-127 0 -127 -254v-20q88 6 268 10q0 264 -141 264zM334 -12q-125 0 -192.5 59t-67.5 170q0 168 145.5 243t376.5 97v76q0 98 -37 147t-101.5 49t-94 -56
t-44.5 -167q-122 0 -174 27q2 20 2 94t-12 154q181 75 364.5 75t266.5 -110q102 110 285 110q129 0 210.5 -64.5t118.5 -157.5t39 -185q-14 -61 -57 -100q-287 -4 -473 -17q6 -121 63.5 -206t165.5 -85q141 0 238 92q18 -16 34.5 -48.5t18.5 -61.5q-121 -135 -369 -135
t-368 184q-31 -82 -122 -133t-216 -51zM817 1085q-85 0 -143 29q90 182 129 334q72 27 182 27q74 -4 100 -11q-147 -176 -268 -379z" />
    <glyph glyph-name="Oslashacute" unicode="&#x1fe;" horiz-adv-x="1531" 
d="M1133 666q0 168 -50 303l-551 -715q102 -139 262 -139t249.5 151.5t89.5 399.5zM399 774q0 -219 56 -373l551 717q-108 156 -267 156t-249.5 -140.5t-90.5 -359.5zM1460 713q0 -211 -87 -377t-245.5 -260t-371.5 -94t-373 100l-113 -137q-110 0 -157 45l153 184
q-194 198 -194 524q0 211 89 371t246.5 247t369.5 87t380 -105l105 136q113 0 165 -41l-149 -191q182 -186 182 -489zM926 1802q74 0 118 -14q-125 -137 -239 -285q-84 0 -152 25q78 141 121 258q78 16 152 16z" />
    <glyph glyph-name="oslashacute" unicode="&#x1ff;" horiz-adv-x="1175" 
d="M799 401.5q0 112.5 -17 188.5l-333 -381q61 -96 156 -96t144.5 88t49.5 200.5zM379 545.5q0 -113.5 14 -183.5l326 379q-65 90 -154.5 90t-137.5 -86t-48 -199.5zM1106 477q0 -150 -64.5 -262.5t-183.5 -172.5t-281.5 -60t-283.5 63l-92 -108q-113 0 -162 30l143 164
q-113 125 -112 328q0 154 67.5 266.5t186 171.5t275.5 59t271 -59l95 107q98 0 161 -39l-139 -156q119 -125 119 -332zM635 1085q-85 0 -143 29q90 182 129 334q72 27 182 27q74 -4 100 -11q-147 -176 -268 -379z" />
    <glyph glyph-name="uni0200" unicode="&#x200;" horiz-adv-x="1456" 
d="M821 504l-110 258q-53 121 -97 262q-41 -135 -90 -260l-102 -260h399zM1127.5 0q-197.5 0 -289.5 -6q0 82 14 127q94 19 94 67q0 26 -26 91l-48 110q-272 0 -499 -14l-27 -68q-20 -57 -20 -90q0 -84 98 -96q14 -49 14 -127q-70 6 -208 6t-195 -6q0 76 16 127q51 8 83 50
t81 163l430 1052q53 11 123 11l469 -1051q79 -174 117 -204q22 -18 53 -21q16 -55 16 -127q-98 6 -295.5 6zM659 1729q87 41 236 36q53 -139 133 -270q-68 -25 -151 -25q-124 163 -218 259zM285 1724q89 46 245 41q53 -139 134 -270q-68 -25 -152 -25q-133 164 -227 254z
" />
    <glyph glyph-name="uni0201" unicode="&#x201;" horiz-adv-x="1124" 
d="M373 270q0 -55 27.5 -82.5t70.5 -27.5t85 28q95 64 95 222v53q-139 -25 -208.5 -66t-69.5 -127zM550.5 958q215.5 0 307.5 -92t92 -342v-176q0 -70 8.5 -103.5t33 -48t77.5 -16.5q2 -12 2 -50t-18 -81q-168 -6 -305 -67q-66 26 -66 118q0 20 8 78q-84 -194 -325 -192
q-139 0 -215 59t-76 170q0 174 163.5 249t413.5 109q0 90 -9 136.5t-36 76.5q-45 51 -114 52q-143 0 -162 -230q-120 0 -172 21q4 53 4 112.5t-17 132.5q190 84 405.5 84zM719 1094q-143 222 -252 338q102 39 262 32q53 -178 143 -348q-49 -27 -153 -22zM216 1281
q-58 77 -132 151q109 39 270 32q47 -170 146 -348q-51 -27 -152 -22q-74 110 -132 187z" />
    <glyph glyph-name="uni0202" unicode="&#x202;" horiz-adv-x="1456" 
d="M821 504l-110 258q-53 121 -97 262q-41 -135 -90 -260l-102 -260h399zM1127.5 0q-197.5 0 -289.5 -6q0 82 14 127q94 19 94 67q0 26 -26 91l-48 110q-272 0 -499 -14l-27 -68q-20 -57 -20 -90q0 -84 98 -96q14 -49 14 -127q-70 6 -208 6t-195 -6q0 76 16 127q51 8 83 50
t81 163l430 1052q53 11 123 11l469 -1051q79 -174 117 -204q22 -18 53 -21q16 -55 16 -127q-98 6 -295.5 6zM709 1792q168 0 254 -72.5t86 -212.5q-76 -34 -160 -20q-10 61 -64.5 95t-137.5 34t-133 -34t-52 -95q-33 -4 -65.5 -4t-71.5 16q0 143 88 218t256 75z" />
    <glyph glyph-name="uni0203" unicode="&#x203;" horiz-adv-x="1124" 
d="M373 270q0 -55 27.5 -82.5t70.5 -27.5t85 28q95 64 95 222v53q-139 -25 -208.5 -66t-69.5 -127zM550.5 958q215.5 0 307.5 -92t92 -342v-176q0 -70 8.5 -103.5t33 -48t77.5 -16.5q2 -12 2 -50t-18 -81q-168 -6 -305 -67q-66 26 -66 118q0 20 8 78q-84 -194 -325 -192
q-139 0 -215 59t-76 170q0 174 163.5 249t413.5 109q0 90 -9 136.5t-36 76.5q-45 51 -114 52q-143 0 -162 -230q-120 0 -172 21q4 53 4 112.5t-17 132.5q190 84 405.5 84zM530 1456q188 0 286.5 -93t98.5 -267q-66 -31 -157 -25q-14 88 -80 137t-170.5 49t-165.5 -49
t-68 -137q-12 -2 -50.5 -2t-82.5 16q0 181 100.5 276t288.5 95z" />
    <glyph glyph-name="uni0204" unicode="&#x204;" horiz-adv-x="1282" 
d="M690 1264h-141v-508h59q111 0 151 31.5t42 121.5q61 20 145 21q-8 -135 -8 -241t8 -232q-94 0 -141 16q-8 92 -49 125t-148 33h-59v-287q1 -164 67 -198q36 -18 105 -19h24q193 -1 261 111q34 56 65 157q113 -16 156 -59q-41 -125 -64 -340q-205 4 -496.5 4t-580.5 -6
q0 82 12 127q57 4 87 21.5t41.5 61.5t11.5 134v721q0 84 -11.5 124t-40 57t-88.5 24q-12 39 -12 127q160 -6 519.5 -6.5t504.5 6.5q10 -215 43 -347q-61 -31 -156 -30q-18 119 -83.5 184.5t-223.5 65.5zM571 1729q87 41 236 36q53 -139 133 -270q-68 -25 -152 -25
q-123 163 -217 259zM197 1724q89 46 245 41q53 -139 133 -270q-68 -25 -151 -25q-133 164 -227 254z" />
    <glyph glyph-name="uni0205" unicode="&#x205;" horiz-adv-x="1050" 
d="M698 541q0 137 -40 212.5t-114.5 75.5t-120.5 -72.5t-50 -215.5h325zM70 463q0 145 59 256.5t168 174t252 62.5q211 0 316.5 -117.5t113.5 -320.5q-12 -59 -51 -98q-352 0 -547 -10q18 -127 86 -200t192 -73q72 0 141.5 25.5t117.5 70.5q20 -12 35.5 -42.5t17.5 -63.5
q-153 -145 -403.5 -145t-374 133t-123.5 348zM737 1094q-136 216 -252 338q102 39 263 32q53 -178 143 -348q-49 -27 -154 -22zM367 1094q-150 223 -265 338q109 39 271 32q47 -170 145 -348q-51 -27 -151 -22z" />
    <glyph glyph-name="uni0206" unicode="&#x206;" horiz-adv-x="1282" 
d="M690 1264h-141v-508h59q111 0 151 31.5t42 121.5q61 20 145 21q-8 -135 -8 -241t8 -232q-94 0 -141 16q-8 92 -49 125t-148 33h-59v-287q1 -164 67 -198q36 -18 105 -19h24q193 -1 261 111q34 56 65 157q113 -16 156 -59q-41 -125 -64 -340q-205 4 -496.5 4t-580.5 -6
q0 82 12 127q57 4 87 21.5t41.5 61.5t11.5 134v721q0 84 -11.5 124t-40 57t-88.5 24q-12 39 -12 127q160 -6 519.5 -6.5t504.5 6.5q10 -215 43 -347q-61 -31 -156 -30q-18 119 -83.5 184.5t-223.5 65.5zM621 1792q168 0 254 -72.5t86 -212.5q-76 -34 -160 -20
q-10 61 -64.5 95t-137.5 34t-133 -34t-52 -95q-33 -4 -65.5 -4t-72.5 16q0 143 88.5 218t256.5 75z" />
    <glyph glyph-name="uni0207" unicode="&#x207;" horiz-adv-x="1050" 
d="M698 541q0 137 -40 212.5t-114.5 75.5t-120.5 -72.5t-50 -215.5h325zM70 463q0 145 59 256.5t168 174t252 62.5q211 0 316.5 -117.5t113.5 -320.5q-12 -59 -51 -98q-352 0 -547 -10q18 -127 86 -200t192 -73q72 0 141.5 25.5t117.5 70.5q20 -12 35.5 -42.5t17.5 -63.5
q-153 -145 -403.5 -145t-374 133t-123.5 348zM548.5 1456q188.5 0 287 -93t98.5 -267q-66 -31 -158 -25q-14 88 -79.5 137t-170 49t-166 -49t-67.5 -137q-12 -2 -51 -2t-82 16q0 181 100 276t288.5 95z" />
    <glyph glyph-name="uni0208" unicode="&#x208;" horiz-adv-x="786" 
d="M549 1059v-731q0 -84 12 -126t41 -59.5t86 -21.5q12 -43 12 -127q-104 6 -295.5 6t-318.5 -6q0 74 14 127q57 4 86 21.5t40.5 59.5t11.5 126v731q0 84 -11.5 124t-39 57t-87.5 24q-14 45 -14 127q104 -6 297.5 -6.5t316.5 6.5q0 -91 -14 -127q-57 -6 -86 -22.5t-40 -57.5
t-11 -125zM336 1729q83 41 223 36q47 -133 125 -270q-68 -25 -152 -25q-120 175 -196 259zM-25 1724q86 45 240 41q47 -133 125 -270q-68 -25 -152 -25q-109 145 -213 254z" />
    <glyph glyph-name="uni0209" unicode="&#x209;" horiz-adv-x="729" 
d="M221 299v326q0 76 -29.5 107.5t-121.5 35.5q0 78 22 121q100 0 211 21.5t158 45.5q59 -25 59 -108v-549q0 -102 26.5 -138t102.5 -40q12 -39 13 -127q-88 6 -297 6t-295 -6q0 82 14 127q82 4 109.5 40t27.5 138zM483 1094q-127 237 -204 338q90 39 225 32
q49 -186 123 -348q-47 -27 -144 -22zM152 1094q-122 220 -218 338q88 39 226 32q53 -186 135 -348q-47 -27 -143 -22z" />
    <glyph glyph-name="uni020A" unicode="&#x20a;" horiz-adv-x="786" 
d="M549 1059v-731q0 -84 12 -126t41 -59.5t86 -21.5q12 -43 12 -127q-104 6 -295.5 6t-318.5 -6q0 74 14 127q57 4 86 21.5t40.5 59.5t11.5 126v731q0 84 -11.5 124t-39 57t-87.5 24q-14 45 -14 127q104 -6 297.5 -6.5t316.5 6.5q0 -91 -14 -127q-57 -6 -86 -22.5t-40 -57.5
t-11 -125zM392.5 1784q318.5 0 318.5 -303q-77 -30 -133 -19q-14 70 -65.5 109t-136.5 39t-135.5 -39t-54.5 -109q-29 -4 -54.5 -4t-57.5 15q0 311 318.5 311z" />
    <glyph glyph-name="uni020B" unicode="&#x20b;" horiz-adv-x="729" 
d="M221 299v326q0 76 -29.5 107.5t-121.5 35.5q0 78 22 121q100 0 211 21.5t158 45.5q59 -25 59 -108v-549q0 -102 26.5 -138t102.5 -40q12 -39 13 -127q-88 6 -297 6t-295 -6q0 82 14 127q82 4 109.5 40t27.5 138zM356 1456q334 0 334 -360q-66 -31 -158 -25
q-12 88 -63 137t-135 49t-131 -49t-53 -137q-12 -2 -51 -2t-83 16q0 371 340 371z" />
    <glyph glyph-name="uni020C" unicode="&#x20c;" horiz-adv-x="1531" 
d="M1133 666q0 168 -50.5 307t-142.5 220t-209 81q-152 0 -242 -140.5t-90 -383.5q0 -172 45 -317.5t134.5 -231.5t218.5 -86q157 0 246.5 151.5t89.5 399.5zM72 699q0 210 89 370t246.5 247t359.5 87t359.5 -86t245.5 -242.5t88 -364.5t-87 -374t-245.5 -260t-365.5 -94
t-363.5 91t-241.5 253.5t-85 372.5zM719 1729q87 41 235 36q53 -139 133 -270q-68 -25 -151 -25q-123 163 -217 259zM344 1724q89 45 246 41q53 -139 133 -270q-68 -25 -152 -25q-133 164 -227 254z" />
    <glyph glyph-name="uni020D" unicode="&#x20d;" horiz-adv-x="1175" 
d="M799 422q0 133 -32 224t-85 138t-117 47q-90 0 -138 -86t-48 -247.5t61.5 -273t160.5 -111.5t148.5 88t49.5 221zM70 459q0 154 67.5 266.5t186 171.5t268.5 59q248 0 381 -131t133 -348q0 -150 -64.5 -262.5t-183.5 -172.5t-276 -60q-244 0 -378 128t-134 349zM772 1094
q-136 216 -252 338q102 39 262 32q53 -178 144 -348q-49 -27 -154 -22zM401 1094q-146 220 -264 338q109 39 271 32q47 -170 145 -348q-51 -27 -152 -22z" />
    <glyph glyph-name="uni020E" unicode="&#x20e;" horiz-adv-x="1531" 
d="M1133 666q0 168 -50.5 307t-142.5 220t-209 81q-152 0 -242 -140.5t-90 -383.5q0 -172 45 -317.5t134.5 -231.5t218.5 -86q157 0 246.5 151.5t89.5 399.5zM72 699q0 210 89 370t246.5 247t359.5 87t359.5 -86t245.5 -242.5t88 -364.5t-87 -374t-245.5 -260t-365.5 -94
t-363.5 91t-241.5 253.5t-85 372.5zM768 1792q168 0 254 -72.5t86 -212.5q-76 -34 -160 -20q-10 61 -64.5 95t-137.5 34t-133 -34t-52 -95q-33 -4 -65.5 -4t-71.5 16q0 143 88 218t256 75z" />
    <glyph glyph-name="uni020F" unicode="&#x20f;" horiz-adv-x="1175" 
d="M799 422q0 133 -32 224t-85 138t-117 47q-90 0 -138 -86t-48 -247.5t61.5 -273t160.5 -111.5t148.5 88t49.5 221zM70 459q0 154 67.5 266.5t186 171.5t268.5 59q248 0 381 -131t133 -348q0 -150 -64.5 -262.5t-183.5 -172.5t-276 -60q-244 0 -378 128t-134 349z
M583.5 1456q188.5 0 287 -93t98.5 -267q-66 -31 -158 -25q-14 88 -79.5 137t-170 49t-166 -49t-67.5 -137q-12 -2 -51 -2t-82 16q0 181 100 276t288.5 95z" />
    <glyph glyph-name="uni0210" unicode="&#x210;" horiz-adv-x="1439" 
d="M932 985q0 135 -67.5 208t-198.5 73q-66 0 -117 -17v-538q43 -8 76 -9q131 0 219 74t88 209zM1260 1027q0 -161 -86.5 -264.5t-231.5 -139.5q74 -47 120 -109.5t130 -222.5q55 -96 93 -127t120 -37q0 -72 -16 -127q-281 0 -398 -18q-57 106 -119 249l-22 52
q-47 106 -88 168.5t-107 123.5l-53 -2l-53 2v-235q1 -168 45 -198q24 -16 72 -21q12 -33 12 -127q-123 6 -299 6t-293 -6q0 78 12 127q57 3 86 21q54 33 54 186v733q0 84 -11.5 125t-40 57.5t-88.5 22.5q-12 41 -12 125q190 -6 303 -7l389 9q238 0 360 -102.5t122 -263.5z
M618 1729q87 41 236 36q53 -139 133 -270q-68 -25 -151 -25q-124 163 -218 259zM244 1724q89 46 245 41q53 -139 134 -270q-68 -25 -152 -25q-133 164 -227 254z" />
    <glyph glyph-name="uni0211" unicode="&#x211;" horiz-adv-x="978" 
d="M520 459v-101q0 -168 82 -210q43 -22 123 -27q14 -41 14 -127q-109 6 -333 6t-336 -6q0 82 12 127q57 4 86 21.5t41 59.5t12 126v274q0 63 -10 96t-41 49.5t-98 20.5q0 80 24 121q109 2 211.5 21.5t153.5 45.5q59 -23 59 -105.5t-33 -203.5q33 100 52 129
q103 166 261 166q81 0 144 -49q-18 -119 -18 -201t2 -100q-59 -23 -174 -23q-4 144 -88 144q-31 0 -66 -36t-57.5 -95.5t-22.5 -122.5zM715 1094q-139 217 -252 338q102 39 262 32q53 -178 143 -348q-49 -27 -153 -22zM212 1281q-58 77 -132 151q109 39 270 32
q47 -170 146 -348q-51 -27 -152 -22q-74 110 -132 187z" />
    <glyph glyph-name="uni0212" unicode="&#x212;" horiz-adv-x="1439" 
d="M932 985q0 135 -67.5 208t-198.5 73q-66 0 -117 -17v-538q43 -8 76 -9q131 0 219 74t88 209zM1260 1027q0 -161 -86.5 -264.5t-231.5 -139.5q74 -47 120 -109.5t130 -222.5q55 -96 93 -127t120 -37q0 -72 -16 -127q-281 0 -398 -18q-57 106 -119 249l-22 52
q-47 106 -88 168.5t-107 123.5l-53 -2l-53 2v-235q1 -168 45 -198q24 -16 72 -21q12 -33 12 -127q-123 6 -299 6t-293 -6q0 78 12 127q57 3 86 21q54 33 54 186v733q0 84 -11.5 125t-40 57.5t-88.5 22.5q-12 41 -12 125q190 -6 303 -7l389 9q238 0 360 -102.5t122 -263.5z
M668 1792q168 0 254 -72.5t86 -212.5q-76 -34 -160 -20q-10 61 -64.5 95t-137.5 34t-133 -34t-52 -95q-33 -4 -65.5 -4t-71.5 16q0 143 88 218t256 75z" />
    <glyph glyph-name="uni0213" unicode="&#x213;" horiz-adv-x="978" 
d="M520 459v-101q0 -168 82 -210q43 -22 123 -27q14 -41 14 -127q-109 6 -333 6t-336 -6q0 82 12 127q57 4 86 21.5t41 59.5t12 126v274q0 63 -10 96t-41 49.5t-98 20.5q0 80 24 121q109 2 211.5 21.5t153.5 45.5q59 -23 59 -105.5t-33 -203.5q33 100 52 129
q103 166 261 166q81 0 144 -49q-18 -119 -18 -201t2 -100q-59 -23 -174 -23q-4 144 -88 144q-31 0 -66 -36t-57.5 -95.5t-22.5 -122.5zM526 1456q188 0 286.5 -93t98.5 -267q-66 -31 -157 -25q-14 88 -80 137t-170.5 49t-166 -49t-67.5 -137q-12 -2 -51 -2t-82 16
q0 181 100.5 276t288.5 95z" />
    <glyph glyph-name="uni0214" unicode="&#x214;" horiz-adv-x="1406" 
d="M203 481v572q0 88 -10.5 128t-36 57t-82.5 26q-12 53 -13 127q82 -6 294.5 -6.5t308.5 6.5q0 -80 -13 -127q-61 -8 -87.5 -24.5t-37 -57.5t-10.5 -129v-539q0 -193 66.5 -292t203.5 -99t207 82q37 47 54.5 126t17.5 232v432q1 189 -53 235q-28 24 -86 34q-10 59 -11 127
q76 -6 209 -6.5t211 6.5q0 -74 -12 -127q-53 -8 -79 -32q-48 -43 -48 -226v-447q0 -184 -25.5 -290.5t-93.5 -174.5q-119 -113 -333 -112.5t-328.5 53.5t-163.5 161.5t-49 284.5zM743 1729q87 41 236 36q53 -139 133 -270q-68 -25 -151 -25q-124 163 -218 259zM369 1724
q89 46 245 41q53 -139 134 -270q-68 -25 -152 -25q-133 164 -227 254z" />
    <glyph glyph-name="uni0215" unicode="&#x215;" horiz-adv-x="1255" 
d="M877 -18q-66 26 -66 110q0 45 10 103q-83 -207 -348 -207q-156 0 -233.5 87t-77.5 290v237q0 63 -8.5 96t-36 49.5t-86.5 20.5q0 78 22 121q106 2 201.5 21.5t146.5 45.5q59 -23 60 -112v-430q0 -137 28.5 -194.5t105.5 -57.5t133 83t56 242v125q0 63 -11 96
q-22 66 -138 70q0 82 22 121q260 4 367 57q59 -23 59 -112v-498q0 -70 8.5 -103.5t33 -47t77.5 -15.5q2 -12 2 -50t-18 -81q-172 -6 -309 -67zM807 1094q-143 222 -252 338q102 39 262 32q53 -178 144 -348q-49 -27 -154 -22zM304 1281q-58 77 -132 151q109 39 270 32
q47 -170 146 -348q-51 -27 -152 -22q-74 110 -132 187z" />
    <glyph glyph-name="uni0216" unicode="&#x216;" horiz-adv-x="1406" 
d="M203 481v572q0 88 -10.5 128t-36 57t-82.5 26q-12 53 -13 127q82 -6 294.5 -6.5t308.5 6.5q0 -80 -13 -127q-61 -8 -87.5 -24.5t-37 -57.5t-10.5 -129v-539q0 -193 66.5 -292t203.5 -99t207 82q37 47 54.5 126t17.5 232v432q1 189 -53 235q-28 24 -86 34q-10 59 -11 127
q76 -6 209 -6.5t211 6.5q0 -74 -12 -127q-53 -8 -79 -32q-48 -43 -48 -226v-447q0 -184 -25.5 -290.5t-93.5 -174.5q-119 -113 -333 -112.5t-328.5 53.5t-163.5 161.5t-49 284.5zM793 1792q168 0 254 -72.5t86 -212.5q-76 -34 -160 -20q-10 61 -64.5 95t-137.5 34t-133 -34
t-52 -95q-33 -4 -65.5 -4t-71.5 16q0 143 88 218t256 75z" />
    <glyph glyph-name="uni0217" unicode="&#x217;" horiz-adv-x="1255" 
d="M877 -18q-66 26 -66 110q0 45 10 103q-83 -207 -348 -207q-156 0 -233.5 87t-77.5 290v237q0 63 -8.5 96t-36 49.5t-86.5 20.5q0 78 22 121q106 2 201.5 21.5t146.5 45.5q59 -23 60 -112v-430q0 -137 28.5 -194.5t105.5 -57.5t133 83t56 242v125q0 63 -11 96
q-22 66 -138 70q0 82 22 121q260 4 367 57q59 -23 59 -112v-498q0 -70 8.5 -103.5t33 -47t77.5 -15.5q2 -12 2 -50t-18 -81q-172 -6 -309 -67zM618.5 1456q188.5 0 287 -93t98.5 -267q-66 -31 -158 -25q-14 88 -80 137t-170 49t-165.5 -49t-68.5 -137q-12 -2 -50.5 -2
t-82.5 16q0 181 100.5 276t289 95z" />
    <glyph glyph-name="Scommaaccent" unicode="&#x218;" horiz-adv-x="1144" 
d="M555 119q125 0 180.5 48t55.5 113.5t-34 107.5t-86.5 71.5t-163 80.5t-191 103.5t-138 140.5t-57.5 220q0 197 127 298t334 101q111 0 220 -26.5t167 -63.5q0 -195 14 -293q-68 -33 -182 -33q-29 162 -85.5 223.5t-146.5 61.5t-141 -40t-51 -108.5t38 -114.5t94 -79
t171 -86t196.5 -104.5t139 -137.5t57.5 -211q0 -184 -132 -296.5t-376.5 -112.5t-470.5 122q25 127 25 322q72 20 188 20q10 -180 66.5 -253.5t181.5 -73.5zM750 -238q0 -221 -226 -374q-76 0 -112 47q112 92 112 176q0 70 -108 82q-9 84 26 164q135 10 215 61
q93 -26 93 -156z" />
    <glyph glyph-name="scommaaccent" unicode="&#x219;" horiz-adv-x="950" 
d="M490 956q183 0 313 -65q-2 -27 -2 -93.5t8 -123.5q-59 -37 -158 -37q-10 84 -59 139t-135 55q-47 0 -75 -23.5t-28 -59.5t14 -58q31 -47 180 -105.5t213 -100.5t92 -92t28 -120q0 -137 -116 -213.5t-321 -76.5t-366 71q8 51 8 128t-6 126q63 35 164 35q10 -111 63 -169
t124.5 -58t109 27.5t37.5 74.5t-39 79t-151 76t-174 83q-128 81 -128 223.5t110.5 210t293.5 67.5zM629 -238q0 -221 -226 -374q-76 0 -112 47q112 92 112 176q0 70 -108 82q-9 86 27 164q135 10 215 61q92 -26 92 -156z" />
    <glyph glyph-name="uni021A" unicode="&#x21a;" horiz-adv-x="1349" 
d="M903 1260h-72v-932q0 -86 14.5 -127t51.5 -58.5t117 -21.5q16 -39 16 -127q-119 6 -358.5 6t-364.5 -6q0 72 19 127q80 4 119.5 21.5t56 59.5t16.5 126v932h-47q-121 0 -174 -60.5t-84 -198.5q-111 0 -162 27q43 210 43 363q147 -6 551 -6.5t621 6.5q-5 -160 32 -363
q-61 -27 -163 -27q-16 135 -69.5 197t-162.5 62zM831 -238q0 -222 -225 -374q-76 0 -112 47q112 92 112 176q0 70 -108 82q-9 84 26 164q135 10 215 61q92 -26 92 -156z" />
    <glyph glyph-name="uni021B" unicode="&#x21b;" horiz-adv-x="774" 
d="M174 307v455q-59 25 -149 26q0 76 22 130h127v251q68 8 136.5 37t111.5 64q31 -12 41 -37t10 -90v-225h252q0 -66 -20 -132q-137 -4 -232 -32v-414q0 -121 24.5 -166t87.5 -45t120 35q27 -37 30 -103q-41 -35 -117.5 -57t-154.5 -22q-148 0 -218.5 75.5t-70.5 249.5z
M614 -238q0 -222 -225 -374q-76 0 -113 47q113 92 113 176q0 70 -108 82q-9 84 26 164q135 10 215 61q92 -26 92 -156z" />
    </font>
</defs>
</svg>
