<svg xmlns="http://www.w3.org/2000/svg" viewBox="0 0 300.16 35.53">
	<defs>
		<style>
			.cls-1 {
				fill: #fff;
			}
		</style>
	</defs>
	<title>text-voice</title>
	<g id="Layer_2" data-name="Layer 2">
		<g id="Layer_1-2" data-name="Layer 1"><path
			class="cls-1"
			d="M1.08,0,0,6.64,2.43,6H7l.7.66V33.29l-.75,2.24h7.43l-.75-2.24V6.64L14.26,6H18.7l2.53.66L20.1,0ZM42.87,0H35.44l.7,2.29V13.93l-.7.7H30.9l-.7-.7V2.29L31,0H23.61l.75,2.29v31l-.75,2.24H31l-.75-2.24v-12l.7-.7h4.54l.7.7v12l-.7,2.24h7.43l-.75-2.24v-31ZM53.81,5.84h9.12l2.43.71L64.29,0H46.52l.75,2.24v31l-.75,2.29H64.29l1.07-6.68-2.43.7H53.81l-.7-.7V21.18l.7-.66h3l2.29.75V13.84l-2.29.75h-3l-.7-.7V6.55ZM78.87,0,77.8,6.64,80.23,6h4.53l.71.66V33.29l-.75,2.24h7.43l-.75-2.24V6.64L92.06,6H96.5L99,6.64,97.9,0ZM114,2.29V28.94l-.71.65H108.7l-.7-.65V2.29L108.75,0h-7.34l.75,2.29v30.3l2.9,2.94h11.87l3-2.94V2.29L120.67,0h-7.43Zm17.57,27.3-.7-.65V2.29l.7-2.29h-7.34L125,2.29v31l-.75,2.24H142l1.08-6.59-2.43.65Zm25.67-18.37h7.44L163.87,9V2.9L160.93,0H149.1L146,2.9V17.77l3.09,3h8.13l.7.7v7.48l-.7.65H152.7l-.7-.65V26.6l.74-2.24h-7.38L146,26.6v6l3.09,2.94h11.83l2.94-2.94V17.77l-2.94-2.95H152.7l-.7-.7V6.64l.7-.66h4.53l.7.66V9Zm23.61-9.16L181.5,0h-8.09l.65,2.06-7.29,31.09-1.17,2.38H173l-.52-1.4,1.31-5.42.7-.71h5.85l.7.71,1.31,5.42-.52,1.4h7.44l-1.17-2.38Zm-1.63,20h-3.46l-.56-.51,2.29-11.36,2.29,11.36ZM216.7,1.36l-4.25,22.25L208.19,1.36,208.61,0h-7.34l1.36,3.46L209,33.38l-.56,2.15h8.13L216,33.38l6.22-30L223.62,0h-7.43ZM229.19,0l-3,2.9V32.59l3,2.94H241L244,32.59V2.9L241,0ZM238,28.94l-.71.65h-4.48l-.7-.65V6.64l.7-.66h4.48l.71.66ZM255.32,0H248l.75,2.29v31L248,35.53h7.34l-.75-2.24v-31Zm15.1,11.13h7.44l-.75-2.25v-6L274.16,0H262.33l-3,2.9V32.59l3,2.94h11.83l2.95-2.94v-6l.75-2.25h-7.44l.8,2.25v2.29l-.66.7h-4.62l-.71-.7V6.55l.71-.71h4.62l.66.71V8.88Zm18.19,18.42-.7-.7V21.18l.7-.66h3l2.29.75V13.84l-2.29.75h-3l-.7-.7V6.55l.7-.71h9.12l2.43.71L299.08,0H281.32l.74,2.24v31l-.74,2.29h17.76l1.08-6.68-2.43.7Z"/></g>
	</g>
</svg>
