<svg xmlns="http://www.w3.org/2000/svg" viewBox="0 0 256.3 35.53">
	<defs>
		<style>
			.cls-1 {
				fill: #fff;
			}
		</style>
	</defs>
	<title>text-present</title>
	<g id="Layer_2" data-name="Layer 2">
		<g id="Layer_1-2" data-name="Layer 1"><path class="cls-1" d="M7.34,35.53H0l.75-2.24v-31L0,0H15.52l3,2.9V19.12l-3,3H7.29l-.7.71V33.29Zm0-19.35h4.54l.7-.66V6.64L11.83,6H7.29l-.7.66v8.88Z"/><path class="cls-1" d="M21.69,35.53l.75-2.24v-31L21.69,0H37.22l3,2.9V19.08l-3,3,2.57,11.08.93,2.38H33.38l.52-2.2-2.53-10.7-.47-.56H29l-.7.7V33.29L29,35.53ZM33.57,16.18l.7-.66V6.64L33.57,6H29l-.7.66v8.88l.7.66Z"/><path class="cls-1" d="M44.23,35.53,45,33.24v-31L44.23,0H62l1.07,6.55-2.43-.71H51.52l-.7.71v7.34l.7.7h3l2.3-.75v7.43l-2.3-.75h-3l-.7.66v7.67l.7.7h9.12l2.43-.7L62,35.53Z"/><path class="cls-1" d="M84.67,11.22H77.24L77.94,9V6.64L77.24,6H72.7l-.7.66v7.48l.7.7h8.23l2.95,2.95V32.59l-2.95,2.94H69.1L66,32.59v-6l-.66-2.24h7.39L72,26.6v2.34l.7.65h4.54l.7-.65V21.46l-.7-.7H69.1l-3.08-3V2.9L69.1,0H80.93l2.95,2.9V9Z"/><path class="cls-1" d="M88.13,35.53l.75-2.29v-31L88.13,0H105.9L107,6.55l-2.43-.71H95.42l-.7.71v7.34l.7.7h3l2.29-.75v7.43l-2.29-.75h-3l-.7.66v7.67l.7.7h9.12l2.43-.7-1.07,6.68Z"/><path class="cls-1" d="M116.79,35.53h-7.34l.75-2.24v-31L109.45,0H116l8.61,21.65V2.29L123.9,0h7.43l-.75,2.29v31l.75,2.24h-6.68L116,13.93V33.29Z"/><path class="cls-1" d="M154.94,6.64,152.42,6H148l-.66.66V33.29l.75,2.24h-7.43l.74-2.24V6.64l-.7-.66h-4.53l-2.43.66L134.79,0h19Z"/><path class="cls-1" d="M157.33,35.53l.74-2.29v-31L157.33,0h17.76l1.08,6.55-2.43-.71h-9.12l-.7.71v7.34l.7.7h3l2.29-.75v7.43l-2.29-.75h-3l-.7.66v7.67l.7.7h9.12l2.43-.7-1.08,6.68Z"/><path class="cls-1" d="M178.65,0h15.52l3,2.9V32.59l-3,2.94H178.65l.65-2.29v-31Zm6.59,28.85.7.7h4.54l.7-.7V6.55l-.7-.71h-4.54l-.7.71Z"/><path class="cls-1" d="M212.4,0h15.52l3,2.9V14.49l-3,3,3,3V32.59l-3,2.94H212.4l.75-2.29v-31ZM219,13.84l.7.65h4.54l.7-.65V6.55l-.7-.71h-4.54l-.7.71Zm5.24,6.59h-4.54l-.7.7v7.72l.7.7h4.54l.7-.7V21.13Z"/><path class="cls-1" d="M247.38,33.29l.65,2.24h-7.25l.75-2.24V23.14L234.28,2.62,232.55,0h8.75l-.84,1.4,4,13.05,4-13L247.56,0h8.74l-1.73,2.62-7.19,20.52Z"/></g>
	</g>
</svg>
