<svg xmlns="http://www.w3.org/2000/svg" viewBox="0 0 768.5 430.45"><defs><style>.cls-1{fill:#fff;}</style></defs><title>Asset 1v1</title><g id="Layer_2" data-name="Layer 2"><g id="Layer_1-2" data-name="Layer 1"><path class="cls-1" d="M306.95,353.4l22.52-22.52v-227L306.95,81.74H216.51L193.64,103.9v227l22.87,22.52ZM238.68,132.48l5.36-5h34.31l5.35,5V303l-5.35,5H244l-5.36-5ZM453.31,330.87,476.2,353.4h90.44l22.52-22.52V284.75l5.71-17.14H538l6.08,17.14v17.52l-5,5.36H503.72l-5.36-5.36V131.78l5.36-5.38h35.39l5,5.38v17.86L538,166.81h56.84l-5.71-17.17V103.9L566.64,81.74H476.2L453.31,103.9ZM419.45,81.74H363.33l5.73,17.51v237l-5.73,17.16h56.12l-5.71-17.16v-237ZM680.2,126.4h69.71l18.59,5.38-8.21-50H624.45l5.71,17.14v237l-5.71,17.51H760.29l8.21-51.12-18.59,5.36H680.2l-5.35-5.36V243.66l5.35-5h22.89l17.51,5.71V187.54l-17.51,5.71H680.2l-5.35-5.35V131.78ZM59,337,54.69,353.4h62.19L112.61,337l47.52-229.12,10.73-26.09H114L118,92.1,85.44,262.25,52.9,92.1l3.22-10.36H0l10.36,26.44ZM496.31,41.55H484l1.09,3.74v10l5.14,4.9h19.69l4.9-4.9V30.58l-4.9-4.9h-13.7l-1.17-1.17V12.05L496.24,11h7.55L505,12.05v3.89l-1.17,3.74h12.37l-1.32-3.74V5.83L509.93,1H490.24l-5.14,4.82V30.58l5.14,5h13.54L505,36.72V49.17l-1.17,1.09h-7.55l-1.17-1.09V45.28Zm-93.54,13.7,4.82,4.9h19.77l5-4.9V4.82L433.59,1H421.22l1.25,3.81V49.17l-1.17,1.09h-7.63l-1.17-1.09V4.82L413.74,1H401.53l1.25,3.81ZM533.9,57.81l2.18-9,1.17-1.17H547l1.17,1.17,2.18,9-.86,2.33h12.37l-1.95-4L547.76,4.43,548.84,1H535.38l1.09,3.42L524.33,56.18l-1.95,4h12.37Zm8.25-39.92L546,36.8l-.93.86h-5.76l-.93-.86Zm-98,42.26h29.57l1.79-11-4,1.09h-15.1l-1.17-1.09V4.82L456.39,1H444.17l1.25,3.81V56.41ZM221,11l1.17,1.09V56.41l-1.25,3.74h12.37L232,56.41V12.05L233.12,11h7.39l4.2,1.09L242.84,1H211.17l-1.79,11.05,4-1.09Zm32.38,49.18h12.22l-1.25-3.74v-20l1.17-1.17H273l1.17,1.17v20L273,60.15h12.37l-1.25-3.74V4.82L285.41,1H273l1.17,3.81V24.19L273,25.36h-7.55l-1.17-1.17V4.82L265.57,1H253.35l1.25,3.81V56.41Zm42.8,0h29.57L327.51,49l-4,1.17H308.29L307.13,49V36.26l1.17-1.09h5l3.81,1.25V24l-3.81,1.25h-5l-1.17-1.17V11.9l1.17-1.17h15.17l4,1.17L325.72,1H296.15l1.25,3.74V56.33Zm73-49.18,1.17,1.09V56.41l-1.25,3.74h12.37l-1.25-3.74V12.05L381.29,11h7.39l4.2,1.09L391,1H359.35l-1.79,11.05,4-1.09ZM192.82,0H0V58.08H192.82ZM575.67,0V58.08H768.5V0ZM0,430.45H768.5V372.37H0Z"/></g></g></svg>