<?xml version="1.0" standalone="no"?>
<!DOCTYPE svg PUBLIC "-//W3C//DTD SVG 1.1//EN" "http://www.w3.org/Graphics/SVG/1.1/DTD/svg11.dtd" >
<svg xmlns="http://www.w3.org/2000/svg">
<metadata>
Created by FontPrep 20130207 at Tue Mar 20 20:49:41 2018
 By Maxx Crawford
</metadata>
<defs>
<font id="dc6d2e017544373ab9e29b35c91a1d3a" horiz-adv-x='1024' >
  <font-face 
    font-family="Aachen-Bold"
    font-weight="700"
    font-stretch="normal"
    units-per-em="2048"
    panose-1="2 2 5 0 0 0 0 0 0 0"
    ascent="1638"
    descent="-410"
    x-height="1118"
    cap-height="1522"
    bbox="-895 -483 2312 2241"
    underline-thickness="99"
    underline-position="-48"
    unicode-range="U+0020-F02A"
  />
<missing-glyph horiz-adv-x="1536" 
d="M1247 33v1214h-958v-1214h958zM256 0v1280h1024v-1280h-1024z" />
    <glyph glyph-name=".notdef" horiz-adv-x="1536" 
d="M1247 33v1214h-958v-1214h958zM256 0v1280h1024v-1280h-1024z" />
    <glyph glyph-name=".null" 
 />
    <glyph glyph-name="nonmarkingreturn" 
 />
    <glyph glyph-name="space" unicode=" " horiz-adv-x="621" 
 />
    <glyph glyph-name="space" unicode="&#x2031;" horiz-adv-x="621" 
 />
    <glyph glyph-name="space" unicode="&#x2025;" horiz-adv-x="621" 
 />
    <glyph glyph-name="space" unicode="&#x2024;" horiz-adv-x="621" 
 />
    <glyph glyph-name="space" unicode="&#x2023;" horiz-adv-x="621" 
 />
    <glyph glyph-name="space" unicode="&#x201f;" horiz-adv-x="621" 
 />
    <glyph glyph-name="space" unicode="&#x201b;" horiz-adv-x="621" 
 />
    <glyph glyph-name="space" unicode="&#x2017;" horiz-adv-x="621" 
 />
    <glyph glyph-name="space" unicode="&#x2016;" horiz-adv-x="621" 
 />
    <glyph glyph-name="space" unicode="&#x2015;" horiz-adv-x="621" 
 />
    <glyph glyph-name="exclam" unicode="!" horiz-adv-x="621" 
d="M137 154q0 68 50.5 120t110.5 52t121.5 -36.5t61.5 -135.5q0 -71 -51.5 -121.5t-120.5 -50.5t-120.5 52t-51.5 120zM119 1364q0 88 51 138t140 50t140.5 -49t51.5 -139q0 -31 -8 -94l-99 -789h-172l-96 789q-8 63 -8 94z" />
    <glyph glyph-name="quotedbl" unicode="&#x22;" horiz-adv-x="678" 
d="M406 1438h192v-559h-192v559zM80 1438h192v-559h-192v559z" />
    <glyph glyph-name="numbersign" unicode="#" horiz-adv-x="1575" 
d="M709 848l-88 -242h251l86 242h-249zM709 1464h221l-146 -415h242l148 415h221l-148 -415h283l-74 -201h-280l-84 -242h290l-71 -200h-291l-148 -416h-221l148 416h-244l-149 -416h-220l146 416h-287l76 200h282l86 242h-299l74 201h297z" />
    <glyph glyph-name="dollar" unicode="$" horiz-adv-x="1241" 
d="M459 496q0 -215 167 -215q81 0 126 43t45 116t-51.5 120.5t-140.5 79.5t-218.5 79.5t-202.5 149t-73 257.5q0 157 94 266t274 148v105h293v-105q200 -40 350 -154v-358h-336v27q0 200 -163 200q-77 0 -122.5 -39.5t-45.5 -94.5t30 -88t89.5 -60t186.5 -71t214 -98.5
t130.5 -139t43.5 -212.5t-44.5 -225t-130.5 -159.5t-202 -83.5v-101h-293v99q-217 40 -364 163v381h344v-30z" />
    <glyph glyph-name="percent" unicode="%" horiz-adv-x="1612" 
d="M1327 461q0 121 -85 121t-85 -121v-217q0 -121 85 -121t85 121v217zM928 424q0 109 31 170t98 87t185 26t184.5 -26t97 -87t30.5 -170v-145q0 -110 -31 -170.5t-98.5 -85.5t-183.5 -25t-183.5 25t-98.5 85.5t-31 170.5v145zM369 1397q-86 0 -86 -119v-219q0 -119 86 -119
t86 119v219q0 119 -86 119zM55 1241q0 107 29 168.5t96 87t185 25.5t185.5 -25t98.5 -86t31 -170v-145q0 -108 -30.5 -169t-97 -86.5t-186.5 -25.5t-186.5 26t-95.5 86.5t-29 168.5v145zM494 0h-256l876 1522h256z" />
    <glyph glyph-name="percent" unicode="&#x202f;" horiz-adv-x="1612" 
d="M1327 461q0 121 -85 121t-85 -121v-217q0 -121 85 -121t85 121v217zM928 424q0 109 31 170t98 87t185 26t184.5 -26t97 -87t30.5 -170v-145q0 -110 -31 -170.5t-98.5 -85.5t-183.5 -25t-183.5 25t-98.5 85.5t-31 170.5v145zM369 1397q-86 0 -86 -119v-219q0 -119 86 -119
t86 119v219q0 119 -86 119zM55 1241q0 107 29 168.5t96 87t185 25.5t185.5 -25t98.5 -86t31 -170v-145q0 -108 -30.5 -169t-97 -86.5t-186.5 -25.5t-186.5 26t-95.5 86.5t-29 168.5v145zM494 0h-256l876 1522h256z" />
    <glyph glyph-name="percent" unicode="&#x202e;" horiz-adv-x="1612" 
d="M1327 461q0 121 -85 121t-85 -121v-217q0 -121 85 -121t85 121v217zM928 424q0 109 31 170t98 87t185 26t184.5 -26t97 -87t30.5 -170v-145q0 -110 -31 -170.5t-98.5 -85.5t-183.5 -25t-183.5 25t-98.5 85.5t-31 170.5v145zM369 1397q-86 0 -86 -119v-219q0 -119 86 -119
t86 119v219q0 119 -86 119zM55 1241q0 107 29 168.5t96 87t185 25.5t185.5 -25t98.5 -86t31 -170v-145q0 -108 -30.5 -169t-97 -86.5t-186.5 -25.5t-186.5 26t-95.5 86.5t-29 168.5v145zM494 0h-256l876 1522h256z" />
    <glyph glyph-name="percent" unicode="&#x202d;" horiz-adv-x="1612" 
d="M1327 461q0 121 -85 121t-85 -121v-217q0 -121 85 -121t85 121v217zM928 424q0 109 31 170t98 87t185 26t184.5 -26t97 -87t30.5 -170v-145q0 -110 -31 -170.5t-98.5 -85.5t-183.5 -25t-183.5 25t-98.5 85.5t-31 170.5v145zM369 1397q-86 0 -86 -119v-219q0 -119 86 -119
t86 119v219q0 119 -86 119zM55 1241q0 107 29 168.5t96 87t185 25.5t185.5 -25t98.5 -86t31 -170v-145q0 -108 -30.5 -169t-97 -86.5t-186.5 -25.5t-186.5 26t-95.5 86.5t-29 168.5v145zM494 0h-256l876 1522h256z" />
    <glyph glyph-name="percent" unicode="&#x202c;" horiz-adv-x="1612" 
d="M1327 461q0 121 -85 121t-85 -121v-217q0 -121 85 -121t85 121v217zM928 424q0 109 31 170t98 87t185 26t184.5 -26t97 -87t30.5 -170v-145q0 -110 -31 -170.5t-98.5 -85.5t-183.5 -25t-183.5 25t-98.5 85.5t-31 170.5v145zM369 1397q-86 0 -86 -119v-219q0 -119 86 -119
t86 119v219q0 119 -86 119zM55 1241q0 107 29 168.5t96 87t185 25.5t185.5 -25t98.5 -86t31 -170v-145q0 -108 -30.5 -169t-97 -86.5t-186.5 -25.5t-186.5 26t-95.5 86.5t-29 168.5v145zM494 0h-256l876 1522h256z" />
    <glyph glyph-name="percent" unicode="&#x202b;" horiz-adv-x="1612" 
d="M1327 461q0 121 -85 121t-85 -121v-217q0 -121 85 -121t85 121v217zM928 424q0 109 31 170t98 87t185 26t184.5 -26t97 -87t30.5 -170v-145q0 -110 -31 -170.5t-98.5 -85.5t-183.5 -25t-183.5 25t-98.5 85.5t-31 170.5v145zM369 1397q-86 0 -86 -119v-219q0 -119 86 -119
t86 119v219q0 119 -86 119zM55 1241q0 107 29 168.5t96 87t185 25.5t185.5 -25t98.5 -86t31 -170v-145q0 -108 -30.5 -169t-97 -86.5t-186.5 -25.5t-186.5 26t-95.5 86.5t-29 168.5v145zM494 0h-256l876 1522h256z" />
    <glyph glyph-name="percent" unicode="&#x202a;" horiz-adv-x="1612" 
d="M1327 461q0 121 -85 121t-85 -121v-217q0 -121 85 -121t85 121v217zM928 424q0 109 31 170t98 87t185 26t184.5 -26t97 -87t30.5 -170v-145q0 -110 -31 -170.5t-98.5 -85.5t-183.5 -25t-183.5 25t-98.5 85.5t-31 170.5v145zM369 1397q-86 0 -86 -119v-219q0 -119 86 -119
t86 119v219q0 119 -86 119zM55 1241q0 107 29 168.5t96 87t185 25.5t185.5 -25t98.5 -86t31 -170v-145q0 -108 -30.5 -169t-97 -86.5t-186.5 -25.5t-186.5 26t-95.5 86.5t-29 168.5v145zM494 0h-256l876 1522h256z" />
    <glyph glyph-name="percent" unicode="&#x2029;" horiz-adv-x="1612" 
d="M1327 461q0 121 -85 121t-85 -121v-217q0 -121 85 -121t85 121v217zM928 424q0 109 31 170t98 87t185 26t184.5 -26t97 -87t30.5 -170v-145q0 -110 -31 -170.5t-98.5 -85.5t-183.5 -25t-183.5 25t-98.5 85.5t-31 170.5v145zM369 1397q-86 0 -86 -119v-219q0 -119 86 -119
t86 119v219q0 119 -86 119zM55 1241q0 107 29 168.5t96 87t185 25.5t185.5 -25t98.5 -86t31 -170v-145q0 -108 -30.5 -169t-97 -86.5t-186.5 -25.5t-186.5 26t-95.5 86.5t-29 168.5v145zM494 0h-256l876 1522h256z" />
    <glyph glyph-name="percent" unicode="&#x2028;" horiz-adv-x="1612" 
d="M1327 461q0 121 -85 121t-85 -121v-217q0 -121 85 -121t85 121v217zM928 424q0 109 31 170t98 87t185 26t184.5 -26t97 -87t30.5 -170v-145q0 -110 -31 -170.5t-98.5 -85.5t-183.5 -25t-183.5 25t-98.5 85.5t-31 170.5v145zM369 1397q-86 0 -86 -119v-219q0 -119 86 -119
t86 119v219q0 119 -86 119zM55 1241q0 107 29 168.5t96 87t185 25.5t185.5 -25t98.5 -86t31 -170v-145q0 -108 -30.5 -169t-97 -86.5t-186.5 -25.5t-186.5 26t-95.5 86.5t-29 168.5v145zM494 0h-256l876 1522h256z" />
    <glyph glyph-name="percent" unicode="&#x2027;" horiz-adv-x="1612" 
d="M1327 461q0 121 -85 121t-85 -121v-217q0 -121 85 -121t85 121v217zM928 424q0 109 31 170t98 87t185 26t184.5 -26t97 -87t30.5 -170v-145q0 -110 -31 -170.5t-98.5 -85.5t-183.5 -25t-183.5 25t-98.5 85.5t-31 170.5v145zM369 1397q-86 0 -86 -119v-219q0 -119 86 -119
t86 119v219q0 119 -86 119zM55 1241q0 107 29 168.5t96 87t185 25.5t185.5 -25t98.5 -86t31 -170v-145q0 -108 -30.5 -169t-97 -86.5t-186.5 -25.5t-186.5 26t-95.5 86.5t-29 168.5v145zM494 0h-256l876 1522h256z" />
    <glyph glyph-name="ampersand" unicode="&#x26;" horiz-adv-x="1282" 
d="M805 319v369h-143q-111 0 -159 -39t-48 -126t33.5 -145.5t193.5 -58.5h123zM616 1550q265 0 512 -145v-262h-335q-6 63 -57 83.5t-89 20.5q-78 0 -122 -43t-44 -121t52 -113.5t161 -35.5h111v53h323v-53h60v-246h-60v-688h-516q-270 0 -393 98.5t-123 354.5
q0 299 236 364q-215 100 -215 326q0 125 91 266t408 141z" />
    <glyph glyph-name="quotesingle" unicode="'" horiz-adv-x="352" 
d="M80 1438h192v-559h-192v559z" />
    <glyph glyph-name="parenleft" unicode="(" horiz-adv-x="793" 
d="M563 -340q-442 477 -442 995.5t442 995.5l162 -111q-266 -411 -266 -885q0 -344 101.5 -565t164.5 -319z" />
    <glyph glyph-name="parenright" unicode=")" horiz-adv-x="793" 
d="M332 655q0 351 -100 569.5t-164 315.5l159 111q445 -473 445 -996t-445 -995l-159 111q264 411 264 884z" />
    <glyph glyph-name="asterisk" unicode="*" horiz-adv-x="854" 
d="M348 864v215l-194 -104l-68 127l184 106l-184 107l68 129l194 -103v211h154v-211l188 103l76 -129l-191 -107l191 -106l-76 -127l-188 104v-215h-154z" />
    <glyph glyph-name="plus" unicode="+" horiz-adv-x="1706" 
d="M752 1221h202v-510h498v-199h-498v-512h-202v512h-498v199h498v510z" />
    <glyph glyph-name="comma" unicode="," horiz-adv-x="621" 
d="M154 158q0 62 46 105.5t101 43.5t113.5 -33.5t58.5 -133.5q0 -99 -61 -185t-172 -148l-52 78q86 61 101 117q-66 12 -100.5 53t-34.5 103z" />
    <glyph glyph-name="hyphen" unicode="-" horiz-adv-x="782" 
d="M117 453v245h549v-245h-549z" />
    <glyph glyph-name="period" unicode="." horiz-adv-x="621" 
d="M147 132q0 52 22.5 90.5t60.5 61.5t94 23t102.5 -48.5t46.5 -116.5t-47.5 -114t-113.5 -46t-115.5 49t-49.5 101z" />
    <glyph glyph-name="slash" unicode="/" horiz-adv-x="664" 
d="M174 -190h-270l536 1712h271z" />
    <glyph glyph-name="zero" unicode="0" horiz-adv-x="1241" 
d="M782 498v526q0 116 -36.5 168.5t-124.5 52.5t-124 -53.5t-36 -167.5v-526q0 -116 36.5 -170t123.5 -54t124 53.5t37 170.5zM1133 512q0 -153 -14.5 -240.5t-72.5 -159.5q-115 -143 -425 -143q-407 0 -458.5 170.5t-51.5 372.5v500q0 198 38 323.5t176.5 171t373.5 45.5
t350 -147q54 -68 69 -156.5t15 -236.5v-500z" />
    <glyph glyph-name="one" unicode="1" horiz-adv-x="1241" 
d="M371 1522h428v-1108q0 -60 6.5 -103t68.5 -55v-256h-503v256q65 13 71.5 59t6.5 99v704q0 83 -13.5 115t-64.5 43v246z" />
    <glyph glyph-name="two" unicode="2" horiz-adv-x="1241" 
d="M129 1413q204 139 516 139q157 0 323.5 -62.5t166.5 -340.5q0 -186 -76 -267.5t-166 -152.5l-334 -264q-51 -41 -73.5 -74t-22.5 -84v-12h149q125 0 141.5 42t16.5 101v47h373v-485h-1041v356q0 152 51.5 215.5t116.5 114.5l389 305q57 44 83 80.5t26 89.5t-36 88
t-108 35t-116.5 -44t-44.5 -124v-112h-334v409z" />
    <glyph glyph-name="three" unicode="3" horiz-adv-x="1241" 
d="M602 -31q-263 0 -508 140v362h346v-12q0 -183 166 -183q76 0 117 46t41 126t-31.5 137.5t-179.5 57.5h-191v258h203q97 0 150 46t53 129t-46 127t-128 44q-141 0 -152 -176h-331v346q217 135 482 135q521 0 521 -417q0 -139 -64 -224t-198 -123q274 -40 274 -366
q0 -453 -524 -453z" />
    <glyph glyph-name="four" unicode="4" horiz-adv-x="1241" 
d="M1016 1522v-828h100v-288h-100v-21q0 -85 22.5 -104t53.5 -25v-256h-488v256q46 9 61 37t15 92v21h-629v325l527 791h438zM680 694v480l-313 -480h313z" />
    <glyph glyph-name="five" unicode="5" horiz-adv-x="1241" 
d="M461 492q-1 -220 161 -220q78 0 129.5 36t51.5 178q0 143 -35.5 198t-127.5 55t-148 -69h-377v852h999v-410h-328q-8 92 -55 104.5t-104 12.5h-164v-275q135 52 257 52q234 0 334.5 -125.5t100.5 -393.5q0 -180 -78.5 -350t-431.5 -170q-313 0 -530 142v391h346v-8z" />
    <glyph glyph-name="six" unicode="6" horiz-adv-x="1241" 
d="M610 264q164 0 164 203t-162 203t-163 -197q0 -106 39 -157.5t122 -51.5zM602 1552q262 0 512 -118v-347h-334q-1 90 -39.5 132.5t-132.5 42.5t-126.5 -53.5t-32.5 -184.5v-147q131 79 309 79t280 -102q64 -64 83.5 -147.5t19.5 -245.5t-48 -274t-163.5 -165t-307.5 -53
t-356 67t-164 367v705q0 340 186 392t314 52z" />
    <glyph glyph-name="seven" unicode="7" horiz-adv-x="1241" 
d="M100 1010v512h1047v-260l-541 -1262h-377l529 1229h-96q-97 0 -144.5 -13t-68.5 -55.5t-21 -132.5v-18h-328z" />
    <glyph glyph-name="eight" unicode="8" horiz-adv-x="1241" 
d="M622 256q84 0 128.5 55t44.5 156t-44.5 155t-128.5 54t-130 -53.5t-46 -155.5t46 -156.5t130 -54.5zM620 1251q-74 0 -116.5 -44.5t-42.5 -125.5t42.5 -127.5t118.5 -46.5t117 45.5t41 127.5t-43 126.5t-117 44.5zM78 424q0 274 217 364q-107 44 -153 122t-46 214
t89.5 281t435.5 145q257 0 390.5 -108.5t133.5 -321.5q0 -133 -45.5 -210.5t-153.5 -121.5q217 -90 217 -364q0 -306 -179.5 -380.5t-363.5 -74.5t-363 74.5t-179 380.5z" />
    <glyph glyph-name="nine" unicode="9" horiz-adv-x="1241" 
d="M633 1253q-86 0 -126 -49.5t-40 -159.5q0 -220 163 -219q163 0 163 209q0 114 -37 166.5t-123 52.5zM135 406h326q6 -146 162 -146q71 0 107.5 24.5t49.5 75.5t13 138v125q-115 -74 -249 -74t-214.5 29.5t-154 117.5t-73.5 338q0 165 27 260.5t115 161.5q126 96 387 96
q353 0 430.5 -141.5t77.5 -292.5v-704q0 -339 -184.5 -392t-313.5 -53q-262 0 -506 113v324z" />
    <glyph glyph-name="colon" unicode=":" horiz-adv-x="621" 
d="M147 754q0 64 49 112.5t116 48.5t114 -47t47 -115t-47.5 -115.5t-113.5 -47.5t-115.5 50t-49.5 114zM147 132q0 52 22.5 90.5t60.5 61.5t94 23t102.5 -48.5t46.5 -116.5t-47.5 -114t-113.5 -46t-115.5 49t-49.5 101z" />
    <glyph glyph-name="semicolon" unicode=";" horiz-adv-x="621" 
d="M154 158q0 62 46 105.5t101 43.5t113.5 -33.5t58.5 -133.5q0 -99 -61 -185t-172 -148l-52 78q86 61 101 117q-66 12 -100.5 53t-34.5 103zM147 754q0 64 49 112.5t116 48.5t114 -47t47 -115t-47.5 -115.5t-113.5 -47.5t-115.5 50t-49.5 114z" />
    <glyph glyph-name="less" unicode="&#x3c;" horiz-adv-x="1706" 
d="M1442 1194v-219l-893 -365l893 -364v-219l-1178 485v199z" />
    <glyph glyph-name="equal" unicode="=" horiz-adv-x="1706" 
d="M254 496h1198v-199h-1198v199zM254 926h1198v-199h-1198v199z" />
    <glyph glyph-name="greater" unicode="&#x3e;" horiz-adv-x="1706" 
d="M264 1194l1178 -483v-199l-1178 -485v219l895 364l-895 365v219z" />
    <glyph glyph-name="question" unicode="?" horiz-adv-x="1139" 
d="M264 154q0 68 50 120t110 52t122 -36.5t62 -136.5q0 -99 -63.5 -135t-120.5 -36t-108.5 52t-51.5 120zM563 1552q514 0 514 -419q0 -210 -84.5 -282.5t-156.5 -118.5q-157 -100 -193.5 -133.5t-36.5 -102.5v-17h-336v105q0 100 27 153t97 105t164 111.5t131.5 100
t37.5 100.5t-41.5 94t-117.5 34q-154 0 -154 -178v-41h-330v348q195 141 479 141z" />
    <glyph glyph-name="at" unicode="@" horiz-adv-x="2048" 
d="M870 109q-159 0 -241 87t-82 253q0 240 140.5 401.5t342.5 161.5q161 0 236 -131l53 98h178l-147 -598q-7 -28 -7 -41q1 -70 89 -70t167 76q175 163 175 410t-181.5 404t-473.5 157q-441 0 -643 -260t-202 -551q0 -290 207.5 -474t545.5 -184t611 191l82 -117
q-308 -231 -689 -231t-632 192q-309 240 -309 637q0 339 207 594q301 367 819 367q349 0 576 -174q268 -208 268 -545t-254 -541q-142 -115 -324 -115q-212 0 -215 166q-106 -163 -297 -163zM1042 866q-113 0 -197.5 -122.5t-84.5 -305.5q0 -182 158 -182q114 0 170.5 78.5
t74.5 148.5l54 217q-26 166 -175 166z" />
    <glyph glyph-name="A" unicode="A" horiz-adv-x="1223" 
d="M432 332q0 -74 82 -76v-256h-467v256q41 12 59 47.5t33 112.5l215 1106h523l237 -1131q13 -64 31.5 -94t56.5 -41v-256h-518v256q38 3 57 22.5t19 43.5t-4 51l-13 63h-294l-13 -57q-4 -28 -4 -47zM487 653h207l-104 582z" />
    <glyph glyph-name="B" unicode="B" horiz-adv-x="1319" 
d="M532 920h136q95 0 139.5 32.5t44.5 118.5t-43 122t-141 36h-136v-309zM532 297h154q101 0 146 41.5t45 139.5t-48 139.5t-151 41.5h-146v-362zM1198 1108q0 -260 -213 -332q238 -73 238 -364q0 -227 -122 -319.5t-394 -92.5h-605v256q64 13 71 55.5t7 102.5v704
q0 82 -13 114.5t-65 43.5v246h586q265 0 387.5 -97t122.5 -317z" />
    <glyph glyph-name="C" unicode="C" horiz-adv-x="1237" 
d="M109 512v498q0 135 19 281.5t168.5 203.5t324.5 57q249 0 491 -112v-430h-332v30q0 205 -159 205q-89 0 -125.5 -53.5t-36.5 -169.5v-522q0 -117 37 -170.5t125 -53.5t123.5 54t35.5 170v108h332v-522q-224 -117 -491 -117q-408 0 -460 171t-52 372z" />
    <glyph glyph-name="D" unicode="D" horiz-adv-x="1305" 
d="M532 305h103q131 0 170 43.5t39 169.5v459q0 92 -13.5 144.5t-54 77t-123.5 24.5h-20l-101 -2v-916zM608 0h-506v256q64 13 71 55.5t7 102.5v704q0 82 -13 114.5t-65 43.5v246h506q225 0 351 -51t181.5 -173.5t55.5 -349.5v-364q0 -181 -28 -292t-94 -174.5t-177 -90.5
t-289 -27z" />
    <glyph glyph-name="E" unicode="E" horiz-adv-x="1262" 
d="M102 0v256q64 13 71 55.5t7 102.5v704q0 82 -13 114.5t-65 43.5v246h1072v-465h-330v16q0 90 -40 124t-142 34h-130v-318h416v-256h-416v-366h154q92 0 125 36.5t33 127.5v55h330v-510h-1072z" />
    <glyph glyph-name="F" unicode="F" horiz-adv-x="1208" 
d="M102 0v256q64 13 71 55.5t7 102.5v704q0 82 -13 114.5t-65 43.5v246h1045v-467h-309v14q0 87 -38.5 121.5t-131.5 34.5h-136v-310h396v-256h-396v-245q0 -82 15 -118t63 -40v-256h-508z" />
    <glyph glyph-name="G" unicode="G" horiz-adv-x="1237" 
d="M109 1010q0 135 19 281.5t168.5 203.5t324.5 57q249 0 491 -112v-404h-332v8q0 201 -159 201q-89 0 -125.5 -53.5t-36.5 -169.5v-522q0 -117 37 -170.5t125 -53.5t123.5 54t35.5 170v53h-141v244h473v-684q-214 -144 -491 -144q-409 0 -460.5 172t-51.5 371v498z" />
    <glyph glyph-name="H" unicode="H" horiz-adv-x="1389" 
d="M532 414q0 -60 6 -102.5t70 -55.5v-256h-506v256q64 13 71 55.5t7 102.5v704q0 82 -13 114.5t-65 43.5v246h506v-246q-62 -12 -69 -56t-7 -102v-203h324v203q0 85 -12.5 116t-63.5 42v246h506v-246q-64 -13 -71 -56.5t-7 -101.5v-704q0 -60 7 -102.5t71 -55.5v-256h-506
v256q51 11 63.5 42t12.5 116v243h-324v-243z" />
    <glyph glyph-name="I" unicode="I" horiz-adv-x="725" 
d="M539 414q0 -60 6.5 -103t68.5 -55v-256h-505v256q63 13 70 55.5t7 102.5v704q0 82 -13 114.5t-64 43.5v246h505v-246q-62 -12 -68.5 -56t-6.5 -102v-704z" />
    <glyph glyph-name="J" unicode="J" horiz-adv-x="743" 
d="M578 494q0 -154 -6 -233t-29 -126q-81 -164 -289 -164q-94 0 -188 35v225q14 -2 40 -2q72 0 95.5 42.5t23.5 142.5v704q0 85 -12.5 116t-62.5 42v246h505v-246q-63 -13 -70 -56.5t-7 -101.5v-624z" />
    <glyph glyph-name="K" unicode="K" horiz-adv-x="1255" 
d="M604 1522v-246q-51 -11 -63.5 -43.5t-12.5 -114.5v-260l191 289q30 43 38.5 82t8.5 94v199h428v-246q-65 -17 -111 -88l-227 -344l287 -514q19 -33 38 -50t52 -24v-256h-467v197q0 111 -39 180l-199 360v-323q0 -60 6.5 -102.5t69.5 -55.5v-256h-502v256q64 13 71 55.5
t7 102.5v704q0 82 -13 114.5t-65 43.5v246h502z" />
    <glyph glyph-name="L" unicode="L" horiz-adv-x="1180" 
d="M1130 0h-1028v256q64 13 71 55.5t7 102.5v704q0 82 -13 114.5t-65 43.5v246h506v-246q-62 -12 -69 -56t-7 -102v-829h115q144 0 161 71.5t17 161.5v168h305v-690z" />
    <glyph glyph-name="M" unicode="M" horiz-adv-x="1671" 
d="M461 401q0 -78 14.5 -108t63.5 -37v-256h-441v256q82 0 82 135v733q0 73 -17.5 106t-64.5 44v248h541l197 -867l188 867h549v-248q-55 -13 -68.5 -45t-13.5 -111v-690q0 -92 15.5 -128.5t66.5 -43.5v-256h-500v256q48 8 62 46t14 126v717l-268 -1145h-144l-276 1169v-768
z" />
    <glyph glyph-name="N" unicode="N" horiz-adv-x="1374" 
d="M102 0v256q50 6 64 39.5t14 114.5v735q0 62 -15 91.5t-63 39.5v246h398l383 -856v456q0 76 -16.5 110.5t-65.5 43.5v246h483v-246q-70 -21 -76 -65.5t-6 -104.5v-1106h-319l-383 864v-454q0 -80 15.5 -113.5t64.5 -40.5v-256h-478z" />
    <glyph glyph-name="O" unicode="O" horiz-adv-x="1239" 
d="M459 1022v-522q0 -117 37 -170.5t125 -53.5t123.5 54t35.5 170v522q0 115 -35 169t-124 54t-125.5 -53.5t-36.5 -169.5zM109 1010q0 202 37 326.5t177 170t297 45.5t261.5 -35t162.5 -107t72 -159t14 -241v-498q0 -154 -14 -241t-72 -159q-114 -143 -423 -143
q-409 0 -460.5 170t-51.5 373v498z" />
    <glyph glyph-name="P" unicode="P" horiz-adv-x="1255" 
d="M532 799h132q73 0 130.5 22t57.5 156q0 135 -40 178t-146 43h-134v-399zM532 414q0 -60 6 -102.5t70 -55.5v-256h-506v256q64 13 71 55.5t7 102.5v704q0 82 -13 114.5t-65 43.5v246h603q179 0 287.5 -49.5t158 -156t49.5 -300.5t-42 -314t-148.5 -175.5t-304.5 -55.5
h-173v-57z" />
    <glyph glyph-name="Q" unicode="Q" horiz-adv-x="1239" 
d="M459 1022v-522q0 -117 37 -170.5t125 -53.5t123.5 54t35.5 170v522q0 115 -35 169t-124 54t-125.5 -53.5t-36.5 -169.5zM109 1010q0 202 37 326.5t177 170t297 45.5t261.5 -35t162.5 -107t72 -159t14 -241v-498q0 -155 -14 -241.5t-63 -149.5q40 -41 102 -70l-129 -223
q-144 51 -270 149q-86 -8 -135 -8q-411 0 -461.5 170.5t-50.5 372.5v498z" />
    <glyph glyph-name="R" unicode="R" horiz-adv-x="1327" 
d="M532 874h138q96 0 141 43t45 137t-44.5 138.5t-137.5 44.5h-142v-363zM1202 1083q0 -289 -231 -352q110 -25 152 -78t42 -161v-82q0 -78 12.5 -111.5t53.5 -42.5v-256h-377q-21 45 -26 93.5t-5 129.5v195q0 73 -14.5 113.5t-53 57.5t-114.5 17h-109v-192q0 -60 6 -102.5
t70 -55.5v-256h-506v256q64 13 71 55.5t7 102.5v704q0 82 -13 114.5t-65 43.5v246h598q258 0 380 -103t122 -336z" />
    <glyph glyph-name="S" unicode="S" horiz-adv-x="1233" 
d="M451 496q0 -215 167 -215q81 0 125.5 43.5t44.5 115.5t-51 119.5t-141 80.5t-238 87.5t-202 166t-54 231.5t62.5 220.5t180 153.5t271.5 53q281 0 498 -166v-358h-336v27q0 200 -164 200q-76 0 -120.5 -38.5t-44.5 -94.5t30 -89t89.5 -60t187.5 -71t214 -99t128.5 -140
t42.5 -222t-61.5 -245t-177.5 -167.5t-273 -59.5q-301 0 -520 176v381h342v-30z" />
    <glyph glyph-name="T" unicode="T" horiz-adv-x="1313" 
d="M340 1059v-154h-283v617h1196v-617h-280v154q0 91 -32.5 132t-109.5 42v-819q0 -60 6 -102.5t70 -55.5v-256h-506v256q64 13 71 55.5t7 102.5v819q-75 -2 -107 -42.5t-32 -131.5z" />
    <glyph glyph-name="U" unicode="U" horiz-adv-x="1327" 
d="M94 1522h510v-246q-50 -16 -64 -56t-14 -128v-590q0 -154 51 -190t109 -36q166 0 166 220v639q0 67 -17.5 98t-62.5 43v246h461v-246q-51 -11 -66.5 -46.5t-15.5 -115.5v-631q0 -172 -27.5 -243.5t-77.5 -131.5t-148.5 -99.5t-228.5 -39.5q-265 0 -378 128.5t-113 410.5
v614q0 74 -14.5 104t-69.5 50v246z" />
    <glyph glyph-name="V" unicode="V" horiz-adv-x="1219" 
d="M559 1276q-78 -17 -78 -77q0 -30 6 -54l166 -856l152 846q4 23 4 59t-18 55.5t-62 26.5v246h467v-246q-65 -28 -86 -133l-223 -1143h-525l-235 1141q-12 60 -30 90t-64 45v246h526v-246z" />
    <glyph glyph-name="W" unicode="W" horiz-adv-x="1741" 
d="M18 1522h504v-248q-65 -5 -65 -76q0 -31 4 -63l117 -707l184 1094h268l201 -1088l90 686l8 74q0 34 -14.5 52t-50.5 28v248h440v-248q-45 -18 -61.5 -52t-26.5 -102l-178 -1120h-412l-156 834l-133 -834h-418l-210 1137q-21 115 -91 137v248z" />
    <glyph glyph-name="X" unicode="X" horiz-adv-x="1178" 
d="M55 0v256q43 22 74 80l256 467l-223 389q-32 58 -78 82v248h428v-152q0 -74 33 -139l84 -164l86 162q30 59 30 141v152h367v-248q-46 -19 -78 -78l-223 -432l231 -408q27 -44 44.5 -64.5t48.5 -35.5v-256h-455v193q0 87 -39 161l-82 162l-88 -164q-41 -76 -41 -180v-172
h-375z" />
    <glyph glyph-name="Y" unicode="Y" horiz-adv-x="1128" 
d="M319 0v256q44 9 62 42t18 101v185l-295 602q-37 79 -81 90v246h446v-187q0 -100 29 -161l102 -211l100 202q33 66 33 170v187h391v-246q-42 -13 -82 -88l-292 -586v-199q0 -77 13.5 -108.5t63.5 -38.5v-256h-508z" />
    <glyph glyph-name="Z" unicode="Z" horiz-adv-x="1233" 
d="M92 0v223l606 1010h-98q-84 0 -127 -10.5t-63.5 -45t-20.5 -108.5v-57h-278v510h1013v-228l-587 -993h108q133 0 157.5 46t24.5 104v51h306v-502h-1041z" />
    <glyph glyph-name="bracketleft" unicode="[" horiz-adv-x="793" 
d="M702 1522v-109h-227v-1511h227v-109h-518v1729h518z" />
    <glyph glyph-name="backslash" unicode="\" horiz-adv-x="664" 
d="M489 -190l-536 1712h270l537 -1712h-271z" />
    <glyph glyph-name="bracketright" unicode="]" horiz-adv-x="793" 
d="M90 1522h518v-1729h-518v109h227v1511h-227v109z" />
    <glyph glyph-name="asciicircum" unicode="^" horiz-adv-x="2048" 
d="M897 1460h252l481 -561h-235l-371 371l-373 -371h-235z" />
    <glyph glyph-name="underscore" unicode="_" horiz-adv-x="1024" 
d="M0 -279h1024v-204h-1024v204z" />
    <glyph glyph-name="grave" unicode="`" horiz-adv-x="1024" 
d="M219 1620h258l197 -371h-142z" />
    <glyph glyph-name="a" unicode="a" horiz-adv-x="1133" 
d="M406 315q0 -40 24 -65t66 -25q86 0 180 109v192q-147 -58 -208.5 -102t-61.5 -109zM72 276q0 130 62.5 205t184.5 129.5t357 128.5v64q0 65 -27 95t-86 30q-114 0 -114 -129v-35h-314v258q221 117 445 117q289 0 349 -121.5t60 -255.5v-373q0 -84 13 -118t61 -44v-227
h-375v117q-147 -135 -328 -135q-133 0 -210.5 82t-77.5 212z" />
    <glyph glyph-name="b" unicode="b" horiz-adv-x="1184" 
d="M607 223q84 0 118.5 49.5t34.5 155.5v264q0 104 -36 152.5t-114 48.5t-151 -51v-570q64 -49 148 -49zM1083 406q0 -424 -477 -424q-232 0 -469 143v1034q0 62 -12 91t-57 48v224h391v-465q135 78 270 78q187 0 270.5 -94.5t83.5 -295.5v-339z" />
    <glyph glyph-name="c" unicode="c" horiz-adv-x="1075" 
d="M100 379v360q0 305 160.5 352.5t274.5 47.5q229 0 442 -121v-316h-291v35q0 89 -32 131.5t-104 42.5t-103 -45t-31 -143v-326q0 -97 30.5 -141.5t105.5 -44.5t104.5 44.5t29.5 141.5v66h291v-361q-186 -120 -426 -120q-313 0 -382 128t-69 269z" />
    <glyph glyph-name="d" unicode="d" horiz-adv-x="1186" 
d="M422 430q0 -144 45 -175.5t109 -31.5t133 53v568q-85 43 -157 43t-101 -54.5t-29 -175.5v-227zM100 387v361q0 151 36 226q76 154 294 154q131 0 279 -75v90q0 76 -13 108t-57 43v228h383v-1155q0 -72 10.5 -99.5t57.5 -44.5v-223h-381v70q-139 -82 -269 -82t-203 44
t-105 131t-32 224z" />
    <glyph glyph-name="e" unicode="e" horiz-adv-x="1081" 
d="M416 723v-31h270v45q0 89 -32 131.5t-104 42.5t-103 -45t-31 -143zM416 397q0 -97 30.5 -141.5t104.5 -44.5q135 0 135 160v6h309v-266q-198 -129 -444 -129q-313 0 -382 128t-69 269v360q0 140 68 270t383 130q235 0 339.5 -96t104.5 -304v-245h-579v-97z" />
    <glyph glyph-name="f" unicode="f" horiz-adv-x="705" 
d="M115 0v227q43 14 55 42.5t12 92.5v510h-67v246h67v96q0 158 82.5 239t239.5 81q66 0 143 -18v-224h-33q-118 0 -118 -129v-45h129v-246h-129v-507q0 -66 13 -96t56 -42v-227h-450z" />
    <glyph glyph-name="g" unicode="g" horiz-adv-x="1176" 
d="M577 895q-65 0 -110 -31.5t-45 -175.5v-213q0 -120 30 -174.5t100 -54.5t157 45v551q-67 53 -132 53zM426 4q-190 0 -274 129q-34 51 -43 116t-9 165v317q0 274 104.5 338t230.5 64t274 -84v69h381v-223q-47 -15 -57.5 -43t-10.5 -100v-691q0 -119 -12 -191.5t-56 -133.5
q-111 -154 -355 -154t-452 113v264h302v-6q0 -66 35 -102.5t100 -36.5t95 41t30 127v98q-150 -76 -283 -76z" />
    <glyph glyph-name="h" unicode="h" horiz-adv-x="1204" 
d="M748 338v350q0 108 -32 157.5t-104 49.5t-139 -53v-463q0 -76 12.5 -107.5t57.5 -44.5v-227h-451v227q43 7 56.5 44t13.5 126v758q0 70 -11.5 98t-58.5 45v224h381v-473q129 75 255 75t199 -42.5t103.5 -127.5t30.5 -225v-346q0 -86 14 -119.5t60 -36.5v-227h-355
q-32 88 -32 338z" />
    <glyph glyph-name="i" unicode="i" horiz-adv-x="633" 
d="M180 1352v2q0 51 34.5 88t86.5 37t88.5 -36.5t36.5 -88.5t-36.5 -88.5t-77.5 -36.5t-86.5 27.5t-45.5 95.5zM479 379q0 -78 11.5 -108.5t56.5 -43.5v-227h-451v227q43 7 56.5 44t13.5 126v355q0 70 -11.5 98t-58.5 45v223h383v-739z" />
    <glyph glyph-name="j" unicode="j" horiz-adv-x="629" 
d="M129 1364q0 60 51.5 113t111.5 53t101.5 -24t65.5 -65t24 -89t-38.5 -112t-139.5 -64q-45 0 -86 24t-65.5 64t-24.5 100zM479 96q0 -148 -9 -235.5t-53.5 -182t-242.5 -94.5q-55 0 -123 13v229h4q52 0 75 22t29.5 67.5t6.5 129.5v707q0 70 -11.5 98t-58.5 45v223h383
v-1022z" />
    <glyph glyph-name="k" unicode="k" horiz-adv-x="1116" 
d="M162 1155q0 70 -11.5 98t-58.5 45v224h381v-822l135 187q45 61 45 143v88h404v-225q-68 -13 -125 -78l-150 -168l189 -332q37 -71 112 -88v-227h-272q-55 51 -106 143l-232 422v-186q0 -97 19.5 -119t50.5 -31v-229h-451v229q44 7 57 42.5t13 125.5v758z" />
    <glyph glyph-name="l" unicode="l" horiz-adv-x="633" 
d="M166 1149q0 70 -11.5 98t-58.5 45v224h383v-1137q0 -78 11.5 -108.5t56.5 -43.5v-227h-451v227q43 7 56.5 44t13.5 126v752z" />
    <glyph glyph-name="m" unicode="m" horiz-adv-x="1778" 
d="M1320 1124q172 0 243 -94.5t71 -298.5v-350q0 -82 14.5 -116.5t59.5 -37.5v-227h-352q-21 55 -26 128t-5 210v350q0 142 -43 174.5t-100 32.5t-131 -53v-461q0 -82 13.5 -116.5t59.5 -37.5v-227h-350q-22 58 -27.5 136.5t-5.5 201.5v350q0 142 -42.5 174.5t-101.5 32.5
t-126 -53v-463q0 -78 11.5 -108.5t56.5 -43.5v-227h-445v227q44 8 56 43t12 127v367q0 63 -11 88.5t-57 42.5v223h377v-69q129 75 248 75q184 0 278 -112q151 112 323 112z" />
    <glyph glyph-name="n" unicode="n" horiz-adv-x="1204" 
d="M748 338v350q0 108 -32 157.5t-104 49.5t-139 -53v-463q0 -76 12.5 -107.5t57.5 -44.5v-227h-451v227q43 7 56.5 44t13.5 126v355q0 70 -11.5 98t-58.5 45v223h381v-69q129 75 252 75q188 0 262 -93t74 -300v-348q0 -86 14 -119.5t60 -36.5v-227h-355q-32 88 -32 338z
" />
    <glyph glyph-name="o" unicode="o" horiz-adv-x="1100" 
d="M678 723q0 99 -29 143.5t-98 44.5t-99 -45.5t-30 -142.5v-326q0 -98 29 -142t99 -44t99 44t29 142v326zM999 739v-360q0 -141 -68 -269t-381 -128t-381.5 128t-68.5 269v360q0 140 68 270t383 130q238 0 343 -95t105 -305z" />
    <glyph glyph-name="p" unicode="p" horiz-adv-x="1186" 
d="M762 688q0 144 -45 175.5t-111 31.5t-133 -53v-566q89 -45 147 -45t100 35t42 195v227zM1083 731v-305q0 -150 -42 -293t-289 -143q-133 0 -279 76v-84q0 -75 13 -108t57 -44v-227h-451v227q43 6 56.5 42.5t13.5 125.5v754q0 70 -11.5 98t-58.5 45v223h381v-69
q147 84 273 84t231.5 -64.5t105.5 -337.5z" />
    <glyph glyph-name="q" unicode="q" horiz-adv-x="1180" 
d="M422 688v-227q0 -160 42 -195t98 -35t147 45v566q-67 53 -132 53t-110 -31.5t-45 -175.5zM100 731q0 274 104.5 338t230.5 64t274 -84v69h313v-1120q0 -89 12.5 -125.5t55.5 -42.5v-227h-451v227q44 11 57 44t13 108v84q-147 -76 -278 -76t-204 48.5t-100 143.5t-27 244
v305z" />
    <glyph glyph-name="r" unicode="r" horiz-adv-x="723" 
d="M473 379q0 -76 12.5 -107.5t57.5 -44.5v-227h-451v227q43 7 56.5 44t13.5 126v355q0 70 -11.5 98t-58.5 45v223h367v-92q67 96 180 96q15 0 47 -4v-327q-40 4 -51 4q-86 0 -124 -53.5t-38 -166.5v-196z" />
    <glyph glyph-name="s" unicode="s" horiz-adv-x="1028" 
d="M393 371q0 -156 109 -156q56 0 85 28.5t29 76.5t-33.5 78t-74.5 42t-136.5 39.5t-162.5 66.5q-67 40 -99 97.5t-32 154.5t81 219t351 122q218 0 424 -99v-282h-291v6q0 141 -119 141q-50 0 -78 -28t-28 -72t22.5 -68.5t54.5 -37.5t110.5 -35t144.5 -44t141.5 -77.5
t75.5 -221.5q-1 -339 -429 -339q-222 0 -456 88v301h311z" />
    <glyph glyph-name="t" unicode="t" horiz-adv-x="678" 
d="M453 1118h133v-246h-133v-438q0 -147 35.5 -175t82.5 -28h15v-227q-84 -24 -162 -24q-162 0 -223.5 103t-61.5 327v462h-57v246h57v207l314 96v-303z" />
    <glyph glyph-name="u" unicode="u" horiz-adv-x="1204" 
d="M455 782v-352q0 -105 31 -156t101 -51t142 56v460q0 79 -12 110t-58 42v227h381v-749q0 -90 18 -112t52 -34v-223h-381v72q-132 -78 -256 -78t-197.5 42.5t-104 127.5t-30.5 225v340q0 80 -10.5 117t-40.5 45v227h332q33 -90 33 -336z" />
    <glyph glyph-name="v" unicode="v" horiz-adv-x="1071" 
d="M31 1118h434v-223q-47 -17 -47 -64q0 -20 6 -43l131 -464l119 481q4 14 4 34t-8 32t-33 24v223h403v-223q-32 -13 -47 -35t-26 -61l-226 -799h-399l-246 805q-21 70 -65 90v223z" />
    <glyph glyph-name="w" unicode="w" horiz-adv-x="1511" 
d="M12 1118h437v-223q-26 -6 -36 -19t-10 -42t3 -39l90 -392l178 715h196l166 -715l90 388q7 23 7 55t-39 49v223h399v-223q-53 -15 -74 -90l-219 -805h-303l-141 604l-140 -604h-299l-231 791q-10 38 -25.5 61.5t-48.5 42.5v223z" />
    <glyph glyph-name="x" unicode="x" horiz-adv-x="1006" 
d="M35 0v227q21 6 32 15t33 34l240 281l-225 281q-45 52 -60 57v223h381v-104q0 -90 25 -125l80 -115l80 115q28 42 28 110v119h312v-223q-27 -10 -62 -47l-219 -252l231 -313q36 -48 72 -56v-227h-387v109q0 50 -7 84.5t-34 72.5l-74 107l-73 -105q-28 -38 -34.5 -68.5
t-6.5 -78.5v-121h-332z" />
    <glyph glyph-name="y" unicode="y" horiz-adv-x="1049" 
d="M223 -160h8q57 0 89 22.5t53 80.5l-275 843q-30 98 -75 109v223h438v-223q-41 -11 -41 -57q0 -18 6 -45l119 -496l106 496q6 21 6 52t-41 50v223h412v-223q-30 -11 -44 -32.5t-28 -67.5l-206 -750q-67 -248 -152 -354.5t-248 -106.5q-74 0 -127 13v243z" />
    <glyph glyph-name="z" unicode="z" horiz-adv-x="1042" 
d="M61 0v221l529 678h-76q-111 0 -148 -25.5t-38 -119.5h-267v364h916v-198l-541 -699h94q71 0 110.5 14.5t56 50.5t16.5 101h264v-387h-916z" />
    <glyph glyph-name="braceleft" unicode="{" horiz-adv-x="1024" 
d="M811 1270q-48 0 -84.5 -19t-49.5 -61t-13 -121v-240q0 -96 -16.5 -152.5t-61 -91.5t-129.5 -55q84 -19 129 -53.5t61.5 -91t16.5 -152.5v-241q0 -78 13 -120t49 -60.5t84 -17.5t73 1v-209q-38 0 -76 -2q-188 0 -281 49q-84 50 -94 129t-10 162v252q0 135 -51 193.5
t-172 58.5q-19 0 -41 -2v209q21 0 72 -1t121.5 36.5t70.5 216.5v250q0 163 28.5 214t75.5 79q93 49 281 49q38 0 76 -2v-209q-24 2 -72 2z" />
    <glyph glyph-name="bar" unicode="|" horiz-adv-x="1024" 
d="M410 1565h206v-2048h-206v2048z" />
    <glyph glyph-name="braceright" unicode="}" horiz-adv-x="1024" 
d="M216 1270q-48 0 -73 -2v209h68q202 0 278 -43t95.5 -107t19.5 -190v-252q0 -179 71 -215.5t122 -35.5t71 1v-209h-37q-85 0 -156 -35.5t-71 -214.5v-252q0 -125 -19 -189.5t-85 -101.5q-93 -49 -281 -49q-36 2 -76 2v209q25 0 73 -1t84.5 17.5t49 60.5t12.5 120v239
q0 94 16.5 152t61 93t129.5 54q-85 20 -129.5 55t-61 91.5t-16.5 152.5v242q0 78 -12.5 120t-49 60.5t-84.5 18.5z" />
    <glyph glyph-name="asciitilde" unicode="~" horiz-adv-x="1706" 
d="M563 575q-163 0 -385 -157v221q215 143 387 143q123 0 280 -55q158 -55 212 -66.5t98 -11.5q170 0 375 154v-221q-203 -138 -379 -138q-89 0 -184 31q-185 63 -250 81.5t-154 18.5z" />
    <glyph glyph-name="Zcaron" horiz-adv-x="1233" 
d="M522 1616l-166 262h117l150 -154l147 154h119l-166 -262h-201zM92 0v223l606 1010h-98q-84 0 -127 -10.5t-63.5 -45t-20.5 -108.5v-57h-278v510h1013v-228l-587 -993h108q133 0 157.5 46t24.5 104v51h306v-502h-1041z" />
    <glyph glyph-name="ogonek" horiz-adv-x="1024" 
d="M500 -205q0 -80 82 -80h102v-174h-106q-238 0 -238 185q0 74 45.5 138t144.5 136h97q-127 -100 -127 -205z" />
    <glyph glyph-name="caron" horiz-adv-x="1024" 
d="M463 1425l-166 263h117l149 -154l148 154h118l-165 -263h-201z" />
    <glyph glyph-name="Lslash" horiz-adv-x="1229" 
d="M1178 0h-1026v256q50 11 62.5 42t12.5 116v194l-180 -82v234l180 82v276q0 85 -12.5 116t-62.5 42v246h505v-246q-51 -11 -64 -43t-13 -115v-155l292 129v-232l-292 -131v-440h114q144 0 161 71.5t17 161.5v168h306v-690z" />
    <glyph glyph-name="ordmasculine" horiz-adv-x="825" 
d="M508 1245q0 69 -21 100t-73 31t-74.5 -31t-22.5 -100v-227q0 -70 22 -100.5t74 -30.5t73.5 30.5t21.5 100.5v227zM750 1257v-253q0 -146 -78.5 -211.5t-257.5 -65.5q-263 0 -300.5 102.5t-37.5 174.5v253q0 192 108 235.5t214 43.5q195 0 273.5 -67t78.5 -212z" />
    <glyph glyph-name="fraction" horiz-adv-x="426" 
d="M-96 0h-258l878 1522h256z" />
    <glyph glyph-name="breve" horiz-adv-x="1024" 
d="M513 1438q89 0 133 34.5t50 112.5h123q-12 -157 -85.5 -230t-221.5 -73q-197 0 -249.5 100.5t-59.5 202.5h123q7 -77 52.5 -112t134.5 -35z" />
    <glyph glyph-name="dotlessi" horiz-adv-x="633" 
d="M479 379q0 -78 11.5 -108.5t56.5 -43.5v-227h-451v227q43 7 56.5 44t13.5 126v355q0 70 -11.5 98t-58.5 45v223h383v-739z" />
    <glyph glyph-name="dotlessi" unicode="&#x131;" horiz-adv-x="633" 
d="M479 379q0 -78 11.5 -108.5t56.5 -43.5v-227h-451v227q43 7 56.5 44t13.5 126v355q0 70 -11.5 98t-58.5 45v223h383v-739z" />
    <glyph glyph-name="zcaron" horiz-adv-x="1042" 
d="M440 1214l-166 263h117l150 -154l147 154h119l-166 -263h-201zM61 0v221l529 678h-76q-111 0 -148 -25.5t-38 -119.5h-267v364h916v-198l-541 -699h94q71 0 110.5 14.5t56 50.5t16.5 101h264v-387h-916z" />
    <glyph glyph-name="Ydieresis" horiz-adv-x="1128" 
d="M437 1860q50 0 86 -37t36 -87t-35.5 -85t-83.5 -35t-84.5 35.5t-36.5 83.5l-4 4q0 49 36 85t86 36zM767 1853q51 0 86.5 -34.5t35.5 -86.5t-36 -87t-85 -35t-85 36t-36 85l-2 4q0 47 35.5 82.5t86.5 35.5zM319 0v256q44 9 62 42t18 101v185l-295 602q-37 79 -81 90v246
h446v-187q0 -100 29 -161l102 -211l100 202q33 66 33 170v187h391v-246q-42 -13 -82 -88l-292 -586v-199q0 -77 13.5 -108.5t63.5 -38.5v-256h-508z" />
    <glyph glyph-name="Ydieresis" unicode="&#x178;" horiz-adv-x="1128" 
d="M437 1860q50 0 86 -37t36 -87t-35.5 -85t-83.5 -35t-84.5 35.5t-36.5 83.5l-4 4q0 49 36 85t86 36zM767 1853q51 0 86.5 -34.5t35.5 -86.5t-36 -87t-85 -35t-85 36t-36 85l-2 4q0 47 35.5 82.5t86.5 35.5zM319 0v256q44 9 62 42t18 101v185l-295 602q-37 79 -81 90v246
h446v-187q0 -100 29 -161l102 -211l100 202q33 66 33 170v187h391v-246q-42 -13 -82 -88l-292 -586v-199q0 -77 13.5 -108.5t63.5 -38.5v-256h-508z" />
    <glyph glyph-name="fl" unicode="&#xa0;" horiz-adv-x="1305" 
d="M1149 379q0 -76 12.5 -107.5t57.5 -44.5v-227h-451v227q42 7 56 45t14 125v758q0 70 -11.5 98t-58.5 45v224h381v-1143zM115 0v227q43 14 55 42.5t12 92.5v510h-67v246h67v96q0 158 82.5 239t239.5 81q66 0 143 -18v-224h-33q-118 0 -118 -129v-45h129v-246h-129v-507
q0 -66 13 -96t56 -42v-227h-450z" />
    <glyph glyph-name="exclamdown" unicode="&#xa1;" horiz-adv-x="621" 
d="M481 1391q0 -56 -36.5 -120.5t-135.5 -64.5q-71 0 -121.5 51.5t-50.5 110.5t36.5 121.5t135.5 62.5q69 0 120.5 -52.5t51.5 -108.5zM502 170q0 -89 -51.5 -138.5t-140.5 -49.5t-140 51t-51 137q0 37 8 94l96 789h172l99 -789q8 -63 8 -94z" />
    <glyph glyph-name="cent" unicode="&#xa2;" horiz-adv-x="1241" 
d="M786 877v36q0 89 -32 130.5t-104 41.5t-103 -45t-31 -143v-324q0 -130 43.5 -159t105.5 -29t91.5 43.5t29.5 142.5v66h291v-361q-127 -84 -286 -108v-207h-291v207q-211 41 -255 155.5t-44 231.5v358q0 173 69 264t230 121v172h291v-172q144 -26 286 -106v-315h-291z" />
    <glyph glyph-name="sterling" unicode="&#xa3;" horiz-adv-x="1241" 
d="M84 0v256q64 13 71 55.5t7 102.5v237h-80v260h80v154q0 321 176.5 404t343.5 83q249 0 465 -145v-367h-309v25q0 178 -170 178q-90 0 -130 -45t-40 -141v-146h428v-260h-428v-362h149q129 0 151.5 44t22.5 103h326v-436h-1063z" />
    <glyph glyph-name="currency" unicode="&#xa4;" horiz-adv-x="1241" 
d="M614 1161q-64 0 -128.5 -38t-102 -101t-37.5 -137t37 -137.5t102 -100.5t129 -37q121 0 203 80t82 194t-81.5 195.5t-203.5 81.5zM622 1313q138 0 246 -78l203 203l105 -107l-203 -205q76 -107 76 -240t-76 -243l203 -205l-105 -104l-203 203q-105 -78 -246 -78t-245 78
l-205 -203l-104 104l202 205q-75 105 -75 241t75 242l-202 205l104 107l205 -203q107 78 245 78z" />
    <glyph glyph-name="yen" unicode="&#xa5;" horiz-adv-x="1241" 
d="M365 0v256q44 9 60.5 41t16.5 102v146h-405v131h358l-82 172h-276v131h207l-94 207q-38 78 -82 90v246h444v-207q0 -70 29 -141l104 -256l100 247q31 73 31 148v209h391v-246q-40 -12 -80 -88l-106 -209h197v-131h-263l-84 -172h347v-131h-385v-142q0 -77 13.5 -108.5
t63.5 -38.5v-256h-505z" />
    <glyph glyph-name="brokenbar" unicode="&#xa6;" horiz-adv-x="1024" 
d="M410 408h206v-758h-206v758zM410 1432h206v-758h-206v758z" />
    <glyph glyph-name="section" unicode="&#xa7;" horiz-adv-x="1024" 
d="M43 674q0 191 160 272q-119 82 -119 250t111.5 262t316.5 94q101 0 207 -32t190 -90v-232h-272v19q0 69 -31.5 107t-82.5 38t-99.5 -26.5t-48.5 -115.5t66.5 -123.5t149.5 -64t132 -49.5q136 -55 200 -133.5t64 -198.5q0 -191 -162 -270q121 -81 121 -266q0 -99 -51 -178
t-147 -122.5t-224 -43.5q-245 0 -424 125v231h273v-25q0 -141 135 -141q66 0 106.5 37.5t40.5 95.5t-22.5 91.5t-61.5 54t-121.5 50t-142.5 52.5q-135 54 -199.5 134t-64.5 198zM664 479q79 59 79 136q0 76 -70 108.5t-171.5 70t-155.5 60.5q-78 -47 -78 -131t67.5 -116
t164 -66t164.5 -62z" />
    <glyph glyph-name="dieresis" unicode="&#xa8;" horiz-adv-x="1024" 
d="M195 1434q0 54 39.5 94.5t95.5 40.5t96.5 -40t40.5 -97t-40.5 -96.5t-95.5 -39.5t-95.5 42t-40.5 96zM557 1434q0 54 38.5 94.5t95.5 40.5t97.5 -39.5t40.5 -96.5t-40.5 -97t-96.5 -40t-95.5 42t-39.5 96z" />
    <glyph glyph-name="copyright" unicode="&#xa9;" horiz-adv-x="1706" 
d="M860 1044q-66 0 -134.5 -55.5t-68.5 -253.5q0 -146 52.5 -223.5t137.5 -77.5q164 0 183 162h193q-6 -91 -53.5 -161.5t-130 -108t-178.5 -37.5q-191 0 -299.5 118t-108.5 322q0 135 50 238.5t141 158t228 54.5t234.5 -78t105.5 -205h-188q-8 71 -53 109t-111 38z
M1294 1174q-182 182 -442 182t-439.5 -183.5t-179.5 -438.5q1 -254 183 -436t437 -183q255 0 438 180q184 180 184 441t-181 438zM1597 734q0 -311 -215 -521q-110 -107 -247 -165t-257 -58q-326 0 -547 220q-220 220 -220 526t217 525q217 218 526 218t526 -217t217 -528z
" />
    <glyph glyph-name="ordfeminine" unicode="&#xaa;" horiz-adv-x="850" 
d="M305 970q0 -36 19 -54.5t49 -18.5q62 0 135 76v135q-112 -41 -157.5 -71.5t-45.5 -66.5zM270 727q-98 0 -157.5 58.5t-59.5 148.5t48 143t140.5 91t266.5 89v43q0 89 -86 89t-86 -91v-24h-234v180q168 82 332 82t235.5 -62t71.5 -202v-260q0 -77 15.5 -92.5t40.5 -20.5
v-160h-281v82q-110 -94 -246 -94z" />
    <glyph glyph-name="guillemotleft" unicode="&#xab;" horiz-adv-x="967" 
d="M653 203l-151 375l151 374h217l-145 -374l145 -375h-217zM264 203l-149 375l149 374h217l-143 -374l143 -375h-217z" />
    <glyph glyph-name="logicalnot" unicode="&#xac;" horiz-adv-x="1706" 
d="M254 864h1198v-502h-199v306h-999v196z" />
    <glyph glyph-name="minus" unicode="&#xad;" horiz-adv-x="1706" 
d="M254 713h1198v-203h-1198v203z" />
    <glyph glyph-name="registered" unicode="&#xae;" horiz-adv-x="1706" 
d="M745 1034v-239h99q86 0 128 27.5t42 89.5q0 122 -180 122h-89zM545 1161h323q353 0 353 -237q0 -81 -48.5 -139.5t-132.5 -79.5l185 -369h-224l-157 338h-99v-338h-200v825zM858 1356q-258 0 -436 -176q-91 -91 -140 -206.5t-49 -237.5q0 -251 179 -435
q117 -121 236.5 -154.5t203.5 -33.5q249 0 436 179t187 440q0 260 -177 437q-182 187 -440 187zM1386 1255q211 -211 211 -523t-221 -527t-524 -215t-522 220t-219 523q1 205 105 381t269 270.5t369 94.5t334 -77t198 -147z" />
    <glyph glyph-name="macron" unicode="&#xaf;" horiz-adv-x="1024" 
d="M225 1509h574v-155h-574v155z" />
    <glyph glyph-name="ring" unicode="&#xb0;" horiz-adv-x="1024" 
d="M512 1618q-51 0 -86 -35t-35 -87t34.5 -87t86.5 -35t87.5 36t35.5 86t-36 86t-87 36zM512 1761q72 0 133.5 -35t97 -95.5t35.5 -132.5t-35.5 -134.5t-95.5 -98.5t-135 -36q-112 0 -188 78.5t-76 189.5q0 73 35 133.5t96 95.5t133 35z" />
    <glyph glyph-name="plusminus" unicode="&#xb1;" horiz-adv-x="1706" 
d="M254 197h1198v-199h-1198v199zM752 1223h202v-326h498v-199h-498v-325h-202v325h-498v199h498v326z" />
    <glyph glyph-name="twosuperior" unicode="&#xb2;" horiz-adv-x="819" 
d="M403 1540q185 0 266 -58t81 -184q0 -88 -36 -138t-124 -113l-221 -160q-33 -23 -48.5 -43t-15.5 -51v-9h98q65 0 85 18t20 68v29h246v-291h-686v213q0 74 25 116t85 83l258 182q72 54 72 94q0 82 -92 82q-52 0 -81.5 -26.5t-29.5 -73.5v-68h-219v246q132 84 317 84z" />
    <glyph glyph-name="threesuperior" unicode="&#xb3;" horiz-adv-x="819" 
d="M397 590q-170 0 -336 84v217h230v-8q1 -109 107 -109t106 109q0 63 -32 86.5t-107 23.5h-125v156h133q64 0 99.5 27.5t35.5 77.5t-31 76t-86 26q-92 0 -98 -105h-219v207q145 82 319 82q342 0 342 -252q0 -164 -172 -207q180 -24 180 -219q0 -272 -346 -272z" />
    <glyph glyph-name="acute" unicode="&#xb4;" horiz-adv-x="1024" 
d="M547 1620h258l-313 -371h-142z" />
    <glyph glyph-name="mu" unicode="&#xb5;" horiz-adv-x="1249" 
d="M387 389q0 -184 170 -184q104 0 159.5 88t88.5 285l90 514h289l-193 -1092h-268l18 117q-79 -150 -212 -150t-216 121l-90 -526h-286l268 1530h289l-76 -435q-31 -167 -31 -268z" />
    <glyph glyph-name="paragraph" unicode="&#xb6;" horiz-adv-x="1024" 
d="M983 1479v-111h-113v-1368h-151v1368h-160v-1368h-151v784q-170 7 -268.5 102.5t-98.5 243.5q0 102 47.5 181.5t136.5 123.5t207 44h551z" />
    <glyph glyph-name="periodcentered" unicode="&#xb7;" horiz-adv-x="621" 
d="M147 754q0 52 22.5 90t60.5 61t94 23t102.5 -48t46.5 -116t-47.5 -115t-113.5 -47t-115.5 50t-49.5 102z" />
    <glyph glyph-name="periodcentered" unicode="&#x2219;" horiz-adv-x="621" 
d="M147 754q0 52 22.5 90t60.5 61t94 23t102.5 -48t46.5 -116t-47.5 -115t-113.5 -47t-115.5 50t-49.5 102z" />
    <glyph glyph-name="cedilla" unicode="&#xb8;" horiz-adv-x="1024" 
d="M544 -352q95 0 95 72q1 72 -105 71q-50 0 -73 -2l2 211h100v-90h15q235 0 235 -191q0 -200 -264 -200q-102 0 -266 43v129q166 -43 261 -43z" />
    <glyph glyph-name="onesuperior" unicode="&#xb9;" horiz-adv-x="819" 
d="M244 1522h282v-666q0 -47 8.5 -67t43.5 -27v-154h-334v154q34 7 42.5 25.5t8.5 68.5v424q0 50 -8.5 68.5t-42.5 25.5v148z" />
    <glyph glyph-name="degree" unicode="&#xba;" horiz-adv-x="674" 
d="M338 1335q-74 0 -125 -50.5t-51 -122.5t52 -124.5t112 -52.5t123 39t63 125t-50 136t-124 50zM338 1464q82 0 152 -40.5t110.5 -111t40.5 -152.5t-41 -152.5t-111.5 -111t-152.5 -40.5t-151.5 40t-109.5 111t-40 153t40 152t110.5 111t152.5 41z" />
    <glyph glyph-name="guillemotright" unicode="&#xbb;" horiz-adv-x="967" 
d="M313 203h-215l144 375l-144 374h215l152 -374zM702 203h-217l146 375l-146 374h217l152 -374z" />
    <glyph glyph-name="onequarter" unicode="&#xbc;" horiz-adv-x="1991" 
d="M1847 852v-463h64v-162h-64v-12q0 -36 9 -51t40 -21v-143h-307v143q28 6 37.5 21t9.5 51v12h-395v183l332 442h274zM1636 389v268l-196 -268h196zM686 0h-258l879 1522h256zM231 1522h271v-621q0 -59 12 -71t35 -17v-143h-318v143q42 8 46 31.5t4 56.5v395
q0 48 -7.5 64.5t-42.5 23.5v138z" />
    <glyph glyph-name="onehalf" unicode="&#xbd;" horiz-adv-x="1991" 
d="M1589 868q179 0 256.5 -54t77.5 -171q0 -82 -34 -129t-117 -106l-211 -148q-33 -23 -47.5 -41.5t-14.5 -46.5v-6h94q62 0 81.5 16t19.5 64v26h235v-272h-657v199q0 84 32.5 119.5t73.5 66.5l246 170q68 47 68 86q0 78 -88 78q-47 0 -76 -25t-29 -69v-64h-209v230
q120 77 299 77zM686 0h-258l879 1522h256zM231 1522h271v-621q0 -59 12 -71t35 -17v-143h-318v143q42 8 46 31.5t4 56.5v395q0 48 -7.5 64.5t-42.5 23.5v138z" />
    <glyph glyph-name="threequarters" unicode="&#xbe;" horiz-adv-x="1991" 
d="M1847 852v-463h64v-162h-64v-12q0 -36 9 -51t40 -21v-143h-307v143q28 6 37.5 21t9.5 51v12h-395v183l332 442h274zM1636 389v268l-196 -268h196zM686 0h-258l879 1522h256zM356 1174q127 0 127 97t-108 97q-90 0 -96 -98h-209v194q135 74 304 74q328 0 328 -233
q0 -153 -165 -193q172 -24 172 -207q0 -252 -330 -252q-168 0 -320 78v203h217v-8q0 -101 102 -101t103 101q0 60 -30.5 82t-102.5 22h-119v144h127z" />
    <glyph glyph-name="questiondown" unicode="&#xbf;" horiz-adv-x="1139" 
d="M897 1367q0 -56 -51.5 -107.5t-123.5 -51.5t-121.5 50t-49.5 110t36 123t136 63q45 0 85 -24.5t64.5 -65.5t24.5 -97zM82 401q0 209 85 283t173 129q137 86 175 121t38 104v17h338v-105q0 -125 -52.5 -189t-191.5 -152t-177 -128.5t-38 -98.5t42 -94t112 -36
q162 0 162 178v43h329v-350q-192 -141 -481 -141q-514 0 -514 419z" />
    <glyph glyph-name="Agrave" unicode="&#xc0;" horiz-adv-x="1223" 
d="M412 1898h206l156 -264h-112zM432 332q0 -74 82 -76v-256h-467v256q41 12 59 47.5t33 112.5l215 1106h523l237 -1131q13 -64 31.5 -94t56.5 -41v-256h-518v256q38 3 57 22.5t19 43.5t-4 51l-13 63h-294l-13 -57q-4 -28 -4 -47zM487 653h207l-104 582z" />
    <glyph glyph-name="Aacute" unicode="&#xc1;" horiz-adv-x="1223" 
d="M651 1878h207l-250 -264h-112zM432 332q0 -74 82 -76v-256h-467v256q41 12 59 47.5t33 112.5l215 1106h523l237 -1131q13 -64 31.5 -94t56.5 -41v-256h-518v256q38 3 57 22.5t19 43.5t-4 51l-13 63h-294l-13 -57q-4 -28 -4 -47zM487 653h207l-104 582z" />
    <glyph glyph-name="Acircumflex" unicode="&#xc2;" horiz-adv-x="1223" 
d="M518 1864h201l166 -262h-119l-148 153l-149 -153h-117zM432 332q0 -74 82 -76v-256h-467v256q41 12 59 47.5t33 112.5l215 1106h523l237 -1131q13 -64 31.5 -94t56.5 -41v-256h-518v256q38 3 57 22.5t19 43.5t-4 51l-13 63h-294l-13 -57q-4 -28 -4 -47zM487 653h207
l-104 582z" />
    <glyph glyph-name="Atilde" unicode="&#xc3;" horiz-adv-x="1223" 
d="M870 1835q-42 -195 -148 -195q-50 0 -71 7l-69 20q-19 6 -50 6q-51 0 -67 -59h-88q36 186 160 186q31 0 65 -10l74 -18q23 -5 43 -5q47 0 65 68h86zM432 332q0 -74 82 -76v-256h-467v256q41 12 59 47.5t33 112.5l215 1106h523l237 -1131q13 -64 31.5 -94t56.5 -41v-256
h-518v256q38 3 57 22.5t19 43.5t-4 51l-13 63h-294l-13 -57q-4 -28 -4 -47zM487 653h207l-104 582z" />
    <glyph glyph-name="Adieresis" unicode="&#xc4;" horiz-adv-x="1223" 
d="M461 1849q49 0 86 -36t37 -86t-36 -85.5t-84 -35.5t-84 36t-36 82l-4 5q0 50 36 85t85 35zM791 1843q51 0 86.5 -35.5t35.5 -85.5t-36.5 -86.5t-84.5 -36.5t-84 36t-36 85l-2 4q0 49 35 84t86 35zM432 332q0 -74 82 -76v-256h-467v256q41 12 59 47.5t33 112.5l215 1106
h523l237 -1131q13 -64 31.5 -94t56.5 -41v-256h-518v256q38 3 57 22.5t19 43.5t-4 51l-13 63h-294l-13 -57q-4 -28 -4 -47zM487 653h207l-104 582z" />
    <glyph glyph-name="Aring" unicode="&#xc5;" horiz-adv-x="1223" 
d="M514 1809q0 -41 28 -69t68 -28t68.5 27.5t28.5 66.5t-29 68t-68 29l-2 2q-41 0 -67.5 -27.5t-26.5 -68.5zM610 2017q58 0 134.5 -44t76.5 -165q0 -87 -61 -150t-149 -63t-149 62.5t-61 135.5t27.5 120.5t75.5 75.5t106 28zM432 332q0 -74 82 -76v-256h-467v256
q41 12 59 47.5t33 112.5l215 1106h523l237 -1131q13 -64 31.5 -94t56.5 -41v-256h-518v256q38 3 57 22.5t19 43.5t-4 51l-13 63h-294l-13 -57q-4 -28 -4 -47zM487 653h207l-104 582z" />
    <glyph glyph-name="AE" unicode="&#xc6;" horiz-adv-x="1858" 
d="M795 647v684l-246 -684h246zM721 0v256q43 9 58.5 38.5t15.5 90.5v37h-326l-25 -55q-14 -37 -14 -59t14 -36.5t35 -15.5v-256h-454v256q63 16 110 137l453 1129h1186v-465h-326v16q0 90 -39.5 124t-140.5 34h-127v-318h411v-256h-411v-366h131q108 0 142 33.5t34 130.5
v55h326v-510h-1053z" />
    <glyph glyph-name="Ccedilla" unicode="&#xc7;" horiz-adv-x="1237" 
d="M629 -305q76 0 76 56t-93 56h-43v163q-361 15 -410.5 178t-49.5 364v498q0 135 19 281.5t168.5 203.5t324.5 57q249 0 491 -112v-430h-332v30q0 205 -159 205q-89 0 -125.5 -53.5t-36.5 -169.5v-522q0 -117 37 -170.5t125 -53.5t123.5 54t35.5 170v108h332v-522
q-212 -111 -465 -117v-67h10q187 0 187 -150q0 -160 -209 -160q-82 0 -211 33v103q129 -33 205 -33z" />
    <glyph glyph-name="Egrave" unicode="&#xc8;" horiz-adv-x="1262" 
d="M403 1898h207l156 -264h-113zM102 0v256q64 13 71 55.5t7 102.5v704q0 82 -13 114.5t-65 43.5v246h1072v-465h-330v16q0 90 -40 124t-142 34h-130v-318h416v-256h-416v-366h154q92 0 125 36.5t33 127.5v55h330v-510h-1072z" />
    <glyph glyph-name="Eacute" unicode="&#xc9;" horiz-adv-x="1262" 
d="M705 1888h206l-249 -264h-113zM102 0v256q64 13 71 55.5t7 102.5v704q0 82 -13 114.5t-65 43.5v246h1072v-465h-330v16q0 90 -40 124t-142 34h-130v-318h416v-256h-416v-366h154q92 0 125 36.5t33 127.5v55h330v-510h-1072z" />
    <glyph glyph-name="Ecircumflex" unicode="&#xca;" horiz-adv-x="1262" 
d="M553 1864h201l166 -262h-119l-148 153l-149 -153h-117zM102 0v256q64 13 71 55.5t7 102.5v704q0 82 -13 114.5t-65 43.5v246h1072v-465h-330v16q0 90 -40 124t-142 34h-130v-318h416v-256h-416v-366h154q92 0 125 36.5t33 127.5v55h330v-510h-1072z" />
    <glyph glyph-name="Edieresis" unicode="&#xcb;" horiz-adv-x="1262" 
d="M476 1860q50 0 86 -37t36 -87t-35.5 -85t-83.5 -35t-84.5 35.5t-36.5 83.5l-4 4q0 49 36 85t86 36zM805 1853q50 0 86.5 -34.5t36.5 -86.5t-36 -87t-85 -35t-85 36t-36 85l-2 4q0 47 35.5 82.5t85.5 35.5zM102 0v256q64 13 71 55.5t7 102.5v704q0 82 -13 114.5t-65 43.5
v246h1072v-465h-330v16q0 90 -40 124t-142 34h-130v-318h416v-256h-416v-366h154q92 0 125 36.5t33 127.5v55h330v-510h-1072z" />
    <glyph glyph-name="Igrave" unicode="&#xcc;" horiz-adv-x="725" 
d="M137 1898h207l156 -264h-113zM539 414q0 -60 6.5 -103t68.5 -55v-256h-505v256q63 13 70 55.5t7 102.5v704q0 82 -13 114.5t-64 43.5v246h505v-246q-62 -12 -68.5 -56t-6.5 -102v-704z" />
    <glyph glyph-name="Iacute" unicode="&#xcd;" horiz-adv-x="725" 
d="M397 1898h207l-250 -264h-112zM539 414q0 -60 6.5 -103t68.5 -55v-256h-505v256q63 13 70 55.5t7 102.5v704q0 82 -13 114.5t-64 43.5v246h505v-246q-62 -12 -68.5 -56t-6.5 -102v-704z" />
    <glyph glyph-name="Icircumflex" unicode="&#xce;" horiz-adv-x="725" 
d="M262 1878h201l166 -262h-119l-148 153l-149 -153h-117zM539 414q0 -60 6.5 -103t68.5 -55v-256h-505v256q63 13 70 55.5t7 102.5v704q0 82 -13 114.5t-64 43.5v246h505v-246q-62 -12 -68.5 -56t-6.5 -102v-704z" />
    <glyph glyph-name="Idieresis" unicode="&#xcf;" horiz-adv-x="725" 
d="M205 1853q49 0 86 -36t37 -86t-36 -85.5t-84 -35.5t-84 36t-36 83l-4 4q0 50 36 85t85 35zM536 1847q50 0 85.5 -35.5t35.5 -85.5t-35.5 -86t-84.5 -36t-85 36t-36 84l-2 5q0 47 36 82.5t86 35.5zM539 414q0 -60 6.5 -103t68.5 -55v-256h-505v256q63 13 70 55.5t7 102.5
v704q0 82 -13 114.5t-64 43.5v246h505v-246q-62 -12 -68.5 -56t-6.5 -102v-704z" />
    <glyph glyph-name="Eth" unicode="&#xd0;" horiz-adv-x="1352" 
d="M580 305h104q130 0 168.5 43t38.5 170v459q0 142 -35 194t-154 52h-20l-102 -2v-332h155v-213h-155v-371zM657 0h-505v256q50 11 62.5 42t12.5 116v262h-180v213h180v229q0 85 -12.5 116t-62.5 42v246h505q224 0 350 -51t181 -173.5t55 -349.5v-364q0 -181 -28.5 -292.5
t-93.5 -174.5t-175.5 -90t-288.5 -27z" />
    <glyph glyph-name="Ntilde" unicode="&#xd1;" horiz-adv-x="1374" 
d="M818 1638q-50 0 -70 7l-70 20q-19 6 -49 6q-52 0 -68 -59h-88q20 96 58 141t102 45q32 0 65 -10l74 -19q28 -4 43 -4q46 0 66 68h86q-21 -98 -60 -146.5t-89 -48.5zM102 0v256q50 6 64 39.5t14 114.5v735q0 62 -15 91.5t-63 39.5v246h398l383 -856v456q0 76 -16.5 110.5
t-65.5 43.5v246h483v-246q-70 -21 -76 -65.5t-6 -104.5v-1106h-319l-383 864v-454q0 -80 15.5 -113.5t64.5 -40.5v-256h-478z" />
    <glyph glyph-name="Ograve" unicode="&#xd2;" horiz-adv-x="1239" 
d="M395 1929h207l156 -264h-113zM459 1022v-522q0 -117 37 -170.5t125 -53.5t123.5 54t35.5 170v522q0 115 -35 169t-124 54t-125.5 -53.5t-36.5 -169.5zM109 1010q0 202 37 326.5t177 170t297 45.5t261.5 -35t162.5 -107t72 -159t14 -241v-498q0 -154 -14 -241t-72 -159
q-114 -143 -423 -143q-409 0 -460.5 170t-51.5 373v498z" />
    <glyph glyph-name="Oacute" unicode="&#xd3;" horiz-adv-x="1239" 
d="M635 1929h207l-250 -264h-113zM459 1022v-522q0 -117 37 -170.5t125 -53.5t123.5 54t35.5 170v522q0 115 -35 169t-124 54t-125.5 -53.5t-36.5 -169.5zM109 1010q0 202 37 326.5t177 170t297 45.5t261.5 -35t162.5 -107t72 -159t14 -241v-498q0 -154 -14 -241t-72 -159
q-114 -143 -423 -143q-409 0 -460.5 170t-51.5 373v498z" />
    <glyph glyph-name="Ocircumflex" unicode="&#xd4;" horiz-adv-x="1239" 
d="M530 1872h201l166 -262h-119l-147 153l-150 -153h-116zM459 1022v-522q0 -117 37 -170.5t125 -53.5t123.5 54t35.5 170v522q0 115 -35 169t-124 54t-125.5 -53.5t-36.5 -169.5zM109 1010q0 202 37 326.5t177 170t297 45.5t261.5 -35t162.5 -107t72 -159t14 -241v-498
q0 -154 -14 -241t-72 -159q-114 -143 -423 -143q-409 0 -460.5 170t-51.5 373v498z" />
    <glyph glyph-name="Otilde" unicode="&#xd5;" horiz-adv-x="1239" 
d="M547 1704q-49 0 -68 -59h-88q20 96 58 141t102 45q32 0 65 -10l74 -19q30 -4 43 -4q46 0 66 68h86q-21 -98 -60 -146.5t-89 -48.5t-70 6l-70 21q-18 6 -49 6zM459 1022v-522q0 -117 37 -170.5t125 -53.5t123.5 54t35.5 170v522q0 115 -35 169t-124 54t-125.5 -53.5
t-36.5 -169.5zM109 1010q0 202 37 326.5t177 170t297 45.5t261.5 -35t162.5 -107t72 -159t14 -241v-498q0 -154 -14 -241t-72 -159q-114 -143 -423 -143q-409 0 -460.5 170t-51.5 373v498z" />
    <glyph glyph-name="Odieresis" unicode="&#xd6;" horiz-adv-x="1239" 
d="M454 1878q50 0 85.5 -36t35.5 -86t-35.5 -86t-83.5 -36t-84 36.5t-36 82.5l-4 4q0 49 36 85t86 36zM783 1872q51 0 86.5 -35t35.5 -87t-36.5 -87t-84.5 -35t-84 36t-36 85l-2 4q0 49 35 84t86 35zM459 1022v-522q0 -117 37 -170.5t125 -53.5t123.5 54t35.5 170v522
q0 115 -35 169t-124 54t-125.5 -53.5t-36.5 -169.5zM109 1010q0 202 37 326.5t177 170t297 45.5t261.5 -35t162.5 -107t72 -159t14 -241v-498q0 -154 -14 -241t-72 -159q-114 -143 -423 -143q-409 0 -460.5 170t-51.5 373v498z" />
    <glyph glyph-name="multiply" unicode="&#xd7;" horiz-adv-x="1706" 
d="M416 1202l450 -450l451 450l141 -139l-450 -453l450 -450l-141 -140l-451 451l-450 -451l-140 140l451 450l-451 453z" />
    <glyph glyph-name="Oslash" unicode="&#xd8;" horiz-adv-x="1239" 
d="M109 1010q0 202 37 326.5t177 170t286 45.5t231 -22l55 121l248 -125l-72 -156q37 -57 48 -138t11 -222v-498q0 -136 -16.5 -261t-138.5 -203.5t-354 -78.5q-137 0 -226 25l-55 -123l-244 121l76 153q-49 74 -56 175.5t-7 191.5v498zM459 1022v-522q0 -117 37 -170.5
t125 -53.5t123.5 54t35.5 170v522q0 115 -35 169t-124 54t-125.5 -53.5t-36.5 -169.5z" />
    <glyph glyph-name="Ugrave" unicode="&#xd9;" horiz-adv-x="1327" 
d="M420 1878h207l155 -264h-112zM94 1522h510v-246q-50 -16 -64 -56t-14 -128v-590q0 -154 51 -190t109 -36q166 0 166 220v639q0 67 -17.5 98t-62.5 43v246h461v-246q-51 -11 -66.5 -46.5t-15.5 -115.5v-631q0 -172 -27.5 -243.5t-77.5 -131.5t-148.5 -99.5t-228.5 -39.5
q-265 0 -378 128.5t-113 410.5v614q0 74 -14.5 104t-69.5 50v246z" />
    <glyph glyph-name="Uacute" unicode="&#xda;" horiz-adv-x="1327" 
d="M772 1888h207l-250 -264h-113zM94 1522h510v-246q-50 -16 -64 -56t-14 -128v-590q0 -154 51 -190t109 -36q166 0 166 220v639q0 67 -17.5 98t-62.5 43v246h461v-246q-51 -11 -66.5 -46.5t-15.5 -115.5v-631q0 -172 -27.5 -243.5t-77.5 -131.5t-148.5 -99.5t-228.5 -39.5
q-265 0 -378 128.5t-113 410.5v614q0 74 -14.5 104t-69.5 50v246z" />
    <glyph glyph-name="Ucircumflex" unicode="&#xdb;" horiz-adv-x="1327" 
d="M596 1860h201l166 -263h-119l-148 154l-149 -154h-117zM94 1522h510v-246q-50 -16 -64 -56t-14 -128v-590q0 -154 51 -190t109 -36q166 0 166 220v639q0 67 -17.5 98t-62.5 43v246h461v-246q-51 -11 -66.5 -46.5t-15.5 -115.5v-631q0 -172 -27.5 -243.5t-77.5 -131.5
t-148.5 -99.5t-228.5 -39.5q-265 0 -378 128.5t-113 410.5v614q0 74 -14.5 104t-69.5 50v246z" />
    <glyph glyph-name="Udieresis" unicode="&#xdc;" horiz-adv-x="1327" 
d="M519 1855q50 0 86 -36t36 -86t-35.5 -85.5t-83.5 -35.5t-84.5 35.5t-36.5 83.5l-4 4q0 50 36 85t86 35zM848 1849q50 0 86.5 -34.5t36.5 -86.5t-36 -87t-85 -35t-85 36t-36 84l-2 5q0 47 35.5 82.5t85.5 35.5zM94 1522h510v-246q-50 -16 -64 -56t-14 -128v-590
q0 -154 51 -190t109 -36q166 0 166 220v639q0 67 -17.5 98t-62.5 43v246h461v-246q-51 -11 -66.5 -46.5t-15.5 -115.5v-631q0 -172 -27.5 -243.5t-77.5 -131.5t-148.5 -99.5t-228.5 -39.5q-265 0 -378 128.5t-113 410.5v614q0 74 -14.5 104t-69.5 50v246z" />
    <glyph glyph-name="Yacute" unicode="&#xdd;" horiz-adv-x="1128" 
d="M662 1898h206l-250 -264h-112zM319 0v256q44 9 62 42t18 101v185l-295 602q-37 79 -81 90v246h446v-187q0 -100 29 -161l102 -211l100 202q33 66 33 170v187h391v-246q-42 -13 -82 -88l-292 -586v-199q0 -77 13.5 -108.5t63.5 -38.5v-256h-508z" />
    <glyph glyph-name="Thorn" unicode="&#xde;" horiz-adv-x="1190" 
d="M532 625h121q99 0 135.5 32.5t36.5 134.5t-37 137.5t-133 35.5h-123v-340zM532 1239h158q323 0 390 -131.5t67 -275.5t-20.5 -234t-95.5 -171t-341 -81h-158v-20q0 -65 15.5 -93.5t60.5 -37.5v-195h-506v256q64 13 71 55.5t7 102.5v704q0 82 -13 114.5t-65 43.5v246h506
v-191q-42 -6 -59 -26t-17 -66z" />
    <glyph glyph-name="germandbls" unicode="&#xdf;" horiz-adv-x="1112" 
d="M63 0v227q44 21 59 54t15 98v682q0 117 27.5 296t427.5 179q223 0 323.5 -90t100.5 -285q0 -135 -47 -207.5t-162 -103.5q117 -31 167 -105t50 -210v-179q0 -191 -75.5 -273.5t-256.5 -82.5h-133v227h27q68 0 90 34t22 126v174q0 87 -31 125.5t-108 42.5v195
q109 7 126 67.5t17 143.5t-29.5 127.5t-100.5 44.5t-96 -44.5t-25 -138.5v-1124h-388z" />
    <glyph glyph-name="agrave" unicode="&#xe0;" horiz-adv-x="1133" 
d="M354 1505h207l156 -264h-113zM406 315q0 -40 24 -65t66 -25q86 0 180 109v192q-147 -58 -208.5 -102t-61.5 -109zM72 276q0 130 62.5 205t184.5 129.5t357 128.5v64q0 65 -27 95t-86 30q-114 0 -114 -129v-35h-314v258q221 117 445 117q289 0 349 -121.5t60 -255.5v-373
q0 -84 13 -118t61 -44v-227h-375v117q-147 -135 -328 -135q-133 0 -210.5 82t-77.5 212z" />
    <glyph glyph-name="aacute" unicode="&#xe1;" horiz-adv-x="1133" 
d="M635 1505h207l-250 -264h-113zM406 315q0 -40 24 -65t66 -25q86 0 180 109v192q-147 -58 -208.5 -102t-61.5 -109zM72 276q0 130 62.5 205t184.5 129.5t357 128.5v64q0 65 -27 95t-86 30q-114 0 -114 -129v-35h-314v258q221 117 445 117q289 0 349 -121.5t60 -255.5v-373
q0 -84 13 -118t61 -44v-227h-375v117q-147 -135 -328 -135q-133 0 -210.5 82t-77.5 212z" />
    <glyph glyph-name="acircumflex" unicode="&#xe2;" horiz-adv-x="1133" 
d="M461 1479h201l165 -262h-118l-148 153l-149 -153h-117zM406 315q0 -40 24 -65t66 -25q86 0 180 109v192q-147 -58 -208.5 -102t-61.5 -109zM72 276q0 130 62.5 205t184.5 129.5t357 128.5v64q0 65 -27 95t-86 30q-114 0 -114 -129v-35h-314v258q221 117 445 117
q289 0 349 -121.5t60 -255.5v-373q0 -84 13 -118t61 -44v-227h-375v117q-147 -135 -328 -135q-133 0 -210.5 82t-77.5 212z" />
    <glyph glyph-name="atilde" unicode="&#xe3;" horiz-adv-x="1133" 
d="M684 1247q-50 0 -70 6l-69 21q-19 6 -49 6q-52 0 -68 -59h-88q20 96 58 141t102 45q32 0 65 -10l74 -19q28 -4 43 -4q46 0 66 68h86q-21 -98 -60.5 -146.5t-89.5 -48.5zM406 315q0 -40 24 -65t66 -25q86 0 180 109v192q-147 -58 -208.5 -102t-61.5 -109zM72 276
q0 130 62.5 205t184.5 129.5t357 128.5v64q0 65 -27 95t-86 30q-114 0 -114 -129v-35h-314v258q221 117 445 117q289 0 349 -121.5t60 -255.5v-373q0 -84 13 -118t61 -44v-227h-375v117q-147 -135 -328 -135q-133 0 -210.5 82t-77.5 212z" />
    <glyph glyph-name="adieresis" unicode="&#xe4;" horiz-adv-x="1133" 
d="M414 1475q49 0 86 -36.5t37 -86.5t-35.5 -85.5t-83.5 -35.5t-84.5 36t-36.5 83l-4 4q0 49 36 85t85 36zM744 1468q50 0 86 -34.5t36 -86.5t-36 -87t-84 -35t-84.5 36t-36.5 85l-2 4q0 47 35.5 82.5t85.5 35.5zM406 315q0 -40 24 -65t66 -25q86 0 180 109v192
q-147 -58 -208.5 -102t-61.5 -109zM72 276q0 130 62.5 205t184.5 129.5t357 128.5v64q0 65 -27 95t-86 30q-114 0 -114 -129v-35h-314v258q221 117 445 117q289 0 349 -121.5t60 -255.5v-373q0 -84 13 -118t61 -44v-227h-375v117q-147 -135 -328 -135q-133 0 -210.5 82
t-77.5 212z" />
    <glyph glyph-name="aring" unicode="&#xe5;" horiz-adv-x="1133" 
d="M487 1434q0 -42 28 -69.5t69 -27.5t68.5 27.5t27.5 67.5t-28 68t-68 28l-2 2q-41 0 -68 -27t-27 -69zM584 1642q58 0 134.5 -44t76.5 -164q0 -89 -61 -151t-150 -62t-149 62t-60 135t28 120.5t75.5 75.5t105.5 28zM406 315q0 -40 24 -65t66 -25q86 0 180 109v192
q-147 -58 -208.5 -102t-61.5 -109zM72 276q0 130 62.5 205t184.5 129.5t357 128.5v64q0 65 -27 95t-86 30q-114 0 -114 -129v-35h-314v258q221 117 445 117q289 0 349 -121.5t60 -255.5v-373q0 -84 13 -118t61 -44v-227h-375v117q-147 -135 -328 -135q-133 0 -210.5 82
t-77.5 212z" />
    <glyph glyph-name="ae" unicode="&#xe6;" horiz-adv-x="1653" 
d="M406 315q0 -40 24 -65t66 -25q82 0 180 109v192q-147 -58 -208.5 -102t-61.5 -109zM985 723v-31h272v45q0 174 -137 174q-73 0 -104 -45t-31 -143zM360 -18q-133 0 -210.5 82t-77.5 212t62.5 205t184.5 129.5t357 128.5v64q0 65 -27 95t-86 30q-114 0 -114 -129v-35h-314
v258q217 113 434 113q164 0 271 -70q124 74 280 74t301.5 -62.5t145.5 -337.5v-245h-582v-97q0 -97 30.5 -141.5t104.5 -44.5q137 0 137 160v6h310v-266q-196 -129 -459 -129q-264 0 -375 165q-187 -165 -373 -165z" />
    <glyph glyph-name="ccedilla" unicode="&#xe7;" horiz-adv-x="1075" 
d="M590 -84h10q186 0 186 -149q0 -160 -208 -160q-87 0 -211 33v102q129 -33 205 -33t75 58q0 29 -21 42t-71 13h-43v161q-280 9 -346 132t-66 264v360q0 305 160.5 352.5t274.5 47.5q229 0 442 -121v-316h-291v35q0 89 -32 131.5t-104 42.5t-103 -45t-31 -143v-326
q0 -97 30.5 -141.5t105.5 -44.5t104.5 44.5t29.5 141.5v66h291v-361q-170 -109 -387 -119v-67z" />
    <glyph glyph-name="egrave" unicode="&#xe8;" horiz-adv-x="1081" 
d="M334 1495h207l155 -264h-112zM416 723v-31h270v45q0 89 -32 131.5t-104 42.5t-103 -45t-31 -143zM416 397q0 -97 30.5 -141.5t104.5 -44.5q135 0 135 160v6h309v-266q-198 -129 -444 -129q-313 0 -382 128t-69 269v360q0 140 68 270t383 130q235 0 339.5 -96t104.5 -304
v-245h-579v-97z" />
    <glyph glyph-name="eacute" unicode="&#xe9;" horiz-adv-x="1081" 
d="M573 1505h207l-250 -264h-112zM416 723v-31h270v45q0 89 -32 131.5t-104 42.5t-103 -45t-31 -143zM416 397q0 -97 30.5 -141.5t104.5 -44.5q135 0 135 160v6h309v-266q-198 -129 -444 -129q-313 0 -382 128t-69 269v360q0 140 68 270t383 130q235 0 339.5 -96t104.5 -304
v-245h-579v-97z" />
    <glyph glyph-name="ecircumflex" unicode="&#xea;" horiz-adv-x="1081" 
d="M457 1470h200l166 -262h-118l-148 154l-149 -154h-117zM416 723v-31h270v45q0 89 -32 131.5t-104 42.5t-103 -45t-31 -143zM416 397q0 -97 30.5 -141.5t104.5 -44.5q135 0 135 160v6h309v-266q-198 -129 -444 -129q-313 0 -382 128t-69 269v360q0 140 68 270t383 130
q235 0 339.5 -96t104.5 -304v-245h-579v-97z" />
    <glyph glyph-name="edieresis" unicode="&#xeb;" horiz-adv-x="1081" 
d="M379 1466q49 0 86 -36t37 -86t-36 -85.5t-84 -35.5t-84 36t-36 82l-4 5q0 50 36 85t85 35zM709 1460q51 0 86.5 -36t35.5 -86t-35.5 -85.5t-84.5 -35.5t-85 36t-36 84l-2 4q0 49 35 84t86 35zM416 723v-31h270v45q0 89 -32 131.5t-104 42.5t-103 -45t-31 -143zM416 397
q0 -97 30.5 -141.5t104.5 -44.5q135 0 135 160v6h309v-266q-198 -129 -444 -129q-313 0 -382 128t-69 269v360q0 140 68 270t383 130q235 0 339.5 -96t104.5 -304v-245h-579v-97z" />
    <glyph glyph-name="igrave" unicode="&#xec;" horiz-adv-x="633" 
d="M59 1495h207l156 -264h-113zM479 379q0 -78 11.5 -108.5t56.5 -43.5v-227h-451v227q43 7 56.5 44t13.5 126v355q0 70 -11.5 98t-58.5 45v223h383v-739z" />
    <glyph glyph-name="iacute" unicode="&#xed;" horiz-adv-x="633" 
d="M309 1505h207l-250 -264h-112zM479 379q0 -78 11.5 -108.5t56.5 -43.5v-227h-451v227q43 7 56.5 44t13.5 126v355q0 70 -11.5 98t-58.5 45v223h383v-739z" />
    <glyph glyph-name="icircumflex" unicode="&#xee;" horiz-adv-x="633" 
d="M193 1475h200l166 -263h-119l-147 154l-150 -154h-116zM479 379q0 -78 11.5 -108.5t56.5 -43.5v-227h-451v227q43 7 56.5 44t13.5 126v355q0 70 -11.5 98t-58.5 45v223h383v-739z" />
    <glyph glyph-name="idieresis" unicode="&#xef;" horiz-adv-x="633" 
d="M126 1460q50 0 86 -36t36 -86t-36 -85.5t-84 -35.5t-84 36t-36 82l-4 4q0 49 36 85t86 36zM454 1454q50 0 87 -35.5t37 -86.5t-37 -86.5t-85 -35.5t-84 36t-36 85l-2 4q0 49 35 84t85 35zM479 379q0 -78 11.5 -108.5t56.5 -43.5v-227h-451v227q43 7 56.5 44t13.5 126v355
q0 70 -11.5 98t-58.5 45v223h383v-739z" />
    <glyph glyph-name="eth" unicode="&#xf0;" horiz-adv-x="1100" 
d="M416 686v-309q0 -93 30.5 -135.5t105.5 -42.5t104.5 42.5t29.5 135.5v309q0 93 -30 135.5t-104 42.5t-105 -42.5t-31 -135.5zM999 360q0 -134 -68 -256t-381 -122t-381.5 123t-68.5 255v340q0 136 69 257.5t394 121.5h19q-61 87 -129 170l-297 -121l-54 119l267 109
q-120 136 -179 196h283q68 -59 113 -102l252 100l53 -123l-203 -86q161 -175 236 -321.5t75 -319.5v-340z" />
    <glyph glyph-name="ntilde" unicode="&#xf1;" horiz-adv-x="1204" 
d="M580 1262q-52 0 -68 -60h-88q20 96 58 141.5t102 45.5q29 0 65 -11l74 -18q28 -4 43 -4q47 0 65 67h87q-21 -99 -60.5 -146.5t-89.5 -47.5t-70 6l-69 20q-19 7 -49 7zM748 338v350q0 108 -32 157.5t-104 49.5t-139 -53v-463q0 -76 12.5 -107.5t57.5 -44.5v-227h-451v227
q43 7 56.5 44t13.5 126v355q0 70 -11.5 98t-58.5 45v223h381v-69q129 75 252 75q188 0 262 -93t74 -300v-348q0 -86 14 -119.5t60 -36.5v-227h-355q-32 88 -32 338z" />
    <glyph glyph-name="ograve" unicode="&#xf2;" horiz-adv-x="1100" 
d="M356 1495h207l156 -264h-113zM678 723q0 99 -29 143.5t-98 44.5t-99 -45.5t-30 -142.5v-326q0 -98 29 -142t99 -44t99 44t29 142v326zM999 739v-360q0 -141 -68 -269t-381 -128t-381.5 128t-68.5 269v360q0 140 68 270t383 130q238 0 343 -95t105 -305z" />
    <glyph glyph-name="oacute" unicode="&#xf3;" horiz-adv-x="1100" 
d="M575 1495h207l-250 -264h-112zM678 723q0 99 -29 143.5t-98 44.5t-99 -45.5t-30 -142.5v-326q0 -98 29 -142t99 -44t99 44t29 142v326zM999 739v-360q0 -141 -68 -269t-381 -128t-381.5 128t-68.5 269v360q0 140 68 270t383 130q238 0 343 -95t105 -305z" />
    <glyph glyph-name="ocircumflex" unicode="&#xf4;" horiz-adv-x="1100" 
d="M442 1470h201l166 -262h-119l-147 154l-150 -154h-117zM678 723q0 99 -29 143.5t-98 44.5t-99 -45.5t-30 -142.5v-326q0 -98 29 -142t99 -44t99 44t29 142v326zM999 739v-360q0 -141 -68 -269t-381 -128t-381.5 128t-68.5 269v360q0 140 68 270t383 130q238 0 343 -95
t105 -305z" />
    <glyph glyph-name="otilde" unicode="&#xf5;" horiz-adv-x="1100" 
d="M646 1247q-50 0 -71 6l-69 21q-19 6 -49 6q-52 0 -68 -59h-88q20 96 58 141t102 45q32 0 65 -10l74 -19q28 -4 43 -4q46 0 66 68h86q-21 -98 -60 -146.5t-89 -48.5zM678 723q0 99 -29 143.5t-98 44.5t-99 -45.5t-30 -142.5v-326q0 -98 29 -142t99 -44t99 44t29 142v326z
M999 739v-360q0 -141 -68 -269t-381 -128t-381.5 128t-68.5 269v360q0 140 68 270t383 130q238 0 343 -95t105 -305z" />
    <glyph glyph-name="odieresis" unicode="&#xf6;" horiz-adv-x="1100" 
d="M366 1487q50 0 85.5 -36.5t35.5 -86.5t-34.5 -85.5t-83.5 -35.5t-85 36t-36 83l-4 4q0 49 36 85t86 36zM694 1481q52 0 87.5 -35.5t35.5 -87.5t-36 -86.5t-85 -34.5t-85 36t-36 85l-2 4q0 48 34.5 83.5t86.5 35.5zM678 723q0 99 -29 143.5t-98 44.5t-99 -45.5t-30 -142.5
v-326q0 -98 29 -142t99 -44t99 44t29 142v326zM999 739v-360q0 -141 -68 -269t-381 -128t-381.5 128t-68.5 269v360q0 140 68 270t383 130q238 0 343 -95t105 -305z" />
    <glyph glyph-name="divide" unicode="&#xf7;" horiz-adv-x="1706" 
d="M853 369q62 0 107.5 -44.5t45.5 -105.5t-45 -106t-108 -45t-107 43t-44 106t44.5 107.5t106.5 44.5zM254 711h1198v-199h-1198v199zM854 1155q62 0 107 -44.5t45 -106.5t-44.5 -107t-97.5 -45t-107.5 33t-54.5 107q0 75 45 119t107 44z" />
    <glyph glyph-name="oslash" unicode="&#xf8;" horiz-adv-x="1100" 
d="M100 379v360q0 140 68 270t383 130q89 0 162 -17l47 92l217 -100l-53 -102q75 -69 75 -273v-360q0 -141 -68 -269t-380 -128q-95 0 -168 16l-47 -98l-211 108l49 101q-74 74 -74 270zM416 723v-326q0 -97 30.5 -141.5t105.5 -44.5t104.5 44.5t29.5 141.5v326
q0 98 -30 143t-104 45t-105 -45t-31 -143z" />
    <glyph glyph-name="ugrave" unicode="&#xf9;" horiz-adv-x="1204" 
d="M305 1485h207l156 -264h-113zM455 782v-352q0 -105 31 -156t101 -51t142 56v460q0 79 -12 110t-58 42v227h381v-749q0 -90 18 -112t52 -34v-223h-381v72q-132 -78 -256 -78t-197.5 42.5t-104 127.5t-30.5 225v340q0 80 -10.5 117t-40.5 45v227h332q33 -90 33 -336z" />
    <glyph glyph-name="uacute" unicode="&#xfa;" horiz-adv-x="1204" 
d="M637 1495h207l-250 -264h-113zM455 782v-352q0 -105 31 -156t101 -51t142 56v460q0 79 -12 110t-58 42v227h381v-749q0 -90 18 -112t52 -34v-223h-381v72q-132 -78 -256 -78t-197.5 42.5t-104 127.5t-30.5 225v340q0 80 -10.5 117t-40.5 45v227h332q33 -90 33 -336z" />
    <glyph glyph-name="ucircumflex" unicode="&#xfb;" horiz-adv-x="1204" 
d="M467 1464h201l166 -262h-119l-148 154l-149 -154h-117zM455 782v-352q0 -105 31 -156t101 -51t142 56v460q0 79 -12 110t-58 42v227h381v-749q0 -90 18 -112t52 -34v-223h-381v72q-132 -78 -256 -78t-197.5 42.5t-104 127.5t-30.5 225v340q0 80 -10.5 117t-40.5 45v227
h332q33 -90 33 -336z" />
    <glyph glyph-name="udieresis" unicode="&#xfc;" horiz-adv-x="1204" 
d="M410 1450q50 0 86 -36t36 -86t-36 -86t-84 -36t-83.5 36.5t-35.5 82.5l-4 4q0 49 35.5 85t85.5 36zM739 1444q52 0 87.5 -35t35.5 -87t-36 -87t-84 -35t-84.5 36t-36.5 85l-3 4q0 50 34.5 84.5t86.5 34.5zM455 782v-352q0 -105 31 -156t101 -51t142 56v460q0 79 -12 110
t-58 42v227h381v-749q0 -90 18 -112t52 -34v-223h-381v72q-132 -78 -256 -78t-197.5 42.5t-104 127.5t-30.5 225v340q0 80 -10.5 117t-40.5 45v227h332q33 -90 33 -336z" />
    <glyph glyph-name="yacute" unicode="&#xfd;" horiz-adv-x="1049" 
d="M623 1475h206l-249 -265h-113zM223 -160h8q57 0 89 22.5t53 80.5l-275 843q-30 98 -75 109v223h438v-223q-41 -11 -41 -57q0 -18 6 -45l119 -496l106 496q6 21 6 52t-41 50v223h412v-223q-30 -11 -44 -32.5t-28 -67.5l-206 -750q-67 -248 -152 -354.5t-248 -106.5
q-74 0 -127 13v243z" />
    <glyph glyph-name="thorn" unicode="&#xfe;" horiz-adv-x="1176" 
d="M752 688q0 144 -46 175.5t-110 31.5t-131 -53v-566q88 -45 145 -45t99.5 35t42.5 195v227zM1073 731v-305q0 -150 -28 -245t-100.5 -143t-202.5 -48t-277 76v-84q0 -78 11.5 -109.5t55.5 -42.5v-227h-448v227q43 6 55.5 42.5t12.5 125.5v1157q0 72 -11 99t-57 44v224h381
v-473q147 84 258 84t173.5 -25t119.5 -97.5t57 -279.5z" />
    <glyph glyph-name="ydieresis" unicode="&#xff;" horiz-adv-x="1049" 
d="M386 1454q50 0 86 -36t36 -86t-36 -86t-84 -36t-84 36t-36 83l-4 4q0 49 36 85t86 36zM714 1448q50 0 87 -35t37 -87t-36 -87t-85 -35t-85 36t-36 85l-2 4q0 49 35 84t85 35zM223 -160h8q57 0 89 22.5t53 80.5l-275 843q-30 98 -75 109v223h438v-223q-41 -11 -41 -57
q0 -18 6 -45l119 -496l106 496q6 21 6 52t-41 50v223h412v-223q-30 -11 -44 -32.5t-28 -67.5l-206 -750q-67 -248 -152 -354.5t-248 -106.5q-74 0 -127 13v243z" />
    <glyph glyph-name="aahoa" unicode="&#x102;" horiz-adv-x="1223" 
d="M618 1718q72 0 107 27t39 88h98q-12 -165 -88 -202.5t-174 -37.5t-158 58.5t-67 181.5h96q6 -62 40.5 -88.5t106.5 -26.5zM432 332q0 -74 82 -76v-256h-467v256q41 12 59 47.5t33 112.5l215 1106h523l237 -1131q13 -64 31.5 -94t56.5 -41v-256h-518v256q38 3 57 22.5
t19 43.5t-4 51l-13 63h-294l-13 -57q-4 -28 -4 -47zM487 653h207l-104 582z" />
    <glyph glyph-name="aath" unicode="&#x103;" horiz-adv-x="1133" 
d="M572 1343q72 0 106.5 27t38.5 88h98q-9 -126 -67 -182.5t-176 -56.5t-177.5 58t-66.5 181h96q6 -62 41 -88.5t107 -26.5zM406 315q0 -40 24 -65t66 -25q86 0 180 109v192q-147 -58 -208.5 -102t-61.5 -109zM72 276q0 130 62.5 205t184.5 129.5t357 128.5v64q0 65 -27 95
t-86 30q-114 0 -114 -129v-35h-314v258q221 117 445 117q289 0 349 -121.5t60 -255.5v-373q0 -84 13 -118t61 -44v-227h-375v117q-147 -135 -328 -135q-133 0 -210.5 82t-77.5 212z" />
    <glyph glyph-name="dhoa" unicode="&#x110;" horiz-adv-x="1352" 
d="M580 305h104q130 0 168.5 43t38.5 170v459q0 142 -35 194t-154 52h-20l-102 -2v-332h155v-213h-155v-371zM657 0h-505v256q50 11 62.5 42t12.5 116v262h-180v213h180v229q0 85 -12.5 116t-62.5 42v246h505q224 0 350 -51t181 -173.5t55 -349.5v-364q0 -181 -28.5 -292.5
t-93.5 -174.5t-175.5 -90t-288.5 -27z" />
    <glyph glyph-name="dth" unicode="&#x111;" horiz-adv-x="1186" 
d="M422 430q0 -144 45 -175.5t109 -31.5t133 53v568q-85 43 -157 43t-101 -54.5t-29 -175.5v-227zM100 387v361q0 151 36 226q76 154 294 154q131 0 279 -75v204h-277v123h277v142h313v-142h104v-123h-104v-890q0 -72 10.5 -99.5t57.5 -44.5v-223h-381v70q-139 -82 -269 -82
t-203 44t-105 131t-32 224z" />
    <glyph glyph-name="dth" unicode="&#x20ab;" horiz-adv-x="1186" 
d="M422 430q0 -144 45 -175.5t109 -31.5t133 53v568q-85 43 -157 43t-101 -54.5t-29 -175.5v-227zM100 387v361q0 151 36 226q76 154 294 154q131 0 279 -75v204h-277v123h277v142h313v-142h104v-123h-104v-890q0 -72 10.5 -99.5t57.5 -44.5v-223h-381v70q-139 -82 -269 -82
t-203 44t-105 131t-32 224z" />
    <glyph glyph-name="ihoanga" unicode="&#x128;" horiz-adv-x="725" 
d="M478 1640q-50 0 -70 7l-70 20q-19 6 -49 6q-52 0 -68 -59h-88q20 96 58 141t102 45q32 0 65 -10l74 -18q23 -5 43 -5q46 0 66 68h86q-21 -98 -60 -146.5t-89 -48.5zM539 414q0 -60 6.5 -103t68.5 -55v-256h-505v256q63 13 70 55.5t7 102.5v704q0 82 -13 114.5t-64 43.5
v246h505v-246q-62 -12 -68.5 -56t-6.5 -102v-704z" />
    <glyph glyph-name="ithnga" unicode="&#x129;" horiz-adv-x="633" 
d="M410 1237q-50 0 -70 6l-70 21q-18 6 -49 6q-50 0 -67 -60h-88q18 96 56.5 141.5t102.5 45.5q33 0 66 -11l74 -18q28 -4 43 -4q47 0 65 68h86q-21 -100 -60 -147.5t-89 -47.5zM479 379q0 -78 11.5 -108.5t56.5 -43.5v-227h-451v227q43 7 56.5 44t13.5 126v355
q0 70 -11.5 98t-58.5 45v223h383v-739z" />
    <glyph glyph-name="OE" unicode="&#x152;" horiz-adv-x="1853" 
d="M459 1022v-522q0 -117 37 -170.5t125 -53.5t123.5 54t35.5 170v522q0 115 -35 169t-124 54t-125.5 -53.5t-36.5 -169.5zM109 1010q0 135 25.5 338.5t453.5 203.5q142 0 272 -30h905v-465h-327v14q0 92 -41 126t-144 34h-129v-318h418v-256h-418v-366h127q75 0 115.5 14
t56 48.5t15.5 101.5v55h327v-510h-903q-133 -31 -266 -31q-384 0 -435.5 172t-51.5 371v498z" />
    <glyph glyph-name="oe" unicode="&#x153;" horiz-adv-x="1667" 
d="M1001 723v-31h271v45q0 89 -32.5 131.5t-103.5 42.5t-103 -45t-32 -143zM548 -18q-158 0 -256.5 41.5t-145 128t-46.5 227.5v360q0 140 68 270t383 130q167 0 291 -80q130 80 295 80q235 0 339.5 -96t104.5 -304v-245h-580v-97q0 -97 31.5 -141.5t104.5 -44.5
q135 0 135 160v6h309v-266q-196 -129 -444 -129q-188 0 -293 81q-138 -81 -296 -81zM416 723v-326q0 -97 30.5 -141.5t105.5 -44.5t104.5 44.5t29.5 141.5v326q0 98 -30 143t-104 45t-105 -45t-31 -143z" />
    <glyph glyph-name="Scaron" unicode="&#x160;" horiz-adv-x="1233" 
d="M487 1622l-165 262h116l150 -153l147 153h119l-166 -262h-201zM451 496q0 -215 167 -215q81 0 125.5 43.5t44.5 115.5t-51 119.5t-141 80.5t-238 87.5t-202 166t-54 231.5t62.5 220.5t180 153.5t271.5 53q281 0 498 -166v-358h-336v27q0 200 -164 200q-76 0 -120.5 -38.5
t-44.5 -94.5t30 -89t89.5 -60t187.5 -71t214 -99t128.5 -140t42.5 -222t-61.5 -245t-177.5 -167.5t-273 -59.5q-301 0 -520 176v381h342v-30z" />
    <glyph glyph-name="scaron" unicode="&#x161;" horiz-adv-x="1028" 
d="M410 1221l-166 262h116l150 -154l147 154h119l-166 -262h-200zM393 371q0 -156 109 -156q56 0 85 28.5t29 76.5t-33.5 78t-74.5 42t-136.5 39.5t-162.5 66.5q-67 40 -99 97.5t-32 154.5t81 219t351 122q218 0 424 -99v-282h-291v6q0 141 -119 141q-50 0 -78 -28t-28 -72
t22.5 -68.5t54.5 -37.5t110.5 -35t144.5 -44t141.5 -77.5t75.5 -221.5q-1 -339 -429 -339q-222 0 -456 88v301h311z" />
    <glyph glyph-name="uhoanga" unicode="&#x168;" horiz-adv-x="1327" 
d="M592 1673q-49 0 -68 -59h-88q20 96 58 141t102 45q32 0 66 -10l73 -18q25 -5 43 -5q46 0 66 68h86q-21 -98 -60.5 -146.5t-89.5 -48.5t-69 7l-70 20q-18 6 -49 6zM94 1522h510v-246q-50 -16 -64 -56t-14 -128v-590q0 -154 51 -190t109 -36q166 0 166 220v639
q0 67 -17.5 98t-62.5 43v246h461v-246q-51 -11 -66.5 -46.5t-15.5 -115.5v-631q0 -172 -27.5 -243.5t-77.5 -131.5t-148.5 -99.5t-228.5 -39.5q-265 0 -378 128.5t-113 410.5v614q0 74 -14.5 104t-69.5 50v246z" />
    <glyph glyph-name="uthnga" unicode="&#x169;" horiz-adv-x="1204" 
d="M696 1237q-50 0 -69 6l-70 21q-18 6 -49 6q-50 0 -68 -60h-88q20 96 58 141.5t102 45.5q33 0 66 -11l73 -18q30 -4 43 -4q48 0 66 68h86q-21 -100 -60.5 -147.5t-89.5 -47.5zM455 782v-352q0 -105 31 -156t101 -51t142 56v460q0 79 -12 110t-58 42v227h381v-749
q0 -90 18 -112t52 -34v-223h-381v72q-132 -78 -256 -78t-197.5 42.5t-104 127.5t-30.5 225v340q0 80 -10.5 117t-40.5 45v227h332q33 -90 33 -336z" />
    <glyph glyph-name="florin" unicode="&#x192;" horiz-adv-x="1241" 
d="M809 1550q95 0 195 -28v-222q-11 3 -31 3q-64 0 -90.5 -39t-38.5 -136l-23 -163h144v-246h-172l-56 -623q-22 -261 -120.5 -319t-194.5 -58t-189 27v221q13 -2 33 -2q61 0 89.5 40t37.5 134l58 580h-117v246h141l23 206q28 264 122 321.5t189 57.5z" />
    <glyph glyph-name="ochoa" unicode="&#x1a0;" horiz-adv-x="1239" 
d="M459 1022v-522q0 -117 37 -170.5t125 -53.5t123.5 54t35.5 170v522q0 115 -35 169t-124 54t-125.5 -53.5t-36.5 -169.5zM109 1010q0 202 37 326.5t177 170t286 45.5t227 -19.5t153 -68.5q69 -52 117 -164q34 6 56 28t22 56v166h143v-176q0 -93 -63 -139.5t-140 -50.5
q6 -76 6 -174v-498q0 -154 -14 -241t-72 -159q-114 -143 -423 -143q-409 0 -460.5 170t-51.5 373v498z" />
    <glyph glyph-name="octh" unicode="&#x1a1;" horiz-adv-x="1100" 
d="M678 723q0 99 -29 143.5t-98 44.5t-99 -45.5t-30 -142.5v-326q0 -98 29 -142t99 -44t99 44t29 142v326zM999 739v-360q0 -141 -68 -269t-381 -128t-381.5 128t-68.5 269v360q0 140 68 270t383 130q179 0 286 -54.5t140 -177.5q29 5 49.5 28t20.5 56v148h141v-162
q-3 -70 -61.5 -106.5t-133.5 -41.5q6 -16 6 -90z" />
    <glyph glyph-name="uchoa" unicode="&#x1af;" horiz-adv-x="1327" 
d="M94 1522h510v-246q-50 -16 -64 -56t-14 -128v-590q0 -154 51 -190t109 -36q166 0 166 220v639q0 67 -17.5 98t-62.5 43v246h379v-250q34 5 56 27.5t22 56.5v166h143v-176q-1 -93 -71 -140t-150 -51v-672q0 -172 -27.5 -243.5t-77.5 -131.5t-148.5 -99.5t-228.5 -39.5
q-265 0 -378 128.5t-113 410.5v614q0 74 -14.5 104t-69.5 50v246z" />
    <glyph glyph-name="ucth" unicode="&#x1b0;" horiz-adv-x="1204" 
d="M455 782v-352q0 -105 31 -156t101 -51t142 56v460q0 79 -12 110t-58 42v227h381v-235q34 5 56 27.5t22 56.5v151h144v-166q-8 -70 -77 -106.5t-145 -40.5v-436q0 -90 18 -112t52 -34v-223h-381v72q-132 -78 -256 -78t-197.5 42.5t-104 127.5t-30.5 225v340
q0 80 -10.5 117t-40.5 45v227h332q33 -90 33 -336z" />
    <glyph glyph-name="circumflex" unicode="&#x2c6;" horiz-adv-x="1024" 
d="M393 1620h238l196 -371h-141l-174 217l-176 -217h-139z" />
    <glyph glyph-name="tilde" unicode="&#x2dc;" horiz-adv-x="1024" 
d="M633 1485q61 0 86 86h110q-27 -125 -77.5 -184.5t-130.5 -59.5q-41 0 -74 10l-88 27q-31 10 -66 10q-64 0 -88 -78h-110q24 121 73.5 178.5t130.5 57.5q38 0 86 -14l93 -25q36 -8 55 -8z" />
    <glyph glyph-name="abhuyenth" unicode="&#x300;" 
d="M-543 1671h207l156 -264h-113z" />
    <glyph glyph-name="absacth" unicode="&#x301;" 
d="M-190 1651h206l-249 -265h-113z" />
    <glyph glyph-name="absacth" unicode="&#x302;" 
d="M-190 1651h206l-249 -265h-113z" />
    <glyph glyph-name="abngath" unicode="&#x303;" 
d="M-637 1599q-49 0 -68 -59h-88q20 96 58 141t102 45q32 0 66 -10l73 -18q30 -4 43 -4q48 0 66 67h86q-21 -99 -60 -146.5t-89 -47.5t-70 6l-70 20q-18 6 -49 6z" />
    <glyph glyph-name="abhoith" unicode="&#x309;" 
d="M-334 1376v33q0 35 9 53t35 36t56 37.5t43 33t13 33.5q0 45 -54 45t-53 -60v-14h-114v121q67 47 166 47q178 0 178 -144q0 -59 -19.5 -84t-67.5 -55t-61.5 -42t-13.5 -36v-4h-117z" />
    <glyph glyph-name="ananghoa" unicode="&#x323;" 
d="M-756 -258v2q0 51 34 88t86 37t89 -36.5t37 -88.5t-36.5 -88.5t-77.5 -36.5t-86.5 27.5t-45.5 95.5z" />
    <glyph glyph-name="ananghoa" unicode="&#xf02b;" 
d="M-756 -258v2q0 51 34 88t86 37t89 -36.5t37 -88.5t-36.5 -88.5t-77.5 -36.5t-86.5 27.5t-45.5 95.5z" />
    <glyph glyph-name="ananghoa" unicode="&#xf029;" 
d="M-756 -258v2q0 51 34 88t86 37t89 -36.5t37 -88.5t-36.5 -88.5t-77.5 -36.5t-86.5 27.5t-45.5 95.5z" />
    <glyph glyph-name="ananghoa" unicode="&#xf022;" 
d="M-756 -258v2q0 51 34 88t86 37t89 -36.5t37 -88.5t-36.5 -88.5t-77.5 -36.5t-86.5 27.5t-45.5 95.5z" />
    <glyph glyph-name="ananghoa" unicode="&#xf021;" 
d="M-756 -258v2q0 51 34 88t86 37t89 -36.5t37 -88.5t-36.5 -88.5t-77.5 -36.5t-86.5 27.5t-45.5 95.5z" />
    <glyph glyph-name="ananghoa" unicode="&#xf020;" 
d="M-756 -258v2q0 51 34 88t86 37t89 -36.5t37 -88.5t-36.5 -88.5t-77.5 -36.5t-86.5 27.5t-45.5 95.5z" />
    <glyph glyph-name="ananghoa" unicode="&#xf01f;" 
d="M-756 -258v2q0 51 34 88t86 37t89 -36.5t37 -88.5t-36.5 -88.5t-77.5 -36.5t-86.5 27.5t-45.5 95.5z" />
    <glyph glyph-name="ananghoa" unicode="&#xf01e;" 
d="M-756 -258v2q0 51 34 88t86 37t89 -36.5t37 -88.5t-36.5 -88.5t-77.5 -36.5t-86.5 27.5t-45.5 95.5z" />
    <glyph glyph-name="ahuyenhoa" unicode="&#x340;" 
d="M-846 1905h207l156 -265h-113z" />
    <glyph glyph-name="ahuyenhoa" unicode="&#xf00c;" 
d="M-846 1905h207l156 -265h-113z" />
    <glyph glyph-name="asachoa" unicode="&#x341;" 
d="M-586 1905h207l-250 -265h-112z" />
    <glyph glyph-name="asachoa" unicode="&#xf007;" 
d="M-586 1905h207l-250 -265h-112z" />
    <glyph glyph-name="angahoa" unicode="&#x342;" 
d="M-541 1657q-34 0 -55 6l-70 20q-18 7 -49 7q-50 0 -67 -60h-88q18 96 56.5 141.5t102.5 45.5q33 0 66 -11l74 -18q28 -4 43 -4q47 0 65 67h86q-21 -99 -60.5 -146.5t-103.5 -47.5z" />
    <glyph glyph-name="angahoa" unicode="&#xf030;" 
d="M-541 1657q-34 0 -55 6l-70 20q-18 7 -49 7q-50 0 -67 -60h-88q18 96 56.5 141.5t102.5 45.5q33 0 66 -11l74 -18q28 -4 43 -4q47 0 65 67h86q-21 -99 -60.5 -146.5t-103.5 -47.5z" />
    <glyph glyph-name="angahoa" unicode="&#xf02e;" 
d="M-541 1657q-34 0 -55 6l-70 20q-18 7 -49 7q-50 0 -67 -60h-88q18 96 56.5 141.5t102.5 45.5q33 0 66 -11l74 -18q28 -4 43 -4q47 0 65 67h86q-21 -99 -60.5 -146.5t-103.5 -47.5z" />
    <glyph glyph-name="angahoa" unicode="&#xf01c;" 
d="M-541 1657q-34 0 -55 6l-70 20q-18 7 -49 7q-50 0 -67 -60h-88q18 96 56.5 141.5t102.5 45.5q33 0 66 -11l74 -18q28 -4 43 -4q47 0 65 67h86q-21 -99 -60.5 -146.5t-103.5 -47.5z" />
    <glyph glyph-name="angahoa" unicode="&#xf017;" 
d="M-541 1657q-34 0 -55 6l-70 20q-18 7 -49 7q-50 0 -67 -60h-88q18 96 56.5 141.5t102.5 45.5q33 0 66 -11l74 -18q28 -4 43 -4q47 0 65 67h86q-21 -99 -60.5 -146.5t-103.5 -47.5z" />
    <glyph glyph-name="angahoa" unicode="&#xf016;" 
d="M-541 1657q-34 0 -55 6l-70 20q-18 7 -49 7q-50 0 -67 -60h-88q18 96 56.5 141.5t102.5 45.5q33 0 66 -11l74 -18q28 -4 43 -4q47 0 65 67h86q-21 -99 -60.5 -146.5t-103.5 -47.5z" />
    <glyph glyph-name="ahoanang" unicode="&#x1ea0;" horiz-adv-x="1223" 
d="M481 -229v2q0 51 34.5 88t86.5 37t88.5 -36.5t36.5 -88.5t-36.5 -88.5t-77.5 -36.5t-86.5 27.5t-45.5 95.5zM432 332q0 -74 82 -76v-256h-467v256q41 12 59 47.5t33 112.5l215 1106h523l237 -1131q13 -64 31.5 -94t56.5 -41v-256h-518v256q38 3 57 22.5t19 43.5t-4 51
l-13 63h-294l-13 -57q-4 -28 -4 -47zM487 653h207l-104 582z" />
    <glyph glyph-name="athnang" unicode="&#x1ea1;" horiz-adv-x="1133" 
d="M434 -238v2q0 51 34 88t86 37t89 -37t37 -88t-36.5 -87.5t-77.5 -36.5t-86.5 27.5t-45.5 94.5zM406 315q0 -40 24 -65t66 -25q86 0 180 109v192q-147 -58 -208.5 -102t-61.5 -109zM72 276q0 130 62.5 205t184.5 129.5t357 128.5v64q0 65 -27 95t-86 30q-114 0 -114 -129
v-35h-314v258q221 117 445 117q289 0 349 -121.5t60 -255.5v-373q0 -84 13 -118t61 -44v-227h-375v117q-147 -135 -328 -135q-133 0 -210.5 82t-77.5 212z" />
    <glyph glyph-name="ahoahoi" unicode="&#x1ea2;" horiz-adv-x="1223" 
d="M549 1624v33q0 34 11 56.5t64.5 55.5t67 48t13.5 32q0 45 -56 45q-51 0 -51 -59v-14h-115v121q67 47 166 47q178 0 178 -144q0 -58 -19 -83.5t-67 -55.5t-61.5 -42t-13.5 -36v-4h-117zM432 332q0 -74 82 -76v-256h-467v256q41 12 59 47.5t33 112.5l215 1106h523
l237 -1131q13 -64 31.5 -94t56.5 -41v-256h-518v256q38 3 57 22.5t19 43.5t-4 51l-13 63h-294l-13 -57q-4 -28 -4 -47zM487 653h207l-104 582z" />
    <glyph glyph-name="athhoi" unicode="&#x1ea3;" horiz-adv-x="1133" 
d="M522 1241v33q0 34 9 52.5t35 36.5t55.5 37t43 33t13.5 33q0 45 -54 45t-53 -59v-14h-114v121q67 47 166 47q178 0 178 -144q0 -59 -20 -84.5t-57 -49.5q-55 -35 -70 -46.5t-15 -36.5v-4h-117zM406 315q0 -40 24 -65t66 -25q86 0 180 109v192q-147 -58 -208.5 -102
t-61.5 -109zM72 276q0 130 62.5 205t184.5 129.5t357 128.5v64q0 65 -27 95t-86 30q-114 0 -114 -129v-35h-314v258q221 117 445 117q289 0 349 -121.5t60 -255.5v-373q0 -84 13 -118t61 -44v-227h-375v117q-147 -135 -328 -135q-133 0 -210.5 82t-77.5 212z" />
    <glyph glyph-name="abhoasac" unicode="&#x1ea4;" horiz-adv-x="1223" 
d="M999 2036h207l-250 -264h-112zM518 1864h201l166 -262h-119l-148 153l-149 -153h-117zM432 332q0 -74 82 -76v-256h-467v256q41 12 59 47.5t33 112.5l215 1106h523l237 -1131q13 -64 31.5 -94t56.5 -41v-256h-518v256q38 3 57 22.5t19 43.5t-4 51l-13 63h-294l-13 -57
q-4 -28 -4 -47zM487 653h207l-104 582z" />
    <glyph glyph-name="abthsac" unicode="&#x1ea5;" horiz-adv-x="1133" 
d="M942 1651h207l-250 -265h-113zM461 1479h201l165 -262h-118l-148 153l-149 -153h-117zM406 315q0 -40 24 -65t66 -25q86 0 180 109v192q-147 -58 -208.5 -102t-61.5 -109zM72 276q0 130 62.5 205t184.5 129.5t357 128.5v64q0 65 -27 95t-86 30q-114 0 -114 -129v-35h-314
v258q221 117 445 117q289 0 349 -121.5t60 -255.5v-373q0 -84 13 -118t61 -44v-227h-375v117q-147 -135 -328 -135q-133 0 -210.5 82t-77.5 212z" />
    <glyph glyph-name="abhoahuyen" unicode="&#x1ea6;" horiz-adv-x="1223" 
d="M606 2087h207l156 -264h-113zM518 1864h201l166 -262h-119l-148 153l-149 -153h-117zM432 332q0 -74 82 -76v-256h-467v256q41 12 59 47.5t33 112.5l215 1106h523l237 -1131q13 -64 31.5 -94t56.5 -41v-256h-518v256q38 3 57 22.5t19 43.5t-4 51l-13 63h-294l-13 -57
q-4 -28 -4 -47zM487 653h207l-104 582z" />
    <glyph glyph-name="abthhuyen" unicode="&#x1ea7;" horiz-adv-x="1133" 
d="M549 1702h207l155 -264h-112zM461 1479h201l165 -262h-118l-148 153l-149 -153h-117zM406 315q0 -40 24 -65t66 -25q86 0 180 109v192q-147 -58 -208.5 -102t-61.5 -109zM72 276q0 130 62.5 205t184.5 129.5t357 128.5v64q0 65 -27 95t-86 30q-114 0 -114 -129v-35h-314
v258q221 117 445 117q289 0 349 -121.5t60 -255.5v-373q0 -84 13 -118t61 -44v-227h-375v117q-147 -135 -328 -135q-133 0 -210.5 82t-77.5 212z" />
    <glyph glyph-name="abhoahoi" unicode="&#x1ea8;" horiz-adv-x="1223" 
d="M846 1782v33q0 34 10.5 56t64 55.5t67 47.5t13.5 33q0 45 -53 45t-53 -59v-15h-115v121q65 47 166 47q178 0 178 -143q0 -59 -21 -86t-67 -55t-59.5 -40t-13.5 -36v-4h-117zM518 1864h201l166 -262h-119l-148 153l-149 -153h-117zM432 332q0 -74 82 -76v-256h-467v256
q41 12 59 47.5t33 112.5l215 1106h523l237 -1131q13 -64 31.5 -94t56.5 -41v-256h-518v256q38 3 57 22.5t19 43.5t-4 51l-13 63h-294l-13 -57q-4 -28 -4 -47zM487 653h207l-104 582z" />
    <glyph glyph-name="abthhoi" unicode="&#x1ea9;" horiz-adv-x="1133" 
d="M788 1397v33q0 34 10 52.5t38 39.5q30 21 69 45.5t39 54.5q0 45 -53 45t-53 -59v-15h-115v121q65 47 166 47q178 0 178 -143q0 -59 -21.5 -86t-57.5 -49q-52 -32 -67.5 -44.5t-15.5 -37.5v-4h-117zM461 1479h201l165 -262h-118l-148 153l-149 -153h-117zM406 315
q0 -40 24 -65t66 -25q86 0 180 109v192q-147 -58 -208.5 -102t-61.5 -109zM72 276q0 130 62.5 205t184.5 129.5t357 128.5v64q0 65 -27 95t-86 30q-114 0 -114 -129v-35h-314v258q221 117 445 117q289 0 349 -121.5t60 -255.5v-373q0 -84 13 -118t61 -44v-227h-375v117
q-147 -135 -328 -135q-133 0 -210.5 82t-77.5 212z" />
    <glyph glyph-name="abhoanga" unicode="&#x1eaa;" horiz-adv-x="1223" 
d="M870 2167q-42 -195 -148 -195q-50 0 -71 6l-69 21q-19 6 -50 6q-51 0 -67 -59h-88q36 186 160 186q31 0 65 -10l74 -19q28 -4 43 -4q47 0 65 68h86zM518 1864h201l166 -262h-119l-148 153l-149 -153h-117zM432 332q0 -74 82 -76v-256h-467v256q41 12 59 47.5t33 112.5
l215 1106h523l237 -1131q13 -64 31.5 -94t56.5 -41v-256h-518v256q38 3 57 22.5t19 43.5t-4 51l-13 63h-294l-13 -57q-4 -28 -4 -47zM487 653h207l-104 582z" />
    <glyph glyph-name="abthnga" unicode="&#x1eab;" horiz-adv-x="1133" 
d="M475 1620q-52 0 -67 -59h-89q20 96 58 141t102 45q32 0 66 -10l73 -19q30 -4 44 -4q47 0 65 68h86q-21 -98 -60 -146.5t-89 -48.5t-70 6l-70 21q-18 6 -49 6zM461 1479h201l165 -262h-118l-148 153l-149 -153h-117zM406 315q0 -40 24 -65t66 -25q86 0 180 109v192
q-147 -58 -208.5 -102t-61.5 -109zM72 276q0 130 62.5 205t184.5 129.5t357 128.5v64q0 65 -27 95t-86 30q-114 0 -114 -129v-35h-314v258q221 117 445 117q289 0 349 -121.5t60 -255.5v-373q0 -84 13 -118t61 -44v-227h-375v117q-147 -135 -328 -135q-133 0 -210.5 82
t-77.5 212z" />
    <glyph glyph-name="abhoanang" unicode="&#x1eac;" horiz-adv-x="1223" 
d="M471 -231v2q0 51 34.5 88t86.5 37t88.5 -36.5t36.5 -88.5t-37.5 -88.5t-77.5 -36.5t-85.5 27.5t-45.5 95.5zM518 1864h201l166 -262h-119l-148 153l-149 -153h-117zM432 332q0 -74 82 -76v-256h-467v256q41 12 59 47.5t33 112.5l215 1106h523l237 -1131q13 -64 31.5 -94
t56.5 -41v-256h-518v256q38 3 57 22.5t19 43.5t-4 51l-13 63h-294l-13 -57q-4 -28 -4 -47zM487 653h207l-104 582z" />
    <glyph glyph-name="abthnang" unicode="&#x1ead;" horiz-adv-x="1133" 
d="M424 -238v2q0 51 34.5 88t86.5 37t88.5 -36.5t36.5 -88.5t-38 -88t-78 -36t-85 27.5t-45 94.5zM461 1479h201l165 -262h-118l-148 153l-149 -153h-117zM406 315q0 -40 24 -65t66 -25q86 0 180 109v192q-147 -58 -208.5 -102t-61.5 -109zM72 276q0 130 62.5 205
t184.5 129.5t357 128.5v64q0 65 -27 95t-86 30q-114 0 -114 -129v-35h-314v258q221 117 445 117q289 0 349 -121.5t60 -255.5v-373q0 -84 13 -118t61 -44v-227h-375v117q-147 -135 -328 -135q-133 0 -210.5 82t-77.5 212z" />
    <glyph glyph-name="aahoasac" unicode="&#x1eae;" horiz-adv-x="1223" 
d="M713 2128h207l-250 -264h-113zM618 1718q72 0 107 27t39 88h98q-12 -165 -88 -202.5t-174 -37.5t-158 58.5t-67 181.5h96q6 -62 40.5 -88.5t106.5 -26.5zM432 332q0 -74 82 -76v-256h-467v256q41 12 59 47.5t33 112.5l215 1106h523l237 -1131q13 -64 31.5 -94t56.5 -41
v-256h-518v256q38 3 57 22.5t19 43.5t-4 51l-13 63h-294l-13 -57q-4 -28 -4 -47zM487 653h207l-104 582z" />
    <glyph glyph-name="aathsac" unicode="&#x1eaf;" horiz-adv-x="1133" 
d="M666 1753h206l-249 -264h-113zM572 1343q72 0 106.5 27t38.5 88h98q-9 -126 -67 -182.5t-176 -56.5t-177.5 58t-66.5 181h96q6 -62 41 -88.5t107 -26.5zM406 315q0 -40 24 -65t66 -25q86 0 180 109v192q-147 -58 -208.5 -102t-61.5 -109zM72 276q0 130 62.5 205
t184.5 129.5t357 128.5v64q0 65 -27 95t-86 30q-114 0 -114 -129v-35h-314v258q221 117 445 117q289 0 349 -121.5t60 -255.5v-373q0 -84 13 -118t61 -44v-227h-375v117q-147 -135 -328 -135q-133 0 -210.5 82t-77.5 212z" />
    <glyph glyph-name="aahoahuyen" unicode="&#x1eb0;" horiz-adv-x="1223" 
d="M340 2128h207l155 -264h-112zM618 1718q72 0 107 27t39 88h98q-12 -165 -88 -202.5t-174 -37.5t-158 58.5t-67 181.5h96q6 -62 40.5 -88.5t106.5 -26.5zM432 332q0 -74 82 -76v-256h-467v256q41 12 59 47.5t33 112.5l215 1106h523l237 -1131q13 -64 31.5 -94t56.5 -41
v-256h-518v256q38 3 57 22.5t19 43.5t-4 51l-13 63h-294l-13 -57q-4 -28 -4 -47zM487 653h207l-104 582z" />
    <glyph glyph-name="aathhuyen" unicode="&#x1eb1;" horiz-adv-x="1133" 
d="M293 1753h207l155 -264h-112zM572 1343q72 0 106.5 27t38.5 88h98q-9 -126 -67 -182.5t-176 -56.5t-177.5 58t-66.5 181h96q6 -62 41 -88.5t107 -26.5zM406 315q0 -40 24 -65t66 -25q86 0 180 109v192q-147 -58 -208.5 -102t-61.5 -109zM72 276q0 130 62.5 205
t184.5 129.5t357 128.5v64q0 65 -27 95t-86 30q-114 0 -114 -129v-35h-314v258q221 117 445 117q289 0 349 -121.5t60 -255.5v-373q0 -84 13 -118t61 -44v-227h-375v117q-147 -135 -328 -135q-133 0 -210.5 82t-77.5 212z" />
    <glyph glyph-name="aahoahoi" unicode="&#x1eb2;" horiz-adv-x="1223" 
d="M549 1864v32q0 35 11 57.5t64.5 55.5t67 48t13.5 32q0 45 -56 45q-51 0 -51 -59v-15h-115v121q65 47 166 47q178 0 178 -143q0 -58 -19.5 -84.5t-69.5 -58.5t-61 -41t-11 -33v-4h-117zM618 1718q72 0 107 27t39 88h98q-12 -165 -88 -202.5t-174 -37.5t-158 58.5
t-67 181.5h96q6 -62 40.5 -88.5t106.5 -26.5zM432 332q0 -74 82 -76v-256h-467v256q41 12 59 47.5t33 112.5l215 1106h523l237 -1131q13 -64 31.5 -94t56.5 -41v-256h-518v256q38 3 57 22.5t19 43.5t-4 51l-13 63h-294l-13 -57q-4 -28 -4 -47zM487 653h207l-104 582z" />
    <glyph glyph-name="aathhoi" unicode="&#x1eb3;" horiz-adv-x="1133" 
d="M502 1489v33q0 34 10.5 56t64 55.5t67 47.5t13.5 33q0 45 -53 45t-53 -59v-14h-115v120q65 47 166 47q178 0 178 -143q0 -59 -20 -84.5t-57 -49.5q-55 -35 -70 -46.5t-15 -36.5v-4h-116zM572 1343q72 0 106.5 27t38.5 88h98q-9 -126 -67 -182.5t-176 -56.5t-177.5 58
t-66.5 181h96q6 -62 41 -88.5t107 -26.5zM406 315q0 -40 24 -65t66 -25q86 0 180 109v192q-147 -58 -208.5 -102t-61.5 -109zM72 276q0 130 62.5 205t184.5 129.5t357 128.5v64q0 65 -27 95t-86 30q-114 0 -114 -129v-35h-314v258q221 117 445 117q289 0 349 -121.5
t60 -255.5v-373q0 -84 13 -118t61 -44v-227h-375v117q-147 -135 -328 -135q-133 0 -210.5 82t-77.5 212z" />
    <glyph glyph-name="aahoanga" unicode="&#x1eb4;" horiz-adv-x="1223" 
d="M752 1952q-50 0 -70 6l-70 20q-18 7 -49 7q-50 0 -67 -60h-88q18 96 56.5 141t102.5 45q32 0 66 -10l74 -18q28 -4 43 -4q47 0 65 67h86q-21 -99 -60 -146.5t-89 -47.5zM618 1718q72 0 107 27t39 88h98q-12 -165 -88 -202.5t-174 -37.5t-158 58.5t-67 181.5h96
q6 -62 40.5 -88.5t106.5 -26.5zM432 332q0 -74 82 -76v-256h-467v256q41 12 59 47.5t33 112.5l215 1106h523l237 -1131q13 -64 31.5 -94t56.5 -41v-256h-518v256q38 3 57 22.5t19 43.5t-4 51l-13 63h-294l-13 -57q-4 -28 -4 -47zM487 653h207l-104 582z" />
    <glyph glyph-name="aathnga" unicode="&#x1eb5;" horiz-adv-x="1133" 
d="M704 1577q-50 0 -69 6l-70 21q-18 6 -49 6q-50 0 -67 -60h-89q20 96 58 141.5t102 45.5q33 0 66 -11l73 -18q30 -4 43 -4q48 0 66 68h86q-21 -100 -60.5 -147.5t-89.5 -47.5zM572 1343q72 0 106.5 27t38.5 88h98q-9 -126 -67 -182.5t-176 -56.5t-177.5 58t-66.5 181h96
q6 -62 41 -88.5t107 -26.5zM406 315q0 -40 24 -65t66 -25q86 0 180 109v192q-147 -58 -208.5 -102t-61.5 -109zM72 276q0 130 62.5 205t184.5 129.5t357 128.5v64q0 65 -27 95t-86 30q-114 0 -114 -129v-35h-314v258q221 117 445 117q289 0 349 -121.5t60 -255.5v-373
q0 -84 13 -118t61 -44v-227h-375v117q-147 -135 -328 -135q-133 0 -210.5 82t-77.5 212z" />
    <glyph glyph-name="aahoanang" unicode="&#x1eb6;" horiz-adv-x="1223" 
d="M481 -221v2q0 51 34.5 88t86.5 37t88.5 -36.5t36.5 -88.5t-36.5 -88.5t-77.5 -36.5t-86.5 27.5t-45.5 95.5zM618 1718q72 0 107 27t39 88h98q-12 -165 -88 -202.5t-174 -37.5t-158 58.5t-67 181.5h96q6 -62 40.5 -88.5t106.5 -26.5zM432 332q0 -74 82 -76v-256h-467v256
q41 12 59 47.5t33 112.5l215 1106h523l237 -1131q13 -64 31.5 -94t56.5 -41v-256h-518v256q38 3 57 22.5t19 43.5t-4 51l-13 63h-294l-13 -57q-4 -28 -4 -47zM487 653h207l-104 582z" />
    <glyph glyph-name="aathnang" unicode="&#x1eb7;" horiz-adv-x="1133" 
d="M444 -238v2q0 51 34 88t86 37t89 -37t37 -88t-36.5 -87.5t-77.5 -36.5t-86.5 27.5t-45.5 94.5zM572 1343q72 0 106.5 27t38.5 88h98q-9 -126 -67 -182.5t-176 -56.5t-177.5 58t-66.5 181h96q6 -62 41 -88.5t107 -26.5zM406 315q0 -40 24 -65t66 -25q86 0 180 109v192
q-147 -58 -208.5 -102t-61.5 -109zM72 276q0 130 62.5 205t184.5 129.5t357 128.5v64q0 65 -27 95t-86 30q-114 0 -114 -129v-35h-314v258q221 117 445 117q289 0 349 -121.5t60 -255.5v-373q0 -84 13 -118t61 -44v-227h-375v117q-147 -135 -328 -135q-133 0 -210.5 82
t-77.5 212z" />
    <glyph glyph-name="ehoanang" unicode="&#x1eb8;" horiz-adv-x="1262" 
d="M514 -229v2q0 51 34.5 88t86.5 37t88.5 -36.5t36.5 -88.5t-38 -88.5t-78 -36.5t-85 27.5t-45 95.5zM102 0v256q64 13 71 55.5t7 102.5v704q0 82 -13 114.5t-65 43.5v246h1072v-465h-330v16q0 90 -40 124t-142 34h-130v-318h416v-256h-416v-366h154q92 0 125 36.5
t33 127.5v55h330v-510h-1072z" />
    <glyph glyph-name="ethnang" unicode="&#x1eb9;" horiz-adv-x="1081" 
d="M424 -248v2q0 51 34.5 88t86.5 37t88.5 -36.5t36.5 -79.5t-27 -88.5t-95 -45.5q-69 0 -96.5 45.5t-27.5 77.5zM416 723v-31h270v45q0 89 -32 131.5t-104 42.5t-103 -45t-31 -143zM416 397q0 -97 30.5 -141.5t104.5 -44.5q135 0 135 160v6h309v-266q-198 -129 -444 -129
q-313 0 -382 128t-69 269v360q0 140 68 270t383 130q235 0 339.5 -96t104.5 -304v-245h-579v-97z" />
    <glyph glyph-name="ehoahoi" unicode="&#x1eba;" horiz-adv-x="1262" 
d="M582 1624v33q0 34 10.5 56t64 55.5t67 47.5t13.5 33q0 45 -53 45t-53 -59v-14h-115v121q67 47 166 47q178 0 178 -144q0 -59 -20 -84t-57 -49q-55 -35 -70 -47t-15 -37v-4h-116zM102 0v256q64 13 71 55.5t7 102.5v704q0 82 -13 114.5t-65 43.5v246h1072v-465h-330v16
q0 90 -40 124t-142 34h-130v-318h416v-256h-416v-366h154q92 0 125 36.5t33 127.5v55h330v-510h-1072z" />
    <glyph glyph-name="ethhoi" unicode="&#x1ebb;" horiz-adv-x="1081" 
d="M461 1241v33q0 34 10.5 56t64 55.5t67 47.5t13.5 33q0 45 -53 45t-53 -59v-14h-115v121q67 47 166 47q178 0 178 -144q0 -59 -20 -84.5t-67 -55.5t-60.5 -41.5t-13.5 -35.5v-4h-117zM416 723v-31h270v45q0 89 -32 131.5t-104 42.5t-103 -45t-31 -143zM416 397
q0 -97 30.5 -141.5t104.5 -44.5q135 0 135 160v6h309v-266q-198 -129 -444 -129q-313 0 -382 128t-69 269v360q0 140 68 270t383 130q235 0 339.5 -96t104.5 -304v-245h-579v-97z" />
    <glyph glyph-name="ehoanga" unicode="&#x1ebc;" horiz-adv-x="1262" 
d="M565 1663q-52 0 -67 -59h-88q18 96 56.5 141t102.5 45q32 0 66 -10l74 -19q28 -4 43 -4q47 0 65 68h86q-21 -98 -60.5 -146.5t-103.5 -48.5q-34 0 -55 6l-70 21q-18 6 -49 6zM102 0v256q64 13 71 55.5t7 102.5v704q0 82 -13 114.5t-65 43.5v246h1072v-465h-330v16
q0 90 -40 124t-142 34h-130v-318h416v-256h-416v-366h154q92 0 125 36.5t33 127.5v55h330v-510h-1072z" />
    <glyph glyph-name="ethnga" unicode="&#x1ebd;" horiz-adv-x="1081" 
d="M465 1280q-49 0 -68 -59h-88q20 96 58 141t102 45q32 0 66 -10l73 -19q30 -4 43 -4q48 0 66 68h86q-21 -98 -60 -146.5t-89 -48.5t-70 6l-70 21q-18 6 -49 6zM416 723v-31h270v45q0 89 -32 131.5t-104 42.5t-103 -45t-31 -143zM416 397q0 -97 30.5 -141.5t104.5 -44.5
q135 0 135 160v6h309v-266q-198 -129 -444 -129q-313 0 -382 128t-69 269v360q0 140 68 270t383 130q235 0 339.5 -96t104.5 -304v-245h-579v-97z" />
    <glyph glyph-name="ebhoasac" unicode="&#x1ebe;" horiz-adv-x="1262" 
d="M1034 2036h207l-250 -264h-112zM553 1864h201l166 -262h-119l-148 153l-149 -153h-117zM102 0v256q64 13 71 55.5t7 102.5v704q0 82 -13 114.5t-65 43.5v246h1072v-465h-330v16q0 90 -40 124t-142 34h-130v-318h416v-256h-416v-366h154q92 0 125 36.5t33 127.5v55h330
v-510h-1072z" />
    <glyph glyph-name="ebthsac" unicode="&#x1ebf;" horiz-adv-x="1081" 
d="M938 1642h207l-250 -264h-113zM457 1470h200l166 -262h-118l-148 154l-149 -154h-117zM416 723v-31h270v45q0 89 -32 131.5t-104 42.5t-103 -45t-31 -143zM416 397q0 -97 30.5 -141.5t104.5 -44.5q135 0 135 160v6h309v-266q-198 -129 -444 -129q-313 0 -382 128t-69 269
v360q0 140 68 270t383 130q235 0 339.5 -96t104.5 -304v-245h-579v-97z" />
    <glyph glyph-name="ebhoahuyen" unicode="&#x1ec0;" horiz-adv-x="1262" 
d="M641 2087h207l156 -264h-113zM553 1864h201l166 -262h-119l-148 153l-149 -153h-117zM102 0v256q64 13 71 55.5t7 102.5v704q0 82 -13 114.5t-65 43.5v246h1072v-465h-330v16q0 90 -40 124t-142 34h-130v-318h416v-256h-416v-366h154q92 0 125 36.5t33 127.5v55h330v-510
h-1072z" />
    <glyph glyph-name="ebthhuyen" unicode="&#x1ec1;" horiz-adv-x="1081" 
d="M545 1694h207l155 -264h-112zM457 1470h200l166 -262h-118l-148 154l-149 -154h-117zM416 723v-31h270v45q0 89 -32 131.5t-104 42.5t-103 -45t-31 -143zM416 397q0 -97 30.5 -141.5t104.5 -44.5q135 0 135 160v6h309v-266q-198 -129 -444 -129q-313 0 -382 128t-69 269
v360q0 140 68 270t383 130q235 0 339.5 -96t104.5 -304v-245h-579v-97z" />
    <glyph glyph-name="ebhoahoi" unicode="&#x1ec2;" horiz-adv-x="1262" 
d="M881 1782v33q0 34 10.5 56t64 55.5t67 47.5t13.5 33q0 45 -53 45t-53 -59v-15h-115v121q65 47 166 47q178 0 178 -143q0 -59 -21.5 -86t-57.5 -49q-52 -32 -67.5 -44.5t-15.5 -37.5v-4h-116zM553 1864h201l166 -262h-119l-148 153l-149 -153h-117zM102 0v256
q64 13 71 55.5t7 102.5v704q0 82 -13 114.5t-65 43.5v246h1072v-465h-330v16q0 90 -40 124t-142 34h-130v-318h416v-256h-416v-366h154q92 0 125 36.5t33 127.5v55h330v-510h-1072z" />
    <glyph glyph-name="ebthhoi" unicode="&#x1ec3;" horiz-adv-x="1081" 
d="M784 1389v32q0 35 9 53t35 36t56 37.5t43 33t13 33.5q0 45 -53 45t-53 -60v-14h-115v121q65 47 166 47q178 0 178 -143q0 -59 -21 -85.5t-57 -49.5t-60 -36.5t-24 -45.5v-4h-117zM457 1470h200l166 -262h-118l-148 154l-149 -154h-117zM416 723v-31h270v45
q0 89 -32 131.5t-104 42.5t-103 -45t-31 -143zM416 397q0 -97 30.5 -141.5t104.5 -44.5q135 0 135 160v6h309v-266q-198 -129 -444 -129q-313 0 -382 128t-69 269v360q0 140 68 270t383 130q235 0 339.5 -96t104.5 -304v-245h-579v-97z" />
    <glyph glyph-name="ebhoanga" unicode="&#x1ec4;" horiz-adv-x="1262" 
d="M567 2005q-52 0 -67 -59h-88q18 96 56.5 141t102.5 45q32 0 66 -10l74 -19q28 -4 43 -4q47 0 65 68h86q-22 -100 -61 -147.5t-103 -47.5q-34 0 -55 6l-70 21q-18 6 -49 6zM553 1864h201l166 -262h-119l-148 153l-149 -153h-117zM102 0v256q64 13 71 55.5t7 102.5v704
q0 82 -13 114.5t-65 43.5v246h1072v-465h-330v16q0 90 -40 124t-142 34h-130v-318h416v-256h-416v-366h154q92 0 125 36.5t33 127.5v55h330v-510h-1072z" />
    <glyph glyph-name="ebthnga" unicode="&#x1ec5;" horiz-adv-x="1081" 
d="M660 1579q-50 0 -70 6l-70 21q-18 6 -49 6q-50 0 -68 -60h-88q20 96 58 141.5t102 45.5q32 0 66 -10l73 -19q30 -4 43 -4q48 0 66 68h86q-21 -100 -60 -147.5t-89 -47.5zM457 1470h200l166 -262h-118l-148 154l-149 -154h-117zM416 723v-31h270v45q0 89 -32 131.5
t-104 42.5t-103 -45t-31 -143zM416 397q0 -97 30.5 -141.5t104.5 -44.5q135 0 135 160v6h309v-266q-198 -129 -444 -129q-313 0 -382 128t-69 269v360q0 140 68 270t383 130q235 0 339.5 -96t104.5 -304v-245h-579v-97z" />
    <glyph glyph-name="ebhoanang" unicode="&#x1ec6;" horiz-adv-x="1262" 
d="M516 -231v2q0 51 34.5 88t86.5 37t88.5 -36.5t36.5 -88.5t-36 -88.5t-78 -36.5t-87 27.5t-45 95.5zM553 1864h201l166 -262h-119l-148 153l-149 -153h-117zM102 0v256q64 13 71 55.5t7 102.5v704q0 82 -13 114.5t-65 43.5v246h1072v-465h-330v16q0 90 -40 124t-142 34
h-130v-318h416v-256h-416v-366h154q92 0 125 36.5t33 127.5v55h330v-510h-1072z" />
    <glyph glyph-name="ebthnang" unicode="&#x1ec7;" horiz-adv-x="1081" 
d="M420 -246v2q0 51 34.5 88t86.5 37t88.5 -36.5t36.5 -79.5t-27 -88.5t-95 -45.5q-69 0 -96.5 45.5t-27.5 77.5zM457 1470h200l166 -262h-118l-148 154l-149 -154h-117zM416 723v-31h270v45q0 89 -32 131.5t-104 42.5t-103 -45t-31 -143zM416 397q0 -97 30.5 -141.5
t104.5 -44.5q135 0 135 160v6h309v-266q-198 -129 -444 -129q-313 0 -382 128t-69 269v360q0 140 68 270t383 130q235 0 339.5 -96t104.5 -304v-245h-579v-97z" />
    <glyph glyph-name="ihoahoi" unicode="&#x1ec8;" horiz-adv-x="725" 
d="M295 1624v33q0 34 11 56.5t64.5 55.5t67 48t13.5 32q0 45 -56 45q-51 0 -51 -59v-14h-115v121q67 47 166 47q178 0 178 -144q0 -58 -19 -83.5t-67 -55.5t-61.5 -42t-13.5 -36v-4h-117zM539 414q0 -60 6.5 -103t68.5 -55v-256h-505v256q63 13 70 55.5t7 102.5v704
q0 82 -13 114.5t-64 43.5v246h505v-246q-62 -12 -68.5 -56t-6.5 -102v-704z" />
    <glyph glyph-name="ithhoi" unicode="&#x1ec9;" horiz-adv-x="633" 
d="M328 1575q178 0 178 -143q0 -59 -21 -85.5t-57 -49.5t-60 -36.5t-24 -46.5v-4h-117v33q0 35 8.5 53t34.5 36t56.5 37.5t43.5 33t13 33.5q1 45 -53 45t-54 -60v-14h-114v121q65 47 166 47zM479 379q0 -78 11.5 -108.5t56.5 -43.5v-227h-451v227q43 7 56.5 44t13.5 126v355
q0 70 -11.5 98t-58.5 45v223h383v-739z" />
    <glyph glyph-name="ihoanang" unicode="&#x1eca;" horiz-adv-x="725" 
d="M238 -229v2q0 51 34 88t86 37t88.5 -36.5t36.5 -88.5t-36.5 -88.5t-77.5 -36.5t-86 27.5t-45 95.5zM539 414q0 -60 6.5 -103t68.5 -55v-256h-505v256q63 13 70 55.5t7 102.5v704q0 82 -13 114.5t-64 43.5v246h505v-246q-62 -12 -68.5 -56t-6.5 -102v-704z" />
    <glyph glyph-name="ithnang" unicode="&#x1ecb;" horiz-adv-x="633" 
d="M199 -229v2q0 51 34.5 88t86.5 37t88 -36.5t36 -88.5t-36.5 -88.5t-77.5 -36.5t-86 27.5t-45 95.5zM180 1352v2q0 51 34.5 88t86.5 37t88.5 -36.5t36.5 -88.5t-36.5 -88.5t-77.5 -36.5t-86.5 27.5t-45.5 95.5zM479 379q0 -78 11.5 -108.5t56.5 -43.5v-227h-451v227
q43 7 56.5 44t13.5 126v355q0 70 -11.5 98t-58.5 45v223h383v-739z" />
    <glyph glyph-name="ohoanang" unicode="&#x1ecc;" horiz-adv-x="1239" 
d="M496 -260v2q0 51 34.5 88t85.5 37t88 -36.5t37 -88.5t-36.5 -88.5t-77.5 -36.5t-86 27.5t-45 95.5zM459 1022v-522q0 -117 37 -170.5t125 -53.5t123.5 54t35.5 170v522q0 115 -35 169t-124 54t-125.5 -53.5t-36.5 -169.5zM109 1010q0 202 37 326.5t177 170t297 45.5
t261.5 -35t162.5 -107t72 -159t14 -241v-498q0 -154 -14 -241t-72 -159q-114 -143 -423 -143q-409 0 -460.5 170t-51.5 373v498z" />
    <glyph glyph-name="othnang" unicode="&#x1ecd;" horiz-adv-x="1100" 
d="M426 -248v2q0 51 34.5 88t86.5 37t88.5 -36.5t36.5 -79.5t-27 -88.5t-95 -45.5q-69 0 -96.5 45.5t-27.5 77.5zM678 723q0 99 -29 143.5t-98 44.5t-99 -45.5t-30 -142.5v-326q0 -98 29 -142t99 -44t99 44t29 142v326zM999 739v-360q0 -141 -68 -269t-381 -128t-381.5 128
t-68.5 269v360q0 140 68 270t383 130q238 0 343 -95t105 -305z" />
    <glyph glyph-name="ohoahoi" unicode="&#x1ece;" horiz-adv-x="1239" 
d="M543 1655v33q0 34 10.5 56t64 55.5t67 47.5t13.5 33q0 45 -53 45t-53 -59v-15h-115v121q65 47 166 47q178 0 178 -143q0 -59 -21.5 -86t-57.5 -49q-52 -32 -67.5 -44.5t-15.5 -37.5v-4h-116zM459 1022v-522q0 -117 37 -170.5t125 -53.5t123.5 54t35.5 170v522
q0 115 -35 169t-124 54t-125.5 -53.5t-36.5 -169.5zM109 1010q0 202 37 326.5t177 170t297 45.5t261.5 -35t162.5 -107t72 -159t14 -241v-498q0 -154 -14 -241t-72 -159q-114 -143 -423 -143q-409 0 -460.5 170t-51.5 373v498z" />
    <glyph glyph-name="othhoi" unicode="&#x1ecf;" horiz-adv-x="1100" 
d="M473 1241v33q0 34 8.5 52.5t34.5 36.5t56 37t43.5 33t13.5 33q0 45 -56 45q-51 0 -51 -59v-14h-114v121q67 47 165 47q179 0 179 -144q0 -59 -19.5 -84.5t-67.5 -55.5t-61.5 -41.5t-13.5 -35.5v-4h-117zM678 723q0 99 -29 143.5t-98 44.5t-99 -45.5t-30 -142.5v-326
q0 -98 29 -142t99 -44t99 44t29 142v326zM999 739v-360q0 -141 -68 -269t-381 -128t-381.5 128t-68.5 269v360q0 140 68 270t383 130q238 0 343 -95t105 -305z" />
    <glyph glyph-name="obhoasac" unicode="&#x1ed0;" horiz-adv-x="1239" 
d="M1012 2044h207l-250 -264h-113zM530 1872h201l166 -262h-119l-147 153l-150 -153h-116zM459 1022v-522q0 -117 37 -170.5t125 -53.5t123.5 54t35.5 170v522q0 115 -35 169t-124 54t-125.5 -53.5t-36.5 -169.5zM109 1010q0 202 37 326.5t177 170t297 45.5t261.5 -35
t162.5 -107t72 -159t14 -241v-498q0 -154 -14 -241t-72 -159q-114 -143 -423 -143q-409 0 -460.5 170t-51.5 373v498z" />
    <glyph glyph-name="obthsac" unicode="&#x1ed1;" horiz-adv-x="1100" 
d="M924 1642h206l-249 -264h-113zM442 1470h201l166 -262h-119l-147 154l-150 -154h-117zM678 723q0 99 -29 143.5t-98 44.5t-99 -45.5t-30 -142.5v-326q0 -98 29 -142t99 -44t99 44t29 142v326zM999 739v-360q0 -141 -68 -269t-381 -128t-381.5 128t-68.5 269v360
q0 140 68 270t383 130q238 0 343 -95t105 -305z" />
    <glyph glyph-name="obhoahuyen" unicode="&#x1ed2;" horiz-adv-x="1239" 
d="M618 2095h207l156 -264h-113zM530 1872h201l166 -262h-119l-147 153l-150 -153h-116zM459 1022v-522q0 -117 37 -170.5t125 -53.5t123.5 54t35.5 170v522q0 115 -35 169t-124 54t-125.5 -53.5t-36.5 -169.5zM109 1010q0 202 37 326.5t177 170t297 45.5t261.5 -35
t162.5 -107t72 -159t14 -241v-498q0 -154 -14 -241t-72 -159q-114 -143 -423 -143q-409 0 -460.5 170t-51.5 373v498z" />
    <glyph glyph-name="obthhuyen" unicode="&#x1ed3;" horiz-adv-x="1100" 
d="M530 1694h207l156 -264h-113zM442 1470h201l166 -262h-119l-147 154l-150 -154h-117zM678 723q0 99 -29 143.5t-98 44.5t-99 -45.5t-30 -142.5v-326q0 -98 29 -142t99 -44t99 44t29 142v326zM999 739v-360q0 -141 -68 -269t-381 -128t-381.5 128t-68.5 269v360
q0 140 68 270t383 130q238 0 343 -95t105 -305z" />
    <glyph glyph-name="obhoahoi" unicode="&#x1ed4;" horiz-adv-x="1239" 
d="M858 1790v33q0 34 9 52.5t35 36.5t55.5 37t43 33t13.5 33q0 45 -56 45q-51 0 -51 -59v-14h-114v120q65 47 165 47q179 0 179 -143q0 -59 -19.5 -84t-67.5 -55t-61.5 -42t-13.5 -36v-4h-117zM530 1872h201l166 -262h-119l-147 153l-150 -153h-116zM459 1022v-522
q0 -117 37 -170.5t125 -53.5t123.5 54t35.5 170v522q0 115 -35 169t-124 54t-125.5 -53.5t-36.5 -169.5zM109 1010q0 202 37 326.5t177 170t297 45.5t261.5 -35t162.5 -107t72 -159t14 -241v-498q0 -154 -14 -241t-72 -159q-114 -143 -423 -143q-409 0 -460.5 170t-51.5 373
v498z" />
    <glyph glyph-name="obthhoi" unicode="&#x1ed5;" horiz-adv-x="1100" 
d="M770 1389v32q0 35 9 53t35 36t56 37.5t43 33t13 33.5q0 45 -56 45q-51 0 -51 -60v-14h-114v121q65 47 165 47q179 0 179 -143q0 -59 -20.5 -85t-68.5 -57t-60.5 -41.5t-12.5 -33.5v-4h-117zM442 1470h201l166 -262h-119l-147 154l-150 -154h-117zM678 723q0 99 -29 143.5
t-98 44.5t-99 -45.5t-30 -142.5v-326q0 -98 29 -142t99 -44t99 44t29 142v326zM999 739v-360q0 -141 -68 -269t-381 -128t-381.5 128t-68.5 269v360q0 140 68 270t383 130q238 0 343 -95t105 -305z" />
    <glyph glyph-name="obhoanga" unicode="&#x1ed6;" horiz-adv-x="1239" 
d="M734 1980q-50 0 -70 7l-70 20q-19 6 -49 6q-52 0 -68 -59h-88q20 96 58 141t102 45q32 0 65 -10l74 -19q28 -4 43 -4q46 0 66 68h86q-21 -98 -60 -146.5t-89 -48.5zM530 1872h201l166 -262h-119l-147 153l-150 -153h-116zM459 1022v-522q0 -117 37 -170.5t125 -53.5
t123.5 54t35.5 170v522q0 115 -35 169t-124 54t-125.5 -53.5t-36.5 -169.5zM109 1010q0 202 37 326.5t177 170t297 45.5t261.5 -35t162.5 -107t72 -159t14 -241v-498q0 -154 -14 -241t-72 -159q-114 -143 -423 -143q-409 0 -460.5 170t-51.5 373v498z" />
    <glyph glyph-name="obthnga" unicode="&#x1ed7;" horiz-adv-x="1100" 
d="M457 1612q-52 0 -68 -60h-88q20 96 58 141.5t102 45.5q32 0 65 -10l74 -19q28 -4 43 -4q46 0 66 68h86q-21 -100 -60 -147.5t-89 -47.5t-71 6l-69 21q-19 6 -49 6zM442 1470h201l166 -262h-119l-147 154l-150 -154h-117zM678 723q0 99 -29 143.5t-98 44.5t-99 -45.5
t-30 -142.5v-326q0 -98 29 -142t99 -44t99 44t29 142v326zM999 739v-360q0 -141 -68 -269t-381 -128t-381.5 128t-68.5 269v360q0 140 68 270t383 130q238 0 343 -95t105 -305z" />
    <glyph glyph-name="obhoanang" unicode="&#x1ed8;" horiz-adv-x="1239" 
d="M504 -254v2q0 51 34.5 88t86.5 37t88.5 -36.5t36.5 -88.5t-38 -88.5t-78 -36.5t-85 27t-45 96zM530 1872h201l166 -262h-119l-147 153l-150 -153h-116zM459 1022v-522q0 -117 37 -170.5t125 -53.5t123.5 54t35.5 170v522q0 115 -35 169t-124 54t-125.5 -53.5
t-36.5 -169.5zM109 1010q0 202 37 326.5t177 170t297 45.5t261.5 -35t162.5 -107t72 -159t14 -241v-498q0 -154 -14 -241t-72 -159q-114 -143 -423 -143q-409 0 -460.5 170t-51.5 373v498z" />
    <glyph glyph-name="obthnang" unicode="&#x1ed9;" horiz-adv-x="1100" 
d="M426 -246v2q0 51 34.5 88t86.5 37t88.5 -36.5t36.5 -79.5t-27 -88.5t-95 -45.5q-69 0 -96.5 45.5t-27.5 77.5zM442 1470h201l166 -262h-119l-147 154l-150 -154h-117zM678 723q0 99 -29 143.5t-98 44.5t-99 -45.5t-30 -142.5v-326q0 -98 29 -142t99 -44t99 44t29 142v326
zM999 739v-360q0 -141 -68 -269t-381 -128t-381.5 128t-68.5 269v360q0 140 68 270t383 130q238 0 343 -95t105 -305z" />
    <glyph glyph-name="ochoasac" unicode="&#x1eda;" horiz-adv-x="1239" 
d="M635 1929h207l-250 -264h-113zM459 1022v-522q0 -117 37 -170.5t125 -53.5t123.5 54t35.5 170v522q0 115 -35 169t-124 54t-125.5 -53.5t-36.5 -169.5zM109 1010q0 202 37 326.5t177 170t286 45.5t227 -19.5t153 -68.5q69 -52 117 -164q34 6 56 28t22 56v166h143v-176
q0 -93 -63 -139.5t-140 -50.5q6 -76 6 -174v-498q0 -154 -14 -241t-72 -159q-114 -143 -423 -143q-409 0 -460.5 170t-51.5 373v498z" />
    <glyph glyph-name="octhsac" unicode="&#x1edb;" horiz-adv-x="1100" 
d="M575 1495h207l-250 -264h-112zM678 723q0 99 -29 143.5t-98 44.5t-99 -45.5t-30 -142.5v-326q0 -98 29 -142t99 -44t99 44t29 142v326zM999 739v-360q0 -141 -68 -269t-381 -128t-381.5 128t-68.5 269v360q0 140 68 270t383 130q179 0 286 -54.5t140 -177.5q29 5 49.5 28
t20.5 56v148h141v-162q-3 -70 -61.5 -106.5t-133.5 -41.5q6 -16 6 -90z" />
    <glyph glyph-name="ochoahuyen" unicode="&#x1edc;" horiz-adv-x="1239" 
d="M395 1929h207l156 -264h-113zM459 1022v-522q0 -117 37 -170.5t125 -53.5t123.5 54t35.5 170v522q0 115 -35 169t-124 54t-125.5 -53.5t-36.5 -169.5zM109 1010q0 202 37 326.5t177 170t286 45.5t227 -19.5t153 -68.5q69 -52 117 -164q34 6 56 28t22 56v166h143v-176
q0 -93 -63 -139.5t-140 -50.5q6 -76 6 -174v-498q0 -154 -14 -241t-72 -159q-114 -143 -423 -143q-409 0 -460.5 170t-51.5 373v498z" />
    <glyph glyph-name="octhhuyen" unicode="&#x1edd;" horiz-adv-x="1100" 
d="M356 1495h207l156 -264h-113zM678 723q0 99 -29 143.5t-98 44.5t-99 -45.5t-30 -142.5v-326q0 -98 29 -142t99 -44t99 44t29 142v326zM999 739v-360q0 -141 -68 -269t-381 -128t-381.5 128t-68.5 269v360q0 140 68 270t383 130q179 0 286 -54.5t140 -177.5q29 5 49.5 28
t20.5 56v148h141v-162q-3 -70 -61.5 -106.5t-133.5 -41.5q6 -16 6 -90z" />
    <glyph glyph-name="ochoahoi" unicode="&#x1ede;" horiz-adv-x="1239" 
d="M543 1655v33q0 34 10.5 56t64 55.5t67 47.5t13.5 33q0 45 -53 45t-53 -59v-15h-115v121q65 47 166 47q178 0 178 -143q0 -59 -21.5 -86t-57.5 -49q-52 -32 -67.5 -44.5t-15.5 -37.5v-4h-116zM459 1022v-522q0 -117 37 -170.5t125 -53.5t123.5 54t35.5 170v522
q0 115 -35 169t-124 54t-125.5 -53.5t-36.5 -169.5zM109 1010q0 202 37 326.5t177 170t286 45.5t227 -19.5t153 -68.5q69 -52 117 -164q34 6 56 28t22 56v166h143v-176q0 -93 -63 -139.5t-140 -50.5q6 -76 6 -174v-498q0 -154 -14 -241t-72 -159q-114 -143 -423 -143
q-409 0 -460.5 170t-51.5 373v498z" />
    <glyph glyph-name="octhhoi" unicode="&#x1edf;" horiz-adv-x="1100" 
d="M473 1241v33q0 34 8.5 52.5t34.5 36.5t56 37t43.5 33t13.5 33q0 45 -56 45q-51 0 -51 -59v-14h-114v121q67 47 165 47q179 0 179 -144q0 -59 -19.5 -84.5t-67.5 -55.5t-61.5 -41.5t-13.5 -35.5v-4h-117zM678 723q0 99 -29 143.5t-98 44.5t-99 -45.5t-30 -142.5v-326
q0 -98 29 -142t99 -44t99 44t29 142v326zM999 739v-360q0 -141 -68 -269t-381 -128t-381.5 128t-68.5 269v360q0 140 68 270t383 130q179 0 286 -54.5t140 -177.5q29 5 49.5 28t20.5 56v148h141v-162q-3 -70 -61.5 -106.5t-133.5 -41.5q6 -16 6 -90z" />
    <glyph glyph-name="ochoanga" unicode="&#x1ee0;" horiz-adv-x="1239" 
d="M547 1704q-49 0 -68 -59h-88q20 96 58 141t102 45q32 0 65 -10l74 -19q30 -4 43 -4q46 0 66 68h86q-21 -98 -60 -146.5t-89 -48.5t-70 6l-70 21q-18 6 -49 6zM459 1022v-522q0 -117 37 -170.5t125 -53.5t123.5 54t35.5 170v522q0 115 -35 169t-124 54t-125.5 -53.5
t-36.5 -169.5zM109 1010q0 202 37 326.5t177 170t286 45.5t227 -19.5t153 -68.5q69 -52 117 -164q34 6 56 28t22 56v166h143v-176q0 -93 -63 -139.5t-140 -50.5q6 -76 6 -174v-498q0 -154 -14 -241t-72 -159q-114 -143 -423 -143q-409 0 -460.5 170t-51.5 373v498z" />
    <glyph glyph-name="octhnga" unicode="&#x1ee1;" horiz-adv-x="1100" 
d="M646 1247q-50 0 -71 6l-69 21q-19 6 -49 6q-52 0 -68 -59h-88q20 96 58 141t102 45q32 0 65 -10l74 -19q28 -4 43 -4q46 0 66 68h86q-21 -98 -60 -146.5t-89 -48.5zM678 723q0 99 -29 143.5t-98 44.5t-99 -45.5t-30 -142.5v-326q0 -98 29 -142t99 -44t99 44t29 142v326z
M999 739v-360q0 -141 -68 -269t-381 -128t-381.5 128t-68.5 269v360q0 140 68 270t383 130q179 0 286 -54.5t140 -177.5q29 5 49.5 28t20.5 56v148h141v-162q-3 -70 -61.5 -106.5t-133.5 -41.5q6 -16 6 -90z" />
    <glyph glyph-name="ochoanang" unicode="&#x1ee2;" horiz-adv-x="1239" 
d="M496 -260v2q0 51 34.5 88t85.5 37t88 -36.5t37 -88.5t-36.5 -88.5t-77.5 -36.5t-86 27.5t-45 95.5zM459 1022v-522q0 -117 37 -170.5t125 -53.5t123.5 54t35.5 170v522q0 115 -35 169t-124 54t-125.5 -53.5t-36.5 -169.5zM109 1010q0 202 37 326.5t177 170t286 45.5
t227 -19.5t153 -68.5q69 -52 117 -164q34 6 56 28t22 56v166h143v-176q0 -93 -63 -139.5t-140 -50.5q6 -76 6 -174v-498q0 -154 -14 -241t-72 -159q-114 -143 -423 -143q-409 0 -460.5 170t-51.5 373v498z" />
    <glyph glyph-name="octhnang" unicode="&#x1ee3;" horiz-adv-x="1100" 
d="M426 -248v2q0 51 34.5 88t86.5 37t88.5 -36.5t36.5 -79.5t-27 -88.5t-95 -45.5q-69 0 -96.5 45.5t-27.5 77.5zM678 723q0 99 -29 143.5t-98 44.5t-99 -45.5t-30 -142.5v-326q0 -98 29 -142t99 -44t99 44t29 142v326zM999 739v-360q0 -141 -68 -269t-381 -128t-381.5 128
t-68.5 269v360q0 140 68 270t383 130q179 0 286 -54.5t140 -177.5q29 5 49.5 28t20.5 56v148h141v-162q-3 -70 -61.5 -106.5t-133.5 -41.5q6 -16 6 -90z" />
    <glyph glyph-name="uhoanang" unicode="&#x1ee4;" horiz-adv-x="1327" 
d="M551 -240v2q0 51 34.5 88t86.5 37t88.5 -36.5t36.5 -88.5t-37.5 -88t-77.5 -36t-85.5 27.5t-45.5 94.5zM94 1522h510v-246q-50 -16 -64 -56t-14 -128v-590q0 -154 51 -190t109 -36q166 0 166 220v639q0 67 -17.5 98t-62.5 43v246h461v-246q-51 -11 -66.5 -46.5
t-15.5 -115.5v-631q0 -172 -27.5 -243.5t-77.5 -131.5t-148.5 -99.5t-228.5 -39.5q-265 0 -378 128.5t-113 410.5v614q0 74 -14.5 104t-69.5 50v246z" />
    <glyph glyph-name="uthnang" unicode="&#x1ee5;" horiz-adv-x="1204" 
d="M477 -225v2q0 51 34.5 88t86.5 37t88.5 -36.5t36.5 -88.5t-36.5 -88.5t-77.5 -36.5t-86.5 27.5t-45.5 95.5zM455 782v-352q0 -105 31 -156t101 -51t142 56v460q0 79 -12 110t-58 42v227h381v-749q0 -90 18 -112t52 -34v-223h-381v72q-132 -78 -256 -78t-197.5 42.5
t-104 127.5t-30.5 225v340q0 80 -10.5 117t-40.5 45v227h332q33 -90 33 -336z" />
    <glyph glyph-name="uhoahoi" unicode="&#x1ee6;" horiz-adv-x="1327" 
d="M639 1624v33q0 34 11 56.5t64.5 55.5t67 48t13.5 32q0 45 -56 45q-51 0 -51 -59v-14h-115v121q67 47 166 47q179 0 179 -144q0 -59 -19.5 -84t-67.5 -55t-61.5 -42t-13.5 -36v-4h-117zM94 1522h510v-246q-50 -16 -64 -56t-14 -128v-590q0 -154 51 -190t109 -36
q166 0 166 220v639q0 67 -17.5 98t-62.5 43v246h461v-246q-51 -11 -66.5 -46.5t-15.5 -115.5v-631q0 -172 -27.5 -243.5t-77.5 -131.5t-148.5 -99.5t-228.5 -39.5q-265 0 -378 128.5t-113 410.5v614q0 74 -14.5 104t-69.5 50v246z" />
    <glyph glyph-name="uthhoi" unicode="&#x1ee7;" horiz-adv-x="1204" 
d="M504 1210v33q0 35 10.5 56.5t64.5 55.5t67 47.5t13 33.5q0 45 -53 45t-53 -60v-14h-115v121q65 47 166 47q178 0 178 -143q0 -59 -21 -85.5t-69 -56.5t-59.5 -41t-11.5 -35v-4h-117zM455 782v-352q0 -105 31 -156t101 -51t142 56v460q0 79 -12 110t-58 42v227h381v-749
q0 -90 18 -112t52 -34v-223h-381v72q-132 -78 -256 -78t-197.5 42.5t-104 127.5t-30.5 225v340q0 80 -10.5 117t-40.5 45v227h332q33 -90 33 -336z" />
    <glyph glyph-name="uchoasac" unicode="&#x1ee8;" horiz-adv-x="1327" 
d="M772 1888h207l-250 -264h-113zM94 1522h510v-246q-50 -16 -64 -56t-14 -128v-590q0 -154 51 -190t109 -36q166 0 166 220v639q0 67 -17.5 98t-62.5 43v246h379v-250q34 5 56 27.5t22 56.5v166h143v-176q-1 -93 -71 -140t-150 -51v-672q0 -172 -27.5 -243.5t-77.5 -131.5
t-148.5 -99.5t-228.5 -39.5q-265 0 -378 128.5t-113 410.5v614q0 74 -14.5 104t-69.5 50v246z" />
    <glyph glyph-name="ucthsac" unicode="&#x1ee9;" horiz-adv-x="1204" 
d="M657 1466h207l-250 -264h-112zM455 782v-352q0 -105 31 -156t101 -51t142 56v460q0 79 -12 110t-58 42v227h381v-235q34 5 56 27.5t22 56.5v151h144v-166q-8 -70 -77 -106.5t-145 -40.5v-436q0 -90 18 -112t52 -34v-223h-381v72q-132 -78 -256 -78t-197.5 42.5
t-104 127.5t-30.5 225v340q0 80 -10.5 117t-40.5 45v227h332q33 -90 33 -336z" />
    <glyph glyph-name="uchoahuyen" unicode="&#x1eea;" horiz-adv-x="1327" 
d="M420 1878h207l155 -264h-112zM94 1522h510v-246q-50 -16 -64 -56t-14 -128v-590q0 -154 51 -190t109 -36q166 0 166 220v639q0 67 -17.5 98t-62.5 43v246h379v-250q34 5 56 27.5t22 56.5v166h143v-176q-1 -93 -71 -140t-150 -51v-672q0 -172 -27.5 -243.5t-77.5 -131.5
t-148.5 -99.5t-228.5 -39.5q-265 0 -378 128.5t-113 410.5v614q0 74 -14.5 104t-69.5 50v246z" />
    <glyph glyph-name="ucthhuyen" unicode="&#x1eeb;" horiz-adv-x="1204" 
d="M346 1487h207l156 -264h-113zM455 782v-352q0 -105 31 -156t101 -51t142 56v460q0 79 -12 110t-58 42v227h381v-235q34 5 56 27.5t22 56.5v151h144v-166q-8 -70 -77 -106.5t-145 -40.5v-436q0 -90 18 -112t52 -34v-223h-381v72q-132 -78 -256 -78t-197.5 42.5t-104 127.5
t-30.5 225v340q0 80 -10.5 117t-40.5 45v227h332q33 -90 33 -336z" />
    <glyph glyph-name="uchoahoi" unicode="&#x1eec;" horiz-adv-x="1327" 
d="M639 1624v33q0 34 11 56.5t64.5 55.5t67 48t13.5 32q0 45 -56 45q-51 0 -51 -59v-14h-115v121q67 47 166 47q179 0 179 -144q0 -59 -19.5 -84t-67.5 -55t-61.5 -42t-13.5 -36v-4h-117zM94 1522h510v-246q-50 -16 -64 -56t-14 -128v-590q0 -154 51 -190t109 -36
q166 0 166 220v639q0 67 -17.5 98t-62.5 43v246h379v-250q34 5 56 27.5t22 56.5v166h143v-176q-1 -93 -71 -140t-150 -51v-672q0 -172 -27.5 -243.5t-77.5 -131.5t-148.5 -99.5t-228.5 -39.5q-265 0 -378 128.5t-113 410.5v614q0 74 -14.5 104t-69.5 50v246z" />
    <glyph glyph-name="ucthhoi" unicode="&#x1eed;" horiz-adv-x="1204" 
d="M625 1577q178 0 178 -143q0 -59 -21 -85.5t-57 -49.5t-60 -36.5t-24 -45.5v-5h-117v33q0 35 9 53t35 36t56 37.5t43 33t13 33.5q0 45 -54 45t-53 -60v-14h-114v121q65 47 166 47zM455 782v-352q0 -105 31 -156t101 -51t142 56v460q0 79 -12 110t-58 42v227h381v-235
q34 5 56 27.5t22 56.5v151h144v-166q-8 -70 -77 -106.5t-145 -40.5v-436q0 -90 18 -112t52 -34v-223h-381v72q-132 -78 -256 -78t-197.5 42.5t-104 127.5t-30.5 225v340q0 80 -10.5 117t-40.5 45v227h332q33 -90 33 -336z" />
    <glyph glyph-name="uchoanga" unicode="&#x1eee;" horiz-adv-x="1327" 
d="M592 1673q-49 0 -68 -59h-88q20 96 58 141t102 45q32 0 66 -10l73 -18q25 -5 43 -5q46 0 66 68h86q-21 -98 -60.5 -146.5t-89.5 -48.5t-69 7l-70 20q-18 6 -49 6zM94 1522h510v-246q-50 -16 -64 -56t-14 -128v-590q0 -154 51 -190t109 -36q166 0 166 220v639
q0 67 -17.5 98t-62.5 43v246h379v-250q34 5 56 27.5t22 56.5v166h143v-176q-1 -93 -71 -140t-150 -51v-672q0 -172 -27.5 -243.5t-77.5 -131.5t-148.5 -99.5t-228.5 -39.5q-265 0 -378 128.5t-113 410.5v614q0 74 -14.5 104t-69.5 50v246z" />
    <glyph glyph-name="ucthnga" unicode="&#x1eef;" horiz-adv-x="1204" 
d="M498 1272q-52 0 -68 -60h-88q20 96 58 141.5t102 45.5q32 0 65 -10l74 -19q28 -4 43 -4q46 0 66 68h86q-21 -98 -60.5 -146.5t-89.5 -48.5t-70 6l-69 21q-19 6 -49 6zM455 782v-352q0 -105 31 -156t101 -51t142 56v460q0 79 -12 110t-58 42v227h381v-235q34 5 56 27.5
t22 56.5v151h144v-166q-8 -70 -77 -106.5t-145 -40.5v-436q0 -90 18 -112t52 -34v-223h-381v72q-132 -78 -256 -78t-197.5 42.5t-104 127.5t-30.5 225v340q0 80 -10.5 117t-40.5 45v227h332q33 -90 33 -336z" />
    <glyph glyph-name="uchoanang" unicode="&#x1ef0;" horiz-adv-x="1327" 
d="M551 -240v2q0 51 34.5 88t86.5 37t88.5 -36.5t36.5 -88.5t-37.5 -88t-77.5 -36t-85.5 27.5t-45.5 94.5zM94 1522h510v-246q-50 -16 -64 -56t-14 -128v-590q0 -154 51 -190t109 -36q166 0 166 220v639q0 67 -17.5 98t-62.5 43v246h379v-250q34 5 56 27.5t22 56.5v166h143
v-176q-1 -93 -71 -140t-150 -51v-672q0 -172 -27.5 -243.5t-77.5 -131.5t-148.5 -99.5t-228.5 -39.5q-265 0 -378 128.5t-113 410.5v614q0 74 -14.5 104t-69.5 50v246z" />
    <glyph glyph-name="ucthnang" unicode="&#x1ef1;" horiz-adv-x="1204" 
d="M498 -233v2q0 51 34 88t86 37t88.5 -36.5t36.5 -88.5t-36.5 -88.5t-77.5 -36.5t-86 27.5t-45 95.5zM455 782v-352q0 -105 31 -156t101 -51t142 56v460q0 79 -12 110t-58 42v227h381v-235q34 5 56 27.5t22 56.5v151h144v-166q-8 -70 -77 -106.5t-145 -40.5v-436
q0 -90 18 -112t52 -34v-223h-381v72q-132 -78 -256 -78t-197.5 42.5t-104 127.5t-30.5 225v340q0 80 -10.5 117t-40.5 45v227h332q33 -90 33 -336z" />
    <glyph glyph-name="yhoahuyen" unicode="&#x1ef2;" horiz-adv-x="1128" 
d="M319 1888h207l156 -264h-113zM319 0v256q44 9 62 42t18 101v185l-295 602q-37 79 -81 90v246h446v-187q0 -100 29 -161l102 -211l100 202q33 66 33 170v187h391v-246q-42 -13 -82 -88l-292 -586v-199q0 -77 13.5 -108.5t63.5 -38.5v-256h-508z" />
    <glyph glyph-name="ythhuyen" unicode="&#x1ef3;" horiz-adv-x="1049" 
d="M270 1475h207l156 -265h-113zM223 -160h8q57 0 89 22.5t53 80.5l-275 843q-30 98 -75 109v223h438v-223q-41 -11 -41 -57q0 -18 6 -45l119 -496l106 496q6 21 6 52t-41 50v223h412v-223q-30 -11 -44 -32.5t-28 -67.5l-206 -750q-67 -248 -152 -354.5t-248 -106.5
q-74 0 -127 13v243z" />
    <glyph glyph-name="yhoanang" unicode="&#x1ef4;" horiz-adv-x="1128" 
d="M440 -219v2q0 51 34 88t86 37t89 -37t37 -89t-36.5 -88t-77.5 -36t-86.5 27.5t-45.5 95.5zM319 0v256q44 9 62 42t18 101v185l-295 602q-37 79 -81 90v246h446v-187q0 -100 29 -161l102 -211l100 202q33 66 33 170v187h391v-246q-42 -13 -82 -88l-292 -586v-199
q0 -77 13.5 -108.5t63.5 -38.5v-256h-508z" />
    <glyph glyph-name="ythnang" unicode="&#x1ef5;" horiz-adv-x="1049" 
d="M760 -287v2q0 51 34.5 88t86.5 37t88.5 -36.5t36.5 -79.5t-27 -88.5t-95 -45.5q-69 0 -96.5 45.5t-27.5 77.5zM223 -160h8q57 0 89 22.5t53 80.5l-275 843q-30 98 -75 109v223h438v-223q-41 -11 -41 -57q0 -18 6 -45l119 -496l106 496q6 21 6 52t-41 50v223h412v-223
q-30 -11 -44 -32.5t-28 -67.5l-206 -750q-67 -248 -152 -354.5t-248 -106.5q-74 0 -127 13v243z" />
    <glyph glyph-name="yhoahoi" unicode="&#x1ef6;" horiz-adv-x="1128" 
d="M539 1614v33q0 34 10.5 56t64 55.5t67 47.5t13.5 33q0 45 -53 45t-53 -59v-15h-115v121q65 47 166 47q178 0 178 -143q0 -59 -21.5 -86t-57.5 -49q-52 -32 -67.5 -44.5t-15.5 -37.5v-4h-116zM319 0v256q44 9 62 42t18 101v185l-295 602q-37 79 -81 90v246h446v-187
q0 -100 29 -161l102 -211l100 202q33 66 33 170v187h391v-246q-42 -13 -82 -88l-292 -586v-199q0 -77 13.5 -108.5t63.5 -38.5v-256h-508z" />
    <glyph glyph-name="ythhoi" unicode="&#x1ef7;" horiz-adv-x="1049" 
d="M580 1575q178 0 178 -143q0 -59 -21 -85.5t-57 -49.5t-60 -36.5t-24 -46.5v-4h-117v33q0 35 8.5 53t34.5 36t56.5 37.5t43.5 33t13 33.5q1 45 -53 45t-54 -60v-14h-114v121q65 47 166 47zM223 -160h8q57 0 89 22.5t53 80.5l-275 843q-30 98 -75 109v223h438v-223
q-41 -11 -41 -57q0 -18 6 -45l119 -496l106 496q6 21 6 52t-41 50v223h412v-223q-30 -11 -44 -32.5t-28 -67.5l-206 -750q-67 -248 -152 -354.5t-248 -106.5q-74 0 -127 13v243z" />
    <glyph glyph-name="yhoanga" unicode="&#x1ef8;" horiz-adv-x="1128" 
d="M512 1663q-49 0 -68 -59h-88q20 96 58 141t102 45q32 0 66 -10l73 -19q30 -4 43 -4q48 0 66 68h86q-21 -98 -60.5 -146.5t-89.5 -48.5t-69 6l-70 21q-18 6 -49 6zM319 0v256q44 9 62 42t18 101v185l-295 602q-37 79 -81 90v246h446v-187q0 -100 29 -161l102 -211l100 202
q33 66 33 170v187h391v-246q-42 -13 -82 -88l-292 -586v-199q0 -77 13.5 -108.5t63.5 -38.5v-256h-508z" />
    <glyph glyph-name="ythnga" unicode="&#x1ef9;" horiz-adv-x="1049" 
d="M652 1227q-50 0 -70 6l-70 20q-18 7 -49 7q-50 0 -68 -60h-88q20 96 58 141t102 45q32 0 65 -10l74 -18q30 -4 43 -4q47 0 66 67h86q-21 -99 -60 -146.5t-89 -47.5zM223 -160h8q57 0 89 22.5t53 80.5l-275 843q-30 98 -75 109v223h438v-223q-41 -11 -41 -57q0 -18 6 -45
l119 -496l106 496q6 21 6 52t-41 50v223h412v-223q-30 -11 -44 -32.5t-28 -67.5l-206 -750q-67 -248 -152 -354.5t-248 -106.5q-74 0 -127 13v243z" />
    <glyph glyph-name="emdash" unicode="&#x2013;" horiz-adv-x="1024" 
d="M0 475v203h1024v-203h-1024z" />
    <glyph glyph-name="endash" unicode="&#x2014;" horiz-adv-x="2048" 
d="M0 475v203h2048v-203h-2048z" />
    <glyph glyph-name="quoteleft" unicode="&#x2018;" horiz-adv-x="555" 
d="M430 1228q0 -38 -30 -89.5t-106 -51.5t-118.5 45.5t-42.5 121.5t48 155t141 143l55 -63q-71 -54 -90 -127q90 0 116.5 -48t26.5 -86z" />
    <glyph glyph-name="quoteright" unicode="&#x2019;" horiz-adv-x="555" 
d="M133 1412q0 61 42.5 100.5t106.5 39.5t106 -45t42 -123t-48.5 -156.5t-139.5 -140.5l-56 64q71 53 90 127q-66 0 -104.5 36.5t-38.5 97.5z" />
    <glyph glyph-name="quotesinglbase" unicode="&#x201a;" horiz-adv-x="555" 
d="M164 140q0 61 42 101t106 40t106.5 -45t42.5 -123t-49.5 -157t-139.5 -140l-55 63q71 54 90 127q-66 0 -104.5 36.5t-38.5 97.5z" />
    <glyph glyph-name="quotedblleft" unicode="&#x201c;" horiz-adv-x="934" 
d="M430 1238q0 -50 -30 -100.5t-106 -50.5t-118.5 45.5t-42.5 121.5t48 155t141 143l55 -63q-74 -56 -92 -127q66 0 105.5 -37t39.5 -87zM809 1228q0 -38 -30.5 -89.5t-105.5 -51.5q-76 0 -118.5 45.5t-42.5 121.5t48.5 155.5t139.5 142.5l56 -63q-73 -58 -90 -127
q90 0 116.5 -48t26.5 -86z" />
    <glyph glyph-name="quotedblright" unicode="&#x201d;" horiz-adv-x="934" 
d="M512 1412q0 61 42 100.5t106 39.5t106.5 -45t42.5 -123t-49 -156.5t-139 -140.5l-56 64q71 54 90 127q-66 0 -104.5 36.5t-38.5 97.5zM131 1412q0 60 42.5 100t106.5 40t106 -45t42 -123t-49 -156.5t-139 -140.5l-54 64q71 53 90 127q-66 0 -105.5 37t-39.5 97z" />
    <glyph glyph-name="quotedblbase" unicode="&#x201e;" horiz-adv-x="934" 
d="M543 140q0 61 42 101t106 40t106.5 -45t42.5 -123t-49.5 -157t-139.5 -140l-55 63q71 54 90 127q-66 0 -104.5 36.5t-38.5 97.5zM164 140q0 61 42 101t106 40t106.5 -45t42.5 -123t-49.5 -157t-139.5 -140l-55 63q71 54 90 127q-66 0 -104.5 36.5t-38.5 97.5z" />
    <glyph glyph-name="dagger" unicode="&#x2020;" horiz-adv-x="1024" 
d="M369 0v918h-312v227h312v377h284v-377h314v-227h-314v-918h-284z" />
    <glyph glyph-name="daggerdbl" unicode="&#x2021;" horiz-adv-x="1024" 
d="M369 0v356h-312v201h312v416h-312v201h312v348h284v-348h314v-201h-314v-416h314v-201h-314v-356h-284z" />
    <glyph glyph-name="bullet" unicode="&#x2022;" horiz-adv-x="1208" 
d="M307 761q0 80 39.5 148.5t108.5 108t149 39.5t147.5 -39.5t107.5 -108t40 -147.5t-40 -147.5t-108.5 -109t-148.5 -40.5t-148 39.5t-107.5 108t-39.5 148.5z" />
    <glyph glyph-name="ellipsis" unicode="&#x2026;" horiz-adv-x="2048" 
d="M1544 132q0 52 22.5 90.5t60.5 61.5t94 23t102.5 -48.5t46.5 -116.5t-47 -114t-113 -46t-116 49t-50 101zM860 132q0 52 22.5 90.5t60.5 61.5t94 23t102.5 -48.5t46.5 -116.5t-47 -114t-113 -46t-116 49t-50 101zM178 132q0 52 22.5 90.5t60.5 61.5t94 23t102.5 -48.5
t46.5 -116.5t-47 -114t-113 -46t-116 49t-50 101z" />
    <glyph glyph-name="perthousand" unicode="&#x2030;" horiz-adv-x="2370" 
d="M2001 582q-86 0 -86 -121v-217q0 -121 86 -121t86 121v217q0 121 -86 121zM1688 424q0 109 30.5 170t97 87t184.5 26t184.5 -26t97 -87t30.5 -170v-145q0 -110 -31 -170.5t-98.5 -85.5t-183.5 -25t-183 25t-97.5 85.5t-30.5 170.5v145zM1327 461q0 121 -85 121t-85 -121
v-217q0 -121 85 -121t85 121v217zM928 424q0 109 31 170t98 87t185 26t184.5 -26t97 -87t30.5 -170v-145q0 -110 -31 -170.5t-98.5 -85.5t-183.5 -25t-183.5 25t-98.5 85.5t-31 170.5v145zM369 1397q-86 0 -86 -119v-219q0 -119 86 -119t86 119v219q0 119 -86 119zM55 1241
q0 107 29 168.5t96 87t185 25.5t185.5 -25t98.5 -86t31 -170v-145q0 -108 -30.5 -169t-97 -86.5t-186.5 -25.5t-186.5 26t-95.5 86.5t-29 168.5v145zM494 0h-256l876 1522h256z" />
    <glyph glyph-name="guilsinglleft" unicode="&#x2039;" horiz-adv-x="578" 
d="M264 203l-149 375l149 374h217l-143 -374l143 -375h-217z" />
    <glyph glyph-name="guilsinglright" unicode="&#x203a;" horiz-adv-x="578" 
d="M313 203h-215l144 375l-144 374h215l152 -374z" />
    <glyph glyph-name="trademark" unicode="&#x2122;" horiz-adv-x="1706" 
d="M803 1462h196l127 -332l123 332h197v-547h-135v410l-154 -410h-61l-158 410v-410h-135v547zM207 1462h485v-112h-168v-435h-149v435h-168v112z" />
    <glyph glyph-name="absachoa" unicode="&#xf006;" 
d="M-231 2030h206l-249 -265h-113z" />
    <glyph glyph-name="sac" unicode="&#xf008;" horiz-adv-x="2" 
d="M-305 1477h207l-250 -265h-113z" />
    <glyph glyph-name="aasacth" unicode="&#xf009;" 
d="M-481 1741h207l-250 -264h-113z" />
    <glyph glyph-name="asacth" unicode="&#xf00a;" 
d="M-494 1505h207l-250 -264h-112z" />
    <glyph glyph-name="abhuyenhoa" unicode="&#xf00b;" 
d="M-594 2060h207l156 -264h-113z" />
    <glyph glyph-name="huyen" unicode="&#xf00d;" horiz-adv-x="2" 
d="M-510 1487h207l156 -264h-113z" />
    <glyph glyph-name="aahuyenth" unicode="&#xf00e;" 
d="M-844 1751h207l156 -264h-113z" />
    <glyph glyph-name="ahuyenth" unicode="&#xf00f;" 
d="M-774 1505h207l155 -264h-112z" />
    <glyph glyph-name="abhoihoa" unicode="&#xf010;" 
d="M-385 1776v32q0 35 11 57.5t64.5 55.5t67 48t13.5 32q0 45 -56 45q-51 0 -51 -59v-15h-115v121q65 47 166 47q179 0 179 -143q0 -59 -20 -85t-70 -58t-61 -41t-11 -33v-4h-117z" />
    <glyph glyph-name="ahoihoa" unicode="&#xf011;" 
d="M-709 1640v33q0 35 8.5 53t34.5 36t56.5 37.5t43.5 33t13 33.5q0 45 -53 45t-53 -60v-14h-115v121q65 47 166 47q178 0 178 -143q0 -59 -21 -85.5t-57 -49.5t-60 -36.5t-24 -45.5v-5h-117z" />
    <glyph glyph-name="hoi" unicode="&#xf012;" horiz-adv-x="2" 
d="M-276 1585q178 0 178 -143q0 -59 -20 -84.5t-70 -57.5t-61 -41.5t-11 -33.5v-4h-117v32q0 35 8.5 53.5t34.5 36.5t56 37t43.5 33t13.5 33q1 45 -53 45t-54 -59v-15h-114v121q65 47 166 47z" />
    <glyph glyph-name="aahoith" unicode="&#xf013;" 
d="M-635 1487v33q0 34 8.5 52.5t34.5 36.5t56 37t43.5 33t13.5 33q0 45 -56 45q-51 0 -51 -59v-15h-114v121q65 47 165 47q179 0 179 -143q0 -59 -21 -85.5t-67 -55.5t-60 -40.5t-14 -35.5v-4h-117z" />
    <glyph glyph-name="ahoith" unicode="&#xf014;" 
d="M-637 1241v33q0 34 8.5 52.5t34.5 36.5t56 37t43.5 33t13.5 33q0 45 -56 45q-51 0 -51 -59v-14h-114v121q67 47 165 47q179 0 179 -144q0 -59 -19.5 -84.5t-67.5 -55.5t-61.5 -41.5t-13.5 -35.5v-4h-117z" />
    <glyph glyph-name="abngahoa" unicode="&#xf015;" 
d="M-698 1999q-52 0 -68 -60h-88q20 96 58 141.5t102 45.5q32 0 65 -10l74 -19q28 -4 43 -4q46 0 66 68h86q-21 -98 -60.5 -146.5t-89.5 -48.5t-70 6l-69 21q-19 6 -49 6z" />
    <glyph glyph-name="abngahoa" unicode="&#xf02f;" 
d="M-698 1999q-52 0 -68 -60h-88q20 96 58 141.5t102 45.5q32 0 65 -10l74 -19q28 -4 43 -4q46 0 66 68h86q-21 -98 -60.5 -146.5t-89.5 -48.5t-70 6l-69 21q-19 6 -49 6z" />
    <glyph glyph-name="abngahoa" unicode="&#xf02d;" 
d="M-698 1999q-52 0 -68 -60h-88q20 96 58 141.5t102 45.5q32 0 65 -10l74 -19q28 -4 43 -4q46 0 66 68h86q-21 -98 -60.5 -146.5t-89.5 -48.5t-70 6l-69 21q-19 6 -49 6z" />
    <glyph glyph-name="aangath" unicode="&#xf018;" 
d="M-422 1554q-50 0 -70 7l-69 20q-19 6 -49 6q-52 0 -68 -59h-88q20 96 58 141t102 45q32 0 65 -10l74 -18q23 -5 43 -5q46 0 66 68h86q-21 -98 -60.5 -146.5t-89.5 -48.5z" />
    <glyph glyph-name="angath" unicode="&#xf019;" 
d="M-618 1407q31 0 65 -10l74 -19q28 -4 43 -4q47 0 65 68h86q-22 -100 -60.5 -147.5t-103.5 -47.5q-34 0 -55 6l-69 21q-19 6 -50 6q-51 0 -67 -59h-88q35 186 160 186z" />
    <glyph glyph-name="angath" unicode="&#xf01b;" 
d="M-618 1407q31 0 65 -10l74 -19q28 -4 43 -4q47 0 65 68h86q-22 -100 -60.5 -147.5t-103.5 -47.5q-34 0 -55 6l-69 21q-19 6 -50 6q-51 0 -67 -59h-88q35 186 160 186z" />
    <glyph glyph-name="angath" unicode="&#xf01a;" 
d="M-618 1407q31 0 65 -10l74 -19q28 -4 43 -4q47 0 65 68h86q-22 -100 -60.5 -147.5t-103.5 -47.5q-34 0 -55 6l-69 21q-19 6 -50 6q-51 0 -67 -59h-88q35 186 160 186z" />
    <glyph glyph-name="nga" unicode="&#xf01d;" horiz-adv-x="2" 
d="M-240 1241q-34 0 -55 6l-70 21q-18 6 -49 6q-50 0 -67 -60h-88q18 96 56.5 141.5t102.5 45.5q32 0 66 -10l74 -19q28 -4 43 -4q47 0 65 68h86q-22 -100 -61 -147.5t-103 -47.5z" />
    <glyph glyph-name="anangth" unicode="&#xf023;" 
d="M-674 -238v2q0 51 34 88t86 37t89 -37t37 -88t-36.5 -87.5t-77.5 -36.5t-86.5 27.5t-45.5 94.5z" />
    <glyph glyph-name="anangth" unicode="&#xf02c;" 
d="M-674 -238v2q0 51 34 88t86 37t89 -37t37 -88t-36.5 -87.5t-77.5 -36.5t-86.5 27.5t-45.5 94.5z" />
    <glyph glyph-name="anangth" unicode="&#xf028;" 
d="M-674 -238v2q0 51 34 88t86 37t89 -37t37 -88t-36.5 -87.5t-77.5 -36.5t-86.5 27.5t-45.5 94.5z" />
    <glyph glyph-name="anangth" unicode="&#xf027;" 
d="M-674 -238v2q0 51 34 88t86 37t89 -37t37 -88t-36.5 -87.5t-77.5 -36.5t-86.5 27.5t-45.5 94.5z" />
    <glyph glyph-name="anangth" unicode="&#xf026;" 
d="M-674 -238v2q0 51 34 88t86 37t89 -37t37 -88t-36.5 -87.5t-77.5 -36.5t-86.5 27.5t-45.5 94.5z" />
    <glyph glyph-name="anangth" unicode="&#xf025;" 
d="M-674 -238v2q0 51 34 88t86 37t89 -37t37 -88t-36.5 -87.5t-77.5 -36.5t-86.5 27.5t-45.5 94.5z" />
    <glyph glyph-name="anangth" unicode="&#xf024;" 
d="M-674 -238v2q0 51 34 88t86 37t89 -37t37 -88t-36.5 -87.5t-77.5 -36.5t-86.5 27.5t-45.5 94.5z" />
    <glyph glyph-name="nang" unicode="&#xf02a;" horiz-adv-x="2" 
d="M-428 -254v2q0 51 34.5 88t86.5 37t88.5 -36.5t36.5 -88.5t-38 -88.5t-78 -36.5t-85 27t-45 96z" />
    <glyph glyph-name="lslash" horiz-adv-x="727" 
d="M526 379q0 -76 12.5 -107.5t57.5 -44.5v-227h-451v227q42 7 55 44t13 126v195l-166 -86v223l166 84v342q0 72 -11 99t-57 44v224h381v-615l166 86v-223l-166 -84v-307z" />
    <glyph glyph-name="dotaccent" horiz-adv-x="1024" 
d="M377 1433q0 34 29 85t96 51t106 -40t39 -96t-39.5 -95.5t-84.5 -39.5t-76 18.5t-50.5 50.5t-19.5 66z" />
    <glyph glyph-name="hungarumlaut" horiz-adv-x="1024" 
d="M717 1620h229l-270 -371h-113zM410 1620h221l-232 -371h-104z" />
    <glyph glyph-name="fi" horiz-adv-x="1305" 
d="M799 1340q0 58 24 99.5t65.5 66t101.5 24.5t111.5 -51t51.5 -113t-38 -126t-138 -64q-70 0 -124 53t-54 111zM1149 379q0 -76 12.5 -107.5t57.5 -44.5v-227h-451v227q42 7 56 45t14 125v355q0 70 -11.5 98t-58.5 45v223h381v-739zM115 0v227q43 14 55 42.5t12 92.5v510
h-67v246h67v96q0 158 82.5 239t239.5 81q66 0 143 -18v-224h-33q-118 0 -118 -129v-45h129v-246h-129v-507q0 -66 13 -96t56 -42v-227h-450z" />
    <glyph glyph-name="aa" horiz-adv-x="2" 
d="M440 1505q72 0 107 27t39 88h98q-12 -165 -88 -202.5t-174 -37.5t-158 58.5t-67 181.5h96q6 -62 40.5 -88.5t106.5 -26.5z" />
    <glyph glyph-name="ab" horiz-adv-x="2" 
d="M197 1620h200l166 -262h-119l-147 153l-150 -153h-116z" />
    <glyph glyph-name="abth" horiz-adv-x="1133" 
d="M461 1479h201l165 -262h-118l-148 153l-149 -153h-117zM406 315q0 -40 24 -65t66 -25q86 0 180 109v192q-147 -58 -208.5 -102t-61.5 -109zM72 276q0 130 62.5 205t184.5 129.5t357 128.5v64q0 65 -27 95t-86 30q-114 0 -114 -129v-35h-314v258q221 117 445 117
q289 0 349 -121.5t60 -255.5v-373q0 -84 13 -118t61 -44v-227h-375v117q-147 -135 -328 -135q-133 0 -210.5 82t-77.5 212z" />
    <glyph glyph-name="abhoa" horiz-adv-x="1223" 
d="M518 1864h201l166 -262h-119l-148 153l-149 -153h-117zM432 332q0 -74 82 -76v-256h-467v256q41 12 59 47.5t33 112.5l215 1106h523l237 -1131q13 -64 31.5 -94t56.5 -41v-256h-518v256q38 3 57 22.5t19 43.5t-4 51l-13 63h-294l-13 -57q-4 -28 -4 -47zM487 653h207
l-104 582z" />
    <glyph glyph-name="ebth" horiz-adv-x="1081" 
d="M457 1470h200l166 -262h-118l-148 154l-149 -154h-117zM416 723v-31h270v45q0 89 -32 131.5t-104 42.5t-103 -45t-31 -143zM416 397q0 -97 30.5 -141.5t104.5 -44.5q135 0 135 160v6h309v-266q-198 -129 -444 -129q-313 0 -382 128t-69 269v360q0 140 68 270t383 130
q235 0 339.5 -96t104.5 -304v-245h-579v-97z" />
    <glyph glyph-name="ebhoa" horiz-adv-x="1262" 
d="M553 1864h201l166 -262h-119l-148 153l-149 -153h-117zM102 0v256q64 13 71 55.5t7 102.5v704q0 82 -13 114.5t-65 43.5v246h1072v-465h-330v16q0 90 -40 124t-142 34h-130v-318h416v-256h-416v-366h154q92 0 125 36.5t33 127.5v55h330v-510h-1072z" />
    <glyph glyph-name="obth" horiz-adv-x="1100" 
d="M442 1470h201l166 -262h-119l-147 154l-150 -154h-117zM678 723q0 99 -29 143.5t-98 44.5t-99 -45.5t-30 -142.5v-326q0 -98 29 -142t99 -44t99 44t29 142v326zM999 739v-360q0 -141 -68 -269t-381 -128t-381.5 128t-68.5 269v360q0 140 68 270t383 130q238 0 343 -95
t105 -305z" />
    <glyph glyph-name="obhoa" horiz-adv-x="1239" 
d="M530 1872h201l166 -262h-119l-147 153l-150 -153h-116zM459 1022v-522q0 -117 37 -170.5t125 -53.5t123.5 54t35.5 170v522q0 115 -35 169t-124 54t-125.5 -53.5t-36.5 -169.5zM109 1010q0 202 37 326.5t177 170t297 45.5t261.5 -35t162.5 -107t72 -159t14 -241v-498
q0 -154 -14 -241t-72 -159q-114 -143 -423 -143q-409 0 -460.5 170t-51.5 373v498z" />
    <glyph glyph-name="athsac" horiz-adv-x="1133" 
d="M635 1505h207l-250 -264h-113zM406 315q0 -40 24 -65t66 -25q86 0 180 109v192q-147 -58 -208.5 -102t-61.5 -109zM72 276q0 130 62.5 205t184.5 129.5t357 128.5v64q0 65 -27 95t-86 30q-114 0 -114 -129v-35h-314v258q221 117 445 117q289 0 349 -121.5t60 -255.5v-373
q0 -84 13 -118t61 -44v-227h-375v117q-147 -135 -328 -135q-133 0 -210.5 82t-77.5 212z" />
    <glyph glyph-name="athhuyen" horiz-adv-x="1133" 
d="M354 1505h207l156 -264h-113zM406 315q0 -40 24 -65t66 -25q86 0 180 109v192q-147 -58 -208.5 -102t-61.5 -109zM72 276q0 130 62.5 205t184.5 129.5t357 128.5v64q0 65 -27 95t-86 30q-114 0 -114 -129v-35h-314v258q221 117 445 117q289 0 349 -121.5t60 -255.5v-373
q0 -84 13 -118t61 -44v-227h-375v117q-147 -135 -328 -135q-133 0 -210.5 82t-77.5 212z" />
    <glyph glyph-name="athnga" horiz-adv-x="1133" 
d="M684 1247q-50 0 -70 6l-69 21q-19 6 -49 6q-52 0 -68 -59h-88q20 96 58 141t102 45q32 0 65 -10l74 -19q28 -4 43 -4q46 0 66 68h86q-21 -98 -60.5 -146.5t-89.5 -48.5zM406 315q0 -40 24 -65t66 -25q86 0 180 109v192q-147 -58 -208.5 -102t-61.5 -109zM72 276
q0 130 62.5 205t184.5 129.5t357 128.5v64q0 65 -27 95t-86 30q-114 0 -114 -129v-35h-314v258q221 117 445 117q289 0 349 -121.5t60 -255.5v-373q0 -84 13 -118t61 -44v-227h-375v117q-147 -135 -328 -135q-133 0 -210.5 82t-77.5 212z" />
    <glyph glyph-name="ahoasac" horiz-adv-x="1223" 
d="M651 1878h207l-250 -264h-112zM432 332q0 -74 82 -76v-256h-467v256q41 12 59 47.5t33 112.5l215 1106h523l237 -1131q13 -64 31.5 -94t56.5 -41v-256h-518v256q38 3 57 22.5t19 43.5t-4 51l-13 63h-294l-13 -57q-4 -28 -4 -47zM487 653h207l-104 582z" />
    <glyph glyph-name="ahoahuyen" horiz-adv-x="1223" 
d="M412 1898h206l156 -264h-112zM432 332q0 -74 82 -76v-256h-467v256q41 12 59 47.5t33 112.5l215 1106h523l237 -1131q13 -64 31.5 -94t56.5 -41v-256h-518v256q38 3 57 22.5t19 43.5t-4 51l-13 63h-294l-13 -57q-4 -28 -4 -47zM487 653h207l-104 582z" />
    <glyph glyph-name="ahoanga" horiz-adv-x="1223" 
d="M870 1835q-42 -195 -148 -195q-50 0 -71 7l-69 20q-19 6 -50 6q-51 0 -67 -59h-88q36 186 160 186q31 0 65 -10l74 -18q23 -5 43 -5q47 0 65 68h86zM432 332q0 -74 82 -76v-256h-467v256q41 12 59 47.5t33 112.5l215 1106h523l237 -1131q13 -64 31.5 -94t56.5 -41v-256
h-518v256q38 3 57 22.5t19 43.5t-4 51l-13 63h-294l-13 -57q-4 -28 -4 -47zM487 653h207l-104 582z" />
    <glyph glyph-name="ethsac" horiz-adv-x="1081" 
d="M573 1505h207l-250 -264h-112zM416 723v-31h270v45q0 89 -32 131.5t-104 42.5t-103 -45t-31 -143zM416 397q0 -97 30.5 -141.5t104.5 -44.5q135 0 135 160v6h309v-266q-198 -129 -444 -129q-313 0 -382 128t-69 269v360q0 140 68 270t383 130q235 0 339.5 -96t104.5 -304
v-245h-579v-97z" />
    <glyph glyph-name="ethhuyen" horiz-adv-x="1081" 
d="M334 1495h207l155 -264h-112zM416 723v-31h270v45q0 89 -32 131.5t-104 42.5t-103 -45t-31 -143zM416 397q0 -97 30.5 -141.5t104.5 -44.5q135 0 135 160v6h309v-266q-198 -129 -444 -129q-313 0 -382 128t-69 269v360q0 140 68 270t383 130q235 0 339.5 -96t104.5 -304
v-245h-579v-97z" />
    <glyph glyph-name="ehoasac" horiz-adv-x="1262" 
d="M705 1888h206l-249 -264h-113zM102 0v256q64 13 71 55.5t7 102.5v704q0 82 -13 114.5t-65 43.5v246h1072v-465h-330v16q0 90 -40 124t-142 34h-130v-318h416v-256h-416v-366h154q92 0 125 36.5t33 127.5v55h330v-510h-1072z" />
    <glyph glyph-name="ehoahuyen" horiz-adv-x="1262" 
d="M403 1898h207l156 -264h-113zM102 0v256q64 13 71 55.5t7 102.5v704q0 82 -13 114.5t-65 43.5v246h1072v-465h-330v16q0 90 -40 124t-142 34h-130v-318h416v-256h-416v-366h154q92 0 125 36.5t33 127.5v55h330v-510h-1072z" />
    <glyph glyph-name="othsac" horiz-adv-x="1100" 
d="M575 1495h207l-250 -264h-112zM678 723q0 99 -29 143.5t-98 44.5t-99 -45.5t-30 -142.5v-326q0 -98 29 -142t99 -44t99 44t29 142v326zM999 739v-360q0 -141 -68 -269t-381 -128t-381.5 128t-68.5 269v360q0 140 68 270t383 130q238 0 343 -95t105 -305z" />
    <glyph glyph-name="othhuyen" horiz-adv-x="1100" 
d="M356 1495h207l156 -264h-113zM678 723q0 99 -29 143.5t-98 44.5t-99 -45.5t-30 -142.5v-326q0 -98 29 -142t99 -44t99 44t29 142v326zM999 739v-360q0 -141 -68 -269t-381 -128t-381.5 128t-68.5 269v360q0 140 68 270t383 130q238 0 343 -95t105 -305z" />
    <glyph glyph-name="othnga" horiz-adv-x="1100" 
d="M646 1247q-50 0 -71 6l-69 21q-19 6 -49 6q-52 0 -68 -59h-88q20 96 58 141t102 45q32 0 65 -10l74 -19q28 -4 43 -4q46 0 66 68h86q-21 -98 -60 -146.5t-89 -48.5zM678 723q0 99 -29 143.5t-98 44.5t-99 -45.5t-30 -142.5v-326q0 -98 29 -142t99 -44t99 44t29 142v326z
M999 739v-360q0 -141 -68 -269t-381 -128t-381.5 128t-68.5 269v360q0 140 68 270t383 130q238 0 343 -95t105 -305z" />
    <glyph glyph-name="ohoasac" horiz-adv-x="1239" 
d="M635 1929h207l-250 -264h-113zM459 1022v-522q0 -117 37 -170.5t125 -53.5t123.5 54t35.5 170v522q0 115 -35 169t-124 54t-125.5 -53.5t-36.5 -169.5zM109 1010q0 202 37 326.5t177 170t297 45.5t261.5 -35t162.5 -107t72 -159t14 -241v-498q0 -154 -14 -241t-72 -159
q-114 -143 -423 -143q-409 0 -460.5 170t-51.5 373v498z" />
    <glyph glyph-name="ohoahuyen" horiz-adv-x="1239" 
d="M395 1929h207l156 -264h-113zM459 1022v-522q0 -117 37 -170.5t125 -53.5t123.5 54t35.5 170v522q0 115 -35 169t-124 54t-125.5 -53.5t-36.5 -169.5zM109 1010q0 202 37 326.5t177 170t297 45.5t261.5 -35t162.5 -107t72 -159t14 -241v-498q0 -154 -14 -241t-72 -159
q-114 -143 -423 -143q-409 0 -460.5 170t-51.5 373v498z" />
    <glyph glyph-name="ohoanga" horiz-adv-x="1239" 
d="M547 1704q-49 0 -68 -59h-88q20 96 58 141t102 45q32 0 65 -10l74 -19q30 -4 43 -4q46 0 66 68h86q-21 -98 -60 -146.5t-89 -48.5t-70 6l-70 21q-18 6 -49 6zM459 1022v-522q0 -117 37 -170.5t125 -53.5t123.5 54t35.5 170v522q0 115 -35 169t-124 54t-125.5 -53.5
t-36.5 -169.5zM109 1010q0 202 37 326.5t177 170t297 45.5t261.5 -35t162.5 -107t72 -159t14 -241v-498q0 -154 -14 -241t-72 -159q-114 -143 -423 -143q-409 0 -460.5 170t-51.5 373v498z" />
    <glyph glyph-name="ithsac" horiz-adv-x="633" 
d="M309 1505h207l-250 -264h-112zM479 379q0 -78 11.5 -108.5t56.5 -43.5v-227h-451v227q43 7 56.5 44t13.5 126v355q0 70 -11.5 98t-58.5 45v223h383v-739z" />
    <glyph glyph-name="ithhuyen" horiz-adv-x="633" 
d="M59 1495h207l156 -264h-113zM479 379q0 -78 11.5 -108.5t56.5 -43.5v-227h-451v227q43 7 56.5 44t13.5 126v355q0 70 -11.5 98t-58.5 45v223h383v-739z" />
    <glyph glyph-name="ihoasac" horiz-adv-x="725" 
d="M397 1898h207l-250 -264h-112zM539 414q0 -60 6.5 -103t68.5 -55v-256h-505v256q63 13 70 55.5t7 102.5v704q0 82 -13 114.5t-64 43.5v246h505v-246q-62 -12 -68.5 -56t-6.5 -102v-704z" />
    <glyph glyph-name="ihoahuyen" horiz-adv-x="725" 
d="M137 1898h207l156 -264h-113zM539 414q0 -60 6.5 -103t68.5 -55v-256h-505v256q63 13 70 55.5t7 102.5v704q0 82 -13 114.5t-64 43.5v246h505v-246q-62 -12 -68.5 -56t-6.5 -102v-704z" />
    <glyph glyph-name="uthsac" horiz-adv-x="1204" 
d="M637 1495h207l-250 -264h-113zM455 782v-352q0 -105 31 -156t101 -51t142 56v460q0 79 -12 110t-58 42v227h381v-749q0 -90 18 -112t52 -34v-223h-381v72q-132 -78 -256 -78t-197.5 42.5t-104 127.5t-30.5 225v340q0 80 -10.5 117t-40.5 45v227h332q33 -90 33 -336z" />
    <glyph glyph-name="uthhuyen" horiz-adv-x="1204" 
d="M305 1485h207l156 -264h-113zM455 782v-352q0 -105 31 -156t101 -51t142 56v460q0 79 -12 110t-58 42v227h381v-749q0 -90 18 -112t52 -34v-223h-381v72q-132 -78 -256 -78t-197.5 42.5t-104 127.5t-30.5 225v340q0 80 -10.5 117t-40.5 45v227h332q33 -90 33 -336z" />
    <glyph glyph-name="uhoasac" horiz-adv-x="1327" 
d="M772 1888h207l-250 -264h-113zM94 1522h510v-246q-50 -16 -64 -56t-14 -128v-590q0 -154 51 -190t109 -36q166 0 166 220v639q0 67 -17.5 98t-62.5 43v246h461v-246q-51 -11 -66.5 -46.5t-15.5 -115.5v-631q0 -172 -27.5 -243.5t-77.5 -131.5t-148.5 -99.5t-228.5 -39.5
q-265 0 -378 128.5t-113 410.5v614q0 74 -14.5 104t-69.5 50v246z" />
    <glyph glyph-name="uhoahuyen" horiz-adv-x="1327" 
d="M420 1878h207l155 -264h-112zM94 1522h510v-246q-50 -16 -64 -56t-14 -128v-590q0 -154 51 -190t109 -36q166 0 166 220v639q0 67 -17.5 98t-62.5 43v246h461v-246q-51 -11 -66.5 -46.5t-15.5 -115.5v-631q0 -172 -27.5 -243.5t-77.5 -131.5t-148.5 -99.5t-228.5 -39.5
q-265 0 -378 128.5t-113 410.5v614q0 74 -14.5 104t-69.5 50v246z" />
    <glyph glyph-name="ythsac" horiz-adv-x="1049" 
d="M623 1475h206l-249 -265h-113zM223 -160h8q57 0 89 22.5t53 80.5l-275 843q-30 98 -75 109v223h438v-223q-41 -11 -41 -57q0 -18 6 -45l119 -496l106 496q6 21 6 52t-41 50v223h412v-223q-30 -11 -44 -32.5t-28 -67.5l-206 -750q-67 -248 -152 -354.5t-248 -106.5
q-74 0 -127 13v243z" />
    <glyph glyph-name="yhoasac" horiz-adv-x="1128" 
d="M662 1898h206l-250 -264h-112zM319 0v256q44 9 62 42t18 101v185l-295 602q-37 79 -81 90v246h446v-187q0 -100 29 -161l102 -211l100 202q33 66 33 170v187h391v-246q-42 -13 -82 -88l-292 -586v-199q0 -77 13.5 -108.5t63.5 -38.5v-256h-508z" />
    <glyph glyph-name="aasachoa" 
d="M-512 2130h207l-250 -264h-113z" />
    <glyph glyph-name="aahuyenhoa" 
d="M-895 2140h207l156 -264h-113z" />
    <glyph glyph-name="aahoihoa" 
d="M-666 1876v33q0 34 10 52.5t38 39.5q30 21 69 45.5t39 54.5q0 45 -53 45t-53 -59v-14h-115v120q67 48 166 48q178 0 178 -144q0 -59 -20 -84t-57 -49q-55 -35 -70 -47t-15 -37v-4h-117z" />
    <glyph glyph-name="aangahoa" 
d="M-324 2118q-42 -195 -148 -195q-50 0 -71 6l-69 21q-19 6 -50 6q-50 0 -67 -60h-88q36 187 160 187q32 0 65 -10l74 -19q28 -4 43 -4q47 0 65 68h86z" />
    <glyph glyph-name="cth" 
d="M-563 1341q72 0 106.5 27t38.5 88h99q-9 -124 -67.5 -181.5t-175.5 -57.5t-177.5 58t-67.5 181h96q8 -62 42 -88.5t106 -26.5z" />
    <glyph glyph-name="csacth" 
d="M-469 1751h207l-250 -264h-113zM-563 1341q72 0 106.5 27t38.5 88h99q-9 -124 -67.5 -181.5t-175.5 -57.5t-177.5 58t-67.5 181h96q8 -62 42 -88.5t106 -26.5z" />
    <glyph glyph-name="chuyenth" 
d="M-842 1751h207l156 -264h-113zM-563 1341q72 0 106.5 27t38.5 88h99q-9 -124 -67.5 -181.5t-175.5 -57.5t-177.5 58t-67.5 181h96q8 -62 42 -88.5t106 -26.5z" />
    <glyph glyph-name="choith" 
d="M-532 1851q178 0 178 -143q0 -59 -21 -85.5t-67 -55.5t-60 -40.5t-14 -35.5v-4h-117v33q0 34 8.5 52.5t34.5 36.5t56 37t43.5 33t13.5 33q1 45 -53 45t-54 -59v-15h-114v121q65 47 166 47zM-563 1341q72 0 106.5 27t38.5 88h99q-9 -124 -67.5 -181.5t-175.5 -57.5
t-177.5 58t-67.5 181h96q8 -62 42 -88.5t106 -26.5z" />
    <glyph glyph-name="cngath" 
d="M-281 1769q-43 -194 -149 -194q-50 0 -70 6l-69 21q-19 6 -49 6q-52 0 -68 -60h-88q36 187 160 187q33 0 65 -11l74 -18q28 -4 43 -4q47 0 65 67h86zM-563 1341q72 0 106.5 27t38.5 88h99q-9 -124 -67.5 -181.5t-175.5 -57.5t-177.5 58t-67.5 181h96q8 -62 42 -88.5
t106 -26.5z" />
    <glyph glyph-name="cnangth" 
d="M-690 -240v2q0 51 34.5 88t86.5 37t88.5 -36.5t36.5 -88.5t-38 -88t-78 -36t-85 27.5t-45 94.5zM-563 1341q72 0 106.5 27t38.5 88h99q-9 -124 -67.5 -181.5t-175.5 -57.5t-177.5 58t-67.5 181h96q8 -62 42 -88.5t106 -26.5z" />
    <glyph glyph-name="choa" 
d="M-604 1720q72 0 106.5 27t38.5 88h99q-9 -124 -67.5 -182t-176.5 -58t-177.5 58.5t-66.5 181.5h96q8 -62 42 -88.5t106 -26.5z" />
    <glyph glyph-name="csachoa" 
d="M-510 2130h207l-250 -264h-113zM-604 1720q72 0 106.5 27t38.5 88h99q-9 -124 -67.5 -182t-176.5 -58t-177.5 58.5t-66.5 181.5h96q8 -62 42 -88.5t106 -26.5z" />
    <glyph glyph-name="chuyenhoa" 
d="M-883 2130h207l156 -264h-113zM-604 1720q72 0 106.5 27t38.5 88h99q-9 -124 -67.5 -182t-176.5 -58t-177.5 58.5t-66.5 181.5h96q8 -62 42 -88.5t106 -26.5z" />
    <glyph glyph-name="choihoa" 
d="M-573 2230q178 0 178 -143q0 -59 -21.5 -86t-57.5 -49q-52 -32 -67.5 -44.5t-15.5 -37.5v-4h-117v32q0 35 9 53.5t35 36.5t55.5 37t43 33t13.5 33q0 45 -54 45t-53 -59v-15h-114v121q65 47 166 47zM-604 1720q72 0 106.5 27t38.5 88h99q-9 -124 -67.5 -182t-176.5 -58
t-177.5 58.5t-66.5 181.5h96q8 -62 42 -88.5t106 -26.5z" />
    <glyph glyph-name="cngahoa" 
d="M-322 2148q-42 -194 -148 -194q-50 0 -71 6l-69 20q-19 7 -49 7q-52 0 -68 -60h-88q36 187 160 187q29 0 65 -11l74 -18q28 -4 43 -4q47 0 65 67h86zM-604 1720q72 0 106.5 27t38.5 88h99q-9 -124 -67.5 -182t-176.5 -58t-177.5 58.5t-66.5 181.5h96q8 -62 42 -88.5
t106 -26.5z" />
    <glyph glyph-name="cnanghoa" 
d="M-752 -219v2q0 51 34 88t86 37t89 -37t37 -89t-36.5 -88t-77.5 -36t-86.5 27.5t-45.5 95.5zM-604 1720q72 0 106.5 27t38.5 88h99q-9 -124 -67.5 -182t-176.5 -58t-177.5 58.5t-66.5 181.5h96q8 -62 42 -88.5t106 -26.5z" />
    <glyph glyph-name="bth" 
d="M-664 1477h201l166 -263h-119l-147 154l-150 -154h-116z" />
    <glyph glyph-name="bsacth" 
d="M-182 1649h207l-250 -265h-113zM-664 1477h201l166 -263h-119l-147 154l-150 -154h-116z" />
    <glyph glyph-name="bhuyenth" 
d="M-575 1700h206l156 -264h-113zM-664 1477h201l166 -263h-119l-147 154l-150 -154h-116z" />
    <glyph glyph-name="bhoith" 
d="M-336 1395v32q0 35 9 53.5t35 36.5t55.5 37t43 33t13.5 33q0 45 -56 45q-51 0 -51 -59v-15h-114v121q65 47 165 47q179 0 179 -143q0 -59 -20.5 -84.5t-70.5 -57.5t-60.5 -41.5t-10.5 -33.5v-4h-117zM-664 1477h201l166 -263h-119l-147 154l-150 -154h-116z" />
    <glyph glyph-name="bngath" 
d="M-460 1585q-50 0 -70 6l-70 21q-18 6 -49 6q-52 0 -68 -59h-88q20 96 58 141t102 45q32 0 65 -10l74 -19q28 -4 43 -4q46 0 66 68h86q-21 -98 -60 -146.5t-89 -48.5zM-664 1477h201l166 -263h-119l-147 154l-150 -154h-116z" />
    <glyph glyph-name="bnangth" 
d="M-680 -229v2q0 51 34.5 88t86.5 37t88.5 -36.5t36.5 -88.5t-38 -88.5t-78 -36.5t-85 27.5t-45 95.5zM-664 1477h201l166 -263h-119l-147 154l-150 -154h-116z" />
    <glyph glyph-name="bhoa" 
d="M-715 1876h201l166 -262h-119l-147 153l-150 -153h-117z" />
    <glyph glyph-name="bsachoa" 
d="M-233 2048h206l-249 -264h-113zM-715 1876h201l166 -262h-119l-147 153l-150 -153h-117z" />
    <glyph glyph-name="bhuyenhoa" 
d="M-627 2099h207l156 -264h-113zM-715 1876h201l166 -262h-119l-147 153l-150 -153h-117z" />
    <glyph glyph-name="bhoihoa" 
d="M-387 1794v33q0 34 11 56.5t64.5 55.5t67 48t13.5 32q0 45 -56 45q-51 0 -51 -59v-14h-115v120q67 48 166 48q178 0 178 -144q0 -58 -19 -83.5t-67 -55.5t-61.5 -42t-13.5 -36v-4h-117zM-715 1876h201l166 -262h-119l-147 153l-150 -153h-117z" />
    <glyph glyph-name="bngahoa" 
d="M-512 1985q-50 0 -70 6l-69 20q-19 6 -49 6q-52 0 -68 -59h-88q20 96 58 141t102 45q32 0 65 -10l74 -18q35 -5 43 -5q47 0 65 68h87q-21 -99 -60.5 -146.5t-89.5 -47.5zM-715 1876h201l166 -262h-119l-147 153l-150 -153h-117z" />
    <glyph glyph-name="bnanghoa" 
d="M-741 -240v2q0 51 34.5 88t85.5 37t88 -37t37 -88t-36.5 -87.5t-77.5 -36.5t-86 27.5t-45 94.5zM-715 1876h201l166 -262h-119l-147 153l-150 -153h-117z" />
    <glyph glyph-name="isachoa" horiz-adv-x="2" 
d="M-315 1876h206l-249 -264h-113z" />
    <glyph glyph-name="ihuyenhoa" horiz-adv-x="2" 
d="M-582 1886h207l156 -264h-113z" />
    <glyph glyph-name="ihoihoa" horiz-adv-x="2" 
d="M-408 1610v32q0 35 10 53.5t38 39.5q30 21 69 45.5t39 54.5q0 45 -53 45t-53 -59v-15h-115v121q65 47 166 47q178 0 178 -143q0 -59 -21.5 -86t-57.5 -49q-52 -32 -67.5 -44.5t-15.5 -37.5v-4h-117z" />
    <glyph glyph-name="ingahoa" horiz-adv-x="2" 
d="M-424 1683q-49 0 -68 -59h-88q20 96 58 141t102 45q32 0 66 -10l73 -18q30 -4 43 -4q48 0 66 67h86q-21 -99 -60.5 -146.5t-89.5 -47.5t-69 6l-70 20q-18 6 -49 6z" />
    <glyph glyph-name="inanghoa" horiz-adv-x="2" 
d="M-479 -254v2q0 51 34.5 88t86.5 37t88.5 -36.5t36.5 -88.5t-37.5 -88.5t-77.5 -36.5t-85.5 27t-45.5 96z" />
    <glyph glyph-name="nonbreakingspace" horiz-adv-x="1305" 
 />
  </font>
</defs>
</svg>
